<?xml version="1.0" encoding="UTF-8"?>
<svg id="Layer_1" xmlns="http://www.w3.org/2000/svg" version="1.1" viewBox="0 0 300 300">
  <!-- Generator: Adobe Illustrator 29.8.3, SVG Export Plug-In . SVG Version: 2.1.1 Build 3)  -->
  <defs>
    <style>
      .st0 {
        fill: #231f20;
      }

      .st1 {
        fill: #ffbfc7;
      }
    </style>
  </defs>
  <path class="st1" d="M140.37,110.92h.9c.18-1.03-.39-1.87-1.35-2.26l.45,2.26Z"/>
  <path class="st1" d="M138.55,103.69h-.9c-.18,2.34,1.82,2.23.9,0Z"/>
  <path class="st1" d="M136.3,100.52c-.68.68,1.35,1.93,1.35.68,0-.3-1.09-.94-1.35-.68Z"/>
  <path class="st1" d="M93.32,76.33c1.89-.58,1.96,3.04,2.49,4.29.86-.61.59-.89.38-1.7-.53-2.04-1.78-2.67-.52-5.22,1.27-2.55,1.27,2.56,1.36,2.99.28,1.23,3.52,9.65,4.23,10.69.71,1.03,1.99,1.7,2.56,2.87,1.42,2.95.56,6.24,5.26,6.59.02-1.27,1.54-1.11,1.78-1.38.38-.44-.21-2.45,1.46-2.16-.33,1.1-.39,4.25-.15,5.34.43,1.93,3.11,3.47,2.42,5.96l1.8-.9,1.37,5.42c.64.64.83-.05.91-.68.26-2.13-1-5.1-.46-7.46.5-.08.86,0,1.13.45.27.43.86,6.33,1.26,7.79.72,2.68,3.64,7.3,3.95,9.17.04.26.12.74-.23.68l-2.94-3.61c-.59,3.68,2.29,6.24,3.7,9.19,1.13,2.38,2.08,5.28,3.31,7.56.34.63-.03,1.11,1.13.88l-4.07-10.85,1.36.3c-.14.8,3.15,8.01,3.61,7.38-.19-3.1-2.5-5.87-3.71-8.72-.45-1.05-.34-2.24-.78-3.29-.45-1.07-4.05-7.43-3.64-7.89,1.05-.15,1.43.79,1.89,1.49,3.07,4.62,4.12,11.11,7.38,15.69.82-1.9-.54-3.71-1.13-5.42.94-1.03,1.68,2.57,1.82,2.71.78.02.97.25.87-.64-.34-3.1-2.39-5.76-2.68-8.85,1.2-.25.78.3,1.12.89.73,1.25,1.31,2.66,1.59,4.08.25.2.86-.56.88-1.1.07-1.84-3.4-6.89-3.1-8.09.07-.3.68-.89.86-.75l3.39,8.6,1.12-.22-8.12-20.58c1.05-.15,1.43.79,1.89,1.49,2.82,4.24,4.51,10.25,6.94,14.78.51.74.43.34.9.02,2.56-1.75.96-6.42-1.19-7.9-.39-.27-1.22-.19-1.29-.27-.21-.22.49-2.16.47-2.91-.09-3.3-3.68-2.19-3.62-5.44l-2.28-.91,1.8-1.57c-3.61-.96-8.85-2.6-8.14-7.24,1.76-.4,1.82,1.66,2.92,2.73.57.56,2.06,1.78,2.05.22-.34-.81-3.23-1.91-2.25-2.94.39-.41,2.67,1.1,3.49,1.25,1.42.26,2.85-.15,4.2.32l.44.46-.7,1.13c.58,1.34,3.47,3.66,3.67,4.08.27.55-.35,1.31-.05,1.81.16.26,4.48,3.18,4.77,1.58l-1.8-1.38.91-1.77-3.16-2.28c4.79-2.91-1.45-3.65-3.2-5.4-1.16-1.16-1.16-2.98-2.22-4.11-.78-.83-1.97-.94-2.72-1.8l2.48-.68c-1.28-1.43-5.54-1.23-4.52-3.62.44-.8,6.05,3.32,4.53.9-2.19-3.45-8.19-3.34-8.87-4.24-.38-.51-1.75-4.31-.41-4.57l-2.25-.9.9-1.58c-2.51.26-1.85-1.89-2.49-2.73-.56-.74-2.06.25-1.64-2.19-5.18.16-3.97-6.27-5.59-7.76-.64-.58-1.68-.29-2.28-.88-.71-.7-.39-2.31-1.84-3.13-1.05-.59-2.37-.31-2.81-.58-.27-.17-1.79-4.43-2.96-5.63-1.49-1.53-3.71-1.74-4.8-2.67-1.26-1.07-2.43-7.11-5.89-5.42-2.98,1.46,1.2,3.07,2.06,3.83,2.08,1.84,2.89,5.79,1.33,8.16-1.05-1.55-.7-3.14-2.03-4.75-.59-.71-1.42-1-2-1.62-.97-1.03-1.13-3.03-2.97-2.67-.53,1.29-.61,3.27.45,4.29.49.47,1.63.55,1.76.73.43.58-.58,2.11-.37,2.83.21.7,1.45.74,1.7,1.49.6,1.84-.88,5.04,2.77,4.69-.86,2.48,1.07,2.76,1.31,3.43.46,1.28-.9,5.46.52,7.4,2.37-1.12-1.56-4.48,1.12-4.97,1.8,1.8,2.45,3.79,2.49,6.33l1.57-.9c1.01.58.49,3.74,2.94,3.16-1.37-6.08,1.98-15.57-6.76-16.5l-1.75-2.79c.03-1.11,1-2.15,2.07-2.35,4.38-.83,7.73,7.74,6.9,11.24,5.48-.85,8.41,2.59,5.87,7.68-1.17.13-.72,0-.91-.66-.7-2.41-1.15-4.23-4.05-4.77-1,4.25,1.04,8.27-.45,12.66.92.1.42-2.87,1.57-2.25.87.47.65,2.11,1.11,2.85.25.41,1.11.44,1.31,1.05.31.96-.04,2.3.08,3.33l1.35-.45v4.52s-1.8-1.81-1.8-1.81c.11.77.11,2.97-1.13,2.71-.74-.57-1.41-1.61-1.46-2.56-.09-1.66,2.44-3.23.32-4.23.19,1.62-.97,2.67-.93,4.28.04,1.79,3.04,5.67,1.15,6.57l-2.84-5.77.36-5.08c-4.05.57-3.79-1.71-3.62-4.97l-.9,1.8c-1.4.14-1.42-1.22-1.36-2.26-1.07-.66-.87,1.76-1.8.91-.68-.62.01-3.73-1.14-4.52-.54,1.54-.79,3.47-2.93,2.49-.68-.31-1.09-1.9-2.04-.68-.95,1.37,0,6.44.45,8.14.08.3.24,1.39.68.67l.9-1.12,1.37,4.52c1.32-.68-.47-2.91-.46-3.84ZM132.55,87.53c-1.02.44-1.59.14-2.59-.13-.19-2.57,4.82-.83,2.59.13ZM128.38,102.79c.35.02,3.99,6.23,1.13,5.87.28-1.86-2.64-4.33-1.13-5.87ZM125.89,103.69l-1.36-.3-.9-2.86c.72-.78,2.61,2.85,2.26,3.16ZM123.71,104.29l2.64,5.73c1.92.3.24-2.2.45-3.16,1.13-1.21,3.19,5.68,3.6,6.11-1.09,1.52-1.71-1.02-2.48-1.59-1.11,1.53,3.12,7.88,2.49,8.59-1.01,1.13-2.99-5.1-3.23-5.59-1.52-3.17-3.56-6.39-4.99-9.48-.29-.62-1.67-3.1-.59-3.47.88-.3,1.41,2.42,2.11,2.86ZM124.34,78.78c3.06,1.31,2.96,6.21.87,6.35-.97.07.17-2.3-.65-3.42-.78-1.06-2.79-1.01-3.54-1.65-1.83-1.55,1.33-2.14,3.32-1.29ZM96.04,50.32c.06,1.4.7,2.61-.68,3.61-1.06-.98-1.16-2.33-.66-3.6h1.34ZM118.66,97.59c-.69-.29-1.36-3.37-1.36-4.07v-9.72c.87-.13,1.21.35,1.35,1.13.67,3.66-.82,8.38.91,12.2l-.91.47ZM117.3,75.65c1.42-1.01,1.94,1.52.67,1.81-1.23.28-1-1.57-.67-1.81ZM110.97,66.15c1.21.07,3.18-.27,4.22.41.56.36.5,1.35.98,1.83,1.58,1.6,4.98,1.16,2.96,5.69-2.57.87-1.93-1.96-2.51-2.96-.51-.88-3.01-1.01-3.31-1.45-.23-.34,0-1.18-.31-1.7-.57-.97-2.41-.38-2.04-1.82ZM110.96,82.88c-.19,1.37,1.22,3.01-.22,4.06-.86,0-1.2-3.84.22-4.06ZM107.8,82.89c1.36-.24.71.37.95,1.06.16.48,1.34,3.5.18,3.45-1.26-.06-1.28-3.54-1.13-4.51Z"/>
  <path class="st1" d="M143.3,101.88h-.67s0,2.25,0,2.25c2.1.12,2.33-1.09.67-2.25Z"/>
  <path class="st1" d="M92.42,60.95c.45.35.58.88,1.36.67-.44-1.19-.3-2.9-.75-3.96-.3-.72-3.24-2.68-3.73-3.54-.23-.4-1.56-5.85-2.08-5.61-2.92,4.62,1.61,9.67,5.2,12.44Z"/>
  <path class="st1" d="M140.36,100.97v-.67c-.6-.78-1.21-1.31-2.26-1.14-.44.93,1.94,2.14,2.26,1.8Z"/>
  <path class="st1" d="M201.87,199.36l.92-1.39c.17-1.76-2.37-3.94-3.97-4.2-5.08-.82-.91,7.14,3.05,5.59Z"/>
  <path class="st1" d="M125.22,179.21c17.51-.56,36.18,5.75,48.17,18.77,7.71,8.38,11.55,20.29,23.71,23.78,4.92,1.41,7.31-.34,10.33.07,1.08.14,2.04,1.37,2.92,1.61,3.01.82,4.19-1.52,6.13-1.56,1.3-.03,5.95,1.87,6.2,1.67-1.63-2.66-1.13-5.62,2.48-5.46,1.77.08,5.13,2.92,7.81,3.54,2.72.63,5.53.65,8.25.11.23-6.34-13.02-7.78-2.02-12.69,1.57-.17,1.42,1.28,1.79,1.39,1.63.48.87-.75,1.22-1.24.82-1.14,2.38-.43,2.24,1.15l1.75.07v-1.8c1.71-.28,2.26.44,2.95,1.82,1.12-1.37,3.8.26,3.84-1.57.05-2.34-4.19-3.34-5.62-5.25-2.8-3.73-2.44-8.32-5.69-11.95-.56-.63-2.05-1.15-2.2-1.87-.49-2.5,5.24-3.08,6.88-2.95l2.54-2.4c-2.09-5.54-11.58-3.46-13.66-8.5-1.75-4.26,2.53-4.09,5.34-5.28l.11-1.76c-5.89-3.25,2.45-6.89,5.97-7.09-1.74-3.23-8.05-3.63-8.5-7.34-.11-.89.45-1.72.41-2.62-.14-3.08-7.19-3.94-7.31-8.14-.03-1.18.75-2.36.42-3.51-.94-3.19-11.93-1.69-14.43-1.02-.67.18-1.6.35-1.79,1.14,2.59,1.28,5.17.62,7.8,1.02,5.71.86,2.41,7.58,7.19,9.09,1.27.4,2.73-.04,3.55.99-3.44,5.24,4.79,4.94,5.71,8.35.54,2.02-2.72,1.95-3.24,2.7-.87,1.25,1.79,5.21-1.83,5.43-2.46.15-6.38-3.96-8.77-5.19-.78-.4-1.14-1-1.81,0l9.03,6.34c.33.82-.51.82-1.05.6-.73-.3-6.16-4.51-6.63-4-.17,3.42,8.05,3.89,5.2,7.22-.7.04-5.24-3.54-6.43-3.96-.57-.2-1.42-.2-1.03.58.38.78,5.15,3.2,6.35,4.51,1.34,1.47,1.26,3.05,2.47,4.32,1.41,1.47,7.55,3.25,7.89,4.34.56,1.84-3.38,2.25-4.42,2.97-.86,3.57,1.97,4.87,3.56,7.38,1.01,1.6,1.77,4.16,2.77,5.83,1.13,1.88,3.44,2.62,2.64,5.72l-6.78-3.16c-.51.46,4.49,4.14.76,3.54-2.29-.37-6.66-5.58-9.81-5.35l8.58,6.1c-.76,1.06-.76.4-1.49.15-2.45-.85-4.47-3.31-7.1-3.53,1.05,2.08,4,2.7,5.44,4.29.62.69.34.56-.24,1.14l-2.93-1.35.9,2.25c-2.77.55-4.08-2.23-6.33-3.16-.59.65,2.75,3.21,3.16,3.84.45.69.16,1.15-.23,1.12-.29-.02-3.11-3.22-4.29-3.84-.71-.38-1.05-.45-.9.45,1.26,1.1,2.84,2.07,4.07,3.16.51.45,3.19,2.93,2.94,3.4-.57,1.06-1.11.14-1.59-.22-1.33-1.01-2.64-2.46-4.06-3.39-.17.86.18,1.22.65,1.84.38.49,4.76,3.2,2.73,3.59-2.34.45-7.18-3.42-7.67,2.27-.21.35-.52.43-.91.47-2.83.24-4.92-3.85-7.76,1.82-1.62.25-5.58-2.73-7.38-2.99-.81-.12-1.31,1.09-2.43,1.04-1.3-.05-3.02-1.8-4.72-2.06-4.13-.61-2.05.96-6.57-1.55-5.26-2.92-2.74-2.42-5.74-6.02-1.07-1.28-3.06-1.79-3.57-3.68l.63-1.06c3.42.53,3.1,3.96,5.69,5.16,1.29.59,8.8,2.8,10.19,2.97,1.29.16,1.03-.26,1.52-1.33-.9.27-3.82-2.12-3.16-2.72,2.29.43,3.59,1.99,6.1,2.26,7.87.84,15.97-4.4,14.27-13.1,3.79-.03,5.93-2.45,4.04-6.03-.26-.49-1.87-1.02-1.35-2.58,1.5-.04,4.23.57,4.53-1.61.35-2.53-3.86-4.19-4.09-6.33-.12-1.14,2.24-.83,2.66-2.33,1.01-3.65-3.96-5.46-4.04-5.83-.35-1.59,1.04-1.97,1.58-2.93,2.24-3.94-2.22-6.48-2-7.42,5.42-2.39,1.76-6.82-1.34-9.52v-.66c6.44-3.3-1.75-8.44-5.02-10.6-1.52-1.01-5.57-2.33-5.86-4.11-.03-1.14,1.79-1,2.59-1.72,2.07-1.87.39-5.08.59-5.28l4.07,1.8c-.6-1.31-2.55-1.86-2.26-3.61.63-.72,3.89,4.1,5.42,3.16,1.32-1.31-5.34-5.08-5.87-6.11,1.14-1.28,5.07,2.94,5.42,2.49.46-2-3.77-4.04-4-5.27-.14-.77,1.14-1.52.64-2.41l-2.96-2.5c1-1.19,3.92,1.78,4.52,1.13l-.45-4.07,2.25,1.35c.26-1.2-.09-.99-.56-1.49-.8-.86-4.05-2.86-3.31-4.38,3.18-2.78,2.07,1.17,2.61,2.16.29.52,3.1,1.4,3.51.99.11-.12-.2-2.01.7-2.25l1.8.9c.66-.48.72-.75.67-1.55-.17-2.52-4.48-6.42-6.31-8.19-.37-.36-1.25-.62-1.31-.73-.4-.69.95-1.75-.05-2.88-1.48-1.66-4.58,2-6.34,2.04-1.04-1.11,4.13-3.98,4.89-4.6l.09-1.01c-2.84-3.32,2.46-3.43,2.96-5.66.38-1.66-3.62-4.43-2.96-5.01l3.16,1.13c-4.13-6.05-5.26-1.99-9.19-.59-.53.19-1.23.3-1.2-.31.03-.59,6.73-6.09,8.12-6.13l-.89-2.69c2.42.35,3.98,2.6,3.61,4.97-4.01-1.41-.05,1.9.49,3.36.61,1.64.2,2.97.52,4.46.24,1.1,1.23,1.86,1.29,3.27.12,2.8-3.93,6.52-.22,9.64,2.3-1.1,3.45.46,5.61.53.58-3.32-1.5-4.37-4.52-4.07l2.26-1.36-2.26-.45c-.32-2.14,3.32-1.06,3.62-1.36l-.69-2.26-1.41.85-1.03-.68c.64-1.29-.15-3.17-.05-3.97.04-.29.75-.27.8-.36.18-.36-.89-1.39,1.04-1.95-.6-1.52-3.35-.21-3.61-1.37-.25-1.09,1.58-1.24,2.26-1.13l-.91-1.13c-.76-.34-.02-1.12.23-1.12.71-.01,2.27,2.53,3.39,1.57-.2-1.36-2.65-2.42-2.93-2.92-.11-.19-.29-3.6-.71-4.25-.91-1.41-5.51-3.65-6.3-5.5-.62-1.44,2.13.28,2.26-.44-.68-1-3.33-3.14-3.55-4.19-.2-.92.6-1.22.71-1.77.26-1.41-1.77-5.31,1.94-3.77l-1.35-2.26c.73-.68,2.78,2.06,2.71.23-1.08-.91-2.43-1.23-2.26-2.95l-7.68,4.07c-1.16-1.17,6.06-5.56,6.88-6.91,1.47-2.44.59-2.62.01-4.73-.18-.65.65-1.47-.37-1.9-1.48-.4-8.14,3.41-9.24,4.95,1.99.42,2.81-.87,3.85-1.35,1.32-.61.36,2,.17,2.44-1.71,4.02-3.1,4.11-4.04,9.08-.42,2.24-7.81,4.24-9.48,6.57-.38-2.95,1.67-4.81,3.15-7.02l-1.35-.89c.41-1.26,2.25-2.27,2.64-3.24.94-2.32-2.23-.09-2.89.73-.8.98-1.11,2.31-2.02,3.4-2.61,3.11-6.63,5.15-6.77,9.73.42.43,4.67-3.51,3.55-.74-.35.88-1.58,1.35-1.95,2.13-.46.97-.38,2.39-.92,3.6-.68,1.53-2.43,2.3-2.49,4.06,1.24.13,1.59-1.35,2.55-1.74,2.92-1.17-1.19,4.55-1.4,4.93-.36.66-.17,1.53-.49,2.22-.45.95-2.42,2.13-3.13,3.2-1.48,2.24-2.02,5.28-4.76,7-.5,1.17,1.55.47,1.81.67.46,1.59-1.32,3.49-1.38,4.33-.04.54,1.1,3.62,1.33,4.43-.41.7-3.81,4.12-4.48,3.45l.9-2.26-1.59,1.35-1.1-.67,2.26-5.02-.94-1.75c2.1-1.86.8-4.38,1.6-6.12.35-.77,2.23-2.2,2.67-3.21.55-1.27.45-2.94,1.07-4.36.84-1.94,3.36-2.96,3.71-5.11-2.57.26-3.45,3.72-6.33,3.16-.3-2.06,3-2.65,3.52-4.39.47-1.56.25-2.8-1.49-2.89-2.6-.13-2.57,2.83-4.53,4.11l.24-2.48-.9-.23-3.18,5.64c.99,1.68,1.97-.85,3.17.01-.91,3.04-1.76,5.53-3.63,8.13v.68s1.63.42,1.63.42c1.43,1.94-4.9,8.2-5.7,10.21-.11,2.3,3.13-2.53,3.16-.45,0,.34-3.5,4.71-4.07,5.42-7.67,9.56-16.26,18.3-22.89,28.67-4.91,7.69-9.4,16.79-12.38,25.39-1.5.35-.91-1.41-.68-2.27,1.72-6.45,9.1-19.24,12.88-25.11,5.7-8.83,17.85-19.86,20.18-29.61.42-1.77-1.19-3.13,1.54-4.76l-2.26-.22,1.8-2.94-2.26-.68.91-4.07-1.37.21c-16.02,21.17-35.02,48.56-36.64,75.98-.15,2.61-.91,10.08,2.07,10.64ZM213.4,103.25c1.67,1.09,3.74,2.56,3.85,4.73l-3.17-1.12c.6,1.31,2.55,1.86,2.26,3.61-.28.31-2.76-1.69-3-1.97-1.41-1.62-1.12-3.49.06-5.26ZM213.85,73.39c.82.18,1.76,2.11.46,2.7l-1.58-1.58c-.12-.56.56-1.24,1.12-1.12ZM148.59,112.14c2.04-3.22,6.33-9.88,8.95-12.31.62-.57.89-.83,1.81-.67l-13.48,20.21-7.2,14.95c.03.8-1.36.68-1.47.57-.95-.88,10.02-20.58,11.39-22.75ZM132.22,173.79c1.18,1.32-4.11,3.11-5.19,3.18-1.88.11,1.1-2.85,1.5-3.49.91-1.46,4.17-7.94,5.05-8.52.44-.29.87-.25,1.36-.21l-1.81,2.94c-.1.3.43.33.67.22,1.23-.55,7.54-7.68,9.27-9.27,5.2-4.8,11.1-10.16,16.53-14.68.99-.83,9.48-8.48,10.16-5.21.24,1.15-9.46,7.55-11.07,8.82-6.73,5.31-13.4,10.94-19.68,16.72,6.14-2.82,11.42-7.18,17.33-10.48,8.95-4.98,34.15-18,43.5-17.11.7.07,1.35.28,2.01.48l.03,1.32c-14.38,2.71-29.02,8.53-42.07,15.14-7.63,3.87-21.08,11.67-26.99,17.56-1.01,1.01-.86,3.09-3.76,2.58-.3,2.31,2.76-.46,3.17,0ZM172.93,134.89c.69-1.79,8.02-7.2,9.01-4.25.96,2.87-2.38,1.52-3.59,1.71-1.95.3-3.54,2.05-5.42,2.53ZM186.27,126.32c.64-1.03,6.48-5.09,7.7-2.74.29.46.33,1.02.17,1.52-.25.74-8.37,4.69-9.9,4.81-.2-1.35,1.59-1.38,2-2.24.15-.32-.22-.95.03-1.35ZM196.91,120.2c1.44-2.1,5.62-1.33,4.9,1.53l-3.55.96c.74-1.68-.22-1.53-1.35-2.48ZM146.69,165.2l-.27,1.39c-1.42.42-4.17,1.38-5.14,2.47-.7.79-.6,2.11-1.22,2.51-.22.14-4.65,1.74-4.91,1.77-.97.14-.91-.95-.65-1.33.13-.2,3.53-.87,4.46-1.65.72-.61.78-1.58,1.38-2.23.74-.79,5.5-3.79,6.34-2.93ZM133.58,176.96l3.84-.46c1.17,2.16-4.42,3.56-3.84.46ZM141.72,177.41c-.88.36-2.31-.65-1.81-1.35.52-.73,3.02-.54,1.81,1.35ZM143.98,177.4c-.14-.9.07-1.77,1.12-1.8l.63.73.05,1.53-1.8-.45ZM143.53,174.24c-1.03-1.03,1.86-2.86,2.26-1.12.25,1.11-1.96,1.41-2.26,1.12ZM171.87,190.45c-2.02-1.19-4.68-1.59-6.15-2.44-.57-.33-1.06-.81-.93-1.55,1.1-.97,11.47,4.63,12.82,5.94.63.61.95.64.74,1.74-2.7.31-4.08-2.28-6.48-3.69ZM177.45,200.93l2.25,1.13c-.78,1.65-2.7-.52-2.25-1.13ZM184.24,200.48c2.73-.89,3.67-.18,3.61,2.71-.2.23-4.32-1.95-3.61-2.71ZM212.27,197.31l-2.71-.45c-.08.69.41,1.54-.67,1.35-1.37-.25-2.11-3.25-3.22-4.47-3.66-4.03-17.76-7.51-14.68,1.11,1.68,4.69,9.08,10.03,14.16,8.69.68-.18,1.26-1.05,2-1.17,3.02-.51.1,2.56-2,2.99-9.96,2.04-14.75-9.4-20.45-15.07-7.45-7.41-17.12-10.21-27.15-12.2-2.22-.44-5.53-.49-7.45-1.14-.74-.25-1.32-.33-1.15-1.33,10.02.46,20.11,3.01,29.74,5.76,9.41,2.69,24.86,6.84,32.82,11.96.65.42,2.29,1.24,2.11,2.18l-3.62-.9,2.26,2.71ZM200.85,201.72c-6.84-1.13-9.97-11.04-1.57-9.29,5.53,1.15,8.88,10.49,1.57,9.29ZM152.12,171.53c13.03-1.59,26.44-1.84,39.59-1.38,3.72.13,17.13.68,19.78,1.93.49.23,1.11.69,1.24,1.25l-15.58-1.37c-10.72.44-21.43-.87-32.15-.45-3.98.15-8.2,1.43-12.2.92-.62-.08-1.4-.32-.67-.9ZM214.53,186l-27.59-5.42c4.28-1.43,24.84.93,27.17,3.8.43.53.49.95.41,1.62ZM217.47,185.1l-.21,2.06-1.81-.93,2.02-1.13ZM215.89,159.09c-24.13.39-48.43,3.4-71.45,10.62-.17-1.02.65-1.22,1.35-1.58,2.82-1.44,8.84-2.85,12.12-3.71,15.24-4.01,35.33-7.2,50.98-6.95,1.9.03,5.64.4,7.01,1.62ZM209.56,146.88c-4.51,1.61-9.42,1.7-14.1,2.63-13.29,2.63-24.84,6.42-37.31,11.54-2.66,1.09-5.42,3.01-8.29,3.24.74-1.38,2.55-1.96,3.91-2.64,12.01-6.03,35.22-15.11,48.33-16.34,2.53-.24,5.55-.3,7.46,1.58ZM203.91,120.86c-.87-1.22-.59-2.24-2.48-2.26,1.48-4.3,7.36-.23,2.48,2.26ZM193.5,74.28c.53-.95.03-2.5,1.49-3.38l-.61-1.6c1.36-.56,6.75-5.89,7.94-4.96-.15,1.42-1.76,1.87-2.28,2.59-.53.74-.63,2.05-1.15,2.8-.85,1.22-4.08,5.66-4.94,6.36-.5.41-1.73.74-2.02.46-.96-.91,1.4-1.96,1.57-2.27ZM182.41,89.88c4.02-4.76,19.01-18.52,24.29-20.94.53-.24,1.72-.99,1.95.15.28,1.33-11.78,8.71-12.65,11.31-.29.9.73.48,1.05,1.23.86,1.99-1.27,3.02-1.88,4.3-.52,1.09.01,1.93-.27,2.82-.38,1.19-5.47,5.13-6.14,4.52-.07-2.38,1.53-4.34,3.04-6.09-.81-1.1-.24-1.98-1.46-2.95-2.4,1.48-3.94,3.91-5.81,5.72-.39.38-3.59,3.2-3.91,2.87-.4-.41,1.43-2.52,1.8-2.95ZM191.46,96.23c0,.47-6.92,5.88-7.68,5.2-.6-.55,4.39-5.12,5.16-5.46.67-.29,2.53-.79,2.51.26ZM178.81,105.95c-.04.55.17,1.22-.1,1.71-.14.26-4.19,3.51-4.64,3.73-.65.32-.4.64-1.13-.24.64-.92,4.9-6.23,5.87-5.2ZM178.59,117.72c2.97-2.47,19.27-15.87,21.71-15.83.9.09,1.78.99,1.53,1.94-3.48,2.85-7.67,4.99-11.41,7.63-19.34,13.64-39.83,31.94-53.87,51.07-.17.23-.5,1.66-1.16.85-.48-.59.83-2.16,1.17-2.67,9.63-14.38,28.62-31.83,42.03-43ZM160.71,114.09c.17,1.64-1.57,2.75-2.7,3.62-.17-1.64,1.57-2.75,2.7-3.62ZM157.22,121.23c-.55-.98,2.19-3.51,3.04-3.98.25,1.05-1.12,1.79-1.23,2.55-.1.73.59,1.34.12,2.41-.99,2.25-5,3.18-1.15-.22l-.78-.77ZM142.44,144.43c3.44-4.83,7.39-10.04,11.26-14.52.92-1.06,12.76-13.85,13.34-13.11.12.88-.24,1.54-.7,2.24-2.26,3.51-9.45,9.39-12.65,13.13-7.39,8.63-15.99,20.57-21.55,30.46-1.61,2.87-3.07,7.29-4.71,9.77-.37.56-.76,1.09-1.54.94,3.77-10.42,10.15-19.93,16.55-28.9Z"/>
  <path class="st1" d="M220.41,105.95c.12-.84,0-1.57-.9-1.81-.12.84,0,1.57.9,1.81Z"/>
  <path class="st1" d="M208.85,217.24l2.06.42c.43-2.86-2.88-4-2.06-.42Z"/>
  <path class="st1" d="M215.44,213.59c-.25,1.63,1.47,3.17,2.71,1.57-.15-1.35-1.58-1.76-2.71-1.57Z"/>
  <path class="st1" d="M223.13,162.03c1.17-1.17-1.79-2.43-1.8-.68,0,.47,1.52.95,1.8.68Z"/>
  <path class="st1" d="M126.34,130.82l-2.94-6.33c-1.77.73,2.01,7.29,2.94,6.33Z"/>
  <path class="st1" d="M121.59,186.45c1.96-.51-1.67-3.01-.67-4.07,1.13-1.19,2.17,2.25,2.49,2.25l1.09-1.51c-.97-1.74-2.57-1.93-4.42-1.58-.94,1.33-.83,5.52,1.51,4.91Z"/>
  <path class="st1" d="M111.87,181.22c1.15.57.33,2.37,1.81,2.07,1.51-3.37-2.28-5.45-3.61-1.81.22.19,1.18-.57,1.81-.26Z"/>
  <path class="st1" d="M122.27,154.79c.48-.58-3.51-6.21-3.16-7.68.96-1.06,2.75,4.36,3.4,4.52l.59-1.04c-.83-2.96-7.62-12.29-7.59-14.58,0-.45.4-1.08.67-1.1,1.97-.13,4.84,10.36,6.79,11.75,1.12-2.65-2.17-4.71-2.5-7.01-.23-1.63,2.77.82,2.26-.89-.71-2.37-4.92-8.39-4.45-10.32.08-.33.64-.92.84-.77,1.28,2.26,3.3,9.67,4.97,11.09.32.27.82.48.93-.05-.24-1.21,1.78-2.02,1.83-2.29.26-1.52-6.04-9.74-6.51-12.46-.22-1.29.35-2.56.04-4.1-.32-1.58-2.73-3.63-2.61-4.62.2-1.6,2.2.31,2.26.22.44-1.55-.86-1.46-1.34-2.07-1.11-1.42-1.47-1.35-2.04-2-.44-.5-.38-1.71-.91-2.3-.47-.52-1.37.29-1.81-.39-.86-1.33-1.77-4.95-2.46-6.04-.56-.9-2.12-.93-1.38-3.47l-2.86,1.27c-.67-.85-2.82-1.14-3.24-1.72-.49-.67-.42-2.54-.94-3.58-.93-1.87-3.56-3.16-4.45-5.5-.7-1.85-.54-3.88-1.04-5.76-.22-.81.13-1.17-1.03-.98l.45,6.33c-2.58-.28-.85-4.44-2.71-5.42-.36,1.8-.23,4.62.1,6.45.46,2.55,3.28,3.5,3.74,6.24l2.02-.03c.95,3.67-.02,8.66,2.34,11.92.53.74,1.7.88,1.79,1.88.08.85-1.24,2.49-1.39,4.06-.17,1.67-.04,4.72,1.35,5.65l.23-5.88c1.91-.43.92,1.57,1.13,2.71.87-.36.18-1.3,1.8-.9l.46,5.88,1.8-2.26c.07,1.4-.13,2.84.06,4.24.18,1.34,1.35,5.13,1.28,5.94-.12,1.38-2.35-.7-2.25.89.27,4.07,4.5,15.46,6.56,19.23.39.71,3.18,5.22,3.85,4.51.65-1.81-2.3-3.59-.68-4.96,1.42,1.19,1.83,3.01,2.72,4.53.15.25.42,1.74,1.12.89ZM117.98,132.64c1.75,0,.49,2.97-.68,1.8-.28-.28.21-1.8.68-1.8ZM105.09,104.59h-1.35v-2.26h1.35s0,2.26,0,2.26ZM114.13,131.73c-1.91-.54-2.3-2.26-2.25-4.07,1.44-.31,2.68,3.52,2.25,4.07ZM114.95,127.97c-.91-1.34-3.5-8.45-2.14-9.33l1.37.24,2.22,10.13c-.93.2-1.05-.46-1.44-1.04Z"/>
  <path class="st1" d="M41.41,96.39l2.83.57-.84-2.26-5.4,4.53c1.59-.33,3.94-.84,3.41-2.83Z"/>
  <path class="st1" d="M143.08,108.21c1.25-1.44-4.13-8.38-3.42-4.5.26,1.44,1.7,4.39,3.42,4.5Z"/>
  <polygon class="st1" points="275.17 133.58 275.94 132.06 274.79 132.06 274.79 133.58 275.17 133.58"/>
  <path class="st1" d="M133.81,187.8c-.95.02-.7-2.41.2-2.95.5-.3,1.6.92,1.38-.43-1.07-1.27-2.28-2.28-4.06-2.04v4.52s-2.26-.9-2.26-.9l.07,1.74c2.46.73,7.15,2.98,6.71-1.29-1.42-.66-1.68,1.34-2.03,1.35Z"/>
  <path class="st1" d="M276.32,132.82c.11,1.38-.44,1.35-1.53,1.72l2.67,3.63c-.16-1.75.66-4.27-1.14-5.35Z"/>
  <path class="st1" d="M123.63,180.13l2.2,2.58c.34,1.32-2.94,4.48,1.42,4.2l-.27-1.37,1.65-.68c-.08-2.81-2.46-4.29-5-4.72Z"/>
  <path class="st1" d="M273.65,135.11c-1.13,1.03,2.02,2.92,2.29,2.67-.7-1.65-1.72-3.51-3.82-3.43-.36,1.36,1.24.51,1.53.76Z"/>
  <path class="st1" d="M216.56,120.42l-1.11.67,2.93,3.84c1.79-1.56-.75-3.44-1.82-4.51Z"/>
  <path class="st1" d="M215.22,122.69c-1.53-.11.82,3.26,1.58,3.16.47-.92-.97-3.11-1.58-3.16Z"/>
  <path class="st1" d="M221.77,64.34c-.77-.64-1.05-2.46-2.26-2.25.05,1.25.79,2.56,2.26,2.25Z"/>
  <path class="st1" d="M214.18,54.52c.3,1,2,1.75,2.38,2.59,1.46,3.19-2.76,4.89-2.48,7.43.07.63.75,1.14.89,1.86.16.8-.11,1.68.14,2.57.3,1.05,1.59,4.2,2.36,4.88,1.66,1.48.67-2.21.73-2.43.18-.64,1.37-.85,1.76-1.42-.49-.82-1.52-1.16-2.1-1.73-.19-.19-1.15-1.48.08-1.22,1.19.12,2.21,2.13,3.38,1.59-1.37-1.07-3.87-6.2-2.97-7.5.45-.66,2.03.11,1.61-1.32h-1.81c.57-2.56.49-3.92-.45-6.33h1.34c.57-1.59-1.21-2.76-1.35-3.88-.12-1.02,1.27-3.37-.67-3.38-2.12,0-3.33,6.65-2.84,8.29Z"/>
  <path class="st1" d="M160.1,192.27c2.05,1.57,5.58,2.74,7.85,4.14l-3.15-3.4c-5.99-5.72-14.03-7.72-21.71-10.17-.27.26,1.61,2.84,1.81,2.96.52.32,1.88-.38,2.9-.25,1.5.2,1.85,1.54,2.65,1.93,2.52,1.25,5.25.39,7.8,2.58.68.59.89,1.46,1.86,2.21Z"/>
  <path class="st1" d="M168.4,213.39l4.33-2.52c.43-.7-.7-3-1.43-3.14-2.07,1.08-5.38,3.37-2.9,5.66Z"/>
  <path class="st1" d="M169.76,214.5c1.04,1.36,1.48,3.6,3.61,3.61.15-2.15-1.32-4.75-3.61-3.61Z"/>
  <path class="st1" d="M165.7,204.77l1.8-3.39c-2.78-.8-2.45,1.92-4.52,2.26.15-2.49,1.86-4.6.35-7.13-1.27-1.23-6.01-.77-6.23-1.01-.09-.09.17-1.53-.42-2.52-.13-.21-3.73-2.79-3.96-2.85-1.56-.42-2.1,1.89-1.95,3.11l2.71-1.35.66,3.64,2.06.19c.29,1.38.23,2.06,1.58,2.94l2.03-1.79.24,2.71c.33.23,2.59-2.32,2.47-.68-.02.25-1.82,1.37-1.7,2.64.02.16.94,2.89,1.03,3.02.37.5,1.33.34,2.15,1.47.67.93,1.12,2.79,1.25,3.96l3.39-6.32c-.73.62-2.04,2.48-2.93,1.12Z"/>
  <path class="st0" d="M133.12,246.44c2.5-2.08,2.12-4.28,2.22-7.16l1.74.88.43-1.31c-.21,1.85,2.67,3.98,4.26,4.28,1.61.3,3.57-1.02,5.34-.59l2.17,3.96c.44.52,1.17-.07,1.3-.49.51-1.71-2.41-4.06-3.47-5.2,1.27-.33,1.75-2.36,1.69-3.51-.07-1.26-2.18-2.24-1.45-4.12l-3.3-1.31c.55-.98,1.48-1.51,2.07-2.5,2.14-3.6,1.65-8.91,1.42-12.99-.16-2.87-3.43-.26-4.94.75-3.91,2.62-5.42,5.7-7.93,9.5-.98.01-1.84-7.81,0-8.71,2.49.3-.71,1.32.21,2.18,1.5,1.4,3.15-3.56-.18-3.48-3.33.08-1.74,7.78-1.57,10.02l-3.25-6.12c-2.11-2.23-4.67-1.52-4.11,1.71l3,.49v-1.3s-1.74.43-1.74.43c.42-2.78,2.35-.19,3.13,1.01.43.65,2.37,4.78,2.09,5.1l-3.49-2.4c-2.07-1.98-15.02-.85-15.19,1.3,1.35,2.67,3.25,4.49,5.12,6.61.82.92-.12,1.98,2.66,1.47l.05,1.69,4.31,1.37c.22,1.02-1.06,1.29-1.25,2.05-.2.8.33,1.46.29,2.09-.06.94-.61,2.01-.36,2.96.03.1,1.31,1.51,1.41,1.56.52.27,1.06-.94,2.04.33,1.7,2.21.2,4.93,1.58,7.16l1.1-.24c.25-1.99-1.48-4.02-.03-6.01.45-.62,1.85-.79,2.61-1.42Z"/>
  <path class="st0" d="M6.19,122.26c2.37-3.43,4.32-5.59,8.8-5.46,1.55.05,2.61.66,4.37.49,2.21-.21,4.36-1.48,6.13-2.72-1.39,2.58.35,5.33-.09,7.53-.09.45-5.24,7.58-1.34,6.67.81-.19,1-2.71,1.5-3.62,1.67-3.04,4.97-2.04,7.04-4.33l.56,1.14c1.46-.38,4.34-4.14,4.63-5.67.28-1.46-.77-2.94-.1-4,.66-1.05,7.62-3.85,9.14-5.09.51-.42,3.21-3.15,3.68-3.71,1.49-1.78,2.8-4.28,3.9-6.35.22-2.47-7.47-1.01-8.99-.76-1.4-6.16-7.82,1.32-9.67,3.99.1-3.66.84-10.6,5.67-10.23l-.56,2.02-1.71-.31c1.8,5.24,6.7-3.7.33-2.82-4.17.57-4.68,7.45-4.88,10.78-2.51-2.1-2.41-6.23-3.53-9.25-.79-2.13-7.14-12.81-9.24-12.35-1.22.71-1.01,2.41-1.6,3.25-.35.49-1.37.49-2.01,1.72-.71,1.37-1.25,9.2-1.2,11.19.02.94.94,1.75.9,2.3-.03.48-.94.92-.86,2.16.07.93,2.78,2.98,2.2,4.95-4.95-.69-10.11,6.63-6.25,10.5-1.38,1.14-8.88,5.67-8.52,7.39.08.41,1.2,1.3,1.72.6ZM43.4,94.7l.84,2.26-2.83-.57c.52,1.99-1.82,2.51-3.41,2.83l5.4-4.53Z"/>
  <path class="st0" d="M270,140.86c.77.83,3.47,2.16,3.58,2.34.45.7-.44,3.78,1.27,6.18,1.63,2.28,4,1.73,4.71,2.55.96,1.1-.15,4.6,2.1,3.63.78-1.44-2.42-5.75-.15-6.27.32-.07,2.35,1.06,3.41,1.13,1.15.07,2.6-.54,3.34-.34,1.87.5,2.81,4.45,3.15,4.53,3.55-1.01-2.33-5.11-2.47-5.59-.2-.69.65-1.23.75-1.89.2-1.3-1.55-4.47-2.68-5.33v-.56c.77-.13,2.5-1.81,2.92-2.42,1.04-1.5.13-2.32.24-3.47.07-.74,1.01-1.49,1.01-2.34,0-.85-.99-1.67-.98-2.29,0-.48.67-1.02.63-1.88-.02-.48-2.18-4.26-2.57-4.37-2.42-.68-5.95,5.74-7.15,7.62-.83,1.3-1.74,2.65-2.14,4.17-.59.58-.68-.06-.75-.57-.13-.95.04-1.65-.36-2.7-1.09-2.83-5.06-2.16-3.85.98l-2.82-.09-3.87-4.11c-1.34-.29-.92,2.43-.84,3.14.27,2.51,1.78,6.1,3.51,7.95ZM275.94,132.06l-.77,1.52h-.37s0-1.52,0-1.52h1.14ZM276.32,132.82c1.8,1.08.98,3.6,1.14,5.35l-2.67-3.63c1.09-.36,1.64-.34,1.53-1.72ZM272.12,134.35c2.1-.07,3.12,1.78,3.82,3.43-.27.25-3.42-1.64-2.29-2.67-.29-.25-1.89.6-1.53-.76Z"/>
  <path class="st0" d="M71.03,163.04c-6.19,3.84-4.88,14.07,2.48,15.87,7.48,1.83,9.02-9.97.87-7.33l.38,2.02,3.19.88c-3.45,5.74-11.05-.95-7.24-6.34,7.39-10.46,21.92-2.34,29.81,3.22,1.43,1,8.62,6.45,8.64,7.63.01.91-1.06,2.01-.91,4.07.14,1.97,1.41,3.16,1.72,4.63.56,2.6-.36,4.24,1.91,6.68,3.9,4.2,10.62-.38,7.24-4.86-3.41-4.53-10.03,3.17-2.72,3.28v-1.81s-1.8-.22-1.8-.22c3.67-3.9,5.46,3.56,1.09,3.84-1.52.1-3.39-1.59-3.71-3.03-1.08-4.77,1.83-3.91,3.91-6.75.58-.79.37-2.61,1.87-2.42.71,1.88-.03,4.31,1.82,5.64,2.17,1.56,4.47.2,6.78,1.14.86,1.19-3.87,2.45-4.32,3.15-.67,1.38.72,2.48,2.06,2.27l-.27-1.82c1.45-1.39,4.54.03,4.81-2.23,3.35.8-.42,3-1.37,4.29-1.09,1.48-1.6,2.86-1.36,4.75l1.39-.27c.68-4.04,4.78-7.93,9-6.96.57.77-2.6,2.66-3.18,3.37-1.41,1.74-2.25,4.54-.21,6.12,1.69-1.03.88-2.68,1.22-4.19.61-2.73,5.88-4.54,8.44-3.89l.3,1.32c-3.45,2.04-6.44,3.98-5.19,8.55l1.77.03c-.9-4.79,3.47-7.32,7.69-7.24.55-2.36-2.94-2.18-3.18-3.84-.04-.27,2.38-2.71,2.73-3.39.28,1.32.22,3.01,1.1,4.11.55.69,6.67,5.06,7.98,6.04.74.55,2.2.88,2.57,1.27.95,1,4.78,9.56,5.9,11.51.57.99,3.46,5.99,3.84,6.33.61.54,1.65.59,2.25,1.03.52.38.6,1.17,1.24,1.58,1.66,1.06,5.25,2.41,6.12-.18,1.96-5.84-2.36-16.71-6.58-21.06-.07-.34.47-.31.67-.22,2.85,1.28,8.47,11.2,11.1,14.23,3.8,4.39,12.23,11.64,18.28,11.56,1.54-.02,4.42-1.36,5.39-1.26.87.09,2.03,1.46,2.98,1.95,5.37,2.8,5.44-1.46,7.46-1.58,1.12-.06,3.6,1.12,5.05,1.28,6.48.68,4.1-1.63,1.55-5.15,2.17-2.08,4.65,1.34,6.77,2.26,2.76,1.2,11.9,2.3,14.61,1.49,2.97-.88-.56-3.85-1.41-5.19-.72-1.15-1.15-2.85-2.09-3.79-1.3-1.29-4.1-1.25-4.32-3.59.47-.65,7.05-.08,8.31.05,11.98,1.27,24.88,5.94,33.76,14.18,3.89,3.61,9.4,12.71,14.35,13.71,3.79.77,2.02-2.59.94-4.57-5.32-9.67-28.82-22.31-38.59-28.8-1.91-1.27-6-3.72-7.25-5.42-1.59-2.17-1.08-4.25-1.9-6.24-.46-1.11-4.17-4.07-4.17-4.41,1.41-2.13,4.12-.41,6.05-1.63,1.16-2.13,3.76-2.14,2.74-4.91-2.13-5.78-10.45-4.74-14.22-7.94-.37-.9,1.97-1.07,2.49-1.12,13.8-1.3,26.5,1.66,39.8,2.7,2.06.16,9.4.25,9.59-2.55-.29-2.73-5.45-3.56-7.79-3.77-12.33-1.09-25.56,1.83-37.91.03-.05-1.21-2.31-3.72-2.38-4.08-.44-2.14,2.53-2.96,4.15-3.16,2.25-.27,6.77,1.58,5.98-1.51-1.15-4.54-10.07-5.78-11.01-7.57l.2-1.63,2.57-1.06c.92-4.67-11.03-4.41-9.7-9.2.4-1.43,3.74-2.37,1.3-5.09-3.79-4.23-14.58-.83-19.45-.22-.79-.71,2.79-2.98,3.16-3.39,2.48-2.75,4.3-7,3.52-10.75-.36-1.74-2.52-3.18-2.5-4.56.03-1.44,1.37-1.24,2.12-1.89,2.74-2.36,4.2-4.15,3.54-8.02-.24-1.4-1.66-3.21-1.67-4.17,0-1.22,1.67-2.89,2.13-4.17,1.48-4.05.2-8.06-3.06-10.77-.06-.27,2.31-2.58,2.6-3.71.56-2.22-.1-5.14-1.32-7.05-.73-1.14-2.99-2.6-3.11-3.71-.2-1.87,2.05-2.94,2.82-4.42,1.53-2.94.93-7.22-.46-10.12-.57-1.19-2.29-2.8-2.35-4.03-.06-1.1,1.75-3.1,2.07-4.68,1.18-5.91-3.62-9.23-9.05-9.09-11.25.29-31.49,21-39.15,29.18-9.24,9.86-17.6,20.57-25.57,31.47-3.29-.75-2.14-4.36-2.66-6.84-1.28-6.2-7.01-7.53-8.74-11.16-1.27-2.65-.47-4.82-2.89-7.96-2.06-2.67-3.62-2.46-5.96-3.99-3.02-1.98-2.59-6.97-5.77-10.06-1.49-1.44-5.98-3.17-6.49-3.91-1.32-1.95-.19-5.65-3.17-8.59-1.95-1.93-6.04-2.3-6.91-3.26-.7-.76-.74-4.1-2.18-5.73-1.69-1.91-4.31-1.41-5.19-2.05-.83-.6-.12-5.37-4.85-6.05-6.41-.92-9.04,4.77-9.55,10.15-2.48,26.39,11.84,66.31,21.31,91.19,4.2,11.04,10.69,23.55,13.69,34.7,1.02,3.8,2.61,11.8-3.92,7.99-5.72-3.34-10.53-18.91-14.94-25.31-5.58-8.11-16.3-18.69-27.18-16.48-2.98.61-5.7,4.83-5.29,7.78.37,2.62,3.73,6.64,6.54,6.63,5.88,0,4.79-7.59,1.82-6.82-1.94.5,1.54,2.91.27,3.87-6.73,2.66-8.52-6.82-.69-7.9,17.08-2.37,28.02,23.83,34.11,36.14l-12.7-9.23c-7.6-5.09-17.74-9.11-26.33-3.78ZM126.98,185.53l.27,1.37c-4.36.28-1.07-2.88-1.42-4.2l-2.2-2.58c2.54.43,4.92,1.92,5,4.72l-1.65.68ZM129.12,187.74l-.07-1.74,2.26.9v-4.52c1.79-.24,3,.77,4.07,2.04.23,1.35-.88.13-1.38.43-.9.54-1.16,2.97-.2,2.95.35,0,.62-2.01,2.03-1.35.43,4.27-4.26,2.02-6.71,1.29ZM138.11,185.77l.68-1.58,1.57,2.26-2.25-.68ZM148.1,190.93l-.04-1.31c.66-.03,1.2-.14,1.59.44l.21,1.37-1.76-.5ZM147.79,185.55c-1.01-.13-2.38.57-2.9.25-.2-.13-2.09-2.7-1.81-2.96,7.68,2.44,15.72,4.45,21.71,10.17l3.15,3.4c-2.27-1.39-5.79-2.57-7.85-4.14-.98-.75-1.18-1.62-1.86-2.21-2.55-2.19-5.28-1.33-7.8-2.58-.8-.4-1.15-1.73-2.65-1.93ZM164,206.01c-.82-1.13-1.78-.97-2.15-1.47-.09-.13-1.01-2.86-1.03-3.02-.12-1.27,1.68-2.39,1.7-2.64.12-1.64-2.14.9-2.47.68l-.24-2.71-2.03,1.79c-1.35-.88-1.29-1.56-1.58-2.94l-2.06-.19-.66-3.64-2.71,1.35c-.15-1.22.38-3.53,1.95-3.11.24.06,3.83,2.64,3.96,2.85.59.99.33,2.43.42,2.52.22.23,4.96-.23,6.23,1.01,1.51,2.53-.19,4.64-.35,7.13,2.06-.34,1.74-3.06,4.52-2.26l-1.8,3.39c.89,1.35,2.2-.5,2.93-1.12l-3.39,6.32c-.13-1.17-.58-3.03-1.25-3.96ZM173.38,218.11c-2.13-.01-2.57-2.25-3.61-3.61,2.29-1.14,3.77,1.46,3.61,3.61ZM171.3,207.73c.73.15,1.86,2.45,1.43,3.14l-4.33,2.52c-2.48-2.3.83-4.58,2.9-5.66ZM216.79,125.85c-.76.11-3.11-3.27-1.58-3.16.61.04,2.05,2.23,1.58,3.16ZM218.38,124.94l-2.93-3.84,1.11-.67c1.06,1.07,3.61,2.95,1.82,4.51ZM221.77,64.34c-1.47.3-2.21-1.01-2.26-2.25,1.21-.21,1.49,1.61,2.26,2.25ZM217.02,46.23c1.95,0,.55,2.35.67,3.38.14,1.12,1.92,2.28,1.35,3.87h-1.34c.94,2.42,1.02,3.79.45,6.34h1.81c.42,1.43-1.16.66-1.61,1.32-.9,1.31,1.59,6.43,2.97,7.5-1.17.54-2.19-1.47-3.38-1.59-1.23-.26-.27,1.03-.08,1.22.58.57,1.61.91,2.1,1.73-.39.57-1.57.78-1.76,1.42-.06.22.93,3.91-.73,2.43-.76-.68-2.05-3.83-2.36-4.88-.25-.89.02-1.77-.14-2.57-.14-.72-.82-1.23-.89-1.86-.28-2.53,3.94-4.24,2.48-7.43-.39-.84-2.09-1.59-2.38-2.59-.49-1.64.73-8.29,2.84-8.29ZM213.63,44.89h.9v1.8h-.9v-1.8ZM159.8,92.59l1.37-.21-.91,4.07,2.26.68-1.8,2.94,2.26.22c-2.72,1.63-1.11,2.99-1.54,4.76-2.33,9.75-14.48,20.78-20.18,29.61-3.78,5.87-11.16,18.66-12.88,25.11-.23.86-.82,2.62.68,2.27,2.98-8.6,7.47-17.7,12.38-25.39,6.63-10.37,15.21-19.12,22.89-28.67.57-.71,4.08-5.08,4.07-5.42-.03-2.08-3.27,2.75-3.16.45.79-2.01,7.12-8.27,5.7-10.21l-1.62-.42v-.68c1.86-2.61,2.71-5.09,3.62-8.13-1.2-.87-2.19,1.67-3.17-.01l3.18-5.64.9.23-.24,2.48c1.96-1.28,1.93-4.24,4.53-4.11,1.74.09,1.96,1.33,1.49,2.89-.53,1.74-3.83,2.33-3.52,4.39,2.88.56,3.76-2.91,6.33-3.16-.35,2.14-2.87,3.16-3.71,5.11-.61,1.42-.51,3.09-1.07,4.36-.44,1.01-2.32,2.44-2.67,3.21-.8,1.75.49,4.27-1.6,6.12l.94,1.75-2.26,5.02,1.1.67,1.59-1.35-.9,2.26c.67.67,4.06-2.76,4.48-3.45-.23-.81-1.38-3.89-1.33-4.43.07-.83,1.84-2.74,1.38-4.33-.26-.21-2.31.49-1.81-.67,2.75-1.72,3.28-4.75,4.76-7,.71-1.07,2.68-2.26,3.13-3.2.33-.69.14-1.56.49-2.22.21-.38,4.32-6.1,1.4-4.93-.96.38-1.32,1.87-2.55,1.74.06-1.76,1.81-2.54,2.49-4.06.54-1.21.46-2.63.92-3.6.37-.77,1.59-1.25,1.95-2.13,1.12-2.76-3.13,1.17-3.55.74.14-4.58,4.16-6.62,6.77-9.73.92-1.09,1.23-2.42,2.02-3.4.67-.82,3.84-3.04,2.89-.73-.4.97-2.23,1.98-2.64,3.24l1.35.89c-1.49,2.21-3.53,4.06-3.15,7.02,1.67-2.33,9.06-4.33,9.48-6.57.93-4.97,2.33-5.06,4.04-9.08.19-.44,1.15-3.05-.17-2.44-1.04.48-1.86,1.77-3.85,1.35,1.1-1.54,7.75-5.35,9.24-4.95,1.02.43.19,1.26.37,1.9.58,2.12,1.46,2.29-.01,4.73-.81,1.35-8.04,5.74-6.88,6.91l7.68-4.07c-.17,1.72,1.19,2.04,2.26,2.95.07,1.83-1.98-.91-2.71-.23l1.35,2.26c-3.71-1.54-1.68,2.36-1.94,3.77-.1.55-.9.85-.71,1.77.22,1.05,2.87,3.19,3.55,4.19-.13.72-2.88-1-2.26.44.8,1.85,5.4,4.09,6.3,5.5.42.66.61,4.06.71,4.25.27.5,2.72,1.56,2.93,2.92-1.12.96-2.68-1.59-3.39-1.57-.24,0-.98.77-.23,1.12l.91,1.13c-.68-.11-2.51.04-2.26,1.13.26,1.16,3.01-.16,3.61,1.37-1.93.56-.85,1.59-1.04,1.95-.05.1-.76.07-.8.36-.1.8.7,2.67.05,3.97l1.03.68,1.41-.85.69,2.26c-.3.3-3.94-.79-3.62,1.36l2.26.45-2.26,1.36c3.02-.3,5.1.75,4.52,4.07-2.16-.07-3.31-1.62-5.61-.53-3.71-3.12.34-6.84.22-9.64-.06-1.41-1.06-2.17-1.29-3.27-.32-1.49.09-2.81-.52-4.46-.54-1.46-4.5-4.77-.49-3.36.37-2.38-1.2-4.62-3.61-4.97l.89,2.69c-1.39.03-8.08,5.53-8.12,6.13-.03.61.67.5,1.2.31,3.93-1.4,5.06-5.46,9.19.59l-3.16-1.13c-.65.58,3.34,3.36,2.96,5.01-.51,2.22-5.81,2.34-2.96,5.66l-.09,1.01c-.75.62-5.93,3.49-4.89,4.6,1.75-.04,4.86-3.7,6.34-2.04,1,1.12-.35,2.19.05,2.88.06.1.94.37,1.31.73,1.84,1.77,6.14,5.67,6.31,8.19.05.8,0,1.06-.67,1.55l-1.8-.9c-.9.25-.59,2.14-.7,2.25-.4.41-3.22-.47-3.51-.99-.55-1,.57-4.94-2.61-2.16-.75,1.52,2.51,3.51,3.31,4.38.47.5.82.29.56,1.49l-2.25-1.35.45,4.07c-.6.65-3.52-2.32-4.52-1.13l2.96,2.5c.5.89-.78,1.64-.64,2.41.23,1.22,4.46,3.27,4,5.27-.35.45-4.28-3.77-5.42-2.49.54,1.03,7.19,4.79,5.87,6.11-1.54.94-4.79-3.88-5.42-3.16-.29,1.75,1.66,2.3,2.26,3.61l-4.07-1.8c-.2.2,1.48,3.41-.59,5.28-.8.72-2.62.58-2.59,1.72.29,1.78,4.33,3.1,5.86,4.11,3.27,2.17,11.46,7.3,5.01,10.6v.66c3.11,2.7,6.78,7.13,1.35,9.52-.21.94,4.24,3.48,2,7.42-.54.96-1.93,1.33-1.58,2.93.08.37,5.05,2.19,4.04,5.83-.41,1.5-2.78,1.19-2.66,2.33.23,2.14,4.44,3.8,4.09,6.33-.3,2.19-3.03,1.57-4.53,1.61-.52,1.56,1.09,2.09,1.35,2.58,1.89,3.58-.26,6-4.04,6.03,1.7,8.7-6.4,13.94-14.27,13.1-2.51-.27-3.81-1.83-6.1-2.26-.65.6,2.26,2.99,3.16,2.72-.49,1.07-.23,1.49-1.52,1.33-1.39-.17-8.91-2.38-10.19-2.97-2.59-1.2-2.27-4.62-5.69-5.16l-.63,1.06c.51,1.89,2.5,2.4,3.57,3.68,3,3.6.48,3.09,5.74,6.02,4.52,2.51,2.44.94,6.57,1.55,1.7.25,3.42,2,4.72,2.06,1.11.05,1.62-1.16,2.43-1.04,1.8.26,5.75,3.25,7.38,2.99,2.84-5.67,4.93-1.58,7.76-1.82.38-.03.7-.11.91-.47.5-5.69,5.33-1.82,7.67-2.27,2.03-.39-2.35-3.1-2.73-3.59-.47-.61-.82-.97-.65-1.84,1.42.94,2.73,2.38,4.06,3.39.48.37,1.02,1.28,1.59.22.25-.47-2.43-2.94-2.94-3.4-1.23-1.1-2.81-2.07-4.07-3.16-.14-.9.19-.83.9-.45,1.18.62,4.01,3.82,4.29,3.84.38.03.68-.43.23-1.12-.42-.64-3.76-3.19-3.16-3.84,2.25.93,3.56,3.71,6.33,3.16l-.9-2.25,2.93,1.35c.59-.58.87-.45.24-1.14-1.44-1.59-4.38-2.21-5.44-4.29,2.63.22,4.65,2.68,7.1,3.53.73.25.73.91,1.49-.15l-8.58-6.1c3.16-.23,7.52,4.98,9.81,5.35,3.72.6-1.27-3.08-.76-3.54l6.78,3.16c.79-3.09-1.52-3.84-2.64-5.72-1-1.67-1.75-4.22-2.77-5.83-1.58-2.5-4.42-3.81-3.56-7.38,1.03-.72,4.98-1.13,4.42-2.97-.33-1.09-6.48-2.87-7.89-4.34-1.21-1.26-1.13-2.85-2.47-4.32-1.2-1.31-5.97-3.73-6.35-4.51-.39-.78.46-.78,1.03-.58,1.19.43,5.73,4,6.43,3.96,2.85-3.34-5.37-3.81-5.2-7.22.47-.52,5.9,3.7,6.63,4,.54.22,1.38.22,1.05-.6l-9.03-6.34c.67-1.01,1.03-.41,1.81,0,2.39,1.24,6.31,5.34,8.77,5.19,3.62-.22.96-4.18,1.83-5.43.52-.76,3.79-.69,3.24-2.7-.92-3.41-9.14-3.1-5.71-8.35-.82-1.03-2.28-.59-3.55-.99-4.78-1.51-1.48-8.23-7.19-9.09-2.63-.39-5.22.27-7.8-1.02.19-.79,1.12-.97,1.79-1.14,2.5-.67,13.49-2.17,14.43,1.02.34,1.15-.45,2.33-.42,3.51.12,4.2,7.17,5.07,7.31,8.14.04.89-.52,1.73-.41,2.62.45,3.71,6.76,4.11,8.5,7.34-3.52.2-11.85,3.84-5.97,7.09l-.11,1.76c-2.81,1.19-7.09,1.02-5.34,5.28,2.08,5.04,11.57,2.96,13.66,8.5l-2.54,2.4c-1.64-.13-7.37.45-6.88,2.95.14.72,1.63,1.24,2.2,1.87,3.25,3.63,2.89,8.22,5.69,11.95,1.43,1.91,5.67,2.92,5.62,5.25-.04,1.83-2.71.2-3.84,1.57-.69-1.38-1.24-2.09-2.95-1.82v1.8s-1.75-.07-1.75-.07c.15-1.58-1.42-2.29-2.24-1.15-.35.49.41,1.72-1.22,1.24-.37-.11-.22-1.57-1.79-1.39-11,4.9,2.25,6.34,2.02,12.69-2.72.54-5.53.51-8.25-.11-2.68-.62-6.04-3.46-7.81-3.54-3.61-.16-4.11,2.79-2.48,5.46-.25.2-4.9-1.7-6.2-1.67-1.94.04-3.12,2.38-6.13,1.56-.88-.24-1.85-1.46-2.92-1.61-3.02-.41-5.4,1.34-10.33-.07-12.16-3.49-16-15.4-23.71-23.78-11.98-13.02-30.66-19.33-48.17-18.77-2.97-.55-2.22-8.03-2.07-10.64,1.61-27.41,20.62-54.81,36.64-75.98ZM220.41,105.95c-.9-.24-1.02-.97-.9-1.81.9.24,1.02.97.9,1.81ZM221.33,161.35c0-1.75,2.97-.49,1.8.68-.28.28-1.8-.21-1.8-.68ZM218.15,215.17c-1.24,1.6-2.96.05-2.71-1.57,1.13-.19,2.56.23,2.71,1.57ZM210.92,217.66l-2.06-.42c-.82-3.58,2.5-2.45,2.06.42ZM138.1,99.17c1.05-.18,1.66.36,2.25,1.14v.67c-.32.34-2.7-.88-2.25-1.8ZM137.65,103.69h.9c.92,2.23-1.08,2.34-.9,0ZM143.08,108.21c-1.73-.11-3.16-3.06-3.42-4.5-.7-3.88,4.67,3.06,3.42,4.5ZM141.27,110.92h-.9s-.45-2.26-.45-2.26c.96.39,1.53,1.23,1.35,2.26ZM142.63,101.88h.67c1.66,1.17,1.43,2.38-.67,2.26v-2.26ZM87.22,48.51c.52-.25,1.85,5.21,2.08,5.61.49.86,3.43,2.81,3.73,3.54.45,1.06.31,2.78.75,3.96-.78.2-.9-.32-1.36-.67-3.59-2.77-8.11-7.82-5.2-12.44ZM92.42,75.65l-.9,1.12c-.44.72-.59-.36-.68-.67-.45-1.7-1.4-6.77-.45-8.14.95-1.22,1.36.37,2.04.68,2.14.98,2.39-.94,2.93-2.49,1.15.79.46,3.9,1.14,4.52.93.85.73-1.56,1.8-.91-.06,1.05-.05,2.4,1.36,2.26l.9-1.8c-.17,3.26-.43,5.54,3.62,4.97l-.36,5.08,2.84,5.77c1.89-.9-1.11-4.78-1.15-6.57-.04-1.61,1.12-2.66.93-4.28,2.11,1-.41,2.57-.32,4.23.05.94.72,1.99,1.46,2.56,1.24.26,1.24-1.94,1.13-2.71l1.8,1.81v-4.52s-1.35.45-1.35.45c-.12-1.03.24-2.37-.08-3.33-.2-.61-1.06-.64-1.31-1.05-.46-.74-.24-2.39-1.11-2.85-1.15-.61-.66,2.35-1.57,2.25,1.49-4.39-.55-8.41.45-12.66,2.91.54,3.35,2.35,4.05,4.77.19.66-.27.79.91.66,2.53-5.09-.39-8.53-5.87-7.68.83-3.5-2.51-12.06-6.9-11.24-1.07.2-2.04,1.24-2.07,2.35l1.75,2.79c8.75.93,5.39,10.42,6.76,16.5-2.45.58-1.93-2.58-2.94-3.16l-1.57.9c-.05-2.54-.7-4.53-2.49-6.33-2.68.49,1.24,3.85-1.12,4.97-1.41-1.95-.06-6.12-.52-7.4-.24-.67-2.17-.95-1.31-3.43-3.65.34-2.16-2.86-2.77-4.69-.25-.75-1.49-.79-1.7-1.49-.21-.72.8-2.24.37-2.83-.13-.17-1.27-.25-1.76-.73-1.06-1.02-.98-3-.45-4.29,1.85-.36,2.01,1.64,2.97,2.67.58.62,1.41.91,2,1.62,1.33,1.61.98,3.19,2.03,4.75,1.56-2.37.75-6.32-1.33-8.16-.86-.76-5.04-2.37-2.06-3.83,3.46-1.69,4.63,4.35,5.89,5.42,1.08.92,3.31,1.13,4.8,2.67,1.17,1.2,2.69,5.46,2.96,5.63.44.28,1.76,0,2.81.58,1.46.82,1.13,2.43,1.84,3.13.61.59,1.65.3,2.28.88,1.62,1.48.42,7.91,5.59,7.76-.43,2.44,1.07,1.45,1.64,2.19.64.84-.03,2.99,2.49,2.73l-.9,1.58,2.25.9c-1.34.26.03,4.06.41,4.57.68.91,6.69.79,8.87,4.24,1.53,2.41-4.09-1.7-4.53-.9-1.02,2.39,3.24,2.19,4.52,3.62l-2.48.68c.75.86,1.94.97,2.72,1.8,1.06,1.13,1.06,2.95,2.22,4.11,1.75,1.75,7.99,2.49,3.2,5.4l3.16,2.28-.91,1.77,1.8,1.38c-.29,1.6-4.61-1.32-4.77-1.58-.3-.49.32-1.26.05-1.81-.2-.41-3.09-2.74-3.67-4.08l.7-1.13-.44-.46c-1.35-.47-2.78-.06-4.2-.32-.82-.15-3.11-1.66-3.49-1.25-.97,1.03,1.92,2.13,2.25,2.94.02,1.56-1.47.34-2.05-.22-1.1-1.07-1.17-3.13-2.92-2.73-.71,4.65,4.52,6.28,8.14,7.24l-1.8,1.57,2.28.91c-.06,3.25,3.53,2.14,3.62,5.44.02.75-.68,2.69-.47,2.91.07.08.91,0,1.29.27,2.15,1.47,3.74,6.14,1.19,7.9-.47.32-.38.72-.9-.02-2.42-4.53-4.12-10.53-6.94-14.78-.46-.7-.85-1.64-1.89-1.49l8.12,20.58-1.12.22-3.39-8.6c-.18-.14-.78.45-.86.75-.3,1.2,3.17,6.25,3.1,8.09-.02.54-.63,1.3-.88,1.1-.28-1.42-.86-2.83-1.59-4.08-.34-.59.08-1.14-1.12-.89.29,3.09,2.35,5.75,2.68,8.85.1.89-.09.66-.87.64-.14-.13-.87-3.74-1.82-2.71.59,1.71,1.95,3.52,1.13,5.42-3.26-4.58-4.31-11.07-7.38-15.69-.46-.7-.85-1.64-1.89-1.49-.41.46,3.19,6.82,3.64,7.89.44,1.04.34,2.24.78,3.29,1.21,2.85,3.52,5.62,3.71,8.72-.46.63-3.74-6.58-3.61-7.38l-1.36-.3,4.07,10.85c-1.17.23-.79-.25-1.13-.88-1.23-2.28-2.17-5.19-3.31-7.56-1.41-2.95-4.29-5.51-3.7-9.19l2.94,3.61c.35.07.27-.42.23-.68-.31-1.87-3.22-6.49-3.95-9.17-.4-1.46-.99-7.36-1.26-7.79-.28-.44-.64-.53-1.13-.45-.54,2.36.72,5.32.46,7.46-.08.62-.27,1.32-.91.68l-1.37-5.42-1.8.9c.69-2.5-1.99-4.04-2.42-5.96-.24-1.09-.18-4.24.15-5.34-1.66-.29-1.08,1.72-1.46,2.16-.23.27-1.76.11-1.78,1.38-4.7-.35-3.84-3.64-5.26-6.59-.57-1.18-1.85-1.84-2.56-2.87-.72-1.04-3.96-9.46-4.23-10.69-.1-.44-.1-5.55-1.36-2.99-1.26,2.55-.01,3.18.52,5.22.21.82.48,1.09-.38,1.7-.53-1.25-.6-4.87-2.49-4.29,0,.92,1.78,3.15.46,3.84l-1.37-4.52ZM137.64,101.2c0,1.25-2.03,0-1.35-.68.26-.26,1.35.38,1.35.68ZM126.34,130.82c-.93.96-4.71-5.6-2.94-6.33l2.94,6.33ZM118.43,149.38c-1.62,1.38,1.33,3.15.68,4.96-.67.71-3.46-3.8-3.85-4.51-2.05-3.77-6.29-15.16-6.56-19.23-.11-1.6,2.12.48,2.25-.89.07-.82-1.1-4.61-1.28-5.94-.19-1.4,0-2.84-.06-4.24l-1.8,2.26-.46-5.88c-1.62-.39-.93.54-1.8.9-.21-1.14.77-3.15-1.13-2.71l-.23,5.88c-1.39-.93-1.52-3.98-1.35-5.65.16-1.57,1.47-3.21,1.39-4.06-.09-1-1.25-1.14-1.79-1.88-2.36-3.26-1.39-8.25-2.34-11.92l-2.02.03c-.45-2.74-3.28-3.69-3.74-6.24-.33-1.83-.46-4.65-.1-6.45,1.85.99.13,5.14,2.71,5.42l-.45-6.33c1.16-.19.82.17,1.03.98.5,1.88.34,3.91,1.04,5.76.89,2.35,3.52,3.64,4.45,5.5.52,1.04.45,2.91.94,3.58.43.58,2.57.87,3.24,1.72l2.86-1.27c-.74,2.55.82,2.58,1.38,3.47.69,1.1,1.6,4.71,2.46,6.04.44.68,1.35-.13,1.81.39.53.59.47,1.8.91,2.3.57.65.93.58,2.04,2,.48.61,1.77.52,1.34,2.07-.06.1-2.06-1.81-2.26-.22-.12.98,2.29,3.04,2.61,4.62.31,1.55-.26,2.81-.04,4.1.47,2.73,6.77,10.94,6.51,12.46-.05.26-2.07,1.08-1.83,2.29-.11.53-.61.32-.93.05-1.67-1.42-3.69-8.84-4.97-11.09-.19-.15-.75.43-.84.77-.47,1.93,3.74,7.95,4.45,10.32.51,1.71-2.49-.74-2.26.89.32,2.3,3.62,4.36,2.5,7.01-1.95-1.38-4.82-11.87-6.79-11.75-.27.02-.66.65-.67,1.1-.03,2.29,6.76,11.62,7.59,14.58l-.59,1.04c-.64-.15-2.44-5.57-3.4-4.52-.35,1.48,3.64,7.11,3.16,7.68-.7.85-.98-.64-1.12-.89-.89-1.52-1.3-3.34-2.72-4.53ZM120.08,181.54c1.85-.35,3.45-.16,4.42,1.58l-1.09,1.51c-.31,0-1.35-3.44-2.49-2.25-1.01,1.06,2.63,3.56.67,4.07-2.34.61-2.45-3.58-1.51-4.91ZM113.67,183.29c-1.48.3-.65-1.5-1.81-2.07-.63-.31-1.59.45-1.81.26,1.33-3.64,5.12-1.56,3.61,1.81Z"/>
  <polygon class="st0" points="138.11 185.77 140.36 186.45 138.79 184.19 138.11 185.77"/>
  <path class="st0" d="M148.06,189.62l.04,1.31,1.76.5-.21-1.37c-.39-.58-.93-.47-1.59-.44Z"/>
  <path class="st0" d="M211.52,193.32c-7.95-5.11-23.41-9.27-32.82-11.96-9.63-2.75-19.72-5.29-29.74-5.76-.17,1,.42,1.08,1.15,1.33,1.92.66,5.23.7,7.45,1.14,10.03,1.99,19.7,4.79,27.15,12.2,5.7,5.67,10.49,17.11,20.45,15.07,2.1-.43,5.02-3.5,2-2.99-.74.12-1.32.99-2,1.17-5.08,1.35-12.48-3.99-14.16-8.69-3.08-8.62,11.02-5.14,14.68-1.11,1.11,1.22,1.85,4.22,3.22,4.47,1.08.2.59-.66.67-1.35l2.71.45-2.26-2.71,3.62.9c.18-.94-1.46-1.76-2.11-2.18Z"/>
  <path class="st0" d="M132.81,171.21c5.91-5.89,19.36-13.69,26.99-17.56,13.05-6.62,27.69-12.44,42.07-15.14l-.03-1.32c-.66-.2-1.31-.42-2.01-.48-9.35-.89-34.56,12.13-43.5,17.11-5.91,3.29-11.2,7.65-17.33,10.48,6.28-5.78,12.95-11.41,19.68-16.72,1.61-1.27,11.31-7.67,11.07-8.82-.69-3.27-9.17,4.38-10.16,5.21-5.43,4.52-11.33,9.88-16.53,14.68-1.73,1.6-8.04,8.72-9.27,9.27-.24.11-.77.09-.67-.22l1.81-2.94c-.49-.03-.92-.08-1.36.21-.88.58-4.14,7.06-5.05,8.52-.39.64-3.37,3.6-1.5,3.49,1.08-.06,6.37-1.86,5.19-3.18-.41-.46-3.47,2.31-3.17,0,2.9.5,2.74-1.57,3.76-2.58Z"/>
  <path class="st0" d="M136.56,160.72c-.34.51-1.65,2.08-1.17,2.67.67.81,1-.63,1.16-.85,14.04-19.13,34.53-37.43,53.87-51.07,3.74-2.64,7.92-4.78,11.41-7.63.25-.95-.63-1.85-1.53-1.94-2.44-.05-18.74,13.36-21.71,15.83-13.4,11.17-32.4,28.62-42.03,43Z"/>
  <path class="st0" d="M202.1,145.3c-13.12,1.23-36.32,10.31-48.33,16.34-1.36.68-3.17,1.27-3.91,2.64,2.86-.23,5.62-2.15,8.29-3.24,12.47-5.12,24.02-8.91,37.31-11.54,4.68-.93,9.59-1.02,14.1-2.63-1.91-1.88-4.93-1.82-7.46-1.58Z"/>
  <path class="st0" d="M157.91,164.42c-3.27.86-9.3,2.28-12.12,3.71-.7.36-1.53.56-1.35,1.58,23.03-7.22,47.32-10.23,71.45-10.62-1.37-1.23-5.11-1.59-7.01-1.62-15.65-.25-35.74,2.94-50.98,6.95Z"/>
  <path class="st0" d="M184.53,89.96c1.87-1.81,3.41-4.24,5.81-5.72,1.22.97.64,1.84,1.46,2.95-1.51,1.76-3.11,3.71-3.04,6.09.67.6,5.76-3.33,6.14-4.52.28-.89-.24-1.73.27-2.82.61-1.28,2.74-2.32,1.88-4.3-.32-.75-1.34-.33-1.05-1.23.88-2.6,12.93-9.98,12.65-11.31-.24-1.14-1.42-.39-1.95-.15-5.28,2.42-20.27,16.18-24.29,20.94-.36.43-2.19,2.54-1.8,2.95.32.33,3.52-2.49,3.91-2.87Z"/>
  <path class="st0" d="M127.44,172.4c1.64-2.48,3.09-6.9,4.71-9.77,5.56-9.89,14.16-21.83,21.55-30.46,3.2-3.74,10.39-9.62,12.65-13.13.45-.7.82-1.36.7-2.24-.59-.74-12.43,12.05-13.34,13.11-3.87,4.48-7.82,9.69-11.26,14.52-6.4,8.98-12.78,18.49-16.55,28.9.79.15,1.17-.37,1.54-.94Z"/>
  <path class="st0" d="M164.99,171.51c10.72-.42,21.42.89,32.15.45l15.58,1.37c-.13-.56-.74-1.02-1.24-1.25-2.65-1.25-16.06-1.8-19.78-1.93-13.16-.46-26.57-.22-39.59,1.38-.72.59.05.82.67.9,4,.51,8.22-.77,12.2-.92Z"/>
  <path class="st0" d="M138.68,134.33l7.2-14.95,13.48-20.21c-.92-.16-1.2.1-1.81.67-2.62,2.42-6.91,9.08-8.95,12.31-1.38,2.17-12.34,21.87-11.39,22.75.12.11,1.51.23,1.47-.57Z"/>
  <path class="st0" d="M186.95,180.58l27.59,5.42c.08-.66.02-1.09-.41-1.62-2.33-2.88-22.9-5.23-27.17-3.8Z"/>
  <path class="st0" d="M200.85,201.72c7.32,1.21,3.96-8.13-1.57-9.29-8.4-1.75-5.27,8.16,1.57,9.29ZM202.79,197.97l-.92,1.39c-3.96,1.54-8.13-6.42-3.05-5.59,1.6.26,4.14,2.44,3.97,4.2Z"/>
  <path class="st0" d="M193.95,76.09c.86-.71,4.09-5.14,4.94-6.36.52-.74.62-2.06,1.15-2.8.52-.72,2.12-1.16,2.28-2.59-1.19-.93-6.58,4.4-7.94,4.96l.61,1.6c-1.46.88-.96,2.42-1.49,3.38-.17.31-2.53,1.36-1.57,2.27.29.28,1.53-.05,2.02-.46Z"/>
  <path class="st0" d="M184.24,129.92c1.53-.12,9.65-4.07,9.9-4.81.17-.51.12-1.06-.17-1.52-1.23-2.35-7.06,1.72-7.7,2.74-.25.4.12,1.04-.03,1.35-.41.86-2.2.89-2,2.24Z"/>
  <path class="st0" d="M177.61,192.4c-1.36-1.31-11.72-6.91-12.82-5.94-.13.74.36,1.23.93,1.55,1.48.85,4.13,1.24,6.15,2.44,2.4,1.41,3.77,4,6.48,3.69.21-1.1-.11-1.14-.74-1.74Z"/>
  <path class="st0" d="M138.97,170.36c-.93.79-4.33,1.46-4.46,1.65-.25.38-.32,1.47.65,1.33.26-.04,4.69-1.63,4.91-1.77.62-.4.52-1.72,1.22-2.51.96-1.09,3.71-2.04,5.14-2.47l.27-1.39c-.84-.86-5.6,2.14-6.34,2.93-.61.65-.66,1.62-1.38,2.23Z"/>
  <path class="st0" d="M216.34,110.47c.29-1.75-1.66-2.3-2.26-3.61l3.17,1.12c-.11-2.17-2.18-3.65-3.85-4.73-1.19,1.77-1.47,3.63-.06,5.26.24.28,2.73,2.27,3,1.97Z"/>
  <path class="st0" d="M181.93,130.64c-.99-2.96-8.32,2.45-9.01,4.25,1.88-.48,3.46-2.23,5.42-2.53,1.21-.19,4.55,1.16,3.59-1.71Z"/>
  <path class="st0" d="M188.95,95.96c-.78.34-5.77,4.91-5.16,5.46.75.68,7.67-4.73,7.68-5.2.02-1.05-1.84-.56-2.51-.26Z"/>
  <path class="st0" d="M201.81,121.72c.72-2.86-3.46-3.63-4.9-1.53,1.12.95,2.08.81,1.35,2.48l3.55-.96Z"/>
  <path class="st0" d="M174.07,111.39c.44-.22,4.49-3.47,4.64-3.73.27-.49.06-1.16.1-1.71-.97-1.03-5.23,4.28-5.87,5.2.73.89.48.57,1.13.24Z"/>
  <path class="st0" d="M201.42,118.61c1.9.01,1.62,1.04,2.48,2.26,4.88-2.48-1-6.56-2.48-2.26Z"/>
  <path class="st0" d="M159.15,122.22c.47-1.07-.22-1.68-.12-2.41.11-.77,1.48-1.5,1.23-2.55-.85.47-3.59,3-3.04,3.98l.78.77c-3.85,3.39.16,2.47,1.15.22Z"/>
  <path class="st0" d="M133.58,176.96c-.57,3.1,5.01,1.7,3.84-.46l-3.84.46Z"/>
  <path class="st0" d="M184.24,200.48c-.71.76,3.41,2.94,3.61,2.71.05-2.89-.89-3.6-3.61-2.71Z"/>
  <path class="st0" d="M213.85,73.39c-.56-.12-1.25.56-1.12,1.12l1.58,1.58c1.3-.59.36-2.53-.46-2.7Z"/>
  <polygon class="st0" points="217.26 187.15 217.47 185.1 215.45 186.23 217.26 187.15"/>
  <path class="st0" d="M160.71,114.09c-1.13.87-2.88,1.98-2.7,3.62,1.13-.87,2.88-1.98,2.7-3.62Z"/>
  <path class="st0" d="M143.53,174.24c.29.29,2.51-.01,2.26-1.12-.39-1.73-3.29.09-2.26,1.12Z"/>
  <path class="st0" d="M145.11,175.6c-1.06.03-1.26.91-1.12,1.8l1.8.45-.05-1.53-.63-.73Z"/>
  <path class="st0" d="M179.7,202.06l-2.25-1.13c-.45.62,1.47,2.78,2.25,1.13Z"/>
  <path class="st0" d="M139.91,176.05c-.5.7.93,1.71,1.81,1.35,1.22-1.89-1.29-2.08-1.81-1.35Z"/>
  <path class="st0" d="M121.6,101.43c-1.08.36.3,2.85.59,3.47,1.44,3.09,3.47,6.31,4.99,9.48.23.49,2.22,6.71,3.23,5.59.64-.71-3.6-7.06-2.49-8.59.77.57,1.38,3.11,2.48,1.59-.41-.43-2.48-7.32-3.6-6.11-.21.96,1.48,3.46-.45,3.16l-2.64-5.73c-.7-.44-1.22-3.16-2.11-2.86Z"/>
  <path class="st0" d="M113,67.97c.3.52.08,1.37.31,1.7.29.44,2.8.57,3.31,1.45.58,1-.06,3.83,2.51,2.96,2.02-4.53-1.38-4.09-2.96-5.69-.48-.48-.42-1.47-.98-1.83-1.04-.68-3.01-.34-4.22-.41-.38,1.44,1.47.85,2.04,1.82Z"/>
  <path class="st0" d="M118.65,84.92c-.14-.78-.48-1.27-1.35-1.13v9.72c0,.71.67,3.78,1.36,4.07l.91-.47c-1.73-3.82-.24-8.54-.91-12.2Z"/>
  <path class="st0" d="M121.03,80.07c.75.64,2.76.58,3.54,1.65.82,1.12-.32,3.49.65,3.42,2.09-.15,2.19-5.04-.87-6.35-1.99-.85-5.15-.27-3.32,1.29Z"/>
  <path class="st0" d="M129.51,108.66c2.86.36-.78-5.85-1.13-5.87-1.51,1.54,1.41,4.01,1.13,5.87Z"/>
  <path class="st0" d="M108.93,87.4c1.16.05-.02-2.98-.18-3.45-.24-.69.41-1.3-.95-1.06-.15.97-.14,4.45,1.13,4.51Z"/>
  <path class="st0" d="M132.55,87.53c2.23-.96-2.78-2.7-2.59-.13,1,.27,1.57.57,2.59.13Z"/>
  <path class="st0" d="M110.74,86.94c1.44-1.05.03-2.69.22-4.06-1.43.23-1.08,4.06-.22,4.06Z"/>
  <path class="st0" d="M125.89,103.69c.35-.32-1.53-3.95-2.26-3.16l.9,2.86,1.36.3Z"/>
  <path class="st0" d="M117.97,77.45c1.28-.29.76-2.82-.67-1.81-.33.24-.56,2.08.67,1.81Z"/>
  <path class="st0" d="M116.39,129.01l-2.22-10.13-1.37-.24c-1.36.88,1.23,8,2.14,9.33.39.58.51,1.24,1.44,1.04Z"/>
  <path class="st0" d="M111.87,127.66c-.04,1.81.34,3.53,2.25,4.07.42-.55-.81-4.38-2.25-4.07Z"/>
  <polygon class="st0" points="103.74 104.59 105.09 104.59 105.09 102.33 103.74 102.33 103.74 104.59"/>
  <path class="st0" d="M117.98,132.64c-.47,0-.96,1.52-.68,1.8,1.17,1.17,2.43-1.79.68-1.8Z"/>
</svg>