<?xml version="1.0" encoding="UTF-8"?>
<svg id="Layer_1" xmlns="http://www.w3.org/2000/svg" version="1.1" viewBox="0 0 300 300">
  <!-- Generator: Adobe Illustrator 29.8.3, SVG Export Plug-In . SVG Version: 2.1.1 Build 3)  -->
  <defs>
    <style>
      .st0 {
        fill: none;
        stroke: #6c5d35;
        stroke-linecap: round;
        stroke-linejoin: round;
      }

      .st1 {
        fill: #6f4c1d;
      }

      .st2 {
        fill: #005f9b;
      }

      .st3 {
        fill: #1689ca;
      }

      .st4 {
        fill: #6bb7e5;
      }

      .st5 {
        fill: #e3b92b;
      }

      .st6 {
        fill: #a17d23;
      }
    </style>
  </defs>
  <g>
    <path class="st6" d="M41.9,142.57c.36.46.75.91,1.16,1.35-.39-.43-.78-.88-1.16-1.35Z"/>
    <path class="st6" d="M43.32,144.21c.52.55,1.05,1.09,1.63,1.62-.54-.5-1.09-1.04-1.63-1.62Z"/>
    <path class="st6" d="M33.17,146.43c-4.09-1.43-8.2-3.22-11.71-5.45,2.73,1.97,6.7,3.79,11.71,5.45Z"/>
    <path class="st6" d="M147.74,158.31c32.61,0,65.2-2.14,89.67-6.16-12.06,1.85-44.48,6.04-91.44,6.15.59,0,1.18,0,1.77,0Z"/>
    <path class="st6" d="M10.77,98.43c-.72,10.51-.16,21.3,3.01,30.37-2.48-8.15-3.4-19.11-3.01-30.37Z"/>
    <path class="st5" d="M41.14,141.56c.67.07,83.16,8.37,102.94,8.37s109.81-8.31,110.47-8.37c15.13-21.15-11.38-53.89-11.38-53.89,20.06-12.27,31.39-30.6,32.46-32.38-.04-.07-.07-.15-.09-.18-.56-.66-25.97,56.46-127.8,56.46-56.67,0-89.65-17.69-107.88-33.27,3.73,3.26,7.93,6.48,12.65,9.37,0,0-26.5,32.74-11.38,53.89Z"/>
    <path class="st6" d="M19.94,55.11s.84,1.42,2.42,3.7c-1.59-2.4-2.33-3.81-2.42-3.7Z"/>
    <path class="st6" d="M19.76,55.48c.06-.12.12-.25.18-.37-.03.04-.1.18-.18.37Z"/>
    <path class="st6" d="M271.9,142.35c-1.84,1-3.79,1.9-5.78,2.71,2.21-.87,4.14-1.77,5.78-2.71Z"/>
    <path class="st6" d="M284.99,105.23c-.09,6.86-.71,13.39-1.92,19.02,1.46-5.96,1.99-12.46,1.92-19.02Z"/>
    <path class="st1" d="M275.74,55.11s-.05.08-.11.18c-1.07,1.78-12.4,20.11-32.46,32.38,0,0,6.12,17.73,6.12,30.8s-6.09,24.12-6.09,24.12c0,0-79.35,7.34-99.13,7.34s-91.64-7.36-91.64-7.36c0,0-6.64-9.45-6.64-24.75s6.71-30.15,6.71-30.15c-4.71-2.88-8.92-6.1-12.65-9.37-.42-.36-.84-.72-1.24-1.08-.06-.05-.12-.11-.18-.16-7.78-7.06-13.2-14.11-16.08-18.25-1.59-2.28-2.42-3.7-2.42-3.7-.06.12-.12.25-.18.37-5.19,10.03-8.44,26.8-9,42.96-.39,11.26.52,22.22,3.01,30.37,1.62,5.32,3.92,9.42,6.95,11.66,0,0,.01.01.02.01.18.13.35.29.54.41.06.04.12.07.18.11,3.51,2.22,7.62,4.01,11.71,5.45,10.05,3.52,19.88,4.85,19.88,4.85,0,0,29.55,7.03,91.02,7.03.64,0,1.26,0,1.9,0,46.96-.11,79.38-4.3,91.44-6.15,3.43-.53,5.22-.87,5.22-.87,0,0,12.34-1.66,23.49-6.21,1.99-.81,3.95-1.71,5.78-2.71.86-.47,1.7-.96,2.5-1.47,4.15-2.66,6.98-8.76,8.67-16.63,1.21-5.63,1.83-12.16,1.92-19.02.25-18.26-3.22-38.74-9.25-50.12ZM43.06,143.93c.09.1.78.83.27.28-.09-.09-.18-.18-.27-.28-.41-.45-.39-.43,0,0Z"/>
    <path class="st0" d="M43.32,144.21c-.09-.09-.18-.18-.27-.28"/>
  </g>
  <g>
    <path class="st2" d="M190.22,228.34c-16.49,0-21.07-7.18-24.65-15.18-2.52-5.64-4.19-9.36-18.37-9.36s-15.98,3.71-18.85,9.32c-4.09,8.02-9.21,15.21-26.7,15.21-19.88,0-23.46-9.5-25.25-18.4-1.07-5.32-1.23-6.13-7.84-6.13-20.28,0-27.76,17-28.07,17.72l-11.9-4.95c.43-1.05,10.92-25.66,39.97-25.66,17.15,0,19.23,10.32,20.47,16.48,1.11,5.53,1.62,8.06,12.62,8.06s12.53-2.91,15.22-8.19c4.4-8.62,10.03-16.35,30.33-16.35s26.12,8.03,30.13,16.98c2.33,5.19,3.39,7.56,12.9,7.56s11.11-2.67,13.66-7.98c4.19-8.73,9.57-16.56,29.12-16.56,37.98,0,43.15,25.03,43.35,26.09l-12.66,2.39c-.13-.54-3.83-15.6-30.69-15.6-13.06,0-14.83,3.68-17.5,9.26-3.1,6.45-7.34,15.28-25.28,15.28Z"/>
    <path class="st3" d="M190.63,224.11c-16.49,0-21.07-7.18-24.65-15.18-2.52-5.64-4.99-9.83-19.16-9.83s-15.19,4.18-18.06,9.8c-4.09,8.02-9.21,15.21-26.7,15.21-19.88,0-21.68-9.81-23.47-18.71-1.07-5.31-3.01-5.83-9.61-5.83-20.77,0-30.92,20.67-31.02,20.88l-12.21-4.63c.55-1.15,14.43-29.13,43.23-29.13,17.15,0,19.23,10.31,20.47,16.48,1.11,5.53,1.62,8.06,12.62,8.06s12.53-2.91,15.22-8.19c4.4-8.62,10.03-16.35,30.33-16.35s26.12,8.03,30.13,16.98c2.33,5.19,3.39,7.56,12.9,7.56s11.11-2.67,13.66-7.97c4.19-8.73,9.57-16.56,29.12-16.56,30.59,0,41.49,20.03,42.99,30.61l-11.37,1.84c-.31-1.94-5.3-19.57-31.62-19.57-13.06,0-14.83,3.68-17.51,9.25-3.1,6.45-7.34,15.28-25.28,15.28Z"/>
    <path class="st4" d="M189.76,219.98c-16.49,0-18.43-7.33-22.02-15.33-2.52-5.64-6.83-9.21-21.01-9.21s-15.98,3.71-18.85,9.32c-4.09,8.02-9.21,15.21-26.7,15.21-19.88,0-18.97-9.81-20.76-18.71-1.07-5.31-5.72-5.83-12.32-5.83-20.52,0-31.78,24.27-31.9,24.51l-12.31-4.57c.59-1.31,15.29-32.83,44.2-32.83,17.15,0,19.23,10.31,20.47,16.48,1.11,5.53,1.62,8.06,12.62,8.06s12.53-2.91,15.22-8.19c4.4-8.62,10.03-16.35,30.33-16.35s26.12,8.03,30.13,16.98c2.33,5.19,3.39,7.56,12.9,7.56s11.11-2.67,13.66-7.97c4.19-8.73,9.57-16.56,29.12-16.56,30.46,0,45.04,22.51,47.08,34.44l-12.52,1.81c-.17-.94-7.52-23.37-34.56-23.37-13.06,0-14.83,3.68-17.5,9.25-3.1,6.45-7.34,15.28-25.28,15.28Z"/>
  </g>
</svg>