<?xml version="1.0" encoding="UTF-8"?>
<svg id="Layer_1" xmlns="http://www.w3.org/2000/svg" version="1.1" viewBox="0 0 300 300">
  <!-- Generator: Adobe Illustrator 29.8.3, SVG Export Plug-In . SVG Version: 2.1.1 Build 3)  -->
  <defs>
    <style>
      .st0 {
        fill: #231f20;
      }

      .st1 {
        fill: #dfde00;
      }

      .st2 {
        fill: #ffbfc7;
      }
    </style>
  </defs>
  <path class="st2" d="M180.12,145.26c-.85-.24-3.18-.7-4.02-.74-1.03-.04-2.52.6-3.33.02l-2.23-5c-.11,2.06.34,4.3,1.42,6.06.57.35,2.03-.44,2.79-.54,5.23-.7,11.97,3.94,13.15,9.15l1.15.04c.03-.26,0-.51-.06-.77-.87-3.16-5.73-7.34-8.86-8.23Z"/>
  <path class="st2" d="M217.53,152.12l2.61-.72c.28-.38-1.6-1.93-2.02-2.13l-.12,1.66c-.76-.3-.1-1.15-.94-1.32-.81-.17-.94.58-1.67.61-.06-.53.13-1.25-.04-1.74-.16-.46-1.78-.96-2.1-.76-.66.43.62,1.73-.47,1.55l-.48-2.14c-.67-.13-.41.23-.49.68-3.66.33-6.17,4.18-6.39,7.63.35.35,8.88-1.97,9.28-2.48.18-.23.22-.56.22-.85l.47.17v.54c1.14.02,1.6-.53,1.42-1.66h.71s0,.95,0,.95ZM209.59,153.55l-.84.23.95-1.66-.11,1.43ZM211.37,150.57l.47-.11.24,2.13c-.99.17-.11-1.5-.71-2.02Z"/>
  <path class="st2" d="M198.19,106.78c-.45-.31-.86-.13-.83.12l2.84,2.01c-.56-.61-1.37-1.7-2.01-2.14Z"/>
  <path class="st2" d="M169.82,123.88c.34.51-1.74,3.35,1.19,3.08l-.21-1.16.68-.38-.68-1.2c1.28-.69,1.25-1.63,1.16-2.96,1.79.56.03,2.2.26,3.66.11.75.78,1.43.69,2.27l-1.18-.12c.42.94,1.55,1.74.94,2.83l.49.27-.25,2h.95s-.24.95-.24.95h.95s-.47.6-.47.6l2.37.83-.48,1.42c1.56-.14,1.45,1.56,2.14,2.61,1.01.1.76-1.46,1.18-1.78.3-.24.67.05.71.24.07.34-2.81,2.99-.47,2.96l.35-.71c.63,1.24,1.74,1.3,2.97,1.54l.23.83-1.42-.23c.17.6-.03,1.39.71,1.66l.12-.71.83.59-.47.59c1.07-.22,1.78-.34,1.91.95.94-.18,1.38-.44,2.02.47.47.57-.64.65-.6.83.32,1.29,2.37,2.17,1.9,3.68.4.1.15-.35.26-.43.51-.38,1.34,1.03,2.11.67l-.71.48c.52.67.84,1.23.71,2.13.86-.43,1.19-.42,2.14-.24.2.2-.93,1.52,1.32,1.88.73.12,2.49.29,2.48-.69h.47c.13,2.13,1.77,1.06,2.48,1.22.38.09.66,1.42,1.56,1.15.19.6-.41.59-.84.48-.69-.18-.37-.64-.82-.72l-.24,1.18c.8-.06,3.82-.11,4.17-.7l-.62-1.77c1.11-.37.59-1.51.83-2.02.36-.76,5.81-4.52,6.85-5.04,5.05-2.52,10.35-2.47,13.6,2.63.82-.29,1.85-.65,2.48-1.28.83-.82,3.46-6.88,3.86-8.24.09-.32.6-2.28.59-2.41-.1-1.18-2.09-1.68-2.5-2.13-.83-.9-2.08-2.03-3.16-2.88-4.09-3.25-8.48-6.21-12.33-9.5-1.61-1.38-3.08-3.09-5.09-3.93-.16.55-2.24,1.38-2.66,1.39-.43,0-.67-.46-1.02-.57-.89-.27-1.98,1.44-2.61,1.93l.95.83c-2.15-.54-4.37.88-6.59,1.12-8.49.94-12.59-6.31-15.28-13.07-.88-2.21-1.18-3.67-.67-6.09-1.38.24-2.07,1.01-2.38,2.36l-1.17-.59.71-.82c-.79-.02-1.78.17-2.13.94l1.18.59c-1.32.82-2.81,1.5-3.37,3.04-.82,2.24-1.36,4.76-2.01,7-.24.8-.2,1.66-.73,2.31l1.14.71c-.27.48-.31.68-.92.61l.17,1.51-1.14,1.21.71.11ZM226.55,140.25c.06-1.35,1.03-2.32,2.37-1.66.32.45-1.68,2.06-2.37,1.66ZM228.44,137.05c-.04.86-2.65.35-2.6-.59l2.6.59ZM225.6,135.03l.24.71c-.38.3-1.28-.9-.24-.71ZM222.99,144.64c1.71-.85-1.62-2.32.71-2.49l-.47.95,1.66-.24-.95-1.65c1.05-.3,1.11-1.37,2.37-.71l-1.66,3.32c.3.29,2.08-2.18,2.37-.24-.72-.06-1.01.23-.95.95l-.47-.24.02.69.93.49-.73.16v.78c-1.12.36-1.89-.46-3.07-.23l1.42-1.18-1.19-.36ZM210.41,135.98l3.56.95c-.33.82-2.39-.16-3.04-.42-.36-.14-.64.14-.52-.53ZM198.3,147.61s-.16-.01-.23,0c-.11-.24.11-1.53.47-1.42.08.17-.14,1.31-.24,1.42ZM201.88,145.59c-.52-.26-1.47-1.21-2.02-1.21-1.01.06-.69,1.2-1.3,1.57-.2-.96-.35-1.86-1.18-2.49l2.49-2.97c.48.68-.35,1.61-.3,2.22.1,1.11,2.02,2.39,3.02,2.77.04.45-.48.22-.7.11ZM203.05,146.19c.43-.08.78.32.95.71-.43.08-.78-.32-.95-.71ZM204.95,121.5l.04,1.39.78.25.14.49c-1.3.25-1.38,1.45-1.84,2.31-.15.28,0,.4-.53.3.14-1.42-.02-2.34-.71-3.56.93-.04,1.46-.67,2.13-1.19ZM203.76,126.49l-.24,1.42c-.09.09-.65.1-.43-.31l.67-1.11ZM200.08,132.91c1.79-.07,1.24-1.95,2.73-2.39-1.23,3.44.16,2.8,2.61,3.68.32.12.56.4.9.52.95.34,2.5.28,3.13,1.25-1.96-.16-5.7-2.6-7.49-1.44-.57.37-.46,1.18-1.05,1.44.01-1.3.2-2.08-1.18-2.49-3.68-1.08-8.88-1.36-12.83-2.13-1.1-.21-2.76-.31-3.55-1.07l16.73,2.62ZM181.69,117.23c.44-.04,1.04-.07,1.19.47-.33.12-1.48-.33-1.19-.47ZM180.74,138.59c0,.87-.71.87-.71,0h.71ZM172.91,119.84v.71s-.71-.12-.71-.12l.71-.59Z"/>
  <path class="st2" d="M154.62,147.71c-.15.79-2.3,4.15-1.88,4.64l2.13-1.66-.47,1.18c.55-.19,1.81.63,2.02.63.28-.01.79-.67,1.54-.15l-1.42.58c-.97,2.2,1.88-.13,2.13.13l-.23,1.19c1.23-.69.92,1.35,2.13.71l-.24.71,1.18-.35c0-.19-1.19-.73-.48-1.19,1.39-.63,1.65,1.25,3.09.84.25.2-1.01,1.25-.24,1.42.17-.85.8-1.29,1.66-1.19l-1.66-1.42,1.42-.49c-.71-.53.75-4.44,1.18-4.03l.47.95v-.95s.71,0,.71,0c-.2,1.24-.88,2-.95,3.44-.02.49-.14.68.47.59.23-1.8.79-3.44,1.86-4.91.68-.94,1.07-.51.82.33-.47,1.55-1.53,2.17-1.73,4.45-.12,1.39.25,6.98,1.07,7.96.59.7,2.51-.17,3.33-.24.93-.08,8.91-.17,8.89-1.07-.55-.44-.72-.71-.73-1.42-.02-1.27,1.13-4.98.98-5.67-.04-.18-.49-.14-.49-.29l.26-.68c-1.18-.43-.18-.96-.85-1.56-.63.5-1.51.4-2.11.74-.79.44-.94,1.97-2.28,1.63.12-.38.63-.46.96-.82.88-.93,1.45-1.67,1.41-2.98l-1.42.23,1.66-1.78c-1.45-1.24-3.48-1.11-5.23-.72-.79.18-2.63,1.09-3.21,1.06-.7-.04-.92-1.19-1.88-1.2-.56,0-.89.41-1.25.46-.39.06-.74-.15-.94-.13-.39.06-1.73.55-1.85.56-.27,0-.99-.99-1.78-.39l.24.95c-.52-.61-.88-.17-1.27-.23-.19-.03-.12-.44-.27-.44-1.62-.01-3.57-.14-5.05.13-.44.08-.88.05-1.32.11l-.42.3ZM179.08,157.34h-.47v-1.18h.35s.33.39.33.39l-.21.8ZM180.03,151.17c.28.29-1,1.79-1.42,1.9-.22-.5,1.08-2.25,1.42-1.9ZM173.63,159.48v-.95s.47,0,.47,0c.06.44,0,.82-.47.95ZM174.81,158.05c.08-.28.31-2.13.82-1.9.91.42-.11,1.82-.82,1.9ZM177.3,157.82c.8.02.1,2.36-.83,2.13.03-.52.07-2.15.83-2.13ZM176.59,153.31c.72.26-.24,1.36-.59,1.42.05-.21.05-1.61.59-1.42ZM176.35,149.27c.59.34.08.85-.23,1.19-.64.73-1.72,1.31-2.5,1.89.07-1.7,1.55-2.16,2.72-3.08ZM174.57,153.94l.72-.16c.01,1.41-1.3,2.15-2.13,3.08-.21-1.7,1.48-1.27,1.42-2.93ZM167.93,148.08h-.95c0-.95.95-.93.95,0ZM162.47,152.36h-.95s0-.47,0-.47c.44-.06.82,0,.95.47Z"/>
  <path class="st2" d="M188.81,99.45l-1.65-.49c-.46.47,1.6,3.12,1.65.49Z"/>
  <polygon class="st2" points="194.87 121.74 194.96 120.58 193.32 120.32 194.87 121.74"/>
  <path class="st2" d="M203.27,80.23l-1.98-.74-.38.6c-.06.21,3.33,1.58,2.35.14Z"/>
  <path class="st2" d="M183.83,109.87c.35.36.08,3.15,1.19,3.09l-.47.7c.81-.04.49,1.13.84,1.66.41.61,2.78,1.23,3.28,1.65.26.22,0,.85.78.95.45.05.25-.4.48-.45.44-.11,1.03.05,1.5,0,.25.61-.46.43-.48.59-.11.83.53.65.67.88.16.27-.02.82.05.9.16.18,1.59-.16,1.98-.15.83.03,3.5.81,2.06,1.45.89.38.47,1.16,1.54,1.54l.12-.71.83.47c.59-1.02,1.16-.34,1.95-.65,2.16-.83,6.35-5.91,5.03-8.22-.39-.69-1.1-.65-1.33-.93-.13-.16-.06-.54-.3-.75-.37-.33-2.42-.92-2.95-.84-.83.13-.43.76-1.68-.25-1.63,1.47-2.12.75-3.92.25l.37-1.19-1.68-1.42-.47,1.18c-.69-.68-1.39-1.65-.83-2.6-.36-.31-1.33.98-1.66.11-.28-.74.65-.67.68-.93.09-.94-1.11-1.08-1.16-1.24-.06-.18-.47-2.36-.48-2.58-.01-.71.66-2.24-.35-2.72-.48-.22-.49,1.34-.81,1.55l.22,2.24h-1.19c-.18-.18.33-2.17-.47-2.37-.17,1-.25,1.95-.25,2.98,0,.59.29,1.25.25,1.65-.06.63-1.27,1.17-1.19,2.02l-.59-.95c-.65.8-.66,1.86-2.03,1.32l-.46-2.03c.68-.17.55.54.72.94l1.15-.26-.21-1.87c1.04-.27.95,1.23,1.9,1.18.16-.77-.19-1.51-.21-2.23-.02-.4.34-.91.22-1.42-.04-.18-.5-.13-.49-.27.01-.34.41-.56.48-.95.11-.63-.05-1.37,0-2.01l-2.12.5-.26,4.48c-.29-.1-.64-1.39-.65-1.58-.03-.56.8-1.31.18-2.21-.43-.32-1.88,4.04-1.9,4.64-.07,1.66.8,3.87.96,5.56l1.18-.71ZM202.58,112.11c.74.34.28,1.51.59,2.03.21.36,1.44.65,1.3,1.42-.46.08-.71-.35-1.12-.43-.87-.17-2.17.16-2.68-.76l1.89-.6-2.13-1.3c.55.31,1.95-.46,2.14-.37ZM200.21,112.49c-.48,1.14.46,1.79-.24,3.08l-1.89-.48v-.7s1.19-.12,1.19-.12l-1.19-1.3,2.14-.47ZM199.26,116.05c-.89.41,1.73,1.87.59,1.89-.09,0-1.46-.8-1.61-.93-1.15-1.03.07-1.09,1.01-.96ZM187.39,114.38c.84.31,1.48.94,1.42,1.9-.4-.09-1.63-1.67-1.42-1.9ZM191.66,117.7c-.18-.13,1-.92,1.19-.71v.71s-1.19,0-1.19,0ZM186.21,108.46h.94s0-1.2,0-1.2l1.06.71c.63-.97.42-2.23,2.02-2.13.21.78-.6.35-.7.48-.38.47.84,2.25,1.17,2.73l-1.18,1.18,1.54.83.36-.59-.48-1.07h.59c.45,1.26,1.87.94,2.97,1.43.11,1.15-1.65-.26-2.25,0-.4,1.73,1.59.9,2.32,1,.51.07,1.85.93,2.55,1.02.66,1.07-.3,2.14-1.49,1.98-1.13-.15-1.19-1.29-2.19-.43l-.34-.56.45-.86-1.67-.38-.94,1.33c.66-1.16-.32-2.74-1.59-2.81-.31-.02-.51.33-.72.37-1.07.16-.61-.54-.65-.76-.13-.63-1.47-.95-2.04-1.07l.25-1.17Z"/>
  <path class="st2" d="M193.44,87.8l.82-.47.6,1.42c1.18-1.97.64.48,1.19.71l1.06-.95.24,1.42.47-.71c1.41-.15.54.83.97,1.51.55.88,2.34,1.11,2.73,2.75.17.71.19,2.01.1,2.75-.11.98-.77,1.63-.61,2.49.11.2,3.42,2.61,3.7,2.72.43.16.9.06,1.23.19.43.17,1.19.83,1.49.89.1.02.08-.75.7-.47l.36,1.18,1.18-.35.24-.6h-.71s.24-.71.24-.71c-1.13.28-2.32.02-3.44-.24-.37-.09-.41.16-.36-.47.31-.03,1.8-.19,1.87-.27.11-.12-.04-.66.14-.93.18-.28.86-.21,1.07-.59-.55-.45-.99-1.27-.06-1.51.53-.14.87.46,1.25-.15l-1.55-.83.15-1.18c1.75-.22,2.54.84,4.02,1.18,0-.38.11-.78-.24-1.07-.44-.37-3.44-1.16-3.56-1.31-.12-.14.04-.87.35-.91.42-.06,2.8.88,3.69.44.11-.67-.89-.71-1.41-1.08-.45-.33-.79-.8-1.2-1.17l2.85.59c.16-.71-.56-.44-.83-.96-.14-.27-.05-.66-.18-.88-.07-.12-2.07-1.03-1.6-1.49l2.37.71c.38-1.52-1.06-1.55-1.66-2.61l3.09.47c-.44-.83-2.05-1-1.9-2.13l2.61.95c.12-1.79-2.47-2.06-3.05-3.48-.11-.28-.11-.73.32-.56.46.19.81,1.29,1.78.94-.06-1.18-1.7-2.35-1.85-3.01-.31-1.38.51-2.78-.26-3.78.23-1.2,1.55.2,2.12.5.32.18.79.06.93.14.03.01-.2.32-.01.58.51.71,1.39,1.29,1.86,2.19.98,1.87,1.64,5.2,1.74,7.31.04.82-.48,4.61-.25,4.86l.71-.35c-.92-1.07-.19-.93-.07-1.13.67-1.14-.25-8.87-.83-10.31-2.63-6.52-13.91-11.02-20.35-9.1-1.03.31-6.67,2.67-7.24,3.2-1.36,1.27-1.42,3.81.94,2.95l.03-1.4c.7.25.55,1.5,1.42,1.42.2-.23-.44-1.68.47-1.42.08.38.24,1.26.6,1.42.85.38.42-.8,1.06-.95l.24,1.19c.67.33.83-.73,1.31-.67.46.06.67.95.59,1.38.5-.24.62-.78,1.28-.72.21.02,3.35,1.33,3.93,1.55.57.22,1.29.86,1.84,1,.37.09,3.32.11,1.55,1.2-3.61,2.21-6.93,4.1-11.32,3.59-1.36-.16-2.41-.94-3.7-1.16-.47.46,2.13,3.87,2.73,4.27ZM190.71,76.88h-.47s-.13-.95-.13-.95l.6-.23v1.18ZM193.56,73.56c.2-.5.64-.8,1.19-.71v.71s-1.19,0-1.19,0ZM203.39,76.39c-3.05.38-5.01-3.54-1.82-4.2,1.2-.25,2.59.01,3.39,1.01.99,1.23-.05,3-1.57,3.19ZM206.38,96.35c.19-.14.87.97.71,1.18l-.95.24.24-1.42ZM204.48,91.6l-.24.95-.71-.24c-.1-.08.66-.93.95-.71ZM201.87,90.52c.3.2.25.49.23.84h-.95v-.95l.72.11ZM200.2,89.7c.17.16.59,1.56-.35,1.18-.69-.28-.06-1.58.35-1.18Z"/>
  <path class="st2" d="M146,161.38c4.82.27,10.11.86,14.93.48.27-.02,1.06-.07,1.06-.47-4-1.48-7.42-4.02-11.08-6.14-.46-.04-4.72,3.98-3.4,5.18l-1.66.36.15.59Z"/>
  <path class="st2" d="M195.69,108.45c-.09-1.61.64-3.15,2.43-3.04l7.45,5.86,1.73.25.97-3.06-.73,3.4,1.16,1.02-.43,1.51,11.15-1.42-9.73,2.25c3.37,3.66,7.32,6.8,11.16,9.97.45.37.74.99,1.03,1.22,1.37,1.1,2.94,2,4.42,2.93-.61-2.32-1.52-4.33-2.75-6.39-.62-1.04-2.05-2.41-2.22-3.47-.41-2.63,1.32-4.41,1.99-6.76.86-3.02.39-5.86-2.56-7.39-2.32-1.21-3.02-.33-5.26-.19-1.58.1-5.22-.66-6.19.22-.44.4-.38,1.02-.82,1.19,1.01-2.96-3.22-3.95-5.2-5.36-3.72-2.65-5.17-6.05-10.46-3.77-.33.14-2.6,1.3-2.63,1.45-.16.74.5,1.05.78,1.59,1.38,2.67,2.18,6.42,4.7,8Z"/>
  <path class="st2" d="M208.28,112.72c-1.6-.27-2.61-1.26-2.37,1.18l2.36-.49v-.69Z"/>
  <polygon class="st2" points="204.24 119.6 206.46 119.81 206.75 119.62 206.84 118.91 205.09 118.2 204.24 119.6"/>
  <path class="st2" d="M205.9,116.76l2.61-.48c.24-.31-3.28-2.71-2.61.48Z"/>
  <path class="st2" d="M201.63,82.81c-.05-.99-1.25-.99-1.99-.92-.71.06-4.01,1-3.71,1.99.37,1.21,4.88-.68,5.69-1.07Z"/>
  <path class="st2" d="M223.39,127.98c-4.17-3.4-8.43-6.87-12.63-10.27-.26-.21-1.49-1.25-1.77-.96-.07.08-.09.75.29.78l10.74,9.19c2.48,1,6.33,5.72,8.55,6.4.12.04.39.07.35-.11-.36-1.16-4.01-3.51-5.11-4.4-.2-.17-.27-.51-.42-.63Z"/>
  <path class="st2" d="M114.9,77.81c1.56-.24,2.2,3.43,3.32,1.69.83-1.3-2.64-1.17-2.5-2.61.93-.43,1.66-.06,2.61,0-1.09-1.47-4.64-.77-3.79,1.42.4.11.11-.45.37-.49Z"/>
  <path class="st2" d="M118.79,75.59c.32.26.42.85.87,1.03.53.21.83-.18.51-.64-.28-.4-1.97-1.21-2.55-1.23-.13.74.68.43,1.18.84Z"/>
  <path class="st2" d="M238.44,120.8c-.5-.52-1.01-1.05-1.35-1.69-.04-.08-.08-.16-.12-.25-.05-.12-.08-.23-.05-.35.01-.05.04-.09.06-.12-.04-.18-.05-.35-.08-.38-1.57-2.01-4.47-5.31-6.44-6.94-3.11-2.59-4.42-.61-5.63,2.45-1.3,3.31-1.16,6.07.79,9.03.39.6,2,2.19,2.2,2.52.1.17-.14.51.11.84.45.62,2.46.33,3.06,1.36.12.2,0,.54.07.69.13.26.46.15.49.54.06.89-.65,1.64.24,2.36.28.23.79-.06.73.8l.66.05-.24,1.42c.66-.36.86.37,1.18.84l-.71.11c-.19.86.45,1.33.72,2,.16.38.12.82.24,1.14.09.23.82.42.46,1.37.74-.25,1.43.01,2.03.47l-.37,1.19c.35.25,2.5-.71,2.93-.98.82-.52,2.4-2.47,2.81-3.36.08-.16.3-2,.6-2.99l-.35-4.24-2.44-6.1s-.33-.49-.67-.97c-.2-.24-.39-.46-.59-.68-.14.02-.28-.02-.38-.12ZM238.4,124.61c.06.2.19,2.52-.45,1.87l-.48-1.78.93-.1ZM236.99,127.79c-.12.87-1.46-.84-1.9-.59.51-1.05,2.02-.3,1.9.59ZM235.81,121.98l.95-.24v.71l-.95-.24v-.23ZM231.77,115.33c1.42.12.27,1.69-.71,1.18.3-.5.9-.41.71-1.18ZM228.21,111.77h-.47v-.71h.47v.71ZM228.21,113.91c.7-.2-.15-2.18.59-1.89,1.02.62.55,2.02-.59,1.89ZM229.64,119.13l1.32-.46.1-1.2c.63-.75,1.61,2.94-1.42,1.66ZM232.72,125.54l-.24-1.42,1.19-.24.48,1.42-1.42.24ZM232.72,119.37c.2,1.1.26,2.01-.11,3.09h-1.07c-.1-.67.79-.86.92-1.36.14-.54-.33-1.08-.18-1.57l1.16-.64c-.5-.42.09-1.6.48-1.31l.95,1.55-2.14.24ZM234.38,119.84c.79-.04,1.03.9,1.17,1.52l-.94.37-.24-1.9ZM234.62,124.59l.24-.95h.35s.36.36.36.36c-.02.55-.47.66-.95.59ZM235.1,128.86l.71.95c-.6.06-.8-.38-.71-.95ZM236.16,131.24l.35,1.19-.69-.62.34-.57ZM236.75,133.84c-.09.64.43.95.71,1.42-.96.17-2.02-1.41-.71-1.42ZM238.28,138.36c-.5-.02-1.5.17-1.76-.36-.04-.89.89.04,1.07.04.24,0,.4-.54.82-.39l-.14.71ZM237.47,130.29c.46-.44,1.49,1.91,1.9,2.13-1.23.07-1.56-1.25-1.9-2.13ZM240.31,129.81l.48,1.42c-.41.44-1.72-1.56-.48-1.42ZM239.6,127.91c.05.77.12,1.57-.71,1.9v-1.9s.71,0,.71,0Z"/>
  <path class="st2" d="M155.11,109.75s-.08-.07-.12-.1c0,0-.01-.01-.02-.02-.27-.03-.6-.16-.73-.2-1.98-.55-4-1.48-6.02-2.05-3.88-1.1-7.86-1.73-11.87-2.13-.62-.77,1.36-.4,1.19-1.19-.1-.48-1.14-.29-1.49-.41-.37-.13-1.8-1.25-.94-1.38l.53-.23c-1.09,0-1-.76-1.42-1.31-.57-.74-1.41-.78-.48-1.78-2.12-.08-1.25-2.19-2.85-2.62l.47-.7c-.93.16-.24-1.39-.5-1.65l-.7-.14.25-1.78-.83.47-.23-.23c-.67-.95-.6-1.16-.13-2.13-1.98.27-1.86-2.3-3.07-3.46l.46-.81c-1.28-.16-1.83-1.46-2.43-2.45-.31-.51-.47-.89-.86-1.5-.2-.32-1.96-3.45-2.41-2.94.32,5.69-7.78,2.29-7.61-1.3.04-.82.66-1.26.73-2.02-.37,0-.69.24-1.07.24-1.79.03-.26-1.28-2.14-1.43-.31-.02-.63-.01-.94-.02l-.13.72c-1,.38-1.04-.73-1.53-.73-1,0-1.37,1.08-1.31,1.93-.89.19-.13-.96-.48-1.42h-.71s.14.72.14.72c-.13.19-1.16.51-1.41.47-.15-.02-.1-.38-.33-.48-.2-.08-.64.07-.75-.02-.08-.07.03-1.04-.37-1.41-.07-.07-1.75-.89-1.85-.9-.37,0-2.71.66-3.2.83-1.64.59-2.56,1.1-1.24,2.8l1.29-1.56,1.08-.22c.14.66-.49.48-.83.95-.49.66-.93,1.89.34,1.66.24-1.35,1.06-1.97,2.38-2.13.27.93-.83.93-1.07,1.42-.27.55.13,1.41-.83,1.43.22.39.47.86.94.55,1.05-.69,1.85-2.14,3.09-1.5-.02,1.02-1.55,1.02-1.42,2.13.06.07.99-.8,1.66-.37l.99,2.21,1.85.65c-1.25-.08-.99,1.31-2.25.59l-.12.47c2.28,1.55,4.02,3.9,6.63,5.12,1.7.79,2.42.23,4.05.71l-.04.79c-.19.1-.4.17-.61.21-4.71.85-8.78.44-13.36-.77-1.66-.44-4.7-1.9-6.08-2.01-.59-.05-1,.07-1.24.64-.17.61.62,2.27,1.27,2.44.49-.33,0-1.62.82-1.42.13.55.47,1.62.17,2.08-.07.11-.61-.06-.4.52.26.03.55.14.72.34.39.47,1.62,2.26,2,2.52.86.59,2.01.23,2.39,1.17.81-1.2-.28-1.9-.36-3.08-1.05-.21-.17,1.37-.23,1.42-1.63.19-2.33-2.6-1.54-3.55,1.03-1.23,1.11,2.07,2.37.76.08,0,1.14,1.01,1.19,1.13.14.3-.94,1.58,0,2.14.58.11.33-.46.35-.83.04-.8-.23-1.64.71-2.02.65.93.24,1.72.31,2.46.1.93,1,1.3-.29,1.95-.32.9.51.92.8,1.3.69.92.19,1.3,1.79.94v1.07c.53.19,1.27.25,1.72.59.5.38.34,1.18,1.36.72l-.25,1.88-1.31.24-.1,1.2-.24-1.19c-.9.83-1.97.99-2.73,1.9l-.51-1.44c-.35-.29-1.65-.25-1.76.18-.06,1.56.11,3.15,0,4.7-.12,1.82-.74,4.21-.65,5.99.02.37.42.56.37.85-.03.19-.37.39-.38.52-.01.21.58.45.6.71,0,.11-.31.31-.32.47,0,.09.37,1.66.42,1.74.27.43,1.13.3,1.28-.41.12-.57-.68-1.14-.73-1.56-.02-.15.09-2.2.12-2.33.04-.17,1.52-.89,1.2-1.82.96.33,2.6-.5,2.84.82.14.78-.72-.21-.92.51-.27,1,.92,1.68-.27,2.34l1.18,1.07h-1.42s.14.74.14.74l.81.22c.06.47-.6-.04-.48.59.05.25.7-.09.48.59l-.81-.2-.38.67c1.05.13.54.67.47,1.43h.71c.3.59-.48.41-.49.61-.03.61.35,1.43.95,1.64l-.44,1.04.55.26-.1.48c.21.15,1.47-.62,1.18.12l-1.42.12.47,1.42-1.18.6.95,1.18-.95.36.38.46,15.65-9.72.11-.12c-1.74-1.25-1.56-3.4.48-4.16-.5-1.09-1.44-1.76-.4-3.01,1.87-2.26,5.61.87,7.53,1.71,1.26.55,5.85,2.22,7,2.22,2.35,0,5.76-2.26,8.19-2.57.36-.34-.03-.43-.35-.47-.57-.07-1.67-.24-2.15-.25-.91-.01-1.56.37-2.54.19-.3-.06-3.43-1.24-2.78-1.84,3.81.86,8.85,2.65,12.34.23l-.12-.47c-1.17.56-1.93-.86-2.17-.92-.28-.07-.63.19-.89.14-.95-.16-1.18-1-1.95.55-.55-.35-1.34-.12-1.84-.28-.39-.13-.4-.75-.79-.88-.85-.29-2.6.04-3.64-.75-.08-.44.45-.11.66-.28.12-.1.09-.58.27-.8.84-1.03,3.75.39,4.95.55,2.3.29,4.36.19,6.71.89,1.02.3,1.82,1.72,3.32,1.55-.09.44-.38.62.11.94l1.07-.47-.24.95h.95s0-1.18,0-1.18l.94.24c.16,1.11-1.05,1.36-1.9,1.42l-.03,1.39c-.31.07-.67-.03-.97.09-3.63,1.45-7.87,3.3-11.76,3.91-1.15.18-2.09.32-3.15-.17l-.47.47.48-.84c1.34.3,1.09-.29,1.49-.51.69-.39,1.99-1.15,2.42-.31l.25-.49.58.25.15-.98,8.16-3.77c-4.08.59-7.87,2.72-11.74,4.04-3.23,1.09-3.47,1.06-6.77.12-1.3-.37-3.38-1.05-4.57-1.6-1.22-.56-2.9-2.06-4.15-2.27-1.99-.34-3.15,2.31-.06,1.85-.09-.05-.77-.64-.71-.71,1.18-.55,2.19.49.71.71.78.46,1.73.55,2.56.89.36.14.64-.14.52.53-1.22.08-2.72-1-3.89-.69-.13.03-.49.3-.27.45l.6.71-1.66.12c-.46.4-.39.79-.23,1.31,1.53-.51,4.13.23,5.55.98.77.41,1.43.85.32,1.45-1.58.84-3.7.47-5.39.42l-.11,1.68c.43.52.97.72,1.64.71,4.32-.11,8.45-1.68,12.56-2.66,4.39-1.04,9.07-1.83,13.41-2.97,1.6-.42,7.65-2.25,7.88-4.01.06-.49-.28-.94-.21-1.35-.06-.04-.11-.09-.17-.13-.67-.53-1.34-1.07-2.01-1.6ZM106.69,83.29l-.82.24c-.82-.61.51-1.14.82-.24ZM107.4,83.29l.24,1.18-1.42-.36,1.18-.83ZM109.76,86.93c-.14-.21-.18-.77-.22-.79-.04-.03-.45.34-.93.13-.22-.09-1.29-.9-1.2-1.31.89.14,1.12,1.1,2.02.26.75,1.43,1.48,1.17,2.93,1.2l.27.91c-.67-.13-2.49.16-2.87-.4ZM112.34,80.38c-.29-.37-1.68-2.44-1.37-2.78l.81.49,1.32,2.83c-.49.11-.54-.26-.76-.54ZM97.08,92.31c-1.2.15-1.28-2.67-.36-3.08.11.51,1.01,2.93.36,3.08ZM105.23,97.72l-.91.28c-.24-.27.04-2.03-.04-2.43-.15-.8-.95-.77-.94-1.24l.73-1.86.72-.16c-.38,1.34.3,2.7.86,3.91l-.43,1.51ZM104.91,105.6c.54.64.53,2.55-.35,2.85l.35-2.85ZM103.72,107.5l.36.47-.95-.12.59-.36ZM102.18,113.43c-.24-.25.47-.95.71-.71.24.25-.47.95-.71.71ZM105.6,110.56c-1.64.64-2.41,1.9-2.71-.69.34.05.73-.23,1.04-.17.55.1.33.87,1.02-.32l1.03.26c.14.2-.03.82-.38.92ZM107.4,107.02h-.47s0-.71,0-.71h.71s-.24.71-.24.71ZM107.88,127.32l-.6.35c-.58-.37-.2-.68-.12-1.18.34-.08.17.2.33.37.16.17.47-.03.38.46ZM107.88,126.72v-.35s.35-.35.35-.35l.59.7h-.95ZM126.38,90.54c.96.63,4.44,4.6,3.09,5.56-.24.17-1.32-.34-1.58-.54-.32-.26-2.67-3.18-2.92-3.6-1.05-1.77-.35-2.57,1.41-1.41ZM131.61,105.84c-1.9.21-3.66-1.95-3.32-3.8l-.71.24c-.02-1.44.97-1.23,1.82-.63.83.59,1.33,2.12,2.69,2.06l-.47,2.13ZM124.73,116.52c.13-.47.51-.53.95-.47-.13.47-.51.53-.95.47ZM125.21,120.91l1.42-.35c.49.41-1.15,1.09-1.42.35ZM127.87,120.99c-.44.06-.71.08-1-.32.72-.37,1.58-.39,2.37-.35-.06.34-1.12.63-1.37.67ZM134.9,118.72c-.18,1.21-3.91,1.74-5.03,1.8-.68-.22-.54-1.48-.89-1.97-.29-.41-1.93-.52-.39-1.37,1.09-.6,2.43-.66,2.82.73.45.27,1.11-.49,1.47-.41.26.06.43.48.62.55.38.15,1.58-.57,1.4.67Z"/>
  <path class="st1" d="M94.59,173.36c-.14-1.45-.2-3.48-.25-4.97-.1-3.3.16-6.58.25-9.86h-.71s-.93,6.03-.93,6.03l-.73.14c.16-2.26.79-4.51.95-6.76.04-.62-.57-.44-.83-.12-.69,2.77-.99,5.56-.83,8.42-1.36.69-1.01-2.63-.96-3.57.09-1.56,1.44-5.06-.23-5.57l-.83,6.88c-.29-.25-.51-.43-.59-.83-.32-1.66.42-4.44.42-6.22l-.42-.3-.73,8.77c-.89.56-.97-1.38-.95-2.01l.73-7.47c-.51-.09-.57.23-.71.6-.58,1.49-.21,3.77-.71,5.23-.13.37.02.57-.6.35-.43-.15-.21-.43-.2-.65.05-2.16.72-4.32.44-6.47-.34.28-.45.72-.53,1.13-.77,3.6-.8,7.55-.77,11.21h-.71c-.52-4.16-.08-8.42.94-12.47l-.47-.24c-1.04,2.51-1.11,5.29-1.42,7.96h-.7c-.52-.35.65-6.89.93-7.95-.34-.57-.71-.19-.89.3-.5,1.38-1.17,6.42-1.25,8.01-.04.85.02,1.55.24,2.37-.02.36-1.12.07-1.19-.71l.95-10.08-1.44,6.51-.57.84c-.46-.31-.35-.58-.34-1.03.06-1.48,1.4-6.28,1.14-7.11-.1-.31-.36-.46-.68-.4l-2.02,11.39c-.57-.56-.4-1.73-.36-2.49.17-2.97,1.13-5.91,1.18-8.9-.68-.11-.39.15-.51.55-.5,1.76-.69,3.86-1.14,5.76-.08.33,0,.71-.02,1.05h-.71c-.4-.39.96-6.21.97-7.24,0-.69,0-1.12-.61-1.54-.53,0-1.36,4.67-1.47,5.4-.32,2.07-.52,4.21-.53,6.3l-.72.4-.25-1.77,1.43-10.33-1.02.29-1.12,6.83-.73-.39.97-6.97c-.37-.02-.57-.09-.82.24-.65.87-.85,6.83-1.13,8.36-.06.33-.26,1.21-.77,1.12-.41-.07-.15-1.65-.12-2.01.23-2.84.83-5.71,1.18-8.55l-.48-.24c-1.09,2.57-1.2,5.46-1.67,8.19h-.71s.95-9.25.95-9.25c-.96-.74-1.57,3.61-1.63,3.95-.3,1.82-.35,3.72-.63,5.54l-.62-.59.98-9.02-.48-.36c-.98,3.09-.84,6.39-1.22,9.58-.03.28-.08,1.46-.56,1.33l-.38-1.31.81-9.07c-1.18-1.02-1.61-2.05-3.4-1.96-.33.24-1.15,6.9-1.65,7.97-.24.52-.31.66-.97.57-.52-.52,1.32-6.59,1.41-7.74.03-.46.09-.74-.34-1.03l-2.02,9.01-.93-.26,1.76-9.94-.95.49-.17-.43c-.27-.14-1.48.51-1.61.77-.42.85,1.08-.24,1.18-.12.31,1.04-.53,1-.68,1.22-.06.09.37,1.32-.74,1.74l1.18.47-1.19.36c.82,1.63.07,1.24-.35,1.89-.71,1.11.74.29.59,1.19-1.91.17-1.11.62-1.19,1.54-.04.45-.49.7-.6,1.07-.09.31.11.65.03.96-.19.67-1.02,1.05-1.32,1.54-.38.65.52-.17.48.47-.05.78-.33,1.09-.48,1.78l.95-.12c-.54.48-1.89,1.37-1.78,2.14.03.21.36.41.32.67-.04.3-.62.74-.67,1.11l.71.35-.95.48.72,1.06-.9.38.15.45-.68.11.95.83c-1.75.26-.45,2.35-.46,3.33,0,.77-.7,2.44-.45,3.51.09.38,1.65,1.52-.04,1.23.93.38,1.49,3.52,1.88,3.81.23.17.47.1.72.1l-.24-7.71c.04-.29.8-.26.94.48.49,2.46.25,4.16,1.13,6.71.2.6-.11,1.44.78,1.71-.26-3.54-.87-7.01-.83-10.56,0-.44.1-.71.59-.59.27,4.12.3,8.66,2.26,12.34.4-.54-.25-1.3-.31-1.83-.04-.35.16-.7.12-1.06-.12-.99-.73-3.35-.65-4.1.04-.41.29-.66.72-.59l1.9,8.54h.71s0-.95,0-.95h1.42c-.43-1.36-.45-3.01-.77-4.33-.36-1.47-1.17-2.82-1.33-4.36-.32-2.91-.58-11,.08-13.62.08-.32.52-.64.52-.82,0-.14-.35-.42-.39-.72-.08-.69.09-3.03,1.06-2.73.77.24.36,2.19.41,2.47.09.52,1.72,1.2-.05,2.4,2.02,1-.27,1.66.95,2.97h-1.19s0,.83,0,.83l.72.12c-.26.51,0,1.02-.06,1.48-.04.27-.45.45-.39.96.05.39.56.85.64,1.31.25,1.37.19,3.28.32,4.63.09.9.92,1.39.91,1.48-.02.31-.63,1.3-.49,2.01h.71s-.47,1.66-.47,1.66h.95s-.47.59-.47.59c1.11.86,1.03,1.72.71,2.97l1.8.47c-.51,1.4.78,2.06.82.61.03-1.12-1.9-6.8-1.43-7.25h.71c.32,1.39.59,3.25,1.02,4.56.2.61.53.91.75,1.39.22.5.02,1.25.61,1.41.36-.49-.88-4.21-.93-5.13-.01-.26.05-1.04.45-1.04.53,1.63.7,4.09,1.4,5.61.25.54,1.27,1.32,1.45,1.99.44.06.17-.47.13-.72-.3-1.89-.96-3.75-.84-5.69.75-.18,1.33,5.52,1.89,4.75.13-1.18-.44-2.29-.48-3.44-.01-.34-.19-.95.36-.83.67,1.02.98,4.74,2.14,5.22.43.17.57-.62.57-.85,0-.84-1.01-3.93-.69-4.37,1.71,1.71.99,4.86,2.97,6.65l.5-.49c-.41-.78-.45-1.78-.47-2.65,0-.34-.32-.58.2-.89l1.29,2.73.71-.27-.94-5.08.71.16.93,4.25,1.2,1.52-.95-6.41h.71c0,.56,1.58,7.31,2.14,6.88.6-1.94-.99-3.9-.71-5.93h.71s1.67,6.26,1.67,6.26c.22.39.9.15.91-.39.02-1.41-1.59-4.94-1.83-6.73-.04-.31-.27-1.16.33-1.04l2.53,8.04.92.03c-.46-1.59-1.22-3.5-1.41-5.12-.06-.5.49-.45.8-.35.49.16.92,5.94,2.74,5.71-.05-1.77-.9-3.39-1.2-5.09-.07-.4-.39-.49.14-.84.47-.09.54.47.66.76.18.42,1.57,5.62,2.54,4.7-.13-1.95-.74-3.87-.99-5.79-.04-.29-.29-.68.16-.85.49-.18.38.5.46.71.42,1.06.64,2.21,1.03,3.25.28.75,1.01,1.22.76,2.21h.71s-1.15-9.22-1.15-9.22l.67-.27,1.67,7.36c.4.04.26-.82.25-1.08-.12-2.63-1.17-5.61-1.43-8.3ZM77.38,179.18l.59,1.89c-.94.18-1.23-1.9-.59-1.89Z"/>
  <path class="st1" d="M122.83,163.04l-1.18-.24-.6,5.22h-.83c-.26-1.41.49-3.04.23-4.39-.08-.41-.25-.67-.71-.59-.55.43-.54,5.25-.71,6.29-.05.31-.23.67-.59.59-1.17-.25.92-7.11-.24-7.36-.94-.2-.6,3.1-1.18,3.08-1.02-.67-.08-2.01-.36-3.08-1.14-.13-.8,2.7-.95,2.85h-.95c0-1.08.38-2.11.24-3.21-.04-.33-.12-.69-.47-.35l-.72,4.51h-.71s.2-4.12.2-4.12l-.19-.29-.72-.11-.48,3.56c-2.19.21.9-3.71-.95-4.04-.41,2.06-.69,4.08-.72,6.17h-.71c-.23-2.35.51-4.57.71-6.88-.28.02-.5-.12-.73.15-.97,1.17-.11,4.04-1.29,5.07-.72-1.14-.08-2.41-.11-3.68-.01-.36.21-.95-.36-.83-.46.28-.3.67-.36,1.06-.23,1.37-.22,2.94-.48,4.27-.24,1.19-.98.58-.96-.71.03-1.77.86-3.75.73-5.57-1.63.99-.93,3.84-1.47,5.53l-.18.3-.73.1c-.14-2.09.66-4.11.37-6.18-.04-.29.14-.6-.37-.7-.71,2.34-.67,4.81-.98,7.21-.2,1.6-.94,1.41-.94.03,0-1.95.8-4.33.69-6.36l-.67-.65c-.51,2.26-.86,4.55-.72,6.88h-.71c.04-.9-.07-1.83,0-2.73.09-1.13,1.1-3.63-.07-4.22-1.23-.62-1.06,2.01-1.29,2.87-.11.42.07.61-.54.51l.23-2.94-.83-2.04c-.49.89-.48,5.53-1.19,5.7l-.58-.57.46-4.89c-1.32-.2-1.54.36-1.66,1.54-.53,5.2.31,11.59.72,16.84.12,1.51-.04,1.24.35,2.62.12.42-.05,1.2-.36,1.54,1.03-.73,2,4.3,2.58,2.46.41-1.31-1.74-6.45-1.11-7.4l.67-.28,2.02,7.59c.52.1.36-.23.35-.59-.04-1.1-.67-2.47-.71-3.57-.01-.36-.17-.68.35-.59.73.38.93,5.09,2.26,5.69l-.47-4.75c.61-.11.43.09.58.47.51,1.27.17,3.72,1.79,3.8l-.71-6.03.6-.14,1.55,7.36c1.19.9.24-4.25.47-4.51.76-.87,1.14,3.57,1.3,3.8l.83.24-.24-5.93h.71s.95,6.06.95,6.06l.48-.24v-4.39h.71s.03,1.51.03,1.51l.68,2.76v-4.75c.51-.09.56.23.71.6.47,1.18-.02,3.16.59,4.15.24.39.6-.03.6-.12v-5.34l.71-.24c.35,1.75.07,3.58.26,5.32.02.23.1.89.45.85l.24-6.41c.22-.1.71.21.71.35v5.1c.53-.21.58-1.12.65-1.61.05-.34.11-4.52,1.01-3.85.35,1.6-.2,3.4,0,5.11.04.36.05.73.48.82.7-2.15-.19-5.14.29-7.19.16-.67.94-.92.43-1.83.5-.29.71.98.71,1.07v7.95c.63.16.55-.49.64-.9.4-1.88.23-3.89.79-5.75l.94.71.71-15.19Z"/>
  <path class="st1" d="M146.56,166.27c-.03-.53-.49-2.17-1.27-1.54-.76.62-.24,2.13-.39,3.06l-.92-.03-.39-3.77c-.58.01-.52.43-.6.83-.04.23-.23,1.36-.23,1.43v4.51c-.41.57-.83.44-.95-.24-.32-1.78.31-4.01.23-5.81l-.73.14-.46,3.66h-.95c0-.83-.02-1.66,0-2.49.01-.49.59-1.7-.6-1.08l-.36,4.04h-.94s0-3.44,0-3.44c0-.13.35-.48.24-.95-.13-.55-.58-.24-.81.13-.79,1.26-.05,3.29-.64,4.7l-.92.03c-.23-1.62.45-3.27.24-4.87-.06-.43.09-.39-.47-.35l-.71,7.59c-.46.07-.63-.19-.71-.59-.21-1.1,1.05-6.56.11-6.76-1.35.23-.63,3.63-1.07,4.03-1.85.12-.24-3-.71-4.27-1.53.87,0,3.26-1.3,4.51l-.61-.39.25-3.87c-1.49.23-.71,3.44-1.42,4.16-.15.15-.43.24-.48,0-.19-1.53.51-2.9,0-4.39-1.39,1.04-.06,3.17-1.3,4.27-.11-.15-.59-.51-.59-.59v-4.15c-.58-.13-.52.21-.64.66-.27,1.04-.01,4.06-1.14,4.09l.11-5.22-.95.4c-.59,3.43-.48,6.92-.71,10.4-.11,1.63-.14,3.16-.22,4.75-.07,1.56-.32,3.22-.97,4.63l-.94-.71v1.66c.93-.46,1.57-.97,2.49-.23l.48-.24c.37-1.85.25-3.93.65-5.76.1-.45.13-1.2.65-1.37v7.6c.46-.09.42-.48.48-.83.44-2.68.15-5.52.71-8.19.35-.33.43.02.47.35.15,1.18.03,3.03,0,4.29-.03,1.46-.81,3.49.46,4.62l.48-5.93h.71v5.82c0,.19.31.8.71.59.27-1.22.32-6.89.95-7.48.17-.16.27-.14.48-.11l-.23,7.36c1.21-.22.76-4.06.95-4.27.22-.1.71.21.71.35v3.68c1.92-.5.88-3.23,1.43-4.75,1.56.24.69,1.55.69,2.49,0,.77.52,1.34.26,2.02l1.42-.35v-6.65l.36-.35.36.35v4.98c0,.21.44.86.24,1.31h.47v-3.68c0-.13.52-.49.71-.35.64,1.36-.39,3.34.95,4.27.61-2.17-.14-4.68.45-6.81.11-.41-.17-.66.51-.55v6.05c0,.13.41,1.06.71,1.07.1-.91-.35-3.58.6-4.03.39-.18.48.4.53.65.18.96-.09,1.97.3,2.91,1.09-.08.71-.82.71-1.3v-4.98l.48-.24.83,6.05c.43.63,1.35-.14,1.49-.64.28-.96-.02-3.08.04-4.23.18-3.81.46-7.83.24-11.59Z"/>
  <path class="st2" d="M195.94,110.23c-.21.91.81.9,1.42.83.14-.5-1.26-1.52-1.42-.83Z"/>
  <path class="st2" d="M260.87,156.63c-.07-.12.09-.43.07-.45-.16-.12-.76-.07-1.01-.24-.33-.23-.15-.87-.45-1.15-.2-.18-1.55-.83-1.7-1.01-.23-.26-.28-.84-.37-1.19-1.6.83-1.04-.95-2.61-.71l.24-.95c-.34-.16-1.15-.14-1.37-.29-.34-.24-.63-2.04-2.19-1.25,2.45,2.69,5.46,5.35,8.47,7.43.25.18,1.58,1.16,1.74.99.47-.52-.65-.9-.81-1.18Z"/>
  <path class="st1" d="M227.05,153.88c-.35-.53-.33-1.95-.86-2.23-.53-.09-.35.18-.3.54.06.46.83,2.39.66,2.54-1.57.43-.96-1.76-2.13-2.37-.31.59.86,3.17.11,3.32-.87.17-1.08-2.76-1.3-3.32-1.58.83-.03,2.66-.24,4.03-1.59.4-1.32-3.25-1.66-3.56-2.07.04.2,4.1-.24,4.51l-.92-.03-.86-4.01-1.01,1.06,1.12,3.68c-2.09.41-.64-2.96-2.37-3.32l.95,4.51-.92-.03c-.21-.8-.27-1.66-.51-2.45-.09-.28-.63-1.95-.71-2.02-.17-.14-1.08-.02-1.16.36-.08.35,1.19,3.17,1.32,3.89.05.3.08.62-.26.72-1.53.42-.85-4.66-2.97-3.67l.95,4.15-.73-.14c-.3-.42-.95-4.91-2.01-3.43l.84,4.52-.73-.14-1.18-4.13-1.17.25c-.2.28,1.02,3.78,1.08,4.49.03.37.12.45-.27.72-.58.09-.64-.12-.85-.57-.33-.72-.72-4.48-.95-4.63-.39-.13-1.23-.03-1.13.53l1.13,4.28-.81.15-.84-3.56c-2.21.16.21,3.83-.24,4.27-1.93.07-.64-3.95-2.85-3.56-.04,1.43,1.1,2.85,1.19,4.17.06.87-.66,1.07-1.08.1-.26-.61-.93-3.87-1.09-4.01l-.92-.03,3.32,14.24c.48.48.68-1.14.69-1.34.05-1.06-.59-2.15.14-2.93.81.67.89,1.87,1.07,2.84l.53-.29.18-1.37c.93-.31.74,1.02,1.52.69.64-.27.59-1.13.38-1.64,1.25-.2,1.13,1.66,1.6,2.54.15.28,0,.4.53.3.03-.52-.2-1.63.36-1.9l1.3.95v-2.61c1.1.08.72,1.79,1.55,2.37.11-3.44.54-1.63,1.42.01.18.33-.02.58.59.46l-.71-3.79c1.36-.26,1.36,1.01,1.79,1.9.17.34-.05.59.58.47l-.47-2.85.73.14c.07.52,1.12,3.37,1.88,2.71l-.71-3.56c.9-.21,1.51,2.13,1.78,2.13.96-.79.13-2.05.12-3.08,1.02-.2,1.2,1.14,2.13,1.18l.11-1.9c.28-.51.91.37,1.07.24.07-1.21,1.23-1.79,1.71-2.68.63-1.15.47-2.5,1.61-3.37l-.71-.12c.26-1.15,1.19-1.68.24-2.84l.94-.26c.26-1.33-.98-1.64-1.39-2.26Z"/>
  <path class="st1" d="M199.49,160.19c-.19.2.94,2.2.12,2.6l-1.3-2.84c-.22,1.06.36,2.2.24,3.2-.04.33-.13.68-.48.36l-1.19-3.56-.47.12c.08,1.28,1.11,3.25.36,4.39l-1.07-3.8h-.69c-.61,1.19.02,2.21.12,3.32.03.29.2.86-.26.95-.96.2-.6-3.48-1.54-3.8l.47,4.03h-.93s-.85-3.8-.85-3.8l-.6.13c-.12.84.69,1.82-.12,2.48-.57.11-.31-.42-.38-.8-.09-.44-.24-.88-.21-1.34h-.71s.23,2.37.23,2.37h-.71c-.04-.64-.14-1.33-.31-1.95-.07-.24-.06-.72-.4-.66-.27.45.56,3.58-.12,3.55-1-1.01-.33-2.72-1.66-3.55l.12,3.32c-1.09.09-.52-2.19-.95-2.61-.4,0-.51-.13-.45.33.09.74.38,1.46.22,2.27l-.68-.39-.74-1.99v3.08c-1.29-.14-.54-2.13-1.31-2.84-.58-.11-.35.45-.32.8.04.51.21,1.08.27,1.63.02.21.44.56-.19.42-.97-.22-.66-1.91-.95-2.62l-.83-.23.23,2.85c-.6.11-.43-.09-.58-.47-.27-.68-.17-1.75-.84-2.14-.23,1.02.74,2.26-.12,3.08-1.06-.77.04-2.94-1.3-3.08.02.75-.04,1.5,0,2.25.12,2.51.88,11.36,1.71,13.24.14.33.23.66.54.88l-.12-3.8c.61-.11.43.09.58.47.33.82.34,1.77.61,2.61.73,0-.55-3.07.35-2.61.84.88.37,2.51,1.54,3.08l-.23-3.56c.6-.71,1.2,2.59,1.31,2.85.16.36-.03.58.58.47l-.47-3.56.48.11,1.18,3.44-.23-3.32.71.16c.32.91.06,2.86,1.42,2.69l-.24-1.42,1.18,1.18v-3.09s.74.14.74.14c.37.83.26,2,.49,2.79.09.3.34.54.55.16.45-.81-.44-3.01-.12-4.04h.71s.83,3.8.83,3.8c1.26-.02.11-3.04.35-3.8l.82.24.6,2.84h.71s-.24-3.08-.24-3.08c1.17-.21,1.22,1.53,1.42,2.37l.94-.25-.46-3.07c1.31.14.63,1.97,1.54,2.61.92.43-.49-2.3.47-2.14,1.07.18.47,2.15,1.54,2.14l-.47-3.8c.53-.61,1.43,2.33,1.43,2.61.84-.25-.04-2.05.24-2.37,1.28-.05.57,2.17,1.66,2.13l-3.03-13.7-.77-.54ZM188.57,176.8h-.23s-.24-1.19-.24-1.19c.54.14.51.74.47,1.19Z"/>
  <path class="st2" d="M190.48,103.34c.16.88,1.01.76.85-.13-.07-.36-.47-1.46-.85-1.65.05.56-.1,1.24,0,1.78Z"/>
  <path class="st2" d="M251,151.88c-.42-1.39-.87-2.81-1.42-4.16-.2-.49-.62-.87-.72-1.42-.09-.49-.05-.34.24-.24,2.18.7,4.29,1.77,6.15,3.11,1.76,1.26,3.04,3.32,5.24,3.65-.26-.36-.28-1.1-.53-1.37l-8.71-5.65c-2.06-.87-4.41-.79-6.49-1.58-1.6-.61-2.87-1.91-4.44-2.56-.08.49.05.63.35.95,2.01,2.17,2.9,1.83,5.36,2.47,2.68.7,3.15,5.7,4.73,7.85.91,1.23,8.27,8.08,9.38,8.42.12.04.39.07.35-.11-.86-1.46-8.01-6.6-8.06-7.59-.01-.26.25-.55.23-.84.74.68,1.81,1.17,2.5,1.89.98,1.01.54.78,1.85,1.71,1.11.78,2.17,1.98,3.34,2.59.22.12.67.44.84.11l-9.38-7.95-.82.71Z"/>
  <path class="st1" d="M176.71,166.36h-.94s-.24-3.32-.24-3.32l-.91.27.2,3.17c-1.63.54-.56-2.7-1.54-3.68-.96,1.05.2,2.7-.11,3.87l-.6.4-.6-3.32c-2.01.02-.45,2.31-.71,3.56l-.73-.14-.46-3.18h-.71c-.52.49,1.14,4.71-.71,3.88-.5-1.06.33-3.36-1.19-3.65v3.68c0,.7.73,1.63-.71,2.02-.46-1.5-.08-3.09-.26-4.61-.06-.47-.18-1.12-.8-.85-.8.35.19,2.77-.12,3.56h-.95c-.11-.11.14-2.84-.71-3.09v3.09s-.95,0-.95,0l-.22-3.18-.73-.14v4.03c-1.46-.26-.34-3.07-1.42-3.8-.47,1.38.16,2.61,0,4.04h-.95v-3.68c0-.13-.52-.49-.71-.35-.33.97.3,5.15-.71,5.58l-.47-.24v-5.58h-.95v3.8h-.71c-.48-.45.34-3.86-.95-3.8v4.87c0,.25-.68.45-.95.36l-.28-5.18-.67-.28c-.79,1.51.82,3.34-.6,4.51l-.59-3.8h-.71v4.75h-.95s-.48-5.7-.48-5.7l-1.07.71-.11-.47c-.94-.19-.94.76-1.67,1.07.02.51.89.87.95,1.68.11,1.31,0,2.86.02,4.25.02.87-.47,1.46.45,2.13-.84.21-.23.45-.31.91-.07.41-.6.69-.15,1.44-1.05.35-.08.62-.02,1.22.11,1.03-1.32,5.02,0,5.7l2.13.34v-4.75c.53-.09.48.04.59.46.31,1.13.2,2.53.57,3.67l.73.14-.23-5.93c.86-.96.97,3.81,1.01,4.09.06.42.17,1.21.65,1.37v-3.8c.54-.13.55.21.65.65.2.94.21,2.18.3,3.15h.95s-.24-5.46-.24-5.46c1.42.16.88,2.21,1.01,3.37.05.45.19,1.67.65,1.85v-3.44l.48-.24.71,3.68c.32.37.95-.99.95-1.07v-3.8l.48-.24.71,4.28.47-.24v-3.44h.71s.48,4.03.48,4.03c.35.04.42-.61.45-.85.13-.96.02-1.99.26-2.95l.51.8.67,2.29.24-3.56c1.08.03.67,1.76.78,2.66.05.38.03,1.35.64,1.13.35-1.07-.11-5.23.71-5.58l.47.24v4.51c0,.07.48.44.59.59.99-.94.29-2.06.35-3.2,0-.19-.1-.84.36-.59.53.28.57,2.16.77,2.81.12.41-.09.62.54.51v-3.32h.95s.48,3.32.48,3.32l.71-.24v-3.8c1.11.23.78,3.51,1.19,3.8l.72-.4.23-3.4c1.38.32.35,2.02.89,3.26.2.46.58.74.74.15.21-.76-.56-4.25-.21-4.6l.72.1.46,3.93c1.37.6.62-2.88,1.3-2.85,1.15.85-.03,3.19,1.54,3.55-.18-5.56-.68-11.14-1.66-16.61-1.28.64-.39,2-.47,3.08Z"/>
  <path class="st1" d="M81.17,149.51c-.98-.15-1.75-.24-1.54-1.42l.61.22.2-.45c1.72,1.16,1.79-.64,2.51-1.09.49-.3.93.14,1.28.08.43-.08.88-1.17,2.04-.42l-.23,1.18c.84-.44,1.56-.4,2.46-.25l.62-.7c.44,1.69,1.2-.92,2.6-.22.03,1.69,1.1,1.9,1.57.21l.8.04.16.68,2.95-.95-.24.71,1.66-.23c.12.14-.28,1.76.35,1.42.88-1.63,1.37-.92,2.61-.93.99,0,2.39.22,3.02.17,1.67-.15,6.7-1.47,8.41-2.06.31-.11.72-.07.8-.5l-52.46-1.55,19.35,6.29.47-.24ZM76.79,147.37v-.47s.71-.24.71-.24v.71s-.71,0-.71,0ZM79.16,147.85h-.71s0-1.19,0-1.19c.13-.18.92,1,.71,1.19Z"/>
  <path class="st2" d="M98.15,136.22l22.31-14.59-.6-.13c-5.62,3.67-11.47,7.02-17.09,10.69-1.81,1.18-3.57,2.09-4.62,4.04Z"/>
  <path class="st2" d="M94.59,138.35c.34.33,2.61-1.42,2.85-1.9-.98.02-2.93.64-2.85,1.9Z"/>
  <path class="st2" d="M87.94,141.32c-.56-.47-.67-2.31-1.1-2.46-1.58-.55-1.72,1.26-.72,2.27.45.45,1.34.9,1.82.2Z"/>
  <path class="st2" d="M104.2,153.8c.26,0,1.43-.16,1.62-.25.27-.12.03-.5.32-.72,1.42-1.1,4.85-1.01,6.54-.66.71.15,1.45,1.01,1.98,1.07,1.95.23,5.77-.35,7.69-1,.77-.26,4.13-1.43,3.45-2.5-.41-.36-.96-.46-1.41-.74-.43-.26-1.43-1.11-2.03-1.29-.24-.07-2.36-.58-2.49-.59-.55-.01-3,.64-3.21.48l.47-.71c-.46.02-.81.23-1.29.25-1.44.07-3.61-.18-4.93.03-1.32.21-3,1.11-4.45,1.15l1.18.24c-.15,2.02-1.56.09-2.85.48l.71.95c-.86-.1-.64-.8-1.66-.62-1.6.29-1.85,1.99-3.42,1.81-.56,1.47,1.79.98,1.29,2.37,1.05-1.08,1.38.22,2.49.25Z"/>
  <path class="st2" d="M118.32,127.67l-.71-.47c-.11.62.3.93.71,1.31l-2.84,1.78.48.83-.37.59-.95-.47-.59.83,1.18.36-.12.46-.72-.02-.35.73,1.42.24c.3.59-.49.41-.48.59.01.35.35.48.38.7.04.33-.24.72-.1,1.16.1.31.56.33.7.55.29.46.07,1.21.45,1.62.71.78,2.48-.01,2.62.11-.24,1.67,1.7.98,1.69,2.33l.92.04-.24-.71h.7s.27,1.17.27,1.17h.7s.11-.46.11-.46c.63.67.08,1.32.98,1.87,1.06.64,1.48-.73,2.7.27l-1.66.47c.7,1.41,1.64.56,2.25.56.36,0,.72.5,1.33.51.67,0,1.18-.33,1.75-.59l.4.67.55.06.49-.72c.59-.14.09.66.82.47l.48-.71.12.71.46.25c.6-.5,1.32-.23,1.8-.35.3-.08.54-.44.89-.55.24-.08.63.17.78.08.44-.28-.01-1.43.59-1.79l.37.94c1.09-.33,1.31-.11,2.01.71.73.13-.15-.96-.12-1.18l.71.71c.27.21,1.19-.64,1.58-.66.4-.03.72.4,1.14.41.7.01,1.12-.69,2.02.02-.59,1.07-2.41-.36-3.27.53l-.76,1.84c1.34-.36,3.27-1.15,3.8.71-1.53.37-3.47.43-4.47,1.78l.44.59c-.6.2-2.09.24-2.37.84-.28.6,1.24.28,1.18.82-.84.43-2.25-.57-2.5.72l.72.47.25-.49h.44s.84.72.84.72c-1.17-.17-1.79.88-2.84,1.31l.83.58-.13.96-1.18-.24c.07,1.46-.88,3.11-2.28,3.55.08.43-.1,1.38-.38,1.61-.15.13-.68.08-1.04.28-.19.11-1.64.93-1.29,1.21.86-.15,1.67.22,2.48.25,1.06.04,1.98-.2,2.88-.22.74-.02,1.4.34,2.33.2.44-.07,4.82-2.18,5.52-2.55,10.72-5.67,12.17-22.7,9.13-33.19-.08-.28-.5-1.78-.98-1.15-.46.61.26.77.41,1.24.55,1.7,1.44,5.98,1.46,7.74.01.92-.5,2.38-.56,3.19-.3,4.29-.67,6.65-1.65,10.71-.17.7-1.03,1.55-1.1,2.37l-1.89-.47.49.62-.26,1.51-1.18-.59c1.69-.86.02-1.22,0-1.42,0-.08.56-.7.65-1.01.39-1.36-.13-1.81,1.48-2.79v-.34c-1.26-.31-.96-1.99.48-1.55-.34-.67-1.61-.81-1.91-1.23-.57-.78-.29-2-.51-2.76-.13-.46-1.14-1.03-1.19-1.77-1.22-.59-1.69.61-2.89.2l-.27.22c.27.9-.4.91-.94,1.43-.8-1.13.18-2.4-.32-3.63l1.18-1.56.8.22c.54-.93-.33-.59-.71-.95-.72-.68-.1-1.68-.13-2.47-.1-2.2-2.91-6.42.45-7.3l-.2-2.34.71.24-.23-.95c.67.29,2.12.27,1.57-.65-.03-.05-.4-.08-.4-.18-.04-.88,1.22-.89.96-1.78-.86.29-1.62-.07-2.46.02-4.03.41-7.96,2.68-11.78,3.66-3.07.8-6.61.61-9.5,1.65-.79.28-4.23,2.32-4.73,2.87-.32.35-.42.84-.49,1.29ZM146.09,140.97l.71.71h-.71s0-.71,0-.71ZM143,134.8l-.95.47c.44,1.34.86,2.85.59,4.27l-1.54-.71.95-.24c.03-.62-.9-.77-.85-1.54.03-.46.93-1.43.38-2.26h1.42ZM141.34,134.32v.35s-.35.35-.35.35l-.59-.59.95-.12ZM119.98,126.25c.18.17-.46,1.41-.95,1.18-.18-.17.46-1.41.95-1.18Z"/>
  <path class="st2" d="M88.2,135.15l.93.71-.47.47c.38.54.84.08,1.35.29.78.32,1.32,1.8,2.3,1.47.85-.28,0-2.01-.36-2.44-.6-.74-1.74-.69-2.46-1.33-1.2-1.07-2.21-4.11-2.01-5.7l1.42.47-1.18-2.02-1.86.18c-.48,1.96-1.51,1.81-.15,3.73.42.59,2.9,3.32,2.87,3.7-.02.16-.27.33-.37.47Z"/>
  <path class="st2" d="M94.59,119.72c.22-.27.58-.38.47-.83-.5-.49-7.65,5.13-7.83,6.4,2.75-.49,5.6-3.45,7.36-5.57Z"/>
  <path class="st2" d="M97.21,135.15c1.3-.58-.35-3.07-1.05-2.96-1.4.23-.27,3.55,1.05,2.96Z"/>
  <path class="st0" d="M235.45,140.74c-.84.68-.04,1.59.13,2.36,1.13-.72,1.48-2.01-.13-2.36Z"/>
  <path class="st0" d="M216.28,100.42c-.3.65-1.72,3.75-1.36,4.23.23-.1.59-.2.71-.41.51-.93.65-3.24,1.19-4.33-.68-.13-.38.18-.54.52Z"/>
  <path class="st0" d="M91.5,140.02c-.32-.3-2.76.96-2.37,1.9.23.24,2.53-1.15,2.37-1.9Z"/>
  <path class="st0" d="M127.1,83.53l-1.74-2.53-.63-.32c-.43,1.79.86,2.43,2.37,2.85Z"/>
  <path class="st0" d="M140.4,100.97c.64.82,1.5,1.21,2.23,2.28.67.97.64,2.13,2.04,2.35.12-.49-.15-.64-.35-.96-.86-1.35-3.29-4.34-4.41-5.56-.19-.21-.91-1.09-1.18-.84.91.75,1,1.88,1.66,2.73Z"/>
  <path class="st0" d="M196.64,113.91c0-1.03-1.23-.67-1.9-.71.33.83,1.13.76,1.9.71Z"/>
  <path class="st0" d="M188.22,108.45l-.59,1.42,1.42.24c-.26-.58-.24-1.27-.83-1.65Z"/>
  <path class="st0" d="M227.74,152.12h.47s-.24-1.19-.24-1.19c-.85-.16-.35.58-.23,1.19Z"/>
  <path class="st0" d="M217.29,148.56l-1.66-.48c.43.68,1.24,2.1,1.66.48Z"/>
  <path class="st0" d="M242.1,140.96c.7-.62.29-1.62.12-2.37-1.42.24-1.14,1.72-.12,2.37Z"/>
  <path class="st0" d="M181.69,182.74h-2.72c-.6,1.54,2.29,1.05,2.72,0Z"/>
  <path class="st0" d="M88.66,140.25l1.18-.48c-.25-1.36-1.47-.65-1.18.48Z"/>
  <path class="st0" d="M173.38,183.33c-2.49.13-6.36-.23-7.83,2.02.86.1,1.27.51,2.22.46.94-.05,6.52-1.24,6.56-2.24-.34-.54-.54-.26-.95-.24Z"/>
  <path class="st0" d="M239.37,140.73l-1.2.39c.04.61.15,1.3.62,1.74.63.33.66-1.89.59-2.13Z"/>
  <polygon class="st0" points="102.09 124.95 101.92 122.71 100.76 122.69 101.47 125.3 102.09 124.95"/>
  <path class="st0" d="M94.11,136.1c-.51,1.28,1.63.05,1.18-.36-.39-.03-1.02-.05-1.18.36Z"/>
  <path class="st0" d="M87.23,135.98c0,.5.6,2.34,1.07,2.37.73.04-.09-2.62-1.07-2.37Z"/>
  <path class="st0" d="M287.37,166.66c-1.4-.23-4.39-.79-5.63-.79-1.82,0-5.61,1.16-7.29.25-.26-.14-.44-.71-.54-.71h-4.39c.05-.62.53-1.17,1.07-1.42.92,1.68,3.97,1.33,4.31-.73l1,.04.3.88c2-.31,4.62.07,6.51-.19.53-.07.81-.42,1.19-.48.56-.09,3.41.23,3.42-.37l-6.29-1.3-9.61.23c-.14-.7.59-.33.66-1.11.15-1.83-.58-1.31-1.36-1.87-.53-.38-2.06-2.29-2.74-2.96-3.27-3.23-6.37-6.05-10.26-8.73-4.23-2.91-8.29-5.58-13.7-4.07l-1.29-1.23c-.22-.37.36-1.06.43-1.52.17-1.06-.29-1.89-.24-2.83.07-1.3.84-3.9.42-5.42,0,0,0,0,0,0,.02-1.26-.27-2.84-.45-3.49-.65-2.39-1.49-4.11-2.45-6.38h0c-.17-.4-.39-.76-.66-1.1-.06-.07-.14-.15-.24-.24-.12-.18-.23-.35-.34-.51-.03.08-.08.16-.14.21-.07.05-.14.07-.22.08.2.22.39.44.59.68.34.48.63.92.67.97l2.44,6.1.35,4.24c-.3.99-.53,2.83-.6,2.99-.41.89-1.99,2.84-2.81,3.36-.43.27-2.58,1.23-2.93.98l.37-1.19c-.61-.46-1.3-.71-2.03-.47.36-.95-.37-1.14-.46-1.37-.13-.32-.09-.75-.24-1.14-.27-.67-.92-1.14-.72-2l.71-.11c-.32-.47-.52-1.2-1.18-.84l.24-1.42-.66-.05c.05-.86-.45-.57-.73-.8-.88-.72-.18-1.47-.24-2.36-.03-.39-.35-.28-.49-.54-.08-.15.04-.49-.07-.69-.6-1.03-2.6-.74-3.06-1.36-.24-.33,0-.68-.11-.84-.2-.33-1.81-1.92-2.2-2.52-1.94-2.96-2.09-5.72-.79-9.03,1.2-3.07,2.51-5.05,5.63-2.45,1.97,1.64,4.87,4.94,6.44,6.94.03.03.04.2.08.38.04-.06.09-.11.15-.15.09-.06.21-.07.32-.05-.87-1.74-2.9-3.32-3.6-4.82-.89-1.92-1.28-5.07-2.21-7.29-1.43-3.4-4.24-7.89-6.99-10.33-.75-.66-4.44-2.98-4.57-3.26-.51-1.09.1-1.94.07-2.9-.09-2.71-.72-8.06-1.95-10.41-3.01-5.77-12.91-10.47-19.28-9.64-1.31.17-7.39,2.93-8.61,3.73-1.47.96-1.87,2.34-1.34,4.04.54,1.73,1.77.64,3.05.52,2.17-.2,3.98.51,5.82,1.53,1.21.68,2.45.89.8,1.76-1.35.71-3.44,1.26-4.96,1.45-1.95.25-4.92-.8-3.61,2.43l2.31,3.5c-6.16,1.55-11.16,5.57-15.31,10.21-3.95,4.41-6.94,9.54-8.6,15.13-1.56,5.21-3.02,13.36-2.67,18.7.05.73.13,2.25.24,2.84.1.51.66.8.66.95,0,.15-.46.41-.41.69.05.26.65.53.64.74,0,.14-.41.33-.38.89.07,1.77,1.49,4.63,2.1,6.35-4.48.61-9.01.78-13.53.71,1.38-6.31,1.27-12.92-.11-19.23l-2.69-9.57c.14-.73,2.16-1.03,2.88-1.38,1.91-.93,3.77-1.96,2.65-4.13,0,.02,0,.04,0,.06.01.22-.25.28-.39.16-.06-.05-.12-.09-.17-.14-.08.41.27.86.21,1.35-.23,1.76-6.28,3.59-7.88,4.01-4.34,1.14-9.01,1.92-13.41,2.97-4.11.98-8.24,2.54-12.56,2.66-.67.02-1.21-.19-1.64-.71l.11-1.68c1.69.05,3.82.41,5.39-.42,1.11-.59.45-1.04-.32-1.45-1.41-.75-4.02-1.49-5.55-.98-.16-.52-.23-.91.23-1.31l1.66-.12-.6-.71c-.22-.15.14-.42.27-.45,1.17-.31,2.67.76,3.89.69.12-.67-.16-.39-.52-.53-.84-.34-1.79-.43-2.56-.89-3.1.46-1.93-2.19.06-1.85,1.25.21,2.93,1.71,4.15,2.27,1.19.55,3.28,1.23,4.57,1.6,3.3.94,3.55.98,6.77-.12,3.88-1.31,7.66-3.44,11.74-4.04l-8.16,3.77-.15.98-.58-.25-.25.49c-.43-.84-1.73-.08-2.42.31-.39.22-.15.81-1.49.51l-.48.84.47-.47c1.06.49,1.99.36,3.15.17,3.9-.61,8.13-2.46,11.76-3.91.29-.12.66-.02.97-.09l.03-1.39c.84-.06,2.05-.31,1.9-1.42l-.94-.24v1.19s-.95,0-.95,0l.24-.95-1.07.47c-.49-.32-.21-.5-.11-.94-1.5.17-2.3-1.24-3.32-1.55-2.35-.7-4.41-.6-6.71-.89-1.19-.15-4.11-1.58-4.95-.55-.18.22-.14.7-.27.8-.21.17-.74-.16-.66.28,1.04.79,2.79.46,3.64.75.38.13.4.75.79.88.5.16,1.29-.07,1.84.28.77-1.55,1-.71,1.95-.55.25.04.61-.22.89-.14.23.06,1,1.48,2.17.92l.12.47c-3.49,2.42-8.53.63-12.34-.23-.64.61,2.48,1.79,2.78,1.84.98.18,1.63-.2,2.54-.19.48,0,1.58.18,2.15.25.33.04.72.13.35.47-2.43.31-5.84,2.57-8.19,2.57-1.15,0-5.74-1.66-7-2.22-1.92-.84-5.66-3.97-7.53-1.71-1.04,1.25-.1,1.92.4,3.01-2.04.76-2.21,2.91-.48,4.16l-.11.12-15.65,9.72-.38-.46.95-.36-.95-1.18,1.18-.6-.47-1.42,1.42-.12c.28-.73-.97.03-1.18-.12l.1-.48-.55-.26.44-1.04c-.61-.22-.98-1.03-.95-1.64,0-.19.78-.02.49-.61h-.71c.07-.75.58-1.3-.47-1.43l.38-.67.81.2c.22-.68-.42-.34-.48-.59-.13-.63.54-.12.48-.59l-.81-.22-.14-.73h1.42s-1.18-1.07-1.18-1.07c1.18-.66,0-1.34.27-2.34.2-.72,1.06.27.92-.51-.24-1.32-1.88-.49-2.84-.82.32.93-1.16,1.65-1.2,1.82-.03.13-.14,2.18-.12,2.33.05.41.85.98.73,1.56-.15.71-1,.84-1.28.41-.05-.08-.42-1.65-.42-1.74,0-.16.32-.36.32-.47-.01-.26-.61-.5-.6-.71,0-.13.35-.34.38-.52.05-.29-.36-.49-.37-.85-.09-1.78.53-4.17.65-5.99.1-1.56-.06-3.15,0-4.7.1-.43,1.4-.47,1.76-.18l.51,1.44c.76-.91,1.82-1.06,2.73-1.9l.24,1.19.1-1.2,1.31-.24.25-1.88c-1.02.46-.86-.34-1.36-.72-.45-.34-1.2-.39-1.73-.59v-1.07c-1.6.36-1.1-.02-1.79-.94-.29-.38-1.11-.4-.8-1.3,1.29-.65.39-1.02.29-1.95-.08-.74.34-1.53-.31-2.46-.94.38-.67,1.22-.71,2.02-.02.37.23.94-.35.83-.94-.55.14-1.84,0-2.14-.05-.12-1.11-1.12-1.19-1.13-1.26,1.31-1.34-1.99-2.37-.76-.79.95-.09,3.74,1.54,3.55.07-.05-.81-1.63.23-1.42.08,1.18,1.17,1.88.36,3.08-.38-.94-1.53-.59-2.39-1.17-.37-.26-1.61-2.05-2-2.52-.17-.21-.46-.31-.72-.34-.2-.59.33-.41.4-.52.3-.46-.05-1.53-.17-2.08-.82-.2-.33,1.09-.82,1.42-.66-.17-1.44-1.83-1.27-2.44.24-.57.65-.69,1.24-.64,1.38.11,4.42,1.57,6.08,2.01,4.58,1.21,8.65,1.61,13.36.77.21-.04.42-.11.61-.21l.04-.79c-1.63-.48-2.35.08-4.05-.71-2.61-1.21-4.36-3.57-6.63-5.12l.12-.47c1.26.73,1.01-.67,2.25-.59l-1.85-.65-.99-2.21c-.68-.43-1.61.44-1.66.37-.13-1.11,1.4-1.11,1.42-2.13-1.25-.63-2.05.81-3.09,1.5-.47.31-.72-.16-.94-.55.96-.02.57-.88.83-1.43.24-.5,1.34-.49,1.07-1.42-1.33.16-2.14.78-2.38,2.13-1.28.23-.83-.99-.34-1.66.34-.46.97-.29.83-.95l-1.08.22-1.29,1.56c-1.32-1.7-.4-2.21,1.24-2.8.5-.18,2.83-.84,3.2-.83.1,0,1.78.82,1.85.9.4.38.29,1.35.37,1.41.11.1.55-.06.75.02.24.1.18.45.33.48.25.04,1.28-.28,1.41-.47l-.14-.72h.71c.34.47-.42,1.62.48,1.42-.06-.85.31-1.92,1.31-1.93.5,0,.53,1.11,1.53.73l.13-.72c.31,0,.63,0,.94.02,1.88.15.34,1.46,2.14,1.43.37,0,.69-.25,1.07-.24-.06.76-.69,1.2-.73,2.02-.16,3.59,7.93,7,7.61,1.3.45-.52,2.21,2.61,2.41,2.94.39.61.55.99.86,1.5.6.99,1.14,2.28,2.43,2.45l-.46.81c1.2,1.16,1.09,3.73,3.07,3.46-.47.97-.54,1.19.13,2.13l.23.23.83-.47-.25,1.78.7.14c.26.26-.43,1.81.5,1.65l-.47.7c1.6.43.73,2.54,2.85,2.62-.94,1-.1,1.03.48,1.78.42.55.33,1.3,1.42,1.31l-.53.23c-.85.13.58,1.24.94,1.38.35.13,1.39-.07,1.49.41.17.79-1.81.42-1.19,1.19,4.01.41,7.99,1.04,11.87,2.13,2.01.57,4.03,1.51,6.02,2.05.12.03.46.17.73.2-.1-.1-.04-.28.08-.35-2.86-1.17-5.88-2.06-8.6-3.45-3.01-4.51-6.68-8.53-10.08-12.7-3.54-4.34-13.09-17.34-17.65-19.14-3.01-1.19-5.73-.39-8.8-.7-3.11-.31-6.16-1.8-9.51-1.88-2.49-.06-6.2,1.73-5.84,4.65.22,1.79,4.73,4.67,6.19,5.92,1.49,1.27,3.07,2.54,4.52,3.79.67.58,1.32,1.34,1.89,2.03h-6.29c-2.18,0-5.13-1.77-7.13-1.9-1.09-.07-1.33-.14-1.71.9-1.07,2.93.99,6.47,2.9,8.6,1.42,1.59,3.52,2.58,4.23,4.78.75,2.32.95,9.24.61,11.69-.5,3.66-7.65,7.54-10.43,9.99-.68.6-2.31,2.7-2.66,2.93-.15.1-.64-.26-1.07.1-.98.83-1.82,3.22-1.69,4.5.19,1.77,2.7,5.34,2.75,6.75.04,1.2-2,1.72-2.26,2.62-.39,1.33.09,2.65,1.13,3.51,0,1.12-4.68.86-5.58.84-4.5-.09-9.02-.68-13.52-.96-2.66-.16-8.61-.85-10.85-.17-3.45,1.04-2.59,2.81-3.09,5.45-.23,1.21-.64,2.58-.96,3.79-1.27,4.84-3.21,9.55-4.36,14.44-2.1-.03-4.25.49-6.35.2-1.1-.15-1.99-1.11-2.89-1.15-.83-.04-2.18.82-3.31.93-5.33.54-10.1-1.16-15.19-1.42-3.05-.16-5.32.88-8.16,1.69l-.03.92c1.73-.34,3.58-.82,5.34-.95,4.9-.34,11.27.41,16.08,1.48.82.18,1.2.79,1.72.89.78.15,3.29.23,4.26.25,2.75.07,5.45-.34,8.2-.25.07.46-.19.64-.59.71-1.53.28-4.45-.03-6.18,0-1.64.02-3.33-.08-4.98,0-1,.05-2.4.5-3.32.49-1.04-.01-1.83-.83-2.84-.96-2.16-.27-8.24-.39-10.46-.24-.34.02-1.25.02-1.29.48,3.62.92,7.32.89,10.98,1.49,3.26.53,4.32.93,7.89.65.95-.07,2-.39,2.97-.47.12.71-.17.38-.58.48-2.38.59-4.85.74-7.26,1.18-.35.33.02.43.35.47,1.97.25,3.98-.36,5.93-.48.26-.02,1.12-.16,1.08.24-2.85.62-6.08.45-8.9.96-.41.07-.67.25-.6.71l10.09-.71c2.51.82,5.01,1.45,7.69,1.45l.26,2.82-9.97-.12c.43,1.05,2.76,1.01,3.91,1.09,2.1.14,2.02.08,4.14.59.76.18,1.83-.15,2.15.58-1.12.2-2.29.15-3.41.27-.28.03-1.68.09-1.57.56,1.64.8,3.71.45,5.46.95l1.42,5.11c-1.99-.28-6.35-2.01-8.16-1.39-.36.12-.2.63-.73.7-1.8.22-4.97.04-6.9-.01-.8-.02-2-.72-2.48.22l15.9,3.09c-.03.34-1.06.41-1.33.44-.55.06-2.41-.05-2.7.27-.47.51.84.61.92.74l.03,1.16c1.73-.4,4.86,1.15,6.29.96,1.15-.15-.21-1.69.95-1.2.31.13,1.23,2.69,1.07,2.85l-23.26-1.07c.97,1.41,3.64,1,4.75,1.66.3.18.25.29,0,.49l-.72.11c-.05.31,0,.41.25.58.83.58,4.44.59,5.75,1.31.42.23.23.88.57.96,1.08.26,3.83-.09,5.19-.02,1.72.08,3.61.34,5.33.49l-.35.47c-1.2-.21-2.45.18-3.57.23-2.38.11-6.7-.42-8.72.3-.45.16-.5.58-1.24.67-1.38.16-3.36-.58-4.88-.25-.09.52.22.57.6.7,1.29.44,3.45.52,4.85.72v.95s7.96.48,7.96.48c.67.02,1.03-.67,1.66-.72.99-.07,2.54.52,3.76.2.29-.07.52-.37.16-.57-.56-.3-1.82.15-2.14-.59l6.88-.48-.24,1.18c1.32-.18,1.75.1,1.9,1.42l-7.6.95c-.02.15.32.47.36.47h4.98c.17,0,1.48.58,1.54.95l-4.75.95h3.32c.07,0-.14.65.62,1.16,2.81,1.86,5.48.05,8.51.27.92.07,1.9.42,2.84.48,2.49.16,4.81-.22,7.25-.49.04-.35-.61-.42-.85-.45-1.03-.13-3.41-.09-4.2-.55-.31-.18-.49-.25-.41-.66l4.98-.24c-.02-.67-.58-1.26.36-1.42l10.8.24c.2-1.31-2-1.37-2.96-1.43-3.42-.23-6.44.2-9.73.5-2.67.24-5.92-.55-8.8-.49-.9.02-2.81.89-2.96-.46,2.41-.29,4.78.11,7.21-.27l.53-.94,4.69.46.77-1.65c3.84.97,7.63,1.41,11.61,1.21,4.3-.22,6.44-1.38,10.26-2.32,3.8-.94,8.39-.71,12.27-1.49l-.02.5c-1.94.51-3.35,1.81-5.31,2.25-2.53.57-5.23.39-7.75.37-1.89-.01-1.63,1.4-2.23,1.76-.44.27-1.34.03-1.79.59l.28.69c3.18.17,6.19-1.17,9.24-1.6,3.85-.55,7.98-.59,11.79.03.64.11,1.29.54,1.97.64.26.03,4.64-.1,3.9.49-3.11.92-6.62-.76-9.49.6.72.36,1.58.55,2.36.72,3.97.87,6.92,1.38,10.93.24.79-.22,1.36-.82,2.25-.85,1.11-.04,2.8.76,4.06.93,2.88.39,5.99-.52,8.57-1.82.31-.16.54-.12.18-.53-.43-.43-6.06-.97-6.29-.71-.46.52.59.37.47.71-1.48.3-3.01.69-4.51.24l1.07-.7-.12-1.44c2.69-.68,5.47.63,8.07-.48.06-.32-.09-.57-.4-.67-.65-.21-3.94.4-4.93.45-1.75.08-3.94-.47-5.57.36-.3.15-.46.55-.74.69-.3.15-.88.08-.93.13-.15.14.23,1.46-.23,1.79l-3.57.1.03-1.39c.93-.44,2.46-.37,2.11-1.69-.39-.42-7.19,1.41-8.42,1.43-.79.01.19-.68-.14-1.17l-2.11-.26c.24-.62,1.94-.51,2.13-1.08.12-.36-.05-.65-.38-.8l-1.51.22c.09-1.47,2.18-2.22,3.4-1.91.32.08.21.7.45.9,1.15.98,5.05-.64,6.5-.87,2.84-.45,5.51.18,8.04-.03.99-.08,1.9-.61,2.85-.71,1.1-.11,5.95-.05,7.07.05.58.05,1.17.62,1.71.63.15,0,2.6-.51,2.73-.57.83-.37.75-1.83,2.08-2.2,3.25-.9,7.95.13,11.35-.28.92-.11,1.72-.62,2.83-.73.87-.08,1.85.07,2.74.01l-.24.95c.41.54,5.67-.88,6.76-.96,3.47-.23,7.3,1.38,10.63.9.77-.11,2.06-.36,1.84-1.36-1.61,0-3.49-.12-5.03-.55-.24-.07-.72-.06-.66-.4,2.19-.49,4.98-.84,7.23-.71,3.08.17,5.59,1.13,8.66-.48-.25-1.51-2.41-.2-3.45-.46l-6.99-.73c.32-.61,1.49-.45,2.15-.58.15-.03.71-.15.34-.36-1.28.06-3.02,0-4.26.25-.6.12-1.01.56-1.49.64-2.15.39-7.23,1.46-9.1,1.14-.98-.17-1.82-.8-2.83-.85-.38-.37,2.38-.71,2.72-.72,1.99-.09,2.67.58,4.62-.84.65-.47,1.47-1.7,2.15-1.9.72-.22,1.41.24,2.24.13.83-.11,1.82-1.06,2.69-1.13,1.03-.09,1.41,1.08,2.33,1.14.62.04,1.22-.46,1.89-.48.91-.03,1.68.45,2.79.2.78-.18,1.12-1.08,1.71-1.14,1.11-.11,3.58,1.39,4.46,1.2.2-.04.32-.61.63-.85.72-.54,3.83-.94,4.87-1.07,1.45-.17,3.28.48,4.38-.83,0-.6-2.99-.8-3.66-.84-1.66-.09-4.16-.2-5.6.59-.5.27-.91.84-1.18.96-.73.34-2.71-.86-3.91-.85-1.09,0-1.38.78-2.33.72-.41-.03-3.21-.8-3.55-.99-.31-.17-.49-.26-.41-.66.29-.24,4.97-.37,5.79-.5,2.95-.46,8.88-1.82,11.66-2.81,1.74-.62,2.51-1.79,4.47-1.64.85.06,2.03.7,2.62.68.51-.02,1.39-.49,2.03-.6,3.48-.62,5.72-1.21,8.95-2.68.79-.36,1.98-1.26,2.57-1.46.66-.23-.05.47.34.83.33.25.68.31,1.08.36,1.27.15,9.06-.21,9.79-.78.07-.06.33-.61.31-.64l-4.75-.72h3.92c2.73,0,5.89-2.41,7.65-2.56,1.19-.1,2.49.2,3.95-.08.92-.18,2.12-.91,2.64-.94,1.07-.06,2.7.65,3.8.68.53.02,2.48-.11,2.49-.78,0-.3-5.26-1.15-5.82-1.09-1.02.1-1.18,1.08-2,1.34-2.02.63-3.44-.87-5.22-1.21-2.17-.42-3.93.72-6.09,1.05-.79.12-5.49.58-5.79.26l4.15-7.12c.09-.04.4,1.12,1.43,1.18.37.02,2.62-.2,3.02-.28,1.55-.32,1.41-.33,3.1-.44,1.35-.09,3.25-.97,4.56-.94.6.02,1.15.59,1.91.7,1.71.26,4.39,0,6.14.01,1.22,0,3.41-.18,4.47.06,1.64.38,5.6,4.99,7.22,5.36.81.18,1.55-.12,2.33-.21.32-.04.71.19.96.16.34-.04,2.13-1.83,2.48-1.56l.45,1.07c-.99,1.43-8.49,1.19-8.89,1.76l-.1.96,7.36-.71c-.44.75-1.58.92-2.37.95-.06.47-.04.39.3.53,2.3.98,9.83-1.7,12.67-2.17,3.4-.56,6.86-.53,10.29-.63,1.1-.85.01-1.09-.89-1.24ZM139.91,99.08c1.12,1.22,3.55,4.22,4.41,5.56.2.32.47.47.35.96-1.4-.22-1.37-1.38-2.04-2.35-.73-1.06-1.6-1.46-2.23-2.28-.66-.84-.75-1.97-1.66-2.73.27-.25.99.63,1.18.84ZM124.73,80.68l.63.32,1.74,2.53c-1.51-.42-2.8-1.06-2.37-2.85ZM117.61,74.75c.58.03,2.28.84,2.55,1.23.32.45.02.85-.51.64-.45-.18-.55-.77-.87-1.03-.5-.41-1.3-.1-1.18-.84ZM118.32,76.88c-.95-.05-1.68-.43-2.61,0-.14,1.44,3.33,1.32,2.5,2.61-1.11,1.75-1.75-1.92-3.32-1.69-.26.04.03.6-.37.49-.85-2.2,2.71-2.9,3.79-1.42ZM242.21,138.59c.17.75.59,1.75-.12,2.37-1.02-.65-1.3-2.13.12-2.37ZM239.37,140.73c.07.24.04,2.46-.59,2.13-.46-.45-.58-1.13-.62-1.74l1.2-.39ZM235.45,140.74c1.6.34,1.25,1.64.13,2.36-.16-.77-.97-1.68-.13-2.36ZM228.92,133.02c.04.18-.23.15-.35.11-2.22-.68-6.07-5.4-8.55-6.4l-10.74-9.19c-.39-.03-.36-.71-.29-.78.28-.3,1.51.74,1.77.96,4.21,3.4,8.47,6.87,12.63,10.27.15.13.22.47.42.63,1.09.89,4.74,3.24,5.11,4.4ZM199.64,81.89c.74-.06,1.93-.07,1.99.92-.81.39-5.32,2.28-5.69,1.07-.31-.99,3-1.94,3.71-1.99ZM200.92,80.09l.38-.6,1.98.74c.97,1.45-2.42.07-2.35-.14ZM190.71,83.53c1.29.22,2.35,1,3.7,1.16,4.39.51,7.71-1.37,11.32-3.59,1.77-1.09-1.18-1.11-1.55-1.2-.56-.14-1.28-.79-1.84-1-.59-.22-3.72-1.53-3.93-1.55-.66-.06-.79.47-1.28.72.08-.43-.14-1.32-.59-1.38-.47-.06-.64.99-1.31.67l-.24-1.19c-.64.15-.21,1.33-1.06.95-.36-.16-.51-1.04-.6-1.42-.91-.25-.27,1.19-.47,1.42-.87.07-.72-1.18-1.42-1.42l-.03,1.4c-2.36.86-2.3-1.68-.94-2.95.57-.53,6.21-2.89,7.24-3.2,6.43-1.92,17.71,2.58,20.35,9.1.58,1.44,1.49,9.17.83,10.31-.12.2-.85.06.07,1.13l-.71.35c-.22-.25.29-4.04.25-4.86-.1-2.11-.75-5.43-1.74-7.31-.47-.9-1.36-1.48-1.86-2.19-.19-.26.04-.57.01-.58-.14-.08-.6.03-.93-.14-.57-.31-1.89-1.7-2.12-.5.77,1-.06,2.41.26,3.78.15.67,1.79,1.83,1.85,3.01-.97.35-1.33-.75-1.78-.94-.43-.18-.43.27-.32.56.58,1.42,3.17,1.69,3.05,3.48l-2.61-.95c-.15,1.13,1.46,1.3,1.9,2.13l-3.09-.47c.6,1.05,2.04,1.08,1.66,2.61l-2.37-.71c-.48.45,1.52,1.37,1.6,1.49.13.21.05.61.18.88.27.52.99.25.83.96l-2.85-.59c.41.37.75.84,1.2,1.17.51.37,1.52.42,1.41,1.08-.88.44-3.26-.5-3.69-.44-.31.04-.47.77-.35.91.12.14,3.12.94,3.56,1.31.35.29.24.69.24,1.07-1.47-.34-2.27-1.4-4.02-1.18l-.15,1.18,1.55.83c-.37.6-.72,0-1.25.15-.93.24-.49,1.06.06,1.51-.21.38-.89.31-1.07.59-.18.27-.03.81-.14.93-.07.08-1.56.24-1.87.27-.06.63-.01.38.36.47,1.13.26,2.32.53,3.44.24l-.24.71h.71s-.24.6-.24.6l-1.18.35-.36-1.18c-.62-.27-.61.49-.7.47-.3-.06-1.07-.72-1.49-.89-.33-.13-.8-.03-1.23-.19-.28-.11-3.59-2.52-3.7-2.72-.16-.86.5-1.51.61-2.49.08-.73.07-2.03-.1-2.75-.39-1.64-2.17-1.87-2.73-2.75-.43-.68.44-1.66-.97-1.51l-.47.71-.24-1.42-1.06.95c-.55-.23-.01-2.69-1.19-.71l-.6-1.42-.82.47c-.6-.4-3.2-3.81-2.73-4.27ZM216.82,99.91c-.54,1.09-.68,3.41-1.19,4.33-.12.21-.48.31-.71.41-.36-.48,1.06-3.57,1.36-4.23.15-.34-.14-.65.54-.52ZM190.22,98.86c.03-.15,2.3-1.3,2.63-1.45,5.29-2.28,6.74,1.12,10.46,3.77,1.99,1.42,6.21,2.4,5.2,5.36.45-.18.38-.79.82-1.19.97-.88,4.61-.12,6.19-.22,2.24-.15,2.94-1.02,5.26.19,2.94,1.53,3.42,4.37,2.56,7.39-.67,2.35-2.4,4.13-1.99,6.76.17,1.07,1.6,2.44,2.22,3.47,1.23,2.06,2.14,4.07,2.75,6.39-1.49-.93-3.06-1.83-4.42-2.93-.29-.23-.59-.86-1.03-1.22-3.83-3.17-7.78-6.3-11.16-9.97l9.73-2.25-11.15,1.42.43-1.51-1.16-1.02.73-3.4-.97,3.06-1.73-.25-7.45-5.86c-1.79-.11-2.52,1.44-2.43,3.04-2.51-1.58-3.31-5.33-4.7-8-.28-.54-.94-.84-.78-1.59ZM205.9,116.76c-.67-3.19,2.85-.79,2.61-.48l-2.61.48ZM206.84,118.91l-.1.71-.29.19-2.22-.21.85-1.4,1.75.71ZM208.28,112.72v.69s-2.37.49-2.37.49c-.23-2.44.77-1.46,2.37-1.18ZM197.36,106.91c-.03-.25.38-.43.83-.12.65.44,1.46,1.53,2.01,2.14l-2.84-2.01ZM197.36,111.06c-.61.07-1.63.08-1.42-.83.16-.69,1.56.32,1.42.83ZM190.48,101.57c.37.19.78,1.29.85,1.65.16.89-.69,1.01-.85.13-.1-.54.05-1.21,0-1.78ZM187.15,98.96l1.65.49c-.05,2.63-2.12-.02-1.65-.49ZM183.59,100.38c.62.9-.21,1.65-.18,2.21,0,.2.36,1.48.65,1.58l.26-4.48,2.12-.5c-.06.65.1,1.39,0,2.01-.07.39-.47.61-.48.95,0,.14.45.09.49.27.12.5-.24,1.01-.22,1.42.03.72.37,1.45.21,2.23-.95.05-.86-1.46-1.9-1.18l.21,1.87-1.15.26c-.17-.41-.04-1.11-.72-.94l.46,2.03c1.37.54,1.38-.51,2.03-1.32l.59.95c-.08-.85,1.13-1.39,1.19-2.02.04-.4-.25-1.05-.25-1.65,0-1.02.08-1.98.25-2.98.8.2.29,2.19.47,2.37h1.19s-.22-2.24-.22-2.24c.33-.21.34-1.78.81-1.55,1.01.47.34,2.01.35,2.72,0,.22.41,2.4.48,2.58.05.16,1.25.3,1.16,1.24-.02.26-.96.2-.68.93.33.86,1.29-.42,1.66-.11-.56.95.14,1.93.83,2.6l.47-1.18,1.68,1.42-.37,1.19c1.8.51,2.29,1.22,3.92-.25,1.24,1.01.85.38,1.68.25.54-.08,2.58.51,2.95.84.24.21.17.59.3.75.23.28.94.24,1.33.93,1.32,2.32-2.87,7.39-5.03,8.22-.79.3-1.36-.37-1.95.65l-.83-.47-.12.71c-1.07-.38-.66-1.16-1.54-1.54,1.44-.65-1.23-1.42-2.06-1.45-.39-.02-1.81.32-1.98.15-.07-.08.11-.63-.05-.9-.14-.23-.77-.06-.67-.88.02-.16.73.02.48-.59-.47.06-1.06-.1-1.5,0-.23.06-.03.51-.48.45-.78-.09-.52-.73-.78-.95-.5-.42-2.87-1.04-3.28-1.65-.35-.53-.03-1.7-.84-1.66l.47-.7c-1.11.06-.84-2.73-1.19-3.09l-1.18.71c-.16-1.7-1.03-3.91-.96-5.56.02-.6,1.48-4.96,1.9-4.64ZM194.96,120.58l-.09,1.16-1.54-1.42,1.64.26ZM170.09,121.04c.62.07.65-.13.92-.61l-1.14-.71c.54-.64.5-1.5.73-2.31.66-2.24,1.19-4.76,2.01-7,.56-1.54,2.06-2.23,3.37-3.04l-1.18-.59c.36-.78,1.34-.96,2.13-.94l-.71.82,1.17.59c.31-1.36,1-2.12,2.38-2.36-.5,2.42-.21,3.88.67,6.09,2.69,6.75,6.8,14.01,15.28,13.07,2.22-.25,4.44-1.66,6.59-1.12l-.95-.83c.63-.49,1.72-2.2,2.61-1.93.35.11.59.57,1.02.57.43,0,2.51-.84,2.66-1.39,2.01.84,3.48,2.55,5.09,3.93,3.85,3.3,8.24,6.25,12.33,9.5,1.07.85,2.33,1.98,3.16,2.88.42.45,2.4.95,2.5,2.13.01.12-.5,2.08-.59,2.41-.4,1.37-3.03,7.42-3.86,8.24-.63.62-1.65.98-2.48,1.28-3.24-5.11-8.55-5.16-13.6-2.63-1.04.52-6.49,4.28-6.85,5.04-.24.51.28,1.65-.83,2.02l.62,1.77c-.35.59-3.37.65-4.17.7l.24-1.18c.46.08.13.53.82.72.43.11,1.02.12.84-.48-.91.27-1.19-1.07-1.56-1.15-.71-.16-2.34.91-2.48-1.22h-.47c.01.99-1.75.82-2.48.7-2.25-.36-1.12-1.68-1.32-1.88-.95-.18-1.28-.19-2.14.24.13-.9-.19-1.46-.71-2.13l.71-.48c-.77.35-1.6-1.05-2.11-.67-.11.08.14.53-.26.43.47-1.51-1.58-2.39-1.9-3.68-.04-.18,1.07-.27.6-.83-.63-.91-1.07-.65-2.02-.47-.13-1.29-.84-1.17-1.91-.95l.47-.59-.83-.59-.12.71c-.74-.27-.54-1.06-.71-1.66l1.42.23-.23-.83c-1.23-.24-2.34-.3-2.97-1.54l-.35.71c-2.34.03.54-2.63.47-2.96-.04-.19-.41-.48-.71-.24-.41.33-.17,1.89-1.18,1.78-.69-1.06-.58-2.75-2.14-2.61l.48-1.42-2.37-.83.47-.59h-.95s.24-.95.24-.95h-.95s.25-2,.25-2l-.49-.27c.61-1.09-.52-1.9-.94-2.83l1.18.12c.08-.84-.58-1.52-.69-2.27-.22-1.46,1.53-3.11-.26-3.66.08,1.33.11,2.27-1.16,2.96l.68,1.2-.68.38.21,1.16c-2.93.27-.85-2.58-1.19-3.08l-.71-.11,1.14-1.21-.17-1.51ZM228.21,152.12h-.47c-.12-.61-.62-1.35.23-1.19l.24,1.19ZM215.4,152.83v-.54s-.47-.17-.47-.17c0,.29-.04.62-.22.85-.4.5-8.93,2.83-9.28,2.48.22-3.44,2.73-7.3,6.39-7.63.08-.45-.18-.81.49-.68l.48,2.14c1.09.18-.19-1.12.47-1.55.32-.21,1.94.3,2.1.76.17.49-.02,1.21.04,1.74.73-.02.86-.78,1.67-.61.83.17.18,1.02.94,1.32l.12-1.66c.42.21,2.3,1.75,2.02,2.13l-2.61.72v-.95s-.71,0-.71,0c.18,1.13-.28,1.69-1.42,1.66ZM215.63,148.09l1.66.48c-.42,1.62-1.23.2-1.66-.48ZM189.05,154.26l-1.15-.04c-1.18-5.22-7.93-9.85-13.15-9.15-.76.1-2.23.89-2.79.54-1.08-1.76-1.53-4.01-1.42-6.06l2.23,5c.81.58,2.3-.06,3.33-.02.84.04,3.17.5,4.02.74,3.13.89,7.99,5.07,8.86,8.23.07.26.09.5.06.77ZM156.36,147.31c1.49-.28,3.44-.15,5.05-.13.15,0,.08.41.27.44.39.06.74-.38,1.27.23l-.24-.95c.78-.6,1.51.4,1.78.39.12,0,1.46-.5,1.85-.56.2-.03.55.18.94.13.37-.05.69-.46,1.25-.46.97,0,1.19,1.16,1.88,1.2.58.03,2.42-.89,3.21-1.06,1.74-.39,3.78-.52,5.23.72l-1.66,1.78,1.42-.23c.04,1.31-.53,2.04-1.41,2.98-.34.36-.84.44-.96.82,1.33.34,1.49-1.2,2.28-1.63.6-.33,1.48-.24,2.11-.74.67.61-.33,1.13.85,1.56l-.26.68c0,.14.46.11.49.29.15.68-1,4.4-.98,5.67,0,.71.18.98.73,1.42.02.9-7.96.99-8.89,1.07-.82.07-2.74.93-3.33.24-.83-.98-1.19-6.57-1.07-7.96.2-2.29,1.26-2.9,1.73-4.45.25-.84-.14-1.26-.82-.33-1.07,1.47-1.63,3.11-1.86,4.91-.61.09-.49-.1-.47-.59.07-1.45.75-2.2.95-3.44h-.71s0,.95,0,.95l-.47-.95c-.44-.41-1.9,3.5-1.18,4.03l-1.42.49,1.66,1.42c-.86-.1-1.49.34-1.66,1.19-.77-.17.49-1.22.24-1.42-1.44.41-1.7-1.47-3.09-.84-.71.46.47,1,.48,1.19l-1.18.35.24-.71c-1.21.63-.9-1.4-2.13-.71l.23-1.19c-.25-.26-3.1,2.07-2.13-.13l1.42-.58c-.75-.53-1.26.13-1.54.15-.21,0-1.47-.82-2.02-.63l.47-1.18-2.13,1.66c-.42-.49,1.73-3.85,1.88-4.64l.42-.3c.44-.06.88-.03,1.32-.11ZM150.91,155.24c3.66,2.11,7.08,4.65,11.08,6.14,0,.4-.79.45-1.06.47-4.82.38-10.1-.21-14.93-.48l-.15-.59,1.66-.36c-1.32-1.2,2.93-5.22,3.4-5.18ZM123.54,123.51c2.89-1.04,6.43-.86,9.5-1.65,3.82-.99,7.75-3.25,11.78-3.66.84-.09,1.6.27,2.46-.02.26.89-1,.89-.96,1.78,0,.1.37.13.4.18.54.92-.91.94-1.57.65l.23.95-.71-.24.2,2.34c-3.36.88-.55,5.1-.45,7.3.04.78-.58,1.78.13,2.47.37.35,1.25.02.71.95l-.8-.22-1.18,1.56c.5,1.23-.48,2.5.32,3.63.54-.52,1.21-.53.94-1.43l.27-.22c1.2.41,1.67-.78,2.89-.2.05.74,1.06,1.32,1.19,1.77.22.75-.06,1.97.51,2.76.3.42,1.58.57,1.91,1.23-1.44-.44-1.73,1.24-.48,1.55v.34c-1.61.98-1.09,1.43-1.48,2.79-.09.31-.66.93-.65,1.01.02.2,1.69.56,0,1.42l1.18.59.26-1.51-.49-.62,1.89.47c.07-.82.93-1.67,1.1-2.37.99-4.06,1.35-6.42,1.65-10.71.06-.82.57-2.28.56-3.19-.02-1.77-.91-6.04-1.46-7.74-.15-.47-.87-.64-.41-1.24.48-.63.9.87.98,1.15,3.04,10.49,1.6,27.52-9.13,33.19-.7.37-5.08,2.49-5.52,2.55-.94.14-1.59-.22-2.33-.2-.91.02-1.82.27-2.88.22-.81-.03-1.62-.4-2.48-.25-.36-.27,1.1-1.1,1.29-1.21.36-.2.88-.15,1.04-.28.28-.23.46-1.18.38-1.61,1.4-.44,2.35-2.09,2.28-3.55l1.18.24.13-.96-.83-.58c1.05-.43,1.67-1.48,2.84-1.31l-.84-.71h-.44s-.25.48-.25.48l-.72-.47c.25-1.29,1.66-.29,2.5-.72.05-.55-1.47-.22-1.18-.82.28-.59,1.77-.63,2.37-.84l-.44-.59c1-1.36,2.94-1.41,4.47-1.78-.52-1.86-2.45-1.07-3.8-.71l.76-1.84c.86-.89,2.68.55,3.27-.53-.91-.72-1.33,0-2.02-.02-.42,0-.74-.43-1.14-.41-.39.03-1.32.87-1.58.66l-.71-.71c-.03.22.86,1.32.12,1.18-.7-.82-.92-1.05-2.01-.71l-.37-.94c-.6.36-.15,1.51-.59,1.79-.15.09-.54-.16-.78-.08-.35.11-.59.48-.89.55-.47.12-1.19-.16-1.8.35l-.46-.25-.12-.71-.48.71c-.73.18-.23-.61-.82-.47l-.49.72-.55-.06-.4-.67c-.57.26-1.09.6-1.75.59-.61,0-.96-.51-1.33-.51-.61,0-1.55.86-2.25-.56l1.66-.47c-1.22-1-1.64.37-2.7-.27-.9-.55-.35-1.2-.98-1.87l-.11.47h-.7s-.27-1.18-.27-1.18h-.7s.24.7.24.7l-.92-.04c0-1.35-1.93-.66-1.69-2.33-.13-.12-1.9.67-2.62-.11-.38-.42-.17-1.16-.45-1.62-.14-.22-.6-.24-.7-.55-.14-.44.14-.83.1-1.16-.02-.22-.37-.35-.38-.7,0-.18.79,0,.48-.59l-1.42-.24.35-.73.72.02.12-.46-1.18-.36.59-.83.95.47.37-.59-.48-.83,2.84-1.78c-.41-.37-.82-.68-.71-1.31l.71.47c.07-.45.17-.94.49-1.29.5-.55,3.94-2.58,4.73-2.87ZM100.42,151.17c1.57.18,1.82-1.52,3.42-1.81,1.02-.18.8.52,1.66.62l-.71-.95c1.29-.39,2.69,1.54,2.85-.48l-1.18-.24c1.46-.04,3.13-.93,4.45-1.15,1.32-.21,3.5.04,4.93-.03.48-.02.83-.23,1.29-.25l-.47.71c.21.16,2.67-.49,3.21-.48.13,0,2.25.51,2.49.59.6.18,1.61,1.02,2.03,1.29.45.28,1,.38,1.41.74.68,1.07-2.68,2.24-3.45,2.5-1.92.65-5.74,1.23-7.69,1-.53-.06-1.27-.92-1.98-1.07-1.7-.35-5.12-.44-6.54.66-.29.22-.05.6-.32.72-.19.08-1.37.26-1.62.25-1.11-.04-1.44-1.33-2.49-.25.5-1.4-1.85-.91-1.29-2.37ZM102.77,132.18c5.62-3.67,11.47-7.01,17.09-10.69l.6.13-22.31,14.59c1.05-1.95,2.81-2.86,4.62-4.04ZM91.5,140.02c.16.75-2.14,2.13-2.37,1.9-.39-.94,2.05-2.19,2.37-1.9ZM88.66,140.25c-.29-1.13.93-1.84,1.18-.48l-1.18.48ZM104.53,135.54c2.28,3.45,5.44,6.64,9.29,8.28l-.23.36-22.55-.84,13.5-7.8ZM97.44,136.46c-.24.48-2.51,2.23-2.85,1.9-.09-1.26,1.86-1.87,2.85-1.9ZM96.16,132.2c.7-.12,2.35,2.37,1.05,2.96-1.32.59-2.45-2.73-1.05-2.96ZM94.11,136.1c.16-.41.79-.39,1.18-.36.45.4-1.69,1.64-1.18.36ZM101.92,122.71l.17,2.24-.62.35-.71-2.61,1.16.02ZM96.26,123.78c.2-.18.14-.62.29-.78.06-.06,1.44-.73,1.53-.75.84-.14.88.77,1.02,1.4l.71-.24,2.27,8.31-3.1,2.13c-.42-.03-1.11-4.23-3.39-3.14-.83.4-.77,1.58-2.59,1.65-.93.03-1.79-2.37-1.92-3.19-.11-.71.24-1.43.19-1.48-.08-.07-1.68-.06-1.31-.96.36-.87,1.62-.91,2.27-1.29.57-.34,2.21-1.65,2.53-1.75.54-.16,1.4.19,1.5.09ZM95.06,118.89c.1.45-.25.56-.47.83-1.76,2.13-4.61,5.09-7.36,5.57.18-1.28,7.33-6.89,7.83-6.4ZM85.7,130.98c-1.36-1.92-.33-1.77.15-3.73l1.86-.18,1.18,2.02-1.42-.47c-.2,1.59.81,4.63,2.01,5.7.73.65,1.86.6,2.46,1.33.35.43,1.2,2.17.36,2.44-.98.32-1.52-1.16-2.3-1.47-.52-.21-.97.25-1.35-.29l.47-.47-.93-.71c.1-.15.35-.31.37-.47.04-.37-2.45-3.11-2.87-3.7ZM88.3,138.35c-.47-.02-1.06-1.87-1.07-2.37.98-.26,1.8,2.4,1.07,2.37ZM86.84,138.85c.43.15.54,1.99,1.1,2.46-.48.7-1.37.26-1.82-.2-1-1-.86-2.81.72-2.27ZM113.81,145c-.07.44-.49.4-.8.5-1.71.58-6.73,1.91-8.41,2.06-.62.06-2.03-.17-3.02-.17-1.25,0-1.74-.7-2.61.93-.64.33-.23-1.28-.35-1.42l-1.66.23.24-.71-2.95.95-.16-.68-.8-.04c-.47,1.69-1.53,1.48-1.57-.21-1.41-.7-2.16,1.91-2.6.22l-.62.7c-.9-.14-1.62-.19-2.46.25l.23-1.18c-1.16-.75-1.61.34-2.04.42-.35.06-.79-.38-1.28-.08-.72.44-.8,2.24-2.51,1.09l-.2.45-.61-.22c-.21,1.19.56,1.28,1.54,1.42l-.47.24-19.35-6.29,52.46,1.55ZM95.78,182.74l-1.67-7.36-.67.27,1.15,9.22h-.71c.25-.98-.48-1.46-.76-2.21-.39-1.04-.6-2.19-1.03-3.25-.08-.21.03-.89-.46-.71-.45.17-.2.56-.16.85.25,1.93.86,3.84.99,5.79-.97.92-2.36-4.28-2.54-4.7-.12-.29-.19-.85-.66-.76-.53.36-.21.45-.14.84.3,1.69,1.15,3.32,1.2,5.09-1.82.23-2.25-5.55-2.74-5.71-.31-.1-.86-.15-.8.35.19,1.62.95,3.53,1.41,5.12l-.92-.03-2.53-8.04c-.6-.12-.37.73-.33,1.04.24,1.79,1.86,5.31,1.83,6.73,0,.54-.69.78-.91.39l-1.67-6.25h-.71c-.28,2.04,1.31,3.99.71,5.93-.56.43-2.13-6.32-2.14-6.88h-.71s.95,6.41.95,6.41l-1.2-1.52-.93-4.25-.71-.16.94,5.08-.71.27-1.29-2.73c-.52.32-.21.55-.2.89.02.88.05,1.87.47,2.65l-.5.49c-1.98-1.79-1.25-4.94-2.97-6.65-.32.44.7,3.54.69,4.37,0,.23-.15,1.02-.57.85-1.16-.48-1.47-4.2-2.14-5.22-.55-.12-.37.49-.36.83.04,1.14.61,2.26.48,3.44-.56.77-1.14-4.93-1.89-4.75-.12,1.93.54,3.8.84,5.69.04.25.32.77-.13.72-.18-.67-1.21-1.45-1.45-1.99-.7-1.52-.87-3.97-1.4-5.61-.4,0-.47.78-.45,1.04.05.92,1.28,4.64.93,5.13-.59-.16-.39-.91-.61-1.41-.21-.48-.55-.78-.75-1.39-.43-1.32-.7-3.17-1.02-4.56h-.71c-.47.46,1.46,6.13,1.43,7.25-.04,1.45-1.33.79-.82-.61l-1.8-.47c.32-1.25.4-2.1-.71-2.97l.47-.59h-.95s.47-1.66.47-1.66h-.71c-.14-.71.46-1.7.49-2.01,0-.09-.82-.58-.91-1.48-.14-1.35-.08-3.26-.32-4.63-.08-.45-.59-.92-.64-1.31-.06-.51.35-.69.39-.96.06-.46-.2-.96.06-1.48l-.72-.12v-.83s1.19,0,1.19,0c-1.21-1.3,1.07-1.97-.95-2.97,1.77-1.2.14-1.87.05-2.4-.05-.28.36-2.23-.41-2.47-.97-.3-1.14,2.04-1.06,2.73.04.3.39.58.39.72,0,.18-.44.5-.52.82-.67,2.62-.4,10.71-.08,13.62.17,1.54.97,2.89,1.33,4.36.32,1.31.34,2.97.77,4.33h-1.42s0,.95,0,.95h-.71s-1.9-8.55-1.9-8.55c-.42-.07-.68.18-.72.59-.08.75.53,3.11.65,4.1.04.37-.16.71-.12,1.06.06.53.71,1.3.31,1.83-1.96-3.68-1.99-8.23-2.26-12.34-.49-.12-.58.16-.59.59-.05,3.56.57,7.03.83,10.56-.88-.27-.57-1.12-.78-1.71-.87-2.55-.63-4.24-1.13-6.71-.15-.74-.91-.77-.94-.48l.24,7.71c-.25,0-.49.07-.72-.1-.39-.3-.96-3.44-1.88-3.81,1.69.29.13-.85.04-1.23-.25-1.07.44-2.74.45-3.51.01-.98-1.28-3.07.46-3.33l-.95-.83.68-.11-.15-.45.9-.38-.72-1.06.95-.48-.71-.35c.06-.37.63-.81.67-1.11.04-.26-.29-.46-.32-.67-.1-.77,1.24-1.66,1.78-2.14l-.95.12c.15-.69.43-.99.48-1.78.04-.64-.86.18-.48-.47.29-.49,1.13-.87,1.32-1.54.09-.32-.12-.65-.03-.96.11-.37.56-.62.6-1.07.08-.91-.72-1.36,1.19-1.54.15-.9-1.3-.08-.59-1.19.42-.66,1.17-.26.35-1.89l1.19-.36-1.18-.47c1.1-.42.68-1.66.74-1.74.16-.22,1-.18.68-1.22-.11-.12-1.6.97-1.18.12.13-.26,1.34-.91,1.61-.77l.17.43.95-.49-1.76,9.94.93.26,2.02-9.01c.43.3.37.58.34,1.03-.09,1.15-1.92,7.22-1.41,7.74.66.09.73-.05.97-.57.5-1.07,1.32-7.73,1.65-7.97,1.78-.09,2.22.94,3.4,1.96l-.81,9.07.38,1.31c.48.13.53-1.05.56-1.33.38-3.19.23-6.5,1.22-9.58l.48.36-.98,9.02.62.59c.28-1.82.32-3.72.63-5.54.06-.34.66-4.69,1.63-3.95l-.95,9.26h.71c.47-2.73.57-5.63,1.67-8.19l.48.24c-.36,2.83-.95,5.7-1.18,8.55-.03.36-.29,1.94.12,2.01.51.09.71-.79.77-1.12.28-1.53.48-7.5,1.13-8.36.25-.34.46-.26.82-.24l-.97,6.97.73.39,1.12-6.83,1.02-.29-1.43,10.33.25,1.77.72-.4c0-2.09.21-4.23.53-6.3.11-.74.95-5.4,1.47-5.4.61.42.62.85.61,1.54,0,1.03-1.37,6.85-.97,7.24h.71c.02-.34-.06-.72.02-1.04.44-1.9.63-4.01,1.14-5.76.11-.4-.18-.66.51-.55-.06,2.99-1.02,5.93-1.18,8.9-.04.75-.21,1.93.36,2.49l2.02-11.39c.32-.06.58.09.68.4.26.83-1.08,5.63-1.14,7.11-.02.46-.12.72.34,1.03l.57-.84,1.44-6.51-.95,10.08c.07.78,1.17,1.07,1.19.71-.22-.82-.28-1.52-.24-2.37.07-1.58.75-6.63,1.25-8.01.18-.49.55-.86.89-.3-.29,1.06-1.46,7.6-.93,7.94h.7c.32-2.66.38-5.44,1.42-7.95l.47.24c-1.02,4.05-1.46,8.3-.94,12.47h.71c-.03-3.67,0-7.62.77-11.21.09-.41.19-.85.53-1.13.28,2.14-.39,4.31-.44,6.47,0,.22-.23.5.2.65.62.22.47.03.6-.35.5-1.46.13-3.74.71-5.23.14-.37.2-.69.71-.6l-.73,7.47c-.02.63.06,2.57.95,2.01l.73-8.77.42.3c0,1.78-.74,4.56-.42,6.22.08.4.3.58.59.83l.83-6.88c1.67.51.31,4,.23,5.57-.05.94-.4,4.26.96,3.57-.16-2.87.14-5.65.83-8.42.26-.32.88-.5.83.12-.16,2.25-.79,4.51-.95,6.76l.73-.14.93-6.03h.71c-.09,3.28-.35,6.56-.25,9.86.05,1.49.11,3.52.25,4.97.26,2.69,1.31,5.67,1.43,8.3.01.26.16,1.12-.25,1.08ZM120.39,183.27c-.09.41-.01,1.06-.64.9v-7.95c0-.08-.21-1.35-.71-1.07.51.9-.27,1.16-.43,1.83-.48,2.05.41,5.04-.29,7.19-.43-.09-.44-.47-.48-.82-.19-1.71.36-3.51,0-5.11-.91-.67-.97,3.51-1.01,3.85-.07.49-.11,1.4-.65,1.61v-5.1c0-.14-.49-.46-.71-.35l-.24,6.41c-.35.04-.43-.62-.45-.85-.19-1.74.08-3.57-.26-5.32l-.71.24v5.34c0,.1-.36.52-.6.12-.61-1-.12-2.97-.59-4.15-.15-.37-.2-.69-.71-.6v4.75l-.68-2.76-.03-1.51h-.71v4.39l-.48.24-.95-6.05h-.71s.24,5.93.24,5.93l-.83-.24c-.16-.23-.55-4.67-1.3-3.8-.24.26.71,5.41-.47,4.51l-1.55-7.36-.6.14.71,6.03c-1.62-.08-1.28-2.53-1.79-3.8-.15-.38.03-.58-.58-.47l.47,4.75c-1.33-.6-1.52-5.32-2.26-5.69-.52-.1-.36.23-.35.59.04,1.1.67,2.47.71,3.57.01.36.17.68-.35.59l-2.02-7.59-.67.28c-.63.95,1.53,6.09,1.11,7.4-.58,1.84-1.55-3.18-2.58-2.46.31-.34.48-1.12.36-1.54-.4-1.38-.23-1.11-.35-2.62-.41-5.25-1.25-11.64-.72-16.84.12-1.19.34-1.75,1.66-1.54l-.46,4.89.58.57c.71-.17.7-4.8,1.19-5.7l.83,2.04-.23,2.94c.61.1.43-.09.54-.51.23-.86.06-3.49,1.29-2.87,1.16.58.16,3.09.07,4.22-.07.9.04,1.83,0,2.73h.71c-.14-2.33.21-4.62.72-6.88l.67.65c.11,2.02-.69,4.41-.69,6.36,0,1.38.74,1.57.94-.03.3-2.4.27-4.87.98-7.21.51.1.33.41.37.7.29,2.07-.51,4.09-.37,6.18l.73-.1.18-.3c.53-1.69-.17-4.54,1.47-5.53.14,1.82-.7,3.81-.73,5.57-.02,1.29.72,1.89.96.71.26-1.33.26-2.9.48-4.27.06-.39-.1-.78.36-1.06.57-.12.34.47.36.83.04,1.27-.61,2.54.11,3.68,1.18-1.03.32-3.9,1.29-5.07.22-.27.44-.13.73-.15-.2,2.31-.94,4.54-.71,6.88h.71c.03-2.1.31-4.11.72-6.17,1.85.33-1.25,4.24.95,4.04l.48-3.56.72.11.19.29-.2,4.12h.71s.72-4.51.72-4.51c.35-.34.43.02.47.35.15,1.1-.23,2.13-.24,3.21h.95c.15-.14-.19-2.98.95-2.85.28,1.07-.66,2.41.36,3.08.58.02.25-3.28,1.18-3.08,1.17.25-.92,7.11.24,7.36.36.08.54-.28.59-.59.18-1.03.17-5.86.71-6.29.46-.07.63.19.71.59.25,1.35-.5,2.98-.23,4.39h.83s.6-5.22.6-5.22l1.18.24-.71,15.19-.94-.71c-.56,1.86-.39,3.87-.79,5.75ZM146.28,182.09c-.14.5-1.06,1.27-1.49.64l-.83-6.05-.48.24v4.98c0,.48.38,1.22-.71,1.3-.39-.94-.12-1.95-.3-2.91-.05-.25-.14-.83-.53-.65-.95.45-.49,3.12-.6,4.03-.3-.01-.71-.94-.71-1.07v-6.05c-.68-.11-.39.14-.51.55-.59,2.13.16,4.64-.45,6.81-1.34-.93-.31-2.91-.95-4.27-.19-.14-.71.23-.71.35v3.68h-.47c.2-.44-.24-1.09-.24-1.31v-4.98l-.36-.35-.36.35v6.65l-1.42.35c.26-.68-.26-1.25-.26-2.02,0-.94.87-2.25-.69-2.49-.54,1.52.49,4.24-1.43,4.75v-3.68c0-.14-.49-.46-.71-.35-.19.21.26,4.05-.95,4.27l.23-7.36c-.21-.02-.31-.04-.48.11-.63.59-.68,6.26-.95,7.48-.4.21-.71-.41-.71-.59v-5.81h-.71s-.48,5.93-.48,5.93c-1.27-1.13-.49-3.15-.46-4.62.02-1.25.14-3.11,0-4.29-.04-.33-.12-.68-.47-.35-.57,2.67-.28,5.51-.71,8.19-.06.35-.01.73-.48.83v-7.6c-.52.18-.55.92-.65,1.37-.4,1.82-.28,3.9-.65,5.76l-.48.24c-.93-.74-1.56-.23-2.49.23v-1.66s.94.71.94.71c.65-1.41.9-3.06.97-4.63.08-1.59.11-3.12.22-4.75.23-3.48.11-6.97.71-10.4l.95-.4-.11,5.22c1.13-.03.87-3.05,1.14-4.09.12-.44.05-.79.64-.66v4.15c0,.07.48.44.59.59,1.25-1.09-.08-3.23,1.3-4.27.51,1.49-.19,2.86,0,4.39.05.24.33.16.48,0,.71-.72-.07-3.93,1.42-4.16l-.25,3.87.61.39c1.3-1.24-.23-3.64,1.3-4.51.47,1.27-1.13,4.4.71,4.27.44-.41-.29-3.81,1.07-4.03.94.2-.32,5.66-.11,6.76.08.41.25.67.71.59l.71-7.59c.56-.03.42-.08.47.35.21,1.6-.47,3.25-.24,4.87l.92-.03c.59-1.41-.15-3.44.64-4.7.24-.38.68-.68.81-.13.11.46-.24.81-.24.95v3.44h.94s.36-4.04.36-4.04c1.19-.62.62.59.6,1.08-.02.83,0,1.66,0,2.49h.95s.46-3.66.46-3.66l.73-.14c.07,1.81-.56,4.04-.23,5.81.12.67.54.81.95.24v-4.51c0-.07.19-1.2.23-1.43.07-.4.02-.82.6-.83l.39,3.77.92.03c.15-.93-.38-2.44.39-3.06.78-.63,1.24,1.01,1.27,1.54.22,3.76-.06,7.79-.24,11.59-.06,1.16.24,3.28-.04,4.23ZM167.77,185.8c-.95.05-1.36-.36-2.22-.46,1.47-2.25,5.34-1.89,7.83-2.02.41-.02.6-.29.95.24-.04.99-5.62,2.18-6.56,2.24ZM177.3,176.33c-.68-.04.07,3.45-1.3,2.85l-.46-3.93-.72-.1c-.35.35.42,3.84.21,4.6-.16.59-.54.31-.74-.15-.54-1.24.49-2.94-.89-3.26l-.23,3.4-.72.4c-.41-.29-.08-3.57-1.19-3.8v3.8l-.71.24-.48-3.32h-.95v3.32c-.63.1-.42-.1-.54-.51-.19-.65-.23-2.52-.77-2.81-.46-.24-.35.4-.36.59-.06,1.14.64,2.26-.35,3.2-.11-.15-.59-.51-.59-.59v-4.51l-.47-.24c-.83.35-.36,4.51-.71,5.58-.61.21-.6-.75-.64-1.13-.11-.9.3-2.64-.78-2.66l-.24,3.56-.67-2.29-.51-.8c-.24.96-.13,1.99-.26,2.95-.03.24-.1.89-.45.85l-.48-4.03h-.71v3.44l-.47.24-.71-4.28-.48.24v3.8c0,.07-.62,1.44-.95,1.07l-.71-3.68-.48.24v3.44c-.45-.18-.6-1.4-.65-1.85-.13-1.17.4-3.22-1.01-3.37l.24,5.46h-.95c-.1-.97-.11-2.21-.3-3.15-.09-.44-.1-.78-.65-.65v3.8c-.48-.15-.59-.94-.65-1.37-.04-.28-.15-5.05-1.01-4.09l.23,5.93-.73-.14c-.38-1.14-.26-2.54-.57-3.67-.12-.43-.07-.55-.59-.46v4.75l-2.13-.34c-1.33-.68.1-4.67,0-5.7-.06-.6-1.03-.86.02-1.22-.45-.75.07-1.03.15-1.44.08-.46-.53-.69.31-.91-.92-.68-.43-1.26-.45-2.13-.03-1.39.09-2.94-.02-4.25-.07-.81-.93-1.17-.95-1.68.73-.31.73-1.26,1.67-1.07l.11.47,1.07-.71.48,5.7h.95v-4.75h.71s.59,3.8.59,3.8c1.42-1.17-.19-3,.6-4.51l.67.28.28,5.18c.26.1.95-.1.95-.36v-4.87c1.29-.06.47,3.34.95,3.8h.71v-3.8h.95v5.58l.47.24c1.02-.43.39-4.61.71-5.58.19-.14.71.23.71.35v3.68h.95c.17-1.42-.46-2.66,0-4.03,1.09.72-.04,3.54,1.42,3.8v-4.03l.73.14.22,3.18h.95s0-3.09,0-3.09c.85.25.6,2.97.71,3.09h.95c.31-.79-.68-3.21.12-3.56.62-.27.75.38.8.85.18,1.52-.19,3.11.26,4.61,1.44-.39.71-1.31.71-2.02v-3.68c1.52.29.69,2.59,1.19,3.65,1.85.83.19-3.39.71-3.88h.71s.46,3.18.46,3.18l.73.14c.26-1.25-1.3-3.54.71-3.56l.6,3.32.6-.4c.31-1.17-.84-2.82.11-3.87.98.97-.09,4.21,1.54,3.68l-.2-3.17.91-.27.24,3.32h.94c.08-1.08-.81-2.44.47-3.08.99,5.47,1.48,11.05,1.66,16.61-1.57-.37-.39-2.71-1.54-3.55ZM178.97,182.74h2.72c-.43,1.05-3.32,1.55-2.72,0ZM201.63,172.3c-.27.32.61,2.12-.24,2.37,0-.27-.89-3.22-1.43-2.61l.47,3.8c-1.07,0-.47-1.95-1.54-2.14-.96-.16.45,2.57-.47,2.14-.91-.64-.23-2.46-1.54-2.61l.46,3.07-.94.25c-.2-.84-.25-2.58-1.42-2.37l.24,3.09h-.71s-.6-2.84-.6-2.84l-.82-.24c-.24.76.91,3.78-.35,3.8l-.83-3.8h-.71c-.32,1.03.58,3.23.12,4.04-.21.37-.47.14-.55-.16-.23-.79-.12-1.96-.49-2.79l-.73-.14v3.09s-1.19-1.18-1.19-1.18l.24,1.42c-1.36.17-1.1-1.78-1.42-2.69l-.71-.16.23,3.32-1.18-3.44-.48-.11.47,3.56c-.61.11-.42-.11-.58-.47-.12-.26-.72-3.56-1.31-2.85l.23,3.56c-1.17-.58-.71-2.21-1.54-3.08-.9-.46.38,2.61-.35,2.61-.27-.84-.28-1.79-.61-2.61-.15-.38.03-.58-.58-.47l.12,3.8c-.31-.22-.39-.56-.54-.88-.83-1.88-1.59-10.72-1.71-13.24-.04-.75.02-1.5,0-2.25,1.34.14.24,2.31,1.3,3.08.86-.82-.11-2.06.12-3.08.67.38.57,1.46.84,2.14.15.38-.02.58.58.47l-.23-2.85.83.23c.28.71-.02,2.4.95,2.62.62.14.21-.21.19-.42-.06-.55-.23-1.12-.27-1.63-.03-.35-.26-.9.32-.8.77.72.02,2.7,1.31,2.84v-3.08s.74,1.99.74,1.99l.68.39c.16-.81-.13-1.53-.22-2.27-.06-.47.05-.34.45-.33.44.42-.14,2.7.95,2.61l-.12-3.32c1.33.83.66,2.54,1.66,3.55.68.03-.15-3.1.12-3.55.34-.06.33.42.4.66.17.61.27,1.31.31,1.95h.71s-.23-2.37-.23-2.37h.71c-.03.46.12.89.21,1.34.08.38-.19.91.38.8.81-.67,0-1.64.12-2.48l.6-.13.85,3.79h.93s-.47-4.02-.47-4.02c.94.32.58,4,1.54,3.8.46-.1.29-.66.26-.95-.1-1.11-.74-2.13-.12-3.31h.69s1.07,3.79,1.07,3.79c.76-1.14-.27-3.11-.36-4.39l.47-.12,1.19,3.56c.34.32.44-.03.48-.36.12-1-.46-2.14-.24-3.2l1.3,2.84c.82-.41-.31-2.41-.12-2.6l.77.54,3.03,13.7c-1.09.04-.38-2.19-1.66-2.13ZM228.44,156.14l-.94.26c.95,1.16.02,1.7-.24,2.84l.71.12c-1.14.87-.98,2.22-1.61,3.37-.48.89-1.64,1.47-1.71,2.68-.16.12-.79-.75-1.07-.24l-.11,1.9c-.93-.04-1.12-1.39-2.13-1.18.01,1.03.84,2.29-.12,3.08-.27,0-.88-2.34-1.78-2.13l.71,3.56c-.75.66-1.8-2.19-1.88-2.71l-.73-.14.47,2.85c-.63.12-.41-.13-.58-.47-.43-.89-.43-2.15-1.79-1.9l.71,3.79c-.61.12-.42-.13-.59-.46-.88-1.64-1.31-3.46-1.42-.01-.82-.58-.44-2.29-1.54-2.37v2.61s-1.3-.95-1.3-.95c-.56.26-.33,1.38-.36,1.9-.54.1-.38-.02-.53-.3-.48-.88-.35-2.74-1.6-2.54.21.51.26,1.37-.38,1.64-.78.33-.59-1.01-1.52-.69l-.18,1.37-.53.29c-.18-.98-.26-2.17-1.07-2.84-.73.77-.09,1.87-.14,2.93,0,.2-.2,1.82-.69,1.34l-3.32-14.24.92.03c.16.13.83,3.39,1.09,4.01.42.97,1.14.77,1.08-.1-.1-1.31-1.23-2.74-1.19-4.17,2.2-.39.92,3.63,2.85,3.56.45-.44-1.97-4.11.24-4.27l.84,3.56.81-.15-1.13-4.28c-.1-.56.74-.66,1.13-.53.22.15.62,3.9.95,4.63.2.45.27.67.85.57.39-.26.3-.35.27-.72-.06-.71-1.28-4.21-1.08-4.49l1.17-.25,1.18,4.13.73.14-.84-4.52c1.05-1.48,1.7,3.01,2.01,3.43l.73.14-.95-4.15c2.12-.99,1.44,4.1,2.97,3.67.35-.1.32-.42.26-.72-.13-.72-1.4-3.54-1.32-3.89.09-.38.99-.5,1.16-.36.08.07.63,1.73.71,2.02.25.79.3,1.65.51,2.45l.92.03-.95-4.51c1.73.36.28,3.73,2.37,3.32l-1.12-3.68,1.01-1.06.86,4.01.92.03c.43-.41-1.83-4.47.24-4.51.34.31.08,3.96,1.66,3.56.21-1.37-1.34-3.2.24-4.03.22.56.44,3.49,1.3,3.32.75-.15-.42-2.73-.11-3.32,1.18.61.56,2.8,2.13,2.37.17-.16-.6-2.09-.66-2.54-.04-.36-.23-.63.3-.54.53.27.51,1.69.86,2.23.41.62,1.65.93,1.39,2.26ZM252.89,160.19c-2.41-.03-4.83.04-7.25.01-.5,0-.97-.24-1.42-.24-4.39-.06-8.54.96-12.93.71.41-4.38.55-8.74-.05-13.12l-.28-.43c-.7-.57-1.76.03-2.4.5-.16.05-.16-.2-.11-.35.27-.85,1.09-2.13,1.46-3.05.62-1.55,1.07-3.15,1.74-4.67,1.8.94,2.9,2.29,3.5,4.21l.53.21c.17,0,.3-.08.44-.17.48-.31.83-1.58,1.22-1.4.38.17.48,1.09.97,1.4.54.34,1.18.16,1.75.39,3.52,1.41,4.06,5.9,5.99,8.73,1.98,2.91,4.35,4.25,6.49,6.56.22.23.43.34.35.72ZM260.36,159.02c-1.17-.61-2.24-1.81-3.34-2.59-1.31-.93-.87-.7-1.85-1.71-.7-.71-1.76-1.2-2.5-1.89.02.29-.24.58-.23.84.05.99,7.2,6.13,8.06,7.59.04.18-.23.15-.35.11-1.11-.34-8.47-7.19-9.38-8.42-1.59-2.14-2.05-7.15-4.73-7.85-2.46-.64-3.35-.3-5.36-2.47-.3-.32-.44-.47-.35-.95,1.58.64,2.85,1.95,4.44,2.56,2.08.79,4.43.71,6.49,1.58l8.71,5.65c.25.26.28,1.01.53,1.37-2.2-.33-3.49-2.39-5.24-3.65-1.86-1.34-3.97-2.41-6.15-3.11-.29-.09-.34-.24-.24.24.1.54.52.92.72,1.42.55,1.35,1,2.77,1.42,4.16l.82-.71,9.38,7.95c-.17.33-.62.01-.84-.11ZM261.68,157.82c-.15.17-1.48-.82-1.74-.99-3.01-2.08-6.02-4.75-8.47-7.43,1.55-.78,1.84,1.01,2.19,1.25.22.16,1.03.13,1.37.29l-.24.95c1.57-.24,1.01,1.54,2.61.71.09.35.14.92.37,1.19.15.18,1.51.83,1.7,1.01.3.28.13.92.45,1.15.25.18.85.12,1.01.24.03.02-.13.33-.07.45.16.28,1.28.66.81,1.18Z"/>
  <path class="st0" d="M123.31,113.2c-.06.07.63.66.71.71,1.47-.22.46-1.26-.71-.71Z"/>
  <path class="st0" d="M231.82,195.49c1.47-.62,3.43-1.17,4.99-1.66,1.95-.61,10.38-2.59,11.22-3.73.22-.16-.13-.41-.27-.44-.83-.22-4.35-.09-5.44-.04-3.41.17-8,1.31-11.27.14-.89-.32-.81-.96-2.23-1.09-2.18-.2-2.82.34-4.58.67-1.16.22-2.91-.26-3.62,1,1.32.22,2.65.36,3.95.68.49.12,1.5.27,1.75.74-2.02.81-4.79-.26-6.71.06-.44.07-2.74,1.09-2.91,1.36-.23.36-.07.37.13.61.43.54.94-.04,1.57-.11,4.1-.48,8.69-.89,12.8-1.2.28-.02,1.3-.2,1.3.23l-8.2,2.84c-.67,1.07,2.45,1.75,3.17,2.08.33.16.65-.14.52.54l-12.1.24.02.93c1.98.48,4.03.13,6.05.24,8.66.49,17.2.43,25.86.72,1.16.04,3.57.41,3.91-.83-6.48-2.87-13.82-2.07-20.65-3.44.06-.4.47-.42.76-.54Z"/>
  <path class="st0" d="M246.72,206.59c-.97-.44-2.15-1.94-3.19-1.99-5.9,1.16-11.88.84-17.82.68-3.73-.1-8.46.18-12.08-.5-.98-.18-2.49-1.14-3.3-1.1-1.16.06-4.23,1.63-5.84,1.96-1.25.26-2.52.42-3.81.35.08.45.49.39.82.48,4.17,1.15,8.85-.1,13.07-.01,2.11.05,4.18.19,6.29.24.12.72-.18.38-.58.48-1.45.36-3.02.25-4.5.5-1.17.19-4.02.64-4.96.97-1.11.39,1.04,1.04,1.39,1.12,2.19.48,4.78.95,7.11.91,2.05-.03,3.04-.62,5.4-.13,1.34.28,3.64,1.53,4.8,1.56,1.3.04,3.82-.28,5.2-.46.36-.05,1.43-.12,1.57-.44-2.71-.13-5.36-.82-7.83-1.9-.07-.31.44-.38.65-.41,3-.44,7.69-.98,10.65-.99,3.13,0,6.35.74,9.71.45.44-.04,1.25-.09,1.07-.71-1.15-.34-2.75-.59-3.8-1.07Z"/>
  <path class="st0" d="M179.19,198.87c-2.02.13-4.74,1.26-6.6.21-.76-.43-1.37-1.51-2.53-1.39l.24-1.42c-.42-.4-3.27.49-3.93.44-.52-.04-.98-.68-1.86-.66-2.46.05-5.54.49-8.07.71-1.39.12-2.56.76-4.18.21,1.38-1.25,4.6.02,5.7-1.89l-13.05.95c.61,1.11,2.03.96,3.09.95l-.03,1.15c-.42.67-9.55,1.94-10.97,1.97-.65.32-.46.79.2.91l11.86-.48c.89-.62,2-.41,1.89-1.66l.28-.2,8.04-.27c.39.27-.4.37-.54.4-1.65.41-3.36.65-5.04.9-.23.21-.35.32-.11.61.84,1.03,6.61.88,8.07.71,2.04-.25,4.16-.93,6.16-1.41l.32.53c-1.1,1.39,2.09,1.85,3.02,1.84,2.14-.03,4.18-.65,6.28-1.07,1.46-.3,3.17-.72,4.63-.82,2.87-.21,6.2.7,8.66-1.07-3.79-.02-7.73-.37-11.52-.13Z"/>
  <path class="st0" d="M265.36,180.83c-1.22-.04-3.88.68-4.78.03-.23-.17-.23-.64-.63-.81-1.89-.8-3.96.66-5.8.7-3.66.08-6.33-.58-10.34.15-.44.08-1.2.15-1.37.65,1.02-.14,2.35.82,2.97.95,1.06.22,2.77-.16,3.92,0l-4.57,1.72-.41.65c4.39.09,8.79-.12,13.18,0,.82.02,2.62.69,3.22-.08l.23-1.31c2.14-.07,4.2-.91,6.3-1.17,1.06-.13,2.4.29,3.17-.38,0-.33-4.5-1.06-5.09-1.08Z"/>
  <path class="st0" d="M203.66,200.78c1.51-.06,3.09-.73,4.62-.72l-.4-1.19c-1.67.11-3.29-.06-4.94-.23-.25-.03-.79.16-.59-.35.15-.37.67-.53,1.02-.64,2.05-.63,5.38-.48,7.22-1.33.32-.15.38-.02.3-.53-1.92-.36-3.88-.09-5.81-.24-1.36-.1-3.39-.74-4.63-.61-1.83.18-3.67,1.95-5.69,1.57l1.66.83c-.3.7-3.63,2.04-4.46,2.66-.3.23-.39.1-.29.67.42,1,5.01-.06,6.04-.13,2.04-.13,4.05.33,5.95.26Z"/>
  <path class="st0" d="M245.69,174.4c-.7-.06-1.45-.38-2.17-.44-2.29-.18-4.75.14-6.97.74-.07.47-.2,1.41.36,1.6l6.02-.2-.48.38v.79c.26.28,6.49.39,7.44.4.74,0,1.66-.36,2.39-.36,1.81,0,4.07.32,5.93.38l.86-.64c-.65-.11-1.16-.53-1.79-.7-.68-.18-1.93-.43-2.6-.49-1.4-.12-3.07,0-4.51,0-.05,0-.93-.22-.83-.47,3.34,0,6.71-.26,9.97-.95.05-.75-.52-.68-1.05-.72-3.94-.33-8.72,1.04-12.56.7Z"/>
  <path class="st0" d="M201.16,188.78c.34.17.33.74.64.84.47.15,1.47,0,2.01.25.5.23.31,1.03,1.48,1.19,4.1.55,8.66-.68,12.71-.96l-.02-.69c-.22-.36-4.34-.3-5.1-.27-1.11.05-3.59.63-4.49.49-.36-.06-.63-.28-.8-.59l.45-.95-.62-.6-8.18.48c-.02,1.1,1.25.51,1.91.82Z"/>
  <path class="st0" d="M218.83,181.55c.41.42.87.44,1.42.48,4.64.35,9.45.11,13.84-1.37.63-.21,2.48-.81,2.9-1.14.57-.44-.35-1.2-.82-1.3-1.01-.22-3.53,0-4.75,0-.03,0-.61.28-.59.35l1.18,1.07c-4.12.94-8.46.74-12.63,1.5-.16.03-.87.12-.54.41Z"/>
  <path class="st0" d="M219.78,175.61c-2.28.15-2.82.94-4.69,1.71-1.17.48-3.15,1.02-4.13,1.57-.24.13-.62.28-.54.64.22.34.47.33.82.37.97.11,5.38-.57,6.6-.79.21-.04.42-.11.61-.21l.03-1.16c2.13-.09,4.38-.29,6.45-.79.84-.2,2.08-.33,2.57-1.11-2.55-.16-5.16-.42-7.72-.25Z"/>
  <path class="st0" d="M241.26,164.1c-.15-.1-.17-.47-.28-.53-1.25-.78-7.38,1.09-8.97,1.61-.07.48-.04.39.29.53,1.16.5,2.59-.32,3.86-.32,1.69,0,3.25.77,5.23.51.7-.09,1.15-.59,1.91-.7,2.42-.35,5.75-.05,8.28-.26.61-.05,1.54-.18,2.02-.59-.68-.37-1.48-.54-2.24-.6-1.5-.11-9.67.65-10.1.36Z"/>
  <path class="st0" d="M238.42,182.98l-6.88.24.71,1.18c-.73.9-6.19-.21-6.17,2.14l11.15-.71c.26-1.23-1.02-.65-1.42-1.42,1.18.03,2.85.21,2.61-1.43Z"/>
  <path class="st0" d="M276.99,160.66c2.62-.29,5.33.4,7.95.24-.06-.42-.48-.41-.77-.54-1.34-.59-2.8-1.01-4.22-1.36l.47-.95c-1.43.14-2.69.67-4.18.92-.97.16-4.03-.15-3.85,1.05.37,2.47,3.3.78,4.59.64Z"/>
  <path class="st0" d="M190.6,195.07c-2.84-.32-7.87-.47-10.69-.23-.43.04-.86.18-1.28.26l-.26,1.28-3.09.71,3.91.12c.64-.28,1.73-.09,2.27-.35.34-.17.36-.77.63-.84,1.05-.26,3.63.08,4.95.01,1.39-.07,2.98-.33,4.38-.49-.09-.43-.47-.44-.82-.48Z"/>
  <path class="st0" d="M212.38,186.02c.42-.24.46-.69.75-.91,1.1-.86,3.77-.47,5.11-.94-.07-.41-.48-.42-.79-.51-1.02-.29-5.12-.38-6.16-.15-.97.22-1.36,1.49-2.19,2.09-.4.29-2.18.73-1.78,1.18.31.36,4.48-.42,5.06-.75Z"/>
  <path class="st0" d="M133.5,118.05c-.18-.07-.35-.49-.62-.55-.37-.08-1.02.68-1.47.41-.38-1.39-1.73-1.33-2.82-.73-1.54.85.1.96.39,1.37.34.49.21,1.75.89,1.97,1.12-.06,4.85-.59,5.03-1.8.18-1.23-1.01-.52-1.4-.67Z"/>
  <path class="st0" d="M127.89,95.56c.25.2,1.34.71,1.58.54,1.36-.96-2.13-4.93-3.09-5.56-1.76-1.16-2.46-.36-1.41,1.41.25.42,2.6,3.35,2.92,3.6Z"/>
  <path class="st0" d="M251.24,171.7c.33.47.82.37,1.31.37,2.21,0,4.92-.76,7.12-.5,1.42.17,1.28,1.14,3.57.96.27-.02,2.66-.44,2.01-.96-2.55.36-4.8-.54-7.24-.71-.92-.06-6.73-.22-6.76.83Z"/>
  <path class="st0" d="M129.4,101.65c-.85-.6-1.83-.81-1.82.63l.71-.24c-.34,1.85,1.42,4,3.32,3.8l.47-2.13c-1.36.06-1.87-1.47-2.69-2.06Z"/>
  <path class="st0" d="M193.32,187.01l-8.54.59c.95.95,2.83,1.65,4.15,1.55.34-.03,3.51-1.19,3.85-1.38.33-.19.63-.3.54-.76Z"/>
  <path class="st0" d="M207.53,179.21c-.52-.81-1.86.38-2.34.56-1.4.53-2.87.9-4.27,1.42.66,1.33,6.05.09,6.43-.51.17-.27.34-1.23.19-1.47Z"/>
  <path class="st0" d="M104.79,92.31l-.72.16-.73,1.86c-.01.47.79.45.94,1.24.08.4-.2,2.16.04,2.43l.91-.28.43-1.51c-.56-1.2-1.24-2.56-.86-3.91Z"/>
  <path class="st0" d="M253.85,168.97l5.22-.95c-1.35-1.16-4.94-1.34-5.22.95Z"/>
  <path class="st0" d="M109.43,85.21c-.9.84-1.13-.12-2.02-.26-.09.41.98,1.22,1.2,1.31.48.21.89-.16.93-.13.03.02.07.58.22.79.38.56,2.2.26,2.87.4l-.27-.91c-1.44-.03-2.18.23-2.93-1.2Z"/>
  <path class="st0" d="M233.91,117.58c-.38-.29-.98.88-.48,1.31l-1.16.64c-.15.48.32,1.03.18,1.57-.13.5-1.01.7-.92,1.36h1.07c.37-1.08.31-1.98.11-3.08l2.14-.24-.95-1.55Z"/>
  <path class="st0" d="M104.95,109.38c-.69,1.2-.47.43-1.02.32-.31-.06-.69.23-1.04.17.29,2.59,1.07,1.33,2.71.69.35-.1.52-.72.38-.92l-1.03-.26Z"/>
  <path class="st0" d="M97.08,92.31c.65-.15-.25-2.57-.36-3.08-.92.41-.84,3.24.36,3.08Z"/>
  <path class="st0" d="M110.97,77.6c-.31.34,1.08,2.41,1.37,2.78.22.28.27.65.76.54l-1.32-2.83-.81-.49Z"/>
  <path class="st0" d="M231.06,117.47l-.1,1.2-1.32.46c3.03,1.28,2.05-2.4,1.42-1.66Z"/>
  <polygon class="st0" points="232.48 124.12 232.72 125.54 234.15 125.3 233.67 123.87 232.48 124.12"/>
  <path class="st0" d="M104.91,105.6l-.35,2.85c.89-.29.89-2.21.35-2.85Z"/>
  <path class="st0" d="M238.4,124.61l-.93.1.48,1.78c.64.65.51-1.68.45-1.87Z"/>
  <path class="st0" d="M235.1,127.2c.44-.25,1.78,1.46,1.9.59.13-.89-1.39-1.64-1.9-.59Z"/>
  <path class="st0" d="M228.8,112.01c-.74-.29.11,1.69-.59,1.89,1.14.13,1.61-1.27.59-1.89Z"/>
  <path class="st0" d="M235.56,121.37c-.14-.62-.38-1.56-1.17-1.52l.24,1.9.94-.37Z"/>
  <path class="st0" d="M237.47,130.29c.34.88.67,2.2,1.9,2.13-.41-.22-1.44-2.57-1.9-2.13Z"/>
  <path class="st0" d="M239.6,127.91h-.71s0,1.9,0,1.9c.83-.33.76-1.13.71-1.9Z"/>
  <polygon class="st0" points="107.4 83.29 106.22 84.12 107.64 84.47 107.4 83.29"/>
  <path class="st0" d="M126.87,120.67c.29.4.56.37,1,.32.25-.03,1.3-.33,1.37-.67-.79-.04-1.65-.02-2.37.35Z"/>
  <path class="st0" d="M237.59,138.04c-.18,0-1.12-.94-1.07-.04.26.54,1.26.34,1.76.36l.14-.71c-.42-.15-.59.39-.82.39Z"/>
  <path class="st0" d="M231.77,115.33c.19.77-.41.69-.71,1.18.98.51,2.14-1.07.71-1.18Z"/>
  <path class="st0" d="M237.47,135.27c-.29-.47-.81-.78-.71-1.42-1.3.02-.24,1.6.71,1.42Z"/>
  <path class="st0" d="M240.79,131.23l-.48-1.42c-1.24-.14.07,1.86.48,1.42Z"/>
  <path class="st0" d="M235.57,124l-.36-.36h-.35s-.24.95-.24.95c.47.07.93-.03.95-.59Z"/>
  <path class="st0" d="M125.21,120.91c.27.73,1.91.06,1.42-.35l-1.42.35Z"/>
  <path class="st0" d="M107.5,126.86c-.16-.17.01-.45-.33-.37-.09.5-.46.81.12,1.18l.6-.35c.09-.49-.22-.29-.38-.46Z"/>
  <path class="st0" d="M105.87,83.53l.82-.24c-.32-.9-1.65-.37-.82.24Z"/>
  <polygon class="st0" points="236.16 131.24 235.82 131.81 236.52 132.42 236.16 131.24"/>
  <polygon class="st0" points="107.88 126.37 107.88 126.72 108.83 126.72 108.23 126.02 107.88 126.37"/>
  <polygon class="st0" points="236.76 121.74 235.81 121.98 235.81 122.21 236.76 122.45 236.76 121.74"/>
  <path class="st0" d="M235.81,129.81l-.71-.95c-.09.57.11,1.01.71.95Z"/>
  <polygon class="st0" points="106.93 106.31 106.93 107.02 107.4 107.02 107.64 106.32 106.93 106.31"/>
  <path class="st0" d="M102.18,113.43c.24.24.95-.46.71-.71-.24-.24-.95.46-.71.71Z"/>
  <path class="st0" d="M124.73,116.52c.44.06.82,0,.95-.47-.44-.06-.82,0-.95.47Z"/>
  <rect class="st0" x="227.74" y="111.06" width=".47" height=".71"/>
  <polygon class="st0" points="103.72 107.5 103.13 107.86 104.08 107.97 103.72 107.5"/>
  <path class="st0" d="M199.74,133.49c1.39.41,1.2,1.19,1.18,2.49.59-.26.48-1.07,1.05-1.44,1.8-1.17,5.54,1.28,7.49,1.44-.63-.97-2.18-.92-3.13-1.25-.34-.12-.58-.41-.9-.52-2.46-.88-3.85-.24-2.61-3.68-1.49.44-.94,2.32-2.73,2.39l-16.73-2.62c.79.76,2.45.86,3.55,1.07,3.95.77,9.15,1.06,12.83,2.13Z"/>
  <path class="st0" d="M225.83,146.41v-.78s.72-.16.72-.16l-.93-.49-.02-.69.47.24c-.05-.73.24-1.01.95-.95-.3-1.94-2.08.53-2.37.24l1.66-3.32c-1.27-.66-1.33.41-2.37.71l.95,1.65-1.66.24.47-.95c-2.33.17,1,1.64-.71,2.49l1.19.36-1.42,1.18c1.18-.24,1.94.59,3.07.23Z"/>
  <path class="st0" d="M199.55,142.71c-.06-.6.77-1.53.3-2.22l-2.49,2.97c.83.63.98,1.53,1.18,2.49.61-.38.3-1.51,1.3-1.57.55,0,1.5.96,2.02,1.21.22.11.74.34.7-.11-1-.38-2.92-1.66-3.02-2.77Z"/>
  <path class="st0" d="M203.53,126.25c.53.1.38-.02.53-.3.46-.86.54-2.06,1.84-2.31l-.14-.49-.78-.25-.04-1.39c-.67.52-1.21,1.15-2.13,1.19.7,1.21.85,2.13.71,3.56Z"/>
  <path class="st0" d="M226.55,140.25c.69.4,2.69-1.21,2.37-1.66-1.34-.67-2.32.3-2.37,1.66Z"/>
  <path class="st0" d="M228.44,137.05l-2.6-.59c-.05.94,2.57,1.46,2.6.59Z"/>
  <path class="st0" d="M210.93,136.52c.65.26,2.71,1.24,3.04.42l-3.56-.95c-.12.67.16.39.52.53Z"/>
  <path class="st0" d="M203.52,127.91l.24-1.42-.67,1.11c-.21.41.34.4.43.31Z"/>
  <path class="st0" d="M198.07,147.61c.08-.01.2.03.23,0,.1-.11.32-1.25.24-1.42-.36-.1-.58,1.18-.47,1.42Z"/>
  <path class="st0" d="M180.74,138.59h-.71c0,.87.71.87.71,0Z"/>
  <path class="st0" d="M182.88,117.7c-.14-.54-.74-.51-1.19-.47-.29.14.86.59,1.19.47Z"/>
  <path class="st0" d="M203.05,146.19c.17.39.52.79.95.71-.17-.39-.52-.79-.95-.71Z"/>
  <path class="st0" d="M225.84,135.74l-.24-.71c-1.04-.19-.14,1,.24.71Z"/>
  <polygon class="st0" points="172.91 119.84 172.2 120.44 172.91 120.55 172.91 119.84"/>
  <path class="st0" d="M77.97,181.08l-.59-1.89c-.64,0-.35,2.07.59,1.89Z"/>
  <path class="st0" d="M141.2,137.05c-.04.76.88.91.85,1.54l-.95.24,1.54.71c.27-1.41-.15-2.93-.59-4.27l.95-.47h-1.42c.55.83-.35,1.8-.38,2.26Z"/>
  <path class="st0" d="M119.98,126.25c-.48-.23-1.12,1.01-.95,1.18.48.23,1.12-1.01.95-1.18Z"/>
  <polygon class="st0" points="141.34 134.67 141.34 134.32 140.4 134.44 140.99 135.03 141.34 134.67"/>
  <polygon class="st0" points="146.09 140.97 146.09 141.68 146.8 141.67 146.09 140.97"/>
  <path class="st0" d="M201.56,72.19c-3.19.66-1.22,4.58,1.82,4.2,1.52-.19,2.56-1.96,1.57-3.19-.8-1-2.19-1.26-3.39-1.01Z"/>
  <path class="st0" d="M206.38,96.35l-.24,1.42.95-.24c.16-.21-.52-1.32-.71-1.18Z"/>
  <path class="st0" d="M202.1,91.36c.02-.35.07-.63-.23-.84l-.72-.11v.95h.95Z"/>
  <path class="st0" d="M199.85,90.88c.94.38.52-1.03.35-1.18-.41-.39-1.04.9-.35,1.18Z"/>
  <path class="st0" d="M193.56,73.56h1.19s0-.71,0-.71c-.54-.09-.99.21-1.19.71Z"/>
  <polygon class="st0" points="190.24 76.88 190.71 76.88 190.71 75.7 190.11 75.93 190.24 76.88"/>
  <path class="st0" d="M204.24,92.55l.24-.95c-.29-.22-1.05.62-.95.71l.71.24Z"/>
  <path class="st0" d="M188.1,175.62l.24,1.19h.23c.04-.44.07-1.04-.47-1.19Z"/>
  <path class="st0" d="M176.12,150.47c.31-.35.82-.85.23-1.19-1.18.93-2.66,1.38-2.72,3.08.78-.58,1.86-1.16,2.5-1.89Z"/>
  <path class="st0" d="M175.28,153.78l-.72.16c.06,1.65-1.62,1.23-1.42,2.93.84-.94,2.15-1.67,2.13-3.08Z"/>
  <path class="st0" d="M177.3,157.82c-.76-.02-.8,1.61-.83,2.13.93.23,1.63-2.11.83-2.13Z"/>
  <path class="st0" d="M175.64,156.16c-.51-.24-.74,1.61-.82,1.9.72-.07,1.73-1.48.82-1.9Z"/>
  <path class="st0" d="M180.03,151.17c-.34-.36-1.64,1.4-1.42,1.9.42-.11,1.7-1.61,1.42-1.9Z"/>
  <path class="st0" d="M176.59,153.31c-.54-.19-.54,1.21-.59,1.42.34-.07,1.31-1.16.59-1.42Z"/>
  <polygon class="st0" points="178.61 156.16 178.61 157.34 179.08 157.34 179.29 156.54 178.96 156.16 178.61 156.16"/>
  <path class="st0" d="M166.98,148.08h.95c0-.93-.94-.95-.95,0Z"/>
  <path class="st0" d="M173.62,158.53v.95c.47-.13.53-.51.47-.95h-.47Z"/>
  <path class="st0" d="M162.47,152.36c-.13-.47-.51-.53-.95-.47v.47h.95Z"/>
  <path class="st0" d="M188,110.71c.04.22-.42.93.65.76.21-.03.41-.38.72-.37,1.26.06,2.25,1.65,1.59,2.81l.94-1.33,1.67.38-.45.86.34.56c1.01-.86,1.07.28,2.19.43,1.18.16,2.15-.91,1.49-1.98-.7-.09-2.04-.95-2.55-1.02-.73-.09-2.72.73-2.32-1,.6-.26,2.36,1.16,2.25,0-1.09-.49-2.51-.16-2.97-1.43h-.59s.48,1.07.48,1.07l-.36.59-1.54-.83,1.18-1.18c-.33-.47-1.55-2.25-1.17-2.73.1-.13.92.3.7-.48-1.6-.09-1.39,1.17-2.02,2.13l-1.06-.71v1.19s-.94,0-.94,0l-.25,1.17c.57.12,1.91.44,2.04,1.07ZM196.64,113.91c-.77.05-1.57.12-1.9-.71.67.04,1.9-.32,1.9.71ZM188.22,108.45c.59.38.58,1.07.83,1.65l-1.42-.24.59-1.42Z"/>
  <path class="st0" d="M200.68,114.39c.51.91,1.81.59,2.68.76.41.08.66.51,1.12.43.14-.77-1.09-1.06-1.3-1.42-.31-.53.15-1.69-.59-2.03-.19-.09-1.59.68-2.14.37l2.13,1.3-1.89.6Z"/>
  <path class="st0" d="M198.07,114.38v.7s1.9.48,1.9.48c.7-1.29-.24-1.95.24-3.08l-2.14.47,1.19,1.3-1.19.12Z"/>
  <path class="st0" d="M198.25,117c.15.13,1.51.94,1.61.93,1.13-.02-1.48-1.48-.59-1.89-.94-.13-2.16-.07-1.01.96Z"/>
  <path class="st0" d="M187.39,114.38c-.21.23,1.02,1.81,1.42,1.9.06-.95-.58-1.59-1.42-1.9Z"/>
  <path class="st0" d="M191.66,117.7h1.19s0-.71,0-.71c-.19-.21-1.37.58-1.19.71Z"/>
  <path class="st0" d="M78.45,146.66v1.19s.71,0,.71,0c.21-.19-.58-1.37-.71-1.19Z"/>
  <polygon class="st0" points="76.79 146.9 76.79 147.37 77.5 147.37 77.5 146.66 76.79 146.9"/>
  <path class="st0" d="M98.62,123.64c-.67-.05-1.37.33-1.66.94.67.05,1.37-.33,1.66-.94Z"/>
  <path class="st0" d="M211.37,150.57c.6.52-.28,2.19.71,2.02l-.24-2.13-.47.11Z"/>
  <polygon class="st0" points="209.59 153.55 209.7 152.12 208.75 153.78 209.59 153.55"/>
  <path class="st0" d="M155.45,109.73l-.18-.14s-.05.03-.09.04c-.01.03-.03.06-.04.09.06,0,.12.05.18.09.04,0,.08-.02.11-.06,0,0,0-.01.01-.02Z"/>
  <path class="st0" d="M155.11,109.75s-.05-.07-.06-.11c-.03,0-.05,0-.08,0,0,0,0,.01.02.02.04.03.08.07.12.1Z"/>
  <path class="st0" d="M155.3,109.36l.02-.04s.08.07.12.1c.11.09.22.17.32.26.29.23.58.46.87.7.2.12.4.24.58.38.1.08.19.18.26.29.02.01.03.03.05.04.03-.03.06-.05.1-.08.06.1.11.19.16.28,0,0,0,0,0,0,0,0,0,0,0,0,.02.03.04.07.06.1-.03-.29-.18-.55-.4-.75-.23-.21-.51-.35-.77-.52-.25-.17-.48-.37-.75-.51-.12-.06-.24-.13-.35-.2-.13-.08-.26-.15-.42-.16-.04,0-.07,0-.1.03.07.03.13.05.2.08.02,0,.03,0,.05,0Z"/>
  <path class="st0" d="M155.33,109.8c-.06-.04-.12-.08-.18-.09.01-.03.03-.06.04-.09-.04.01-.09.02-.14.02,0,.04.02.08.06.11.06.05.14.07.22.06Z"/>
  <path class="st0" d="M155.31,109.32l-.02.04s.1.03.14.06c-.04-.03-.08-.07-.12-.1Z"/>
  <polygon class="st0" points="157.78 111.29 157.78 111.29 157.78 111.29 157.78 111.29"/>
  <path class="st0" d="M155.49,109.64c.05.03.1.07.14.09.14.07.28.14.41.23.16.11.31.23.47.35.04.03.08.05.12.07-.29-.23-.58-.46-.87-.7-.11-.09-.22-.17-.32-.26.06.05.08.14.05.22Z"/>
  <path class="st0" d="M157.52,111.09s-.03-.03-.05-.04c.01.02.03.03.04.05,0,0,0,0,.01-.01Z"/>
  <path class="st0" d="M157.31,111.21s.03.05.04.08c0-.01,0-.02.02-.04l-.06-.04Z"/>
  <path class="st0" d="M155.3,109.36s-.03,0-.05,0c.01,0,.03.01.04.02,0,0,0-.01,0-.02Z"/>
  <path class="st0" d="M157.31,111.21l-.8-.64c-.05-.03-.1-.06-.15-.1-.22-.16-.42-.32-.65-.45-.1-.06-.21-.11-.31-.17-.02-.01-.05-.03-.08-.05-.07.02-.15,0-.22-.06.67.53,1.34,1.07,2.01,1.6.06.04.11.09.17.13.01-.06.03-.13.07-.19-.01-.03-.03-.05-.04-.08Z"/>
  <path class="st0" d="M155.35,109.4c0,.06,0,.1-.03.14.06.03.12.07.17.1.02-.08,0-.17-.05-.22-.04-.03-.09-.05-.14-.06,0,0,0,.01,0,.02.02,0,.04.01.06.02Z"/>
  <path class="st0" d="M155.44,109.75s-.07.05-.11.06c.03.02.05.04.08.05.1.06.2.11.31.17.24.13.44.3.65.45.04.03.09.06.15.1l-1.06-.85s0,.02-.01.02Z"/>
  <path class="st0" d="M154.97,109.63s.06,0,.08,0c-.01-.08,0-.16.06-.21.04-.04.09-.06.14-.06-.07-.03-.13-.05-.2-.08-.12.06-.18.24-.08.35Z"/>
  <path class="st0" d="M157.6,111.37s.01.06.02.09l-.08-.06c-.05.02-.1.04-.15.06,0-.06-.02-.11-.04-.16-.04.06-.06.12-.07.19.06.05.12.09.17.14.14.11.41.06.39-.16,0-.02,0-.04,0-.06-.02-.03-.04-.07-.06-.1-.06.02-.12.05-.18.07Z"/>
  <path class="st0" d="M157.62,111.01s-.07.05-.1.08c.08.07.17.14.25.2-.05-.09-.1-.18-.16-.28Z"/>
  <path class="st0" d="M155.35,109.4s-.04-.01-.06-.02c-.02.04-.03.08-.05.12.03,0,.05.02.08.03.02-.03.03-.08.03-.14Z"/>
  <path class="st0" d="M155.22,109.54l-.07-.06s.06,0,.09.02c.02-.04.03-.08.05-.12-.01,0-.03-.01-.04-.02-.05,0-.1.02-.14.06-.05.05-.07.14-.06.21.05,0,.1,0,.14-.02.01-.03.02-.05.03-.08Z"/>
  <path class="st0" d="M157.6,111.37c.06-.02.12-.05.18-.07,0,0,0,0,0,0-.08-.07-.17-.14-.25-.2,0,0,0,0-.01.01.05.08.08.18.09.27Z"/>
  <path class="st0" d="M155.22,109.54s-.02.05-.03.08c.03,0,.06-.02.09-.04l-.05-.04Z"/>
  <path class="st0" d="M157.35,111.29c.02.05.03.1.04.16.05-.02.1-.04.15-.06l-.17-.14s0,.02-.02.04Z"/>
  <path class="st0" d="M156.05,109.96c-.13-.09-.27-.16-.41-.23-.04-.02-.09-.05-.14-.09,0,.03-.02.06-.04.09l1.06.85c.28.17.65.35.8.64l.06.04.17.14s.04-.02.06-.03c-.02-.09-.04-.19-.09-.27,0-.02-.02-.03-.04-.05-.28-.22-.56-.45-.84-.67-.04-.02-.08-.05-.12-.07-.16-.11-.31-.24-.47-.35Z"/>
  <path class="st0" d="M156.51,110.57l.8.64c-.15-.29-.52-.47-.8-.64Z"/>
  <path class="st0" d="M157.22,110.76c-.18-.15-.39-.26-.58-.38.28.22.56.45.84.67-.07-.11-.16-.21-.26-.29Z"/>
  <path class="st0" d="M155.15,109.49l.07.06s.01-.03.02-.04c-.03-.01-.06-.02-.09-.02Z"/>
  <path class="st0" d="M155.45,109.73s.03-.05.04-.09c-.06-.04-.12-.08-.17-.1-.03-.01-.05-.02-.08-.03,0,.01-.01.03-.02.04l.05.04.18.14Z"/>
  <path class="st0" d="M157.62,111.46s-.01-.06-.02-.09c-.02,0-.04.02-.06.03l.08.06Z"/>
  <path class="st0" d="M237.8,119.2l.93,1.23c.12-.09.24-.19.36-.28-.24-.24-.47-.49-.69-.75-.03-.03-.06-.07-.08-.1-.01-.01-.02-.03-.03-.04,0,0,0,0,0,0,.03.04.03.03-.01-.02,0,0,0,0,0,.01-.04-.06-.09-.12-.13-.18-.1-.14-.19-.29-.27-.44.1.2.06.41-.09.56Z"/>
  <path class="st0" d="M236.97,118.86s.05-.03.07-.04c0-.05.02-.1.04-.14-.05-.09-.08-.2-.1-.3-.03.04-.05.08-.06.12-.03.13,0,.23.05.35Z"/>
  <path class="st0" d="M237.14,118.76s-.04-.05-.05-.08c-.02.05-.04.09-.04.14.03-.02.06-.04.1-.06Z"/>
  <path class="st0" d="M237.66,118.46s-.06-.02-.09-.03c0,.02.02.04.02.06.02-.01.04-.02.06-.04Z"/>
  <path class="st0" d="M238.67,120.58s-.02-.02-.03-.03c-.02-.02,0-.02.06,0,.02-.02.05-.04.07-.06v-.02s-.04-.03-.05-.04c-.12.09-.24.18-.36.27-.07-.09-.13-.17-.2-.26-.29-.39-.58-.78-.88-1.17-.08-.04-.16-.09-.2-.17.34.64.84,1.18,1.35,1.69.1.1.24.14.38.12-.08-.09-.15-.17-.24-.26.02-.01.05-.05.1-.08Z"/>
  <path class="st0" d="M237.89,118.65c-.04-.08-.08-.16-.12-.25l-.11.06c.09.04.18.1.23.19Z"/>
  <path class="st0" d="M238.15,119.09c.04.06.09.12.13.18.01.01.02.03.03.04.03.03.05.07.08.1.22.26.45.51.69.75-.12.09-.24.19-.36.28l.04.05s0,0,.01.01c.1-.08.2-.14.24-.1.06.07.11.16.17.24.05-.13.06-.27-.03-.39-.39-.52-.78-1.04-1.18-1.57-.07-.09-.14-.19-.21-.28.04.08.08.17.12.25.08.15.17.3.27.44Z"/>
  <path class="st0" d="M237.66,118.46l.11-.06c-.07-.1-.15-.18-.27-.21-.01,0-.03,0-.04,0,.04.08.08.17.12.25.03,0,.06.02.09.03Z"/>
  <path class="st0" d="M238.28,119.27s0,0,0,0c0,0,0,0,0-.01.04.05.04.06.01.02Z"/>
  <path class="st0" d="M237.7,118.78c-.06.04-.11.06-.16.08l.26.34c.15-.15.19-.36.09-.56-.05-.09-.13-.15-.23-.19-.02.01-.04.02-.06.04.04.09.08.19.11.28Z"/>
  <path class="st0" d="M237.09,119.11c.04.08.12.14.2.17-.08-.11-.17-.22-.25-.33,0,.05.02.11.05.16Z"/>
  <path class="st0" d="M237.72,119.28s0,0,0,0c-.09-.13-.17-.26-.24-.39-.16.05-.27-.01-.35-.11-.03.02-.06.04-.1.06,0,.04,0,.09,0,.13.08.11.17.22.25.33.14.06.3.07.43,0Z"/>
  <path class="st0" d="M237.04,118.82s-.05.03-.07.04l.07.09s0-.09,0-.13Z"/>
  <path class="st0" d="M236.97,118.86c.04.08.08.17.12.25-.03-.05-.04-.11-.05-.16l-.07-.09Z"/>
  <path class="st0" d="M237.72,119.28c-.12.08-.29.07-.43,0,.29.39.58.78.88,1.17.07.09.13.17.2.26.12-.09.24-.18.36-.27-.36-.37-.71-.75-1-1.17,0,0,0,0,0,0Z"/>
  <path class="st0" d="M237.49,118.88c-.04-.08-.08-.16-.12-.25l.17.23s.1-.05.16-.08c-.03-.09-.07-.19-.11-.28-.15.09-.31.18-.46.27.08.1.19.16.35.11Z"/>
  <path class="st0" d="M237.14,118.23c-.06.04-.11.09-.15.15.02.1.05.21.1.3.04-.08.09-.15.17-.2.09-.06.21-.07.32-.05-.04-.08-.08-.17-.12-.25-.1-.02-.23,0-.32.05Z"/>
  <path class="st0" d="M238.78,120.49s0,0-.01-.01v.02s-.03.04-.06.06c-.05-.03-.07-.03-.06,0,0,.01.02.02.03.03-.04.04-.08.07-.1.08.09.09.16.17.24.26.08-.01.16-.03.22-.08.06-.05.11-.13.14-.21-.06-.08-.11-.16-.17-.24-.04-.05-.14.02-.24.1Z"/>
  <path class="st0" d="M237.6,118.5s-.02-.04-.02-.06c-.11-.02-.23-.01-.32.05-.08.05-.13.12-.17.2.02.03.03.06.05.08.15-.09.31-.18.46-.27Z"/>
  <path class="st0" d="M238.76,120.48l-.04-.05s0,0,0,0c.01.01.03.03.04.04Z"/>
  <path class="st0" d="M237.72,119.27c.28.42.63.8,1,1.17,0,0,0,0,0,0l-.93-1.23s-.05.05-.08.07Z"/>
  <path class="st0" d="M237.49,118.88c.07.14.15.27.24.39.03-.02.05-.05.08-.07l-.26-.34-.17-.23c.04.09.08.17.12.25Z"/>
</svg>