<?xml version="1.0" encoding="UTF-8"?>
<svg id="Layer_1" xmlns="http://www.w3.org/2000/svg" version="1.1" viewBox="23 668 1680 307">
  <!-- Generator: Adobe Illustrator 29.8.3, SVG Export Plug-In . SVG Version: 2.1.1 Build 3)  -->
  <defs>
    <style>
      .st0 {
        fill: #f9bec7;
      }

      .st1 {
        fill: #dfde1e;
      }
    </style>
  </defs>
  <polygon class="st0" points="1108.64 802.49 1059.45 737.87 996.55 737.87 996.55 909.2 1059.45 909.2 1059.45 842.87 1108.64 909.2 1171.55 909.2 1171.55 737.87 1108.64 737.87 1108.64 802.49"/>
  <path class="st0" d="M836.26,778.26c-47.48,0-86.64,39.41-86.64,87.38s39.16,86.64,86.64,86.64,87.38-39.16,87.38-86.64-39.41-87.38-87.38-87.38ZM836.26,884.48c-10.52,0-19.09-8.57-19.09-19.58s8.57-19.09,19.09-19.09,19.58,8.57,19.58,19.09-8.57,19.58-19.58,19.58Z"/>
  <polygon class="st0" points="1387.39 830.39 1387.39 775.08 1244.45 775.08 1244.45 830.39 1302.46 830.39 1244.45 891.09 1244.45 946.4 1388.61 946.4 1388.61 891.09 1329.63 891.09 1387.39 830.39"/>
  <polygon class="st0" points="622.38 737.87 558.99 737.87 558.99 909.2 676.71 909.2 676.71 861.47 622.38 861.47 622.38 737.87"/>
  <path class="st0" d="M347.06,779.6l-64.37,171.33h67.8l6.61-21.78h54.58l6.36,21.78h66.82l-61.68-171.33h-76.12ZM371.53,882.65l13.46-44.3,12.97,44.3h-26.43Z"/>
  <path class="st0" d="M132.55,842.87c-10.52,0-19.09-8.57-19.09-19.58s8.57-19.09,19.09-19.09c7.1,0,12.97,3.67,16.4,8.81l58.5-33.78c-15.17-25.45-42.83-42.59-74.89-42.59-47.73,0-86.64,39.16-86.64,87.38s38.92,86.64,86.64,86.64c23.25,0,44.06-8.81,59.72-23.25l27.66,20.56v-83.71h-67.8c-.49,10.52-9.06,18.6-19.58,18.6Z"/>
  <path class="st0" d="M1548.16,736.65c-47.48,0-86.64,39.41-86.64,87.38s39.16,86.64,86.64,86.64,87.38-39.16,87.38-86.64-39.41-87.38-87.38-87.38ZM1548.16,842.87c-10.52,0-19.09-8.57-19.09-19.58s8.57-19.09,19.09-19.09,19.58,8.57,19.58,19.09-8.57,19.58-19.58,19.58Z"/>
  <path class="st1" d="M256.15,734.45c-16.15-27.17-45.52-45.52-78.57-45.52-24.47,0-47.24,10.04-63.39,26.19l-45.04,45.04c-16.4,16.4-26.19,39.16-26.19,63.88,0,49.44,40.14,89.58,89.58,89.58,23.25,0,44.06-8.57,59.96-22.52l28.88,21.29,46.26-45.03v-90.8h-53.6l42.1-42.1ZM219.93,824.27v83.71l-27.66-20.56c-15.66,14.44-36.47,23.25-59.72,23.25-47.73,0-86.64-38.92-86.64-86.64s38.92-87.38,86.64-87.38c32.06,0,59.72,17.13,74.89,42.59l-58.5,33.78c-3.43-5.14-9.3-8.81-16.4-8.81-10.52,0-19.09,8.57-19.09,19.09s8.57,19.58,19.09,19.58,19.09-8.08,19.58-18.6h67.8Z"/>
  <path class="st1" d="M389.4,731.88l-44.3,44.79-66.33,177.2h73.92l20.56-21.78h35.98l6.61,21.78h72.94l45.03-44.79-63.64-177.2h-80.77ZM418.04,950.93l-6.36-21.78h-54.58l-6.61,21.78h-67.8l64.37-171.33h76.12l61.68,171.33h-66.82Z"/>
  <path class="st1" d="M670.1,690.15h-69.27l-44.79,44.79v177.2h123.6l44.79-44.79v-53.6h-54.34v-123.6ZM676.71,861.47v47.73h-117.73v-171.33h63.39v123.6h54.34Z"/>
  <path class="st1" d="M881.3,730.53c-24.23,0-46.99,10.04-63.15,26.19l-44.79,44.79c-16.4,16.4-26.68,39.16-26.68,64.13,0,49.2,40.39,89.58,89.58,89.58,24.97,0,47.48-10.28,63.88-26.43l45.04-45.03c16.15-16.15,26.19-38.92,26.19-63.15,0-49.2-40.87-90.07-90.07-90.07ZM836.26,952.28c-47.48,0-86.64-39.16-86.64-86.64s39.16-87.38,86.64-87.38,87.38,39.41,87.38,87.38-39.41,86.64-87.38,86.64Z"/>
  <path class="st1" d="M1125.78,716.33l-19.83-26.19h-67.55l-44.79,44.79v177.2h68.78l25.21-26.68,19.82,26.68h67.06l44.79-44.79v-177.2h-67.31l-26.19,26.19ZM1171.55,909.2h-62.9l-49.19-66.33v66.33h-62.9v-171.33h62.9l49.19,64.62v-64.62h62.9v171.33Z"/>
  <path class="st1" d="M1435.12,785.85v-58.5h-148.81l-44.79,44.79v61.19h54.09l-54.09,56.78v59.23h150.04l44.79-44.79v-61.19h-56.05l54.83-57.52ZM1388.61,891.09v55.31h-144.16v-55.31l58.01-60.7h-58.01v-55.31h142.94v55.31l-57.76,60.7h58.99Z"/>
  <path class="st1" d="M1593.2,688.92c-24.23,0-46.99,10.04-63.15,26.19l-44.79,44.79c-16.4,16.4-26.68,39.16-26.68,64.13,0,49.2,40.39,89.58,89.58,89.58,24.97,0,47.48-10.28,63.88-26.43l45.04-45.03c16.15-16.15,26.19-38.92,26.19-63.15,0-49.2-40.87-90.07-90.07-90.07ZM1548.16,910.67c-47.48,0-86.64-39.16-86.64-86.64s39.16-87.38,86.64-87.38,87.38,39.41,87.38,87.38-39.41,86.64-87.38,86.64Z"/>
</svg>