<?xml version="1.0" encoding="UTF-8"?>
<svg id="Layer_1" xmlns="http://www.w3.org/2000/svg" version="1.1" viewBox="0 0 300 300">
  <!-- Generator: Adobe Illustrator 29.8.3, SVG Export Plug-In . SVG Version: 2.1.1 Build 3)  -->
  <defs>
    <style>
      .st0 {
        fill: #dfde00;
      }

      .st1 {
        fill: #ffbfc7;
      }
    </style>
  </defs>
  <path class="st0" d="M258.4,66.18l1.93.77c-.43,1.1.81,1.68.85,2.41.04.68-.25,1.87-.99,2.06.62.67,2.33,2.05,2.03,3.05-.07.25-.5.59-.76.29l-1.27-2.32c-1.04-.25-2.19.52-3.13.35s-2.62-1.42-2.5-2.51l-.25.77-1.02-.51c-.06,1.69.17,2.98-1.3,4.2-.45.37-1.27.47-1.53.83-.85,1.17.17,2.36.02,3.53l-.64.14c-.81-1.3.07-2.9-.93-4.2-.57-.74-.89-.03-1.19-.19-.05-.03-.81-.86-.82-.92-.15-.55.18-1.18.21-1.73.02-.37-.29-.76-.17-1.22s.86-.61.73-1.2l-2.53-.81-.03-.99c-1.63.3-1.08-.32-1.56-.86-1.09-1.24-2.21-2.31-3-3.87.1-1.26,7.69-1.92,8.91-.76l2.04,1.41c.16-.19-.98-2.61-1.23-2.99-.46-.7-1.59-2.22-1.84-.59l1.02-.25v.76s-1.76-.29-1.76-.29c-.33-1.9,1.17-2.31,2.41-1l1.9,3.59c-.1-1.31-1.03-5.83.92-5.88s.99,2.86.1,2.04c-.54-.5,1.34-1.1-.13-1.28-1.08.53-.58,5.12,0,5.11,1.48-2.23,2.36-4.03,4.65-5.57.89-.59,2.8-2.12,2.9-.44.13,2.39.42,5.5-.84,7.62-.35.58-.89.89-1.21,1.47Z"/>
  <path class="st0" d="M19.07,216.58l1.58.63c-.35.9.66,1.37.69,1.97.03.55-.2,1.52-.81,1.68.5.54,1.9,1.67,1.66,2.48-.06.2-.41.48-.62.23l-1.04-1.89c-.85-.2-1.78.43-2.55.28s-2.13-1.16-2.04-2.04l-.21.63-.83-.42c-.05,1.38.14,2.43-1.06,3.42-.36.3-1.03.38-1.25.68-.69.95.14,1.92.02,2.87l-.52.11c-.66-1.06.06-2.36-.76-3.42-.46-.61-.72-.03-.97-.16-.04-.02-.66-.7-.67-.75-.12-.45.15-.97.17-1.41.02-.3-.24-.62-.14-1s.7-.49.6-.98l-2.06-.66-.02-.81c-1.33.24-.88-.26-1.27-.7-.89-1.01-1.8-1.88-2.44-3.16.08-1.03,6.27-1.57,7.26-.62l1.67,1.15c.13-.15-.8-2.13-1-2.44-.38-.57-1.3-1.81-1.5-.48l.83-.21v.62s-1.43-.23-1.43-.23c-.27-1.55.95-1.88,1.96-.82l1.55,2.93c-.08-1.07-.84-4.75.75-4.79s.8,2.33.09,1.66c-.44-.41,1.09-.89-.1-1.04-.88.43-.47,4.17,0,4.16,1.2-1.82,1.92-3.29,3.79-4.54.72-.48,2.29-1.73,2.36-.36.11,1.95.34,4.49-.68,6.21-.28.47-.72.73-.99,1.2Z"/>
  <path class="st0" d="M40.4,65.84c.1-1.74.37-5.34,2.55-5.64,3.33-.46.77,4.22-.17,1.48l.89.16.29-1.06c-2.53-.2-2.92,3.43-2.97,5.35.97-1.4,4.33-5.31,5.06-2.09.8-.13,4.82-.89,4.7.4-.57,1.08-1.26,2.39-2.04,3.32-.25.29-1.66,1.72-1.92,1.94-.79.65-4.43,2.11-4.78,2.66s.2,1.33.05,2.09-1.66,2.76-2.42,2.96l-.29-.6c-1.08,1.2-2.8.68-3.68,2.26-.26.48-.36,1.79-.78,1.89-2.04.48.65-3.25.7-3.49.23-1.15-.68-2.59.05-3.94-.92.65-2.05,1.31-3.21,1.42-.92.09-1.47-.23-2.28-.25-2.34-.07-3.36,1.06-4.6,2.85-.27.37-.86-.1-.9-.31-.19-.9,3.73-3.27,4.46-3.87-2.02-2.03.68-5.85,3.27-5.49.3-1.03-1.11-2.1-1.15-2.59-.05-.65.43-.88.45-1.13.02-.28-.46-.71-.47-1.2-.02-1.04.26-5.14.63-5.85.33-.64.87-.64,1.05-.9.31-.44.2-1.33.84-1.7,1.1-.24,4.42,5.34,4.83,6.46.59,1.58.54,3.74,1.85,4.84ZM45.45,64.35l-.44-1.18-2.83,2.37c.83-.17,2.06-.44,1.78-1.48l1.48.3Z"/>
  <path class="st0" d="M290.63,205.09c-.37.54-1.92,2.04-2.61,2.16v.5c1.01.76,2.57,3.6,2.39,4.76-.09.59-.85,1.07-.67,1.68.13.43,5.38,4.09,2.21,4.99-.3-.07-1.14-3.6-2.81-4.04-.66-.18-1.96.37-2.98.3-.95-.06-2.76-1.07-3.04-1.01-2.02.46.84,4.31.14,5.6-2.01.87-1.03-2.26-1.88-3.24-.64-.73-2.75-.24-4.2-2.28-1.53-2.14-.74-4.89-1.13-5.52-.1-.16-2.51-1.35-3.2-2.09-1.54-1.65-2.89-4.86-3.13-7.1-.07-.63-.45-3.06.75-2.8l3.46,3.67,2.52.08c-1.08-2.8,2.46-3.4,3.44-.87.36.93.2,1.56.32,2.41.06.46.14,1.03.67.51.36-1.35,1.17-2.56,1.91-3.72,1.06-1.68,4.22-7.41,6.38-6.8.35.1,2.27,3.47,2.29,3.9.04.77-.55,1.25-.56,1.68,0,.55.87,1.29.88,2.05s-.84,1.42-.9,2.09c-.1,1.03.72,1.75-.21,3.09ZM278.12,199.06h-1.02s0,1.36,0,1.36h.33s.69-1.36.69-1.36ZM279.48,204.51c-.14-1.56.59-3.81-1.02-4.77.1,1.23-.39,1.21-1.37,1.53l2.38,3.24ZM278.12,204.17c-.62-1.47-1.53-3.13-3.41-3.06-.32,1.22,1.11.46,1.37.68-1.01.92,1.81,2.6,2.04,2.38Z"/>
  <path class="st1" d="M30.18,96.82c0-1.17.57-2.22,1.86-2.22,1.22,0,1.58,1.12,1.93,2.05.43,1.07,1.15,2.27,2.44,2.27.81,0,1.6-.45,1.6-1.36,0-2.1-5.68-2.99-5.68-7.55,0-3.58,3.2-5.54,6.5-5.54,1.17,0,2.1.41,2.41.41s.74-.41,1.41-.41c1.41,0,2.58,2.17,2.58,3.42,0,1.05-.76,2.03-1.86,2.03-1.74,0-2.24-2.48-3.84-2.48-.62,0-1.12.33-1.12,1,0,.88.79,1.36,1.48,1.72,2.46,1.34,4.8,2.51,4.8,5.68,0,4.2-4.3,6.07-7.93,6.07-3.15,0-6.57-1.48-6.57-5.09Z"/>
  <path class="st1" d="M54.81,99.32c-.38,2.72,1.55,1.17,1.55,2.82,0,1.22-1.46,1.65-5.21,1.65-4.23,0-4.23-1-4.23-1.6,0-1.46,1.27-.38,1.72-1.93.62-2.13,1.5-8.07,1.5-10.24,0-1.17-1.7-.26-1.7-1.72,0-1.34,1.53-1.55,2.56-1.55.57,0,1.29.02,1.96.05.69.05,1.31.07,1.72.07.62,0,1.24-.02,1.89-.07.62-.02,1.24-.05,1.86-.05,2.96,0,5.25,1.03,5.25,4.39,0,3.15-2.13,6.4-7.64,6.4-.38,0-.74-.02-1.12-.02l-.12,1.81ZM55.36,93.18c-.05.36-.17,1.1-.17,1.41,0,.38.1.41.45.41,1.86,0,2.2-3.03,2.2-4.39,0-.96-.43-1.5-1.39-1.5-.6,0-.62.6-.84,2.13l-.26,1.96Z"/>
  <path class="st1" d="M70.65,97.94c-1.19.1-1.39.43-1.39,1.05,0,.76,1.36.22,1.36,1.5,0,.84-.36,1.6-4.44,1.6-1.17,0-2.98,0-2.98-1.58s1.15-.45,2.17-2.15c2.15-3.58,5.18-7.83,6.02-11.61.36-1.65,1.29-1.93,2.77-1.93,2.2,0,3.1,1.19,3.8,3.13.72,2.01,2.1,8.36,2.51,10.12.43,1.91,1.74.72,1.74,2.32,0,1.86-3.84,1.7-5.04,1.7-.98,0-3.73.17-3.73-1.38,0-1.39,1.53-.79,1.53-1.91,0-.74-.57-.69-1.12-.86h-3.2ZM73.42,95.19c.69-.05.79-.24.79-.62,0-.98-.76-3.34-1.17-3.34-.6,0-1.89,3.15-1.89,3.56,0,.26.36.36.72.41h1.55Z"/>
  <path class="st1" d="M90.45,100.2c0,.65-.02.91.57,1.22.45.21.79.38.79.93,0,1.7-3.63,1.62-4.75,1.62s-4.51.12-4.51-1.67c0-.5.24-.76.72-.91.76-.26.76-.36,1.12-1.19.65-1.53,1.55-8.12,1.27-10.05-.07-.41-.26-.43-.62-.53-.62-.17-.96-.24-.96-.98,0-1.34,1.38-1.58,2.44-1.62h7.86c2.72-.07,4.94.86,5.16,3.68.21,3.08-2.46,3.61-2.46,4.2,0,.33.24.43.48.62.5.36.84.55,1.05,1.17.43,1.31.24,3.01.57,4.11.12.38.29.5.62.62.41.17.93.31.93.81,0,1.39-2.36,1.74-3.39,1.74-5.04,0-3.77-4.04-4.63-6.66-.19-.57-.72-.76-1.29-.76s-.67.07-.74.67l-.21,2.98ZM91.09,93.25c-.05.53-.1.84.57.84,1.43,0,1.67-2.03,1.67-3.1,0-.91-.24-1.58-1.27-1.58-.69,0-.62.65-.69,1.19l-.29,2.65Z"/>
  <path class="st1" d="M118.17,90.06c-.86.72-1.62,1.43-1.62,1.72,0,.22.26.72.36.93l3.37,6.19c.69,1.07,1.74,1.05,1.74,1.96,0,.81-.19,1.43-3.89,1.43-2.48,0-2.63-.43-3.63-2.6l-1.62-3.13c-.14-.26-.55-1.15-.91-1.15-.62,0-.53,1.29-.55,1.65,0,.53-.05,1.24.02,1.74.17.96,1.17.84,1.17,1.7,0,1.84-3.37,1.79-4.66,1.79-4.01,0-3.99-1.03-3.99-1.6,0-1.22,1.17-.5,1.6-2.05.67-2.32,1.39-7.24,1.39-9.7,0-1.22-1.34-.69-1.34-1.98,0-1.48,2.6-1.79,4.3-1.79,4.27,0,4.11,1.05,4.11,1.43,0,1.38-1.19.72-1.58,1.86-.14.52-.36,1.84-.36,2.36,0,.19-.02.72.24.72.43,0,3.68-2.98,3.68-3.61,0-.29-.45-.62-.45-1.24s.31-1.53,4.13-1.53c2.75,0,3.1.86,3.1,1.6,0,1.6-1.39.67-2.58,1.65l-2.03,1.65Z"/>
  <path class="st1" d="M127.93,105.28c-.07,0-.36.02-.76.02-.38.02-.88.05-1.39.05-.91,0-1.7-.36-1.7-1.41,0-1.43,1.36-.81,1.96-2.27.55-1.34,1.36-7.9,1.36-9.74,0-1.03-1.72-.57-1.72-1.93s1.74-1.65,6.28-1.65c3.01,0,3.49.57,3.49,1.46,0,2.15-2.17-.29-2.51,3.65l-.57,7c-.05.43-.12,1,.02,1.41.26.62,1.48.53,1.98.53,3.03,0,2.51-2.91,4.25-2.91,1.03,0,1.43.67,1.43,1.65,0,1.27-.84,4.42-2.46,4.42-.43,0-.65-.07-.86-.14-.24-.05-.48-.12-.98-.12h-7.83Z"/>
  <path class="st1" d="M148.59,101.9c-1.07,0-2.17.21-3.25.21-1.53,0-2.01-.62-2.01-1.41,0-1.43,1.48-.76,2.01-2.29.55-1.67,1.38-7.4,1.38-9.19s-1.48-1.17-1.48-2.48c0-1.39,1.27-1.7,2.41-1.65.6.02,1.19.05,1.81.05.62.02,1.24.02,1.86.02h3.75c.86,0,1.39-.07,1.74-.14.36-.07.57-.14.81-.14.81,0,2.01,1.31,2.01,3.56,0,.88-.43,1.84-1.43,1.84-1.93,0-.84-2.36-3.68-2.36-2.41,0-2.1.43-2.36,2.96-.07.93-.26,1.12.53,1.12,1.41,0,.6-2.2,2.08-2.2s1.6,1.91,1.6,2.98c0,1.27-.43,4.37-2.1,4.37-1.77,0-.38-2.41-1.86-2.41-1,0-.74,2.22-.74,2.96,0,1.5.02,1.46,1.6,1.46,3.73,0,2.87-3.08,4.8-3.08,1.15,0,1.43.93,1.43,1.91,0,2.22-1.65,4.08-2.53,4.08-.14,0-.29-.05-.55-.1-.29-.02-.69-.07-1.46-.07h-6.38Z"/>
  <path class="st1" d="M193.62,97.87c1.22,0,2.03-.67,2.84-1.48.5-.5,1.31-1.6,2.17-1.6.98,0,1.41.69,1.41,1.6,0,1.27-.98,3.63-2.46,3.73q-.5.05-.98.29c-1.86.98-3.25,1.48-5.4,1.48-3.96,0-6.9-2.39-6.9-6.5,0-5.4,4.25-10.84,10.03-10.91,1.6-.02,2.6.55,2.87.55.29,0,.69-.24,1.03-.24,1.38,0,2.51,2.27,2.51,3.75,0,1.34-.74,2.53-2.2,2.53-2.22,0-1.89-3.13-4.04-3.13-2.39,0-3.44,4.61-3.44,6.35,0,1.62.62,3.58,2.56,3.58Z"/>
  <path class="st1" d="M205.77,89.37c.02-.36.12-.69.12-1.19,0-1.17-1.67-.41-1.67-1.84,0-.31-.26-1.55,4.66-1.55,3.94,0,5.21.31,5.21,1.58,0,1.5-1.84.5-2.08,1.93-.07.45-.19.93-.29,1.38l-.93,6.59c-.07.53-.17,1.03-.17,1.58,0,1.93,1.7.88,1.7,2.36,0,1.77-3.25,1.7-4.49,1.7-3.99,0-5.44-.33-5.44-1.77,0-1.58,2.1-.31,2.41-2.89l.98-7.88Z"/>
  <path class="st1" d="M229.93,83.33c.93,0,1.38-.07,1.7-.14.31-.07.48-.14.79-.14,1.46,0,2.32,2.6,2.32,3.75,0,1.27-.62,2.39-1.98,2.39-1.81,0-1.5-2.96-2.55-2.96-.76,0-.79,1-.98,2.72-.14,1.43-.64,5.13-.64,7.16s1.81,1,1.81,2.44c0,.72-.86,1.72-5.83,1.72-4.3,0-4.37-1.12-4.37-1.62,0-1.43,1.7-.72,2.12-1.86.57-1.53,1.41-9.41,1.41-9.77s-.14-.79-.57-.79c-1.19,0-.91,2.96-3.03,2.96-1.1,0-1.7-.76-1.7-1.79,0-1.5,1.38-4.35,3.15-4.35.24,0,.45.07.69.14.26.07.53.14.86.14h6.81Z"/>
  <path class="st1" d="M240.58,88.75c-.79-1.03-1.96-.6-1.96-1.67,0-1.31,1.29-1.72,5.85-1.72,2.58,0,3.22.45,3.22,1.39,0,1.1-1.08,1-1.08,1.65,0,.43.86,2.29,1.27,2.32.36.02,1.86-2.17,1.86-2.46,0-.48-.81-.64-.81-1.5,0-1.34,2.63-1.39,3.51-1.39,2.08,0,3.15.31,3.15,1.34,0,1.31-1.67.86-2.32,1.65l-2.79,3.44c-1.58,1.93-1.58,2.13-1.7,4.61l-.09,2.79c-.05,1.19,1.7.43,1.7,1.65,0,.45.14,1.65-4.68,1.65-2.51,0-4.8-.05-4.8-1.41,0-1.5,1.89-.74,2.05-1.93l.67-4.82c0-.6-.33-1.15-.65-1.65l-2.41-3.92Z"/>
  <g>
    <path class="st1" d="M47.9,150.84c0,1.7-.06,2.39,1.51,3.2,1.19.57,2.07,1,2.07,2.45,0,4.46-9.55,4.27-12.5,4.27s-11.87.31-11.87-4.4c0-1.32.63-2.01,1.88-2.39,2.01-.69,2.01-.94,2.95-3.14,1.7-4.02,4.08-21.35,3.33-26.44-.19-1.07-.69-1.13-1.63-1.38-1.63-.44-2.51-.63-2.51-2.57,0-3.52,3.64-4.15,6.41-4.27h20.66c7.16-.19,13,2.26,13.57,9.67.57,8.1-6.47,9.48-6.47,11.05,0,.88.63,1.13,1.26,1.63,1.32.94,2.2,1.44,2.76,3.08,1.13,3.45.63,7.91,1.51,10.8.31,1,.75,1.32,1.63,1.63,1.07.44,2.45.82,2.45,2.14,0,3.64-6.22,4.58-8.92,4.58-13.25,0-9.92-10.61-12.18-17.52-.5-1.51-1.88-2.01-3.39-2.01s-1.76.19-1.95,1.76l-.56,7.85ZM49.6,132.56c-.13,1.38-.25,2.2,1.51,2.2,3.77,0,4.4-5.34,4.4-8.16,0-2.39-.63-4.15-3.33-4.15-1.82,0-1.63,1.7-1.82,3.14l-.75,6.97Z"/>
    <path class="st1" d="M88.42,127.79c.06-.94.31-1.82.31-3.14,0-3.08-4.4-1.07-4.4-4.84,0-.82-.69-4.08,12.25-4.08,10.36,0,13.69.82,13.69,4.15,0,3.96-4.84,1.32-5.46,5.09-.19,1.19-.5,2.45-.75,3.64l-2.45,17.33c-.19,1.38-.44,2.7-.44,4.15,0,5.09,4.46,2.32,4.46,6.22,0,4.65-8.54,4.46-11.81,4.46-10.49,0-14.32-.88-14.32-4.65,0-4.14,5.53-.82,6.34-7.6l2.58-20.73Z"/>
    <path class="st1" d="M144.94,151.84c-3.77,7.22-5.46,8.92-9.04,8.92-5.02,0-5.72-3.83-8.6-14.38l-5.46-19.91c-1.07-3.83-4.84-1.88-4.84-5.46,0-1.57-.57-5.28,14.01-5.28,9.17,0,9.8,2.01,9.8,4.4,0,3.33-4.27,1.88-3.77,4.9.88,5.34,3.14,15.89,4.46,15.89,1.57,0,7.1-14.38,7.1-16.58s-2.83-2.14-2.83-4.84c0-3.71,6.97-3.77,9.55-3.77,6.97,0,8.35,1.82,8.35,3.52,0,4.33-3.83,2.26-5.28,5.21l-13.44,27.38Z"/>
    <path class="st1" d="M177.79,160.26c-2.83,0-5.71.57-8.54.57-4.02,0-5.28-1.63-5.28-3.71,0-3.77,3.89-2.01,5.28-6.03,1.44-4.4,3.64-19.47,3.64-24.18s-3.89-3.08-3.89-6.53c0-3.64,3.33-4.46,6.34-4.33,1.57.06,3.14.13,4.77.13,1.63.06,3.27.06,4.9.06h9.86c2.26,0,3.64-.19,4.58-.38s1.51-.38,2.14-.38c2.13,0,5.28,3.45,5.28,9.36,0,2.32-1.13,4.84-3.77,4.84-5.09,0-2.2-6.22-9.67-6.22-6.34,0-5.53,1.13-6.22,7.79-.19,2.45-.69,2.95,1.38,2.95,3.71,0,1.57-5.78,5.46-5.78s4.21,5.02,4.21,7.85c0,3.33-1.13,11.49-5.53,11.49-4.65,0-1.01-6.34-4.9-6.34-2.64,0-1.95,5.84-1.95,7.79,0,3.96.06,3.83,4.21,3.83,9.8,0,7.54-8.1,12.62-8.1,3.01,0,3.77,2.45,3.77,5.02,0,5.84-4.33,10.74-6.66,10.74-.38,0-.75-.12-1.44-.25-.75-.06-1.82-.19-3.83-.19h-16.77Z"/>
    <path class="st1" d="M233.57,150.84c0,1.7-.06,2.39,1.51,3.2,1.19.57,2.07,1,2.07,2.45,0,4.46-9.55,4.27-12.5,4.27s-11.87.31-11.87-4.4c0-1.32.63-2.01,1.88-2.39,2.01-.69,2.01-.94,2.95-3.14,1.7-4.02,4.08-21.35,3.33-26.44-.19-1.07-.69-1.13-1.63-1.38-1.63-.44-2.51-.63-2.51-2.57,0-3.52,3.64-4.15,6.41-4.27h20.66c7.16-.19,13,2.26,13.57,9.67.56,8.1-6.47,9.48-6.47,11.05,0,.88.63,1.13,1.26,1.63,1.32.94,2.2,1.44,2.76,3.08,1.13,3.45.63,7.91,1.51,10.8.31,1,.75,1.32,1.63,1.63,1.07.44,2.45.82,2.45,2.14,0,3.64-6.22,4.58-8.92,4.58-13.25,0-9.92-10.61-12.18-17.52-.5-1.51-1.88-2.01-3.39-2.01s-1.76.19-1.95,1.76l-.57,7.85ZM235.26,132.56c-.12,1.38-.25,2.2,1.51,2.2,3.77,0,4.4-5.34,4.4-8.16,0-2.39-.63-4.15-3.33-4.15-1.82,0-1.63,1.7-1.82,3.14l-.75,6.97Z"/>
  </g>
  <g>
    <path class="st1" d="M35.38,213.81c-.88,0-1.82.06-2.7.13-.94.06-1.82.12-2.76.12-2.7,0-4.9-.63-4.9-3.71,0-4.33,3.89-1.88,5.02-5.46,1.57-5.02,3.58-20.04,3.58-24.87,0-5.09-4.21-2.26-4.21-6.03,0-4.08,3.83-4.27,6.97-4.21,5.78.13,12.37-.19,18.53-.31,6.91-.12,19.53,1,19.53,18.97,0,6.91-2.45,25.37-24.87,25.37h-14.19ZM46.87,202.56c.06,2.07-.06,3.64,2.2,3.64,7.66,0,9.17-11.62,9.17-19.22,0-4.9-.75-10.3-6.16-10.3-3.83,0-3.27,3.52-3.58,5.84l-1.63,20.04Z"/>
    <path class="st1" d="M91.84,203.38c-3.14.25-3.64,1.13-3.64,2.76,0,2.01,3.58.57,3.58,3.96,0,2.2-.94,4.21-11.68,4.21-3.08,0-7.85,0-7.85-4.14s3.01-1.19,5.72-5.65c5.65-9.42,13.63-20.6,15.83-30.52.94-4.33,3.39-5.09,7.29-5.09,5.78,0,8.16,3.14,9.99,8.23,1.88,5.28,5.53,21.98,6.59,26.63,1.13,5.02,4.58,1.88,4.58,6.09,0,4.9-10.11,4.46-13.25,4.46-2.57,0-9.8.44-9.8-3.64,0-3.64,4.02-2.07,4.02-5.02,0-1.95-1.51-1.82-2.95-2.26h-8.42ZM99.13,196.16c1.82-.12,2.07-.63,2.07-1.63,0-2.58-2.01-8.79-3.08-8.79-1.57,0-4.96,8.29-4.96,9.36,0,.69.94.94,1.88,1.07h4.08Z"/>
    <path class="st1" d="M167.84,169.28c5.59,0,9.48.44,9.48,4.08,0,3.89-5.46,1.32-5.9,5.53-.06.5-.88,3.96-1.13,5.9l-2.58,17.84c-1.44,9.92-3.71,11.68-7.35,11.68-3.96,0-6.09-3.77-8.04-6.66l-9.17-13.82c-.5-.75-2.26-3.58-3.33-3.58-1.38,0-1.57,3.77-1.7,4.65-.31,1.95-.94,8.79-.94,9.67,0,4.21,4.4,3.08,4.4,6.03,0,3.58-5.84,3.71-8.35,3.71-2.7,0-10.99-.06-10.99-4.02,0-3.14,3.77-2.01,4.65-4.4,3.77-10.17,3.96-19.41,4.71-26.19.5-4.77-5.02-1.38-5.02-5.78s5.09-4.65,12.31-4.65c5.46,0,6.47.63,10.55,7.16l7.1,10.61c.38.57,2.76,4.33,3.58,4.33,2.14,0,2.07-10.36,2.07-10.99.38-7.54-5.09-1.82-5.09-7.03,0-1.38-.31-4.08,10.74-4.08Z"/>
    <path class="st1" d="M200.56,204.13c3.2,0,5.34-1.76,7.47-3.89,1.32-1.32,3.45-4.21,5.71-4.21,2.58,0,3.71,1.82,3.71,4.21,0,3.33-2.58,9.55-6.47,9.8q-1.32.13-2.57.75c-4.9,2.58-8.54,3.89-14.19,3.89-10.43,0-18.15-6.28-18.15-17.08,0-14.19,11.18-28.51,26.38-28.7,4.21-.06,6.85,1.44,7.54,1.44.75,0,1.82-.63,2.7-.63,3.64,0,6.59,5.97,6.59,9.86,0,3.52-1.95,6.66-5.78,6.66-5.84,0-4.96-8.23-10.61-8.23-6.28,0-9.04,12.12-9.04,16.71,0,4.27,1.63,9.42,6.72,9.42Z"/>
    <path class="st1" d="M232.91,213.81c-2.83,0-5.71.57-8.54.57-4.02,0-5.28-1.63-5.28-3.71,0-3.77,3.89-2.01,5.28-6.03,1.44-4.4,3.64-19.47,3.64-24.18s-3.89-3.08-3.89-6.53c0-3.64,3.33-4.46,6.34-4.33,1.57.06,3.14.13,4.77.13,1.63.06,3.27.06,4.9.06h9.86c2.26,0,3.64-.19,4.58-.38s1.51-.38,2.14-.38c2.13,0,5.28,3.45,5.28,9.36,0,2.32-1.13,4.84-3.77,4.84-5.09,0-2.2-6.22-9.67-6.22-6.34,0-5.53,1.13-6.22,7.79-.19,2.45-.69,2.95,1.38,2.95,3.71,0,1.57-5.78,5.46-5.78s4.21,5.02,4.21,7.85c0,3.33-1.13,11.49-5.53,11.49-4.65,0-1.01-6.34-4.9-6.34-2.64,0-1.95,5.84-1.95,7.79,0,3.96.06,3.83,4.21,3.83,9.8,0,7.54-8.1,12.62-8.1,3.01,0,3.77,2.45,3.77,5.02,0,5.84-4.33,10.74-6.66,10.74-.38,0-.75-.12-1.44-.25-.75-.06-1.82-.19-3.83-.19h-16.77Z"/>
  </g>
</svg>