<?xml version="1.0" encoding="UTF-8"?>
<svg id="Layer_1" xmlns="http://www.w3.org/2000/svg" version="1.1" viewBox="0 0 300 300">
  <!-- Generator: Adobe Illustrator 29.8.3, SVG Export Plug-In . SVG Version: 2.1.1 Build 3)  -->
  <defs>
    <style>
      .st0 {
        fill: #231f20;
      }

      .st1 {
        fill: #fff;
      }

      .st2 {
        fill: #dfde00;
      }

      .st3 {
        fill: #ffbfc7;
      }
    </style>
  </defs>
  <path class="st0" d="M122.15,111.93c.08-.01.58-.2.5-.4l-.81-.21c.36-.81,1.52-.58,2.13-1.21l-.03-1.42,2.34-.7c.6-.48.46-1.57.79-2.04s1.67-.58,2.24-1.19c1.7-1.82.4-3.41-1.01-4.75l1.73-.4c.4-.58-.56-1.91-.72-2.53l1.21-.61c-.5-.3-2.43-1.91-2.01-2.51,2.41-.53-.53-2.19-1.22-3.15s-.88-1.75.21-2.43l-1.38-3c.29-.72,1.09-1.41.98-2.24s-3.47-2.74.4-2.74c.11-.48-.08-.33-.26-.45-.38-.26-.72-.28-1.04-.77-.78-1.19.03-1.14.09-1.34.13-.5.28-1.23.4-1.79.11-.49-.21-1.15.32-1.51l2.32.61c.24-.3-1.24-1.4-.5-1.82,2.64.75,5.12,1.93,7.27,3.63.51.12.57-.77.5-1.1l.4-.1c.76,1.99,3.02,2.18,4.52,3.06.62.37,3.26,3.25,3.77,2.79.02-.22-.54-1.39.1-1.21.44.12,2.45,1.39,2.92,1.73,1.31.96,1.98,2.35,3.45,3.02,1.06.48,1.16-.11,1.96-.26.91-.17,1.95-.16,2.88-.45.21.97-1.02.73-.81,1.61l3.64-.2c-.5,3.9,3.05.5,3.71.64.39.66,1.29.46,1.67.75s.18.95.59,1.23c1.16-.66,2.33-1.67,3.73-1.62l.31,1.82c1.2-.34,2.87-1.35,4.06-1.41.87-.04,1.96.26,3.01.2,3.68-.22,5.5-2.37,8.53-3.79,1.08-.51,2.82-.89,3.66-1.39.58-.34,1.15-1.36,1.84-1.59.74-.25,1.48.02,2.22-.2.91-.27,1.7-1.61,2.22-1.82.48-.2,1.39-.16,2.06-.36,1.25-.37,2.74-2.05,2.18.46,1.61.2,3.21-.61,4.85,0l-.81,2.31c.08.73,1.71,1.27,1.61,2.62-.08,1.11-1.91,3.3-1.81,4.23.09.86.71,1.28.31,2.55-.22.7-2.28,2.6-1.64,3.62.14.22.67.31.82.61.64,1.29-.88,4.24-1.18,5.69-.73,3.42.15,6.02,2.7,8.34,4.85.99,9.33,2.12,13.86,4.11.74.32,2.68,1.54,3.24,1.61.75.1,2.83-1.09,3.29-1.67.56-.7,1.39-3.79,1.95-4.16.23-.16.59-.2.87-.19.12.13-.27,1.45.3,1.21,2.34-2.52,5.44-4.48,7.68-7.06.67-.77,1.9-3.47,2.52-1.21l.6-.1c4.05-3.06,7.87-6.37,11.69-9.71l1.48.69c2.87-1.44,5.87-3.05,8.91-4.03.31.06.23.71.15.92-.29.8-.98.63-1.03,1.31.27.23,5.98-1.22,6.97-1.22.72,0,1.02.64,1.61.63.42,0,.66-.35,1.03-.41,1.2-.2,3.95-.67,5.02-.61,1.77.1.23,1.58.7,2.13.98,1.15,5.8.06,6.89.78,1.26.84-2.46,2.54-2.03,2.94,1.12.1,1.99.93,3.18,1.16.51.1,1.75-.1,1.98.24.87,1.24-2.39,2.71-2.74,3.55-.29.71,1.16-.1,1.33-.11.73-.05,1.38.96,1.26,1.67-.17,1.03-2.29,3.16-2.83,4.25-.5,1-.17,2.18-.56,2.83-.46.78-4.84,2.64-5.46,4.08-.09.41.51.5.79.52.11.34,0,.6-.17.9-1.66,2.78-8.35,4.17-11.32,5.45-.5.22-5.02,2.34-4.25,3.13h2.63c-.21.36-.25.9-.51,1.21-.34.39-3.2.71-4.09.96-1.69.48-3.7,1.32-4.67,2.81-.04.5,1.6.83.79,1.58s-5.98,1.21-7.36,1.53c-.49.11-1.88.57-2.11.92-.13.18-.66,1.4-.64,1.58.03.39,2.87,4.22,3.32,4.98,6.51,11.11,8.93,23.73,3.91,35.98-.29.71-1.15,1.9-1.29,2.37-.21.73.85,1.27,1.38.15.75-1.57.65-1.88,2.07-3.18,2.23-2.03,4.31-2.3,7.28-2.42,4.91-.2,10,1.81,14.84.2-.59.97-2.18,1.76-3.27,1.89-4.93.6-10.08,1.83-14.95,2.8-.81.16-3.17.84-3.78,1.27-.28.2-1.06,1.17-.62,1.41,2.56.04,4.86,1.18,7.24,1.85,2.73.78,5.57,1.23,8.4,1.3l.3.3.03,1.29c.13.13,2.53-.46,2.94-.6,1.15-.39,2.66-1.51,3.72-1.74s4.49.29,5.72.56c1.88.41,2.07.93,4.46,1.17,1.28.13,4.03,1.41,5.28,1.41h4.04c.12,0,.39.41.3.6-.42.61-5.51.7-6.56.81-3.95.42-7.16.77-11.14.88-2.31.06-2.81,1.1-4.5,1.45-2.09.44-7.46.6-9.4-.12-.65-.24-1.77-1.39-2.6-1.85-.98-.53-2.32-1.08-3.37-1.48-1.5-.57-3.96-1.59-5.51-1.27-.39.08-4.56,2.1-4.9,2.37-.72.6-1.58,2.28-2.31,3.14-1.7,1.98-6.21,6.74-8.56,7.4-1.55.43-3.06.29-4.63.83-2.77.94-5.27,2.61-7.89,3.82-1.82.84-3.88,1.62-5.73,2.34s-3.65,1.37-5.51,1.86c.61.92,1.81.49,2.7.63s2.17.36,3,.64c1.42.47,2.01,1.65,3.69,1.57,1.79-.54,4.11-1.68,5.91-1.98,1.03-.18,1.69.16,2.55.14,2.46-.06,4.83-1.84,7.3-1.6,1.84.17,4.89,1.69,6.68,2.01,1.98.36,5-.08,7.21.26.48.07,4.42,1.63,4.78,1.88.17.12.24.31.32.49l-.24.39-8.87-.4c-4.16-.59-8.76,2.48-12.36,2.79-1.62.14-2.11-.31-4.03.41-2.42.91-1.82,1.01-4.61,1.05-1.61.02-3.54.43-4.85.41-2.07-.04-2.75-2.47-4.89-2.99-1.62-.39-6.09.14-7.73.66-1.54.49-3.22,1.81-4.71,2.36-1.21.44-6.34,1.07-7.72.98-4.55-.3-6.77-2.36-11.65-.76-6.46,2.12-13.18,4.89-20.23,4.16-.18-.02-1.55-.16-1.14-.58,2.87-1.06,5.88-1.34,8.89-1.82.53-.58-2-.79-2.31-.81-.94-.06-1.9.07-2.84.02-7.49-.45-11.35-1.08-18.72,1.26-1.44.46-3.14,1.57-4.55,1.92-3.48.86-6.98.88-10.65,2.07-.43.14-.64.54-1.02.61-1,.16-3.93-.59-5.23-.62-3.31-.08-4.12.54-6.92,1.57-4.33,1.61-5.93.33-10.04.04-1-.07-1.94.16-2.83.17-.78,0-1.63-.41-2.51.04l-.21-.6c1.09-.15,2.36-.99,3.38-1.17.91-.16,1.87.04,2.78-.05,3.95-.4,6.69-1.35,10.42-2.34.64-.17,1.42-.77,2.11-.87,2.65-.4,5.65.51,8.27.59.78.03,4.47-.87,5.29-1.17,2.75-.99-.59-2.06-1.72-2.41-3.7-1.17-7.49-2.46-11.19-3.55-2.86-.84-4.66-.21-7.53-.06-1.19.06-2.55-.21-3.82-.07-3.83.43-7.13,2.36-10.73,2.8-1.73.22-4.11.39-5.84.42-1.86.03-3.53-.16-5.36-.41l.09-.62,5.01-.64,5.6-1.97c-2.94-1.02-5.84.52-8.73-.26-1.26-.34-2.16-1.35-3.31-1.94-2.42-1.24-5.16-1.12-7.85-.83-.78.08-1.61.5-2.45.58-2.72.28-3.36-.95-5.72-1.5-.48-.11-2.89-.67-3.15-.69-.37-.02-.76.21-1.2.21s-1.4-.26-.66-.67c.45-.24,2.63-.9,3.21-1.02,4.15-.85,6.23.79,10.74-1.38,1.14-.55,3.18-2.08,4.29-2.19,2.23-.22,4.1,3.81,6.74,2.51.3-.15.51-.58.83-.78,1.57-.99,3.16-1.85,4.83-2.64-2.54-1.93-5.06-3.96-7.47-6.05-3.39-2.94-3.73-4.45-8.64-5.5-6-1.28-10.2,1.45-15.91,2.52l-8.97-.96.12-.62c1.26-.27,2.55-.84,3.82-.99,1.53-.18,2.45.18,4.01-.44,2.74-1.08,3.03-1.88,4.93-3.61.93-.84,2.18-1.31,3.22-1.97.2-.13.36.02.26-.45-.69-.03-1.84-.03-2.47-.25-.38-.13-.78-.63-1.37-.85-1.87-.72-6.17-.95-8.18-.89-1.45.05-4.21,2.09-5.69,2.35-.71.12-2.33.31-3.05.34-.79.03-1.65-.29-2.45-.09l-.12-.61,2.54-2.42c-3.51.69-5.64,3.46-9.4,2.23-1.4-.46-3.99-2.43-5.44-2.44-.67,0-3.25,1.14-3.95,1.51-1.24.65-2.96,2.15-4.18,2.69-.77.34-1.41.13-2.08.34-.58.18-.93.96-1.45,1.17-1.27.52-6.52-1.01-8.35-1.24-5.18-.63-9.58-1.13-14.66-2.51-.28-.08-1.92-.57-1.57-.95,5.25-.66,10.63-1.39,15.85-.19,2.39-.77,5.58-.09,7.83-.47,1.2-.2,5.46-1.89,6.86-2.43.27-.1.91-.25.96-.55-1.94.19-3.99.38-5.93.18-4.16-.43-7.89-2.87-11.74-4.21l.1-.52c.13-.09,2.73.07,3.13.11,4.98.46,13.84,1.56,18.42-.17.65-.24,2.57-1.4,3-1.45.96-.1,2.74,1.55,3.87,1.97s2.71.38,3.77,1.08c1.58,1.05.37,3.43,4.01,2.95.86-.11,3.53-1.14,4.18-1.67.52-.42.63-.97,1.39-1.44,1.5-.92,2.42-.53,3.96-.68,1.88-.19,2.11-.84,4.08.17,2.1,1.07,5.09,3.32,7.02,4.08,1.65.65,3.6.31,5.36.8l-.39-1.32c-1.93.06-3.11-1.93-4.14-3.34s-2.3-3-2.34-4.83c-1.57.78-3.79.84-5.5.56-.85-.14-1.84-.92-2.68-.98-1.04-.07-2.3,1.08-3.62.6l-7.59-2.71c1.05-1.04,2.31-.54,3.51-.72.87-.14,2.51-.46,3.31-.73.91-.32,2.06-1.32,2.98-1.46,1.54-.24,4.93.97,6.72,1.08.62.04,1.38-.2,2.05-.09.01-.56-.05-1.13.03-1.69.73-5.83,3.29-8.97,5.8-13.99,1.88-3.76,3.48-7.9,5.64-11.52,1.35-2.26,6.57-7.34,8.72-9.25,4.62-4.11,9.77-7.27,15.55-9.49.78-.62,0-1.7,1.41-2.02,1.07-.24,1.18.24,2.01.42.91.2,2.06-.05,2.96-.3l-.12-1.42c2.01.09,3.65.76,5.65,0-.54-.58-.73-.99-.61-1.82.92-.09,2.04.12,2.93,0ZM131.54,79.21v5.55s.51.41-.1.31c-.47-.08-.72-.4-1.11-.61-.4,1.35-.48,3.26.23,4.51.66,1.14,1.73,3.31,2.05,4.61.41,1.7-.52,4.48,1.95,4.81.09-.37.19-.71.22-1.1s-.29-1.7.09-1.72l1.52.4c-.45-.91-.08-1.91.1-2.82.6.13,1.6,1.39,1.91,1.5.4.15,1.35-.41,1.63-.21.57,1.67,1.99,2.81,2.42,4.56-.76-.36-3.93.44-4.24.31-.53-.22-.07-.25.05-.36.64-.58,2.64-2.46.64-2.57-.99-.06-1.38.89-1.91,1.3-.46.36-2.19.82-1.31,1.52l2.12-1.21c-.3,1.16-1.37,2.16-2.36,2.79-1.59,1.02-4.27,1.06-4.31,3.27,1.03-.14,2.61,0,1.64,1.29-.28.37-.93-.06-1.31-.02-.82.08-2.49,1.09-2.14,2.16h1.69s.31.72.31.72c2.23-.42,3.7-2.61,5.77-3.55.49.99-2.01,3.8-2.67,4-.4.12-.89-.01-1.32.09-1.55.38-2.56,1.03-4.23.91-.53-.04-1.03-.44-1.63-.32-.97.18-1.63,1.23-1.56,2.19,1.36.11,2.63-.94,3.75-1.2.28-.06.37,0,.29.29-.47,1.5-3.6,3.48-5.25,3.14.02.24.27.35.46.44,1.25.61,4.61,1.07,5.87.53.66-.29,3.46-2.35,4.15-2.91,1.88-1.53,4-4.38,5.23-6.48.4-.69.35-1.68,1.24-1.88.16.77.49,1.89,1.42,2.02.28-1.12,0-2.35.91-3.23.63,1.48,1.12,3.28,2.04,4.62.51.75,1.52,1.43,1.94,2.31.54,1.14,0,3.56,1.65,2.74s1.04-1.43,1.39-2.65c.41-1.45,1.03-2.91,1.47-4.59s1.34-2.3.48-4.12c-.53-1.11-2.18-2.34.43-1.34l-.81-5.45,1.31,1.01c.4-.81-.59-1.37-.86-1.96-.49-1.06-.79-2.4-1.26-3.49-.44-.07-.32,0-.44.25-.23.49-.09,1.52-.16,2.07-.03.28-.13.6-.4.3.05-.88-.62-1.25-1.1-1.83-.4-.48-.14-.92-1.02-1.02-.38-.04-1-.03-1.12.42,1.15.07,1.04.95,1.41,1.68.07.14.38.16.47.39.28.72.09,1.62.14,2.38-.73-.66-1.47-.67-2.42-.61-.27-.24,1.57-1.74.35-2.27-.36-.16-.96-.09-1.17-.24-.29-.21-.08-.97-.52-1.11-.96-.01-1.51.68-2.1,1.3-.17.76,1.61.41,2.08.54,1.03.3.13,1.14-.46,1.47.13.33.97.67,1.01.85.11.45.03,3.49-.51,3.49-.48-1.01-.5-1.92-1.07-2.96-.75-1.38-1.62-2.62-3.37-2.28-.55.11-.66.64-1.05.76-1.78.54-2.57-1.36-4.19-1.56-.48.11-.29,1.12-.32,1.51-.02.22.11.67-.3.5-1.71-.72.1-2.4-.71-3.89-.17-.31-.78-.29-1.03-.64s-.21-1-.39-1.43c.69-.2.92,1.02,1.82.7.46-.42-2.79-2.57-1.51-3.43.42.64.73,1.02,1.51,1.21.2-1-.8-1.22-1.11-2.02-.15-.38-.46-2.44-.3-2.63.9.15.89,1.45,1.51,2.02.39.36.99.42,1.4.82.48.46.64,1.38,1.23,1.8.7.02-.65-2.89.51-2.12.13.08,1.67,2.36,1.71,2.5.14.62-.55,1.72-.27,2.52.04.1,1.39,1.42,1.57,1.46,1.36.35.01-2.33.22-2.54l3.03,1.01c-.39-1.25-1.57-1.91-1.21-3.43.7.36,1.27,1.48,2.01,1.73.68.23,1.42.16,2.13.7.96-1.22-.74-1.53-1.41-2.02-.56-.4-.84-1.08-1.32-1.5-.22-.19-2.57-1.63-2.76-1.69-.14-.04-.29-.1-.43-.01l-.83,1.39c-.38-1.18-1.24-2.2-2.13-3.03l-.1,1.01c-.74.48-2.29-2.22-2.72-2.63-.83-.8-2-1.15-3.14-1l.2,1.21-1.21-.2ZM182.53,118.39c1.11.17,2.58-.12,3.74,0l-.81,1.41,2.71.59.12.62c-.24.25-2.91-.54-2.83.61l3.84.61-1.62,1.01c1.19.08,2.29-.07,3.44.3,1.59.52,6.25,2.85,1.51,2.13l-.2.4c2.55,1.5,5.91.18,8.38,1.92.22.96-2.43.12-2.92.09-1.04-.07-1.88.21-2.83.22-1.2.01-2.36-.11-3.54-.21l2.4,2.55-.27.44-3.94-1.39c-.21.21,1.48,1.63,1.72,1.81,1.03.78,2.53,1.24,3.31,1.94.23.2.5.31.42.69-1.11.2-2.18-.68-3.15-.79-1.24-.14-1.56.65-2.34-.68-.19-.32-.33-.65-.36-1.02-.3-.58-.61.49-.84.75-.89,1.01-1.51.24-2.5.31-1.27.1-.74,1.6-1.65,2.22-.75-.27-1.66-.06-2.34-.23-.44-.11-1.54-1.37-1.77-1.16.27.58,1.03,1,.62,1.7-1.42.12-2.1,1.42-3.18-.07-1.73,1.75-2.36-.69-3.2-.82-.64-.1.04,1.23-.78,1.19-.34-.03-1.36-1-1.52-1.31-.32-.63-.05-1.22-.53-1.69-1.01,2.33-2.5,1.43-2.93-.61-2.22,1.13-2.17-1.98-2.44-2.2-.11-.09-.66.03-.99-.12-.94-.44-.59-3.21-2.02-3.13l-.51,1.21-1.32-2.82c-.86-.13-.25,1.5-1.21,1.41l-1.52-3.03c-.3.12.19,1.91-.4,1.61l-1.12-2.62c-.57-.62-.37,1.51-.4,1.7-.7.51-.95-.8-1.33-1.28-.44-.57-1.86-1.73-2.58-1.59-.29.06-.8.82-1.15,1.06-2.78,1.83-3.77,2.68-6.25,4.86-.37.33-1.5.88-1.6,1.25-.19.73,2.63,2.02,2.73,3.19-.25,1.88-2.82,1.31-1.98,3.48,1.14,2.97,6.89,2.93,9.44,2.28.26-.07.51.02.7-.31-1.13-1.07-2.12-2.35-3.33-3.33-.64-.52-1.88-.74-1.93-1.71-.04-.78,1.45.08,1.76.26,1.63.92,2.75,2.56,4.09,3.78.58.53,1.25.52,1.62,1.62l2.22-.32c.17-.18-3-2.96-3.34-3.22-.66-.53-4.3-2.8-4.44-3.03-.71-1.17.87-.65,1.5-.29,2.82,1.59,5.5,4.1,8.04,6.11,1.11.24,5.12-1.62,3.37-2.98-1.05-.81-5.6-2.45-7.09-3-.78-.29-5.29-1.47-5.3-1.97.34-.4.77-.53,1.28-.5.88.06,4.1,1.17,5.17,1.52,4.37,1.4,8.84,3.21,12.72,5.66.79.5,4.43,3.02,4.62,3.66.21.69-.06,1.25-.83,1.04-.18-.05-1.55-1.37-1.98-1.67-2.22-1.54-4.62-2.79-7.05-3.96-.06.62.06,1.99.74,2.18.61.18,1.81-.31,1.69.74-.02.14-.77,1.18-.88,1.26-.87.62-2.07,0-2.87-.47l-1.71.63c1.31,1,4.74,5.55,6.32,5.32.24-.04.49-.2.66-.37l-.11-1.61c1.46-.36,4.12,2.11,5.33,1.39.41-.25.52-.75.73-.89.67-.42,2.39.67,3.18.86.94.22,1.73.25,2.67.05.21-.96-1.45-1.15-1.72-1.81l.24-.62c1.2-.3,5.06,2.28,6.68,2.59.4.08,1.01.26.86-.35-.35.04-3.3-1.21-2.83-1.62,2.14.02,4.01,1.14,6.06,1.62l.12-.61c-.15-.2-1.68-.73-1.33-1.21.45-.61,1.76.41,2.33.42.38,0,.18-.39.58-.44.9-.11,1.82.36,2.74.22,0-.27-1.5-1.22-.7-1.41s1.64.97,2.52.81l-1.41-1.51c1.05-.77,1.99.2,3.03.51.06-.7-.71-1.06-1.01-1.52-.2-.3-1.49-2.28-.71-2.32.9.43,1.54,1.15,2.39,1.64.32.18,2.51,1.2,2.65,1.18.88-.12-1.07-1.29-.19-1.41.26-.04,2.75,1.34,2.72.51-.01-.33-1.43-.91-1.81-.91,1.21-1.11,3.34-.48,4.85-.2.02-.75-.92-.86-1.21-1.41,1.86-.09,3.55.67,5.45.4l-2.43-1.71.14-.5,1.89-.6c-3.04-.17-5.43-1.32-7.87-3.04-.29-.65,1.02-.37.8-.9-.08-.19-1.21-1.29-1.5-1.74-.33-.5-.53-1.08-.84-1.59l.42-.61c.54.93,1.95,1.5,2.53,2.11s1.06,1.98,1.83,2.62c1.01.84,1.82.52,2.82.81.81.24,2.2,1.22,2.93,1.32.37.05.44-.23.3-.4-.09-.11-.76-.06-.6-.61,1.39.17,3.13.87,4.44.1l-5.75-1.63c-2.12.85-2.93.49-4.23-1.32-.11-.16-.17-.35-.32-.49-.11-.34,2.51,1.06,2.62.91l-.6-1.41c1.11.46,1.46.97,2.76.63.17-.05.67.05.47-.33-.18-.35-3.2-1.2-3.23-2.32l1.61.3c-1.04-1.51-1.19-2.5-3.33-2.12-1.5.27,1.27,3.11,1.11,3.23-1.82.13-3.56-.97-3.54-2.82.14.33,1.23,1.03,1.11.3-.19-1.25-1.45-2.45-1.62-3.74.11-.13,2.36,1.75,2.72,1.82.59.11.2-1.07.3-1.42.36-.02.71-.01,1.06.05,2.82.49,3.08,2.28,5.2,3.29.49.23,3.64,1.01,4.19,1.07.37.04.69-.19,1.06-.16-.3,1.35-2.09,1.37-3.23,1.41,1.69,2.87,5.51.18,7.66,1.94.35,1.19-3.72.84-1.99,1.98,1.37.9,3.53-.37,5.03.32-.68,2.01-3.13,1.56-4.7,1.86-.99.19-3.01.69-2.57,1.97l3.64-.4c.13.36-.36.53-.36.71,0,.53,4.79,3.76,5.5,4.35,1.53,1.26,2.79,2.9,4.55,3.93-.14.3-1.21.12-1.01.6,1.53,1.45,2.73,3.19,4.14,4.75.5.56,2.9,2.68,3.04,3.03.13.32-.14.7-.11,1.09.08.84,1.75,2.36,2.3,3.17,1.75,2.54,3.5,6.82,4.8,9.74.51,1.15.62,2.43,1.48,3.36.99-.72.56-1.48.24-2.46-.8-2.5-2.21-5.63-3.61-7.9-.78-1.27-3.46-4.25-3.85-5.24-.28-.7-.01-1.32-.38-2.04-.59-1.16-4.1-3.95-5.22-5.28-.43-.51-.77-1.11-1.21-1.62l.4-.39-.2-.61c-2.03-1.7-3.88-3.95-5.86-5.65-.9-.78-2-.64-2.05-2.41-.04-1.62.96-1.84,2.34-1.86,6.39-.07,11.87,2.65,17.13,6.03,3.47,2.23,6,11.61,6.4,15.61.31,3.14.31,12.21-1.1,14.85-.3.56-.72.59-.92,1.1-.15.39-.49,2.09-.52,2.52-.06,1.01,1.01.49,1.43,0,.71-.83,1.71-4.96,1.91-6.17,2.51-15.6-4.36-30.64-15.94-40.78-1.01-.89-3.25-2.81-4.54-2.72-.52.04-1.2.69-1.9.36l-.66-1.69c-.09-.4.54-.35.62-.61.21-.66-1.51-1.82-2.22-1.7l.4,2.83h-3.03c.16-1.06,1.12-1.31.59-2.61l-2.02-.1-.2-.41.19-.98-.69-.53c-.46-.1-.25.2-.32.47-.1.37-.3.97-.34,1.3-.04.35.4,1.88-.14,1.66-.19-.08-3.04-2.54-3.13-2.73-.04-.09-.09-.5.1-.5.42.24,3.03-.52,2.12-1.12-.54-.43-2.77.75-3.03.51.14-.42-.88-2.83-1.41-2.42l-.71,2.62-1.67-1.71.96-1.52-2.82,1.41c-.08-.52-.73-1.93-1.13-2.2-.29-.19-2.57-.77-3.02-.82-.28-.03-.38-.02-.29.29.3,1.04,1.76,1.03,2.59,1.55.31.5-.72,2.32,1.16,2.59.6.09,2.06-.67,1.62.62-.31.9-.91.79.28,1.92.87.83,2.64.67,2.8,1.44.2.93-2.15,1.15-2.65,1.01-.34-.09-5.08-2.55-5.3-2.75-.55-.52-1-1.52-1.81-2.23-1.24-1.11-3.2-1.69-3.34-3.63.25-.27,1.55,1.47,1.61.51l-8.62-13.81c-.81-.38-.63,1.49-.46,1.83.09.18.35.22.46.41.7,1.26,2.61,4.24,2.76,5.51.04.32.02.34-.3.3l-1.32-1.41c.46,1.77,2.01,2.61,1.61,4.64h-.6c-.16-2.6-3.03-3.76-2.83-6.47-1.42.55-1.5-2.27-1.88-3.27-.26-.69-.94-2.11-1.46-2.58-.24-.22-1.03-.58-1.07-.65-.04-.07-.25-1.54-.24-1.67.04-.46.76-1.09.6-1.72-.65-.07-1.1.36-1.51.8l-1.92-2.62c-1.25.16-.22,1.46-.06,2.15.14.65.62,2.35.66,2.82.08.89-.45,1.79-.41,2.6s.9,2.06.82,3.03l-.4.21c-1.1-1-1.81-2.33-1.84-3.84l1.03-.81c-1.36-1.05-.49-2.89-1.21-4.34l-1.48.99c-.57-.14-.67-1.1-.94-1.29-.3-.22-1.89-.26-1.61-1.21.2-.68,2.28.03,2.73-.51l1.51-4.24c.88,0-.14,3.06.6,2.53l2.63-4.95c.73.47-.12,1.56,0,2.52.03.28.13.61.41.3.16-1.25,1.33-2.66,2.22-3.54.19-.19,1.62-1.46,1.73-1.5.25-.11.37.04.3.3-.03.11-1.23,2-.5,1.92.13-.02,1.35-1.85,1.72-2.07.21-.12.29-.22.6-.15l-1.21,4.24,1.61-.6c.27,1.09-.49,1.68-.81,2.52-.62,1.62-1.28,3.27-1.42,5.03l1.14.53-.1,1.2c1.37.39,1.57,1.4,1.81,2.65.56.41,1.18-2.17,1.37-2.56.25-.5,1.06-.85.35-1.07-.35-.11-2.11-.42-2.12-.7.87-2.08,3.52-2.05,2.62-4.75h-.67c-.63-.68.35-.87.44-1.14.24-.7-.33-1.96.57-2.48l1.07.18v-.79c-.94.17-.93-.6-1.61-.95l-.62.22c-.8.28.31-2.23.51-2.51.3-.42.81-.61,1.31-.61-.62-.69-.47-1.29,0-2.02l-1.41.2c-.13-.14.28-1.18-.3-1l-2.13,1c-.02-.48.16-1.07-.3-1.41-.23-.01-1.96,1.43-2.38,1.65-.75.4-1.9.55-2.47.96-.44.32-.91,1.24-1.43,1.59-1.3.87-3.46,1.52-4.92,2.35-.64.36-1.14.87-1.81,1.12-.56.65,1.72.1,1.61.6-.75.38-1.98,1.01-2.53,1.61-.49.53-.77,1.46-1.22,2.02-.99,1.24-2.52,1.65-3.82,2.44-.45-.55,1.13-2.8.91-3.03-1.1.45-2,1.2-3.13,1.62-.54.2-1.36.48-1.92.51-.3.02-.36.17-.61-.21.96-.63,1.74-1.47,2.22-2.52l-6.66,2.62c-.23-.25,1.03-2.89.1-3.43-.68.78-1.05,1.69-1.72,2.51-1.32,1.61-3.26,2.72-5.04,3.75-.02.28-.1.49.28.38.68-.19,2.24-1.05,2.84-.99s.88.68.62,1.21c-.16.33-3.33,1.66-4,2.06-.38.22-2.74,1.81-2.87,1.98-.12.15-.12.22-.1.41h1.21c.03,1.27-1.49,1.69-2.11,2.43-.38.45-2.17,3.44-2.33,3.93-.03.1-.05.33.1.3l1.25-.78.47.28c.27,1.06-2.56,2.77-3.02,3.63-.23.86,1.68-.56,1.82.2l-1.36,2.79c.29.73,1.47.99,1.79,1.93l3.2-1.3,4.96-5.34c.71-.3.13,2.07.91,1.82-.36-.52,1.44-4.39,1.82-3.84-.08.76.19,1.47.71,2.02.95.02.62-3.97,1.92-4.03-.09.92.23,3,.9,3.64.27.26.33.17.49-.13.34-.62.21-1.53.73-2.1.73,1.22,2.04,5.3,3.65,5.45.58.05,1.26-.35,1.9-.2-.08,1.16.42,2.41,1.65,2.69.37.08,2.45-.19,1.36.83-.07.07-.2.05-.26.1-.54.46.73.76,1.04.79.57.05,1.06-.26,1.66.04l-1.41,1.11c0,.12,1.34.68,1.51.71ZM254.33,95.37c-.12-.11-2.04.24-2.35.35-1.21.44-4.03,1.95-5.26,2.64-1.57.87-1.74,1.06-3.49,1.76-.62.25-3.85,2.84-4.25,3.42-.23.33-.66,1.31.11.92,1.06-.54,5.03-3.86,6.16-3.15l.74,1.1c2.3-.69,4.15-2.48,6.4-3.38,2.05,1.03-2.71,3.71-1.29,4.73,1.26.22,1.97-.96,2.89-1.37.44-.19,1.92-.6,2.31-.42,1.29.62-.25,1.52-.64,2.09-.75,1.1-1.88,2.47-.92,3.73.17.13,3.12-2.06,4.04-1.43,1.21.82-2.21,2.34-1.82,3.34,1.22.37,3.81-2.31,4.64-1.93l.36.44c.05,1.69-1.66,2.49-2.92,3.27-.83.51-1.97.49-1.78,1.86.37.57,1.93-.65,2.39-.85.74-.32,2.08-1.01,2.52-.04.12.63-1.52,2.1-.43,2.92,1.3.97,2.25-.09,3.3-.52.49-.2,1.14-.18,1.6-.42.09-.04,1.33-1.26,1.38-1.34.21-.36-.07-1.47.16-2.17.21-.63,4.28-4.05,1.43-3.84-.99.07-4.72,2.48-3.93-.07.25-.8,3.73-2.32,4.56-2.91.19-.14.75-.56.66-.87-1.93-.71-5.03,3.17-6.53,2.24-.21-.15-.27-.4-.24-.65.21-1.31,3.31-2.37,4.34-3.21.05-.47-.26-.63-.69-.6-1.23.08-4.33,2.36-5.54,1.59-1.01-1.73,2.7-2.29,3.4-3.1.26-.29.22-.55.2-.91-2.02-.24-3.64,1.45-5.65,1.21-.46-.45,1.92-2.16,2.02-2.73-1.47-.27-2.79.98-4.28,1.37-.61.16-2.37.67-2.55-.19-.23-1.15,3.26-1.01,2.79-2.69-.58-.56-3.3,1.86-4.03.68l.19-.88ZM235.95,107.89c-.75-.1-1.31.47-1.88.84-1.09.73-5.01,3.94-5.3,5.01-.15.57-.05,1.02.41,1.39,1.18-.4,2.01-1.68,3.32-1.58.7,1.59-1.53,3.16-.49,4.63.66-.46,5.39-4.19,5.16-1.73-.06.68-1.49,1.84-1.01,2.74.69.49,2.9-2.18,3.83-1.72,1.6.78-2.31,3.25-1.52,4.37.7,1,4.03-2.09,4.36-.31.24,1.31-1.17,1.18-1.39,2.27-.36,1.76,2.36.72,3.18.33,2.31-1.1,3.2-3.22,5.07-4.82-1.69-.98-.59-.99-.44-2.07.28-1.96-1.97.08-2.71.15-1.05.11-1.4-.44-.99-1.41.1-.23,2.07-1.75.99-2.02-.95-.24-3.01,2.38-3.94,1.73s1.19-2.54,1.47-2.99c.62-.98.68-1.88-.51-2.34-1.37.49-4.13,2.92-5.16,1.11l1.56-2.28c.12-.77-1.13-.28-1.51-.09-.61.31-4.02,3.58-4.34,1.52-.22-1.43,1.58-1.59,1.83-2.72ZM142.21,114.51l-.27-.77c-.39.65-2.93,1.86-2.88,2.53,1.37,1.2,1.57,3.59,3.79,2.72-1.13-1.11-2.06-1.61-1.52-3.44.18-.61.86-.98.88-1.04ZM126.49,117.18c.34-.45-1.85-1.46-2.21-1.53-.9-.17-1.72.26-2.63.12-.11.61.18.31.48.42.7.27,3.91,1.6,4.37.99ZM167.08,116.78c-.49-.44-2.86,1.69-3.63,1.62-.13.73.63.98.97,1.54.87,1.42.43,2.47,2.66,1.68-1.84-1.73-.79-3.02,0-4.84ZM125.48,118.8c-1.68.18-3.61-.77-5.15-.82-.44-.02-3.39.47-3.53.62-.24.25.02.36.25.45,1.33.57,3.23-.29,4.6.15-.54.94-1.97,1.31-2.98,1.57-.37.1-1.61-.1-1.47.55l1.92,1.92,2.93,2.02c-3.56.05-5.88-2.99-8.66-4.77-.34-.22-.73-.68-1.03-.18.6.95,1.08,2.19,2.01,2.83l-2.02.91c1.47.4,3.3.72,4.7,1.26.95.37,1.82,1.14,2.73,1.52.7.29,2.7.64,3.07,1.07.31.35-.07.34-.29.41-2.12.65-4.85-.7-6.92-1.18-1.34-.31.73,1.24,1,1.42,2.23,1.5,5.38,2.28,7.81,3.5.89.68-1.63.8-1.4,1.71.61-.03,1.44.57,1.93.61.36.02,4.76-2.23,5.69-2.58,1.6-.59,3.26-.99,4.9-1.46-.2-.36-1.03-.61-1.41-.71-3.21-.83-5.18-.36-8.13.96-.52.23-1.32,1.24-1.77.05,2.28-2.17,5.69-2.81,8.76-2.5.84.08,3.33,1.01,3.7.86.83-1.43.93-.87,2.24-1.22,1.91-.51,3.18-2.77,4.28-4.21.32-.42,1.66-1.24.96-1.56-1.07-.5-1.56,1.24-2.17,1.96-.74.87-2.13,2.27-3.19,2.67-.52.2-1.22.16-1.65.37-.28.14-.45.59-.75.67-.37.09-5.33-.39-6.43-.38s-2.13.39-3.39-.03c-.72-.24-.02-1.28-.14-1.78-.86-.01-2.28-.45-2.67-1.27-.15-.3-.12-.91-.35-1.08-.19-.14-.58.12-.87.07-1.36-.22-2.37-1.03-3.58-1.57l.1-.4c1.54.13,2.86-.83,4.34-1.11l2.02-1.31ZM168.95,119.15c.16.17.66.27.89.43.89.08.34-1.61-.65-1.59-.63.01-.57.79-.24,1.16ZM253.32,120.61c-1.2.06-5.37,1.32-4.54,3.03.16.34.55.46.91.41.03-.29.05-.75.25-.96.35-.37,2.28-1.31,2.92-1.82.24-.19.55-.23.46-.65ZM107.7,122.03c-.18-.16-1.88.4-2.17.56-.57.31-.5.88-1.3,1.13-.73.23-1.14-.09-1.59.02-.14.03-1.82,1-1.92,1.12-.8.93-.12,2.03-.09,3.04-1.05-.44-2.3.26-3.12.2-.35-.03-.68-.41-.92-.31-1.01.44-.25,2.29-.4,3.14l-2.73-.73c-.32-.02-2.39,1.97-2.49,2.29-.18.61.42,1.53.12,2.03-.07.12-1.91,1.37-2.2,1.54-.36.21-1.05.23-1.21.45-.24.31-.67,2.01-.38,2.29,1.52-.01,1.64-1.88,2.32-2.63s1.87-.84,2.33-1.3c.59-.59.24-1.39.43-1.69.48-.79,4.43-.68,5.11-2.26.18-.42.01-.99.13-1.18.19-.32,2.92-.76,3.41-.93.46-.16,2.92-1.89,2.62-2.33l-1.3-.82c-.25,0,0-.25.09-.3.91-.44,2.18-.36,3.14-.09,1.37-.3,1.55-2.12,2.11-3.24ZM250.09,125.66c-.2-.16-4.6,1.97-4.22-.31-.98-.43-1.64.28-2.53.49-.52,1.94,2.33,1.26,3.41,1.22,1.23-.04,3.98.54,3.34-1.41ZM139.41,129.49c1.27.33,2.92,1.91,4.04.71.13-.56-3.3-1.41-3.7-1.29-.26.08-.39.31-.34.58ZM131.39,136.71c.23.1.38.11.61.03.58-1.13,6.05-2.91,6.18-3.33.25-.77-.43-.8-.79-1.18-.47-.51-.3-.97-1.28-.9-1.58.11-5.75,1.7-7.26,2.45-.48.24-2.43,1.27-1.87,1.99.88.63,2,.14,2.79.23.2.02,1.18.3,1.41.39.16.06.16.31.21.33ZM106.09,133.94c-.1.43.21.46.47.64.81.58,1.98,1.36,2.86,1.79.65.31.63-.5.32-.93-.25-.34-3.51-1.64-3.65-1.5ZM140.16,135.01c-.73-.62-3.57.59-4.39,1.04-1.55.85-2.61,2.13-.31,2.95,1.41.5,2.3.32,3.81,1.24s2.66,3.14,4.28,3.21c1.95.08,1.24.12,2.93.68.81.27,1.75.41,2.53.7,1.18.45,2.23,1.31,3.52,1.42.5-.5-2.34-2.58-2.53-3.02s.25-.75.77-.57c.69.24,3.03,3.03,3.88,3.6.9.6,1.54.11,2.53.2.82-.82-2.66-2.31-2.94-2.82-.1-1.53,2.2-.28,2.88.16.74.48,1.18,1.36,2.08,1.45.42-.45-2.04-4.96-2.53-5.65-.6-.11-.2.91-.8.81-.66-.11-1.2-1.02-1.86-1.17-.99-.23-2.6.23-3.8.17s-1.72-.76-2.81.61c-1.26,1.57.62,1.67.9,3.02-.22.02-.4.11-.63.1-.75-.05-2.52-1.19-3-1.81-.57-.73-.89-1.91-1.44-2.6-.44-.54-1.26-1.01-1.78-1.65-.41-.5-1.04-1.86-1.27-2.05ZM123.26,146.87c-2.04.31-2.55-1.68-3.65-2.71-1.77-1.67-2.97-3.24-4.63-4.87-.88-.87-1.87-1.45-2.73-2.31l-.49.98c1.76.96,5.61,4.8,5.6,6.8,0,.7-.27.91-.88.51-.92-.6-2.12-2.23-3.13-2.93-.42-.29-1.01-.55-1.5-.72-.18.32.29,1.09.46,1.35.34.52,2.87,3.05,1.26,3-3.9-.12-5.86-3.11-9.02-4.73-.47-.24-1.02-.2-1.38-.63-.42.34-.24.22-.11.5.35.73,1.25,1.81,1.82,2.43.7.76,3.97,2.85,2.3,3.9-1.86,1.17-5.87-2.4-7.25-3.6h-.29c-.56,1.95-2.74-.32-3.7-.85-.57-.32-1.42-.74-2.06-.77s.28,1.27.5,1.52c.42.48,4.65,2.64,5.4,2.88s1.54.16,2.15.47c.87.44,4.17,4,4.47,4.01l.4-1,3.64,2.02c.33.05.32.01.31-.3-.04-.6-1.17-1.78-1.41-2.63-.09-.3.02-.34.3-.3,2.39.37,3.99,3.77,6.36,4.24.2-.2-2.26-3.71-2.41-4.35-.07-.3-.02-.34.28-.28,2.17.49,5.59,7.03,6.68,7.05.22,0,.28-.34.21-.61-.26-1.04-2.61-3.88-3.34-5.15-.15-.25-.27-.49.1-.49.17,0,2.47,1.74,2.82,2.02,2.23,1.78,3.92,4.39,6.77,5.25l-5.65-6.56c-.08-.42.16-.34.46-.26,2.53.7,6.21,4.84,8.53,6.62.34.26,1.76,1.31,2.02,1.42.44.17.26-.21.22-.42-.09-.53-.54-1.24-.23-1.79,2.79,1.68,5.27,3.82,8.12,5.41,1.09.61,2.2,1.44,3.5,1.45-1.75-1.39-3.97-2.5-5.25-4.44.49-.04.93-.02,1.42.1,3.34.78,7.39,4.35,10.57,6,1.04.54,3.14,1.62,4.27,1.39l.12-.6c3.05.33,5.54,1.9,8.76,1.39.89-.14,1.35-1.17,2.08-1.35.97-.25,2.31.12,3.34-.09,1.42-.29,3.79-2.16,5.09-2.38.12-.02.33-.05.3.1-.56,1.18-1.89,1.49-2.42,2.52.18-.03.37.13.51.12.8-.06,4.97-1.51,5.86-1.92.73-.33,1.31-1.14,2.21-1.23-.4,1.15-1.56,1.83-2.32,2.73-.09.49.39.31.68.28,3.21-.34,5.03-2.22,7.59-3.52,1.25-.64,2.21-.97,1.15.74-.42.67-.91,1.04-1.54,1.49.84.21,2.31-.17,3.08-.55,1.6-.79,3.68-1.73,5.55-1.94,1.67-.18,3.55,1.08,5.38-.07.23-.15.28-.53.47-.58.38-.1,1.75.11,1.87,0-.06-.91-1.42-1.02-1.91-1.62-.11-.14-.78-1.54-.72-1.61,1.73.4,3.23,1.09,4.71,2.06.88.58,1.91,1.7,2.69,2.15.64.37,3.08,1.21,2.26-.24-.35-.62-2.56-2.37-2.56-2.86l.67-.66c.49-.04,3.69,2.68,4.54,3.09.19.09,1.14.65,1.02,0-1.07-1.82-3.04-2.87-4.04-4.85,1.86-.23,4.25,2.03,5.56,3.32.25.25.27.65.51.91.17.19,3.74,2.82,3.97,2.9.22.07.44.05.66.04.33-.33-.86-2.03-1.12-2.41-.74-1.06-3.03-3.15.31-1.52.31.15.59.34.88.54,1.43,1,3.59,3.49,4.98,4.11.36.16.38.05.61-.21.08-.39-3.78-4.68-4.34-5.35-.13-.16-.53-.41-.2-.61,1.6.93,3.25,1.79,4.64,3.03.69.61,4.88,5.75,5.56,5.24,0-.23.18-.44.15-.67-.1-.85-1.5-1.78-1.46-2.76,1.35.76,2.93,2.59,4.27,3.2,1.07.48,2.23.32,3.1,1.44,0-.71-.55-1.4-.92-2-1.61-2.63-2.76-3.46-4.84-5.46-.91-.88-1.74-2.51-2.72-3.14-.3-.19-.47-.18-.41.21.12.8.96,2.08,1.02,3.03h-.61s-6.16-7.57-6.16-7.57l-.5.3,1.21,3.94c-.28.36-3.16-3.83-3.39-4.18-.54-.78-1.1-1.59-1.45-2.49-1.27.56.76,4.47.41,4.85-1.14-.26-1.89-1.41-2.76-1.99-.41-.27-3.59-2.1-3.8-2.05l-.31.5,2.01,2.23-.87.46-9.53-4.4c-.35-.05-.3,0-.31.3,0,1.18,1.57,1.94.92,3.33-1.58-.65-2.49-2.37-3.64-3.43-.95-.87-5.71-3.4-7.02-3.88-.25-.09-.46-.22-.75-.16.34,1.09,1.36,1.48,1.01,2.83-.68-.25-1.81-.31-2.53-.2-.29.04-.33-.12-.31.31.07,1.11,1.64,1.81,1.83,2.92-2.84.26-5.25-1.65-8.08-1.21-.05.07.68,1.37.74,1.43.75.66,3.14.51,2.69,2.21-1.48-.08-2.64-.92-4.09-.23l-5.3-1.76c-.81.47-.55,2.78-1.61,2.8-1.38.02-2.99-2.45-4.02-2.41-1.35.05-4.46,2.17-5.93,2.59-.39.24-.84-.38-1.06-.28-.91.4-1.6,1.91-2.43,2.43-.19.12-2,.94-2.11.92-.53-.1-.1-.95,0-1.21.35-.88,1.01-2.11,1.48-2.97.24-.45,1.76-2.37,1.45-2.69-.48.02-1.2.27-1.6.52-.98.62-1.12,2.01-1.97.07-.79.25-1.83.16-2.57.43-1.24.46-1.21,1.2-1.95,2.05-.33.37-1.34,1.51-1.71,1.58-.42.04-.26-.02-.31-.3-.23-1.52.93-2.87,1.01-4.34-.53-.1-.35.11-.49.4-.38.79-.27,1.26-1.41,1.42l-.5-1.5-.62-.12c.16,1.59,1.01,3,.5,4.65-.73-.01-2.07-3.51-2.35-4.21l-.9.16-.09,1.63h-.91c-.26.41.18,1.58-.39,1.41-.64-.76-2.12-.96-2.72-1.52-.31-.29-1.27-2.63-1.83-2.11-.11.1,1,2.36.78,2.94l-.68,1.5c-.42-.96-1.38-1.22-2-1.84-.99-1.01-1.1-2.77-2.45-3.61-.53.47.47,2.25.3,2.42-.81.12-2.98-1.61-3.55-.82-.51.7,1.01,1.98.72,2.23-1.17.17-1.91-.81-2.97-1.16-.33-.11-.77.02-1.12-.09-.74-.23-1.07-1.84-1.74.53-1,.55-.92-1.3-1.21-2.01-.4-.99-1.15-1.64-2.13-.9l-.21-.2c-.19-.69-.18-1.45-.53-2.1-.17-.32-.57-.53-.75-.87-1.33-2.52-1.96-5.07-5.49-4.71l2.22,4.24ZM163.21,146.22c.49-1.59,1.71-.31,2.78-1.16.59-.83-3.9-5.14-4.66-5.86l-1,.8-1.82-.8c-.38.3-.24.23-.14.53.32.9,3.64,6.29,4.22,6.5.18.07.46.1.63,0ZM77.21,154.34c.82.8,2.25-3.21,2.48-3.68,1.15-2.35,2.63-4.92,3.61-7.29.12-.28.94-1.96.27-1.95-.26,0-1.08,1.4-1.31,1.68-.16.19-.47.08-.63.27-.6.71-1.87,5.08-2.37,6.27-.26.62-2.36,4.41-2.06,4.71ZM209.43,145.32c.83.69,1.6,1.57,2.54,2.2,1.56,1.05,1.24.13.52-.92s-4.19-4.5-5.51-3.57c-.51.36.24.45.39.61.79.85,1.24,1.02,2.05,1.69ZM216.56,147.87c-.36-.41-.43-.99-.71-1.4-.65-.94-2.4-2.35-3.39-2.88-.23-.12-1.22-.48-1.35-.36.22,1.32,1.79,1.87,2.72,2.63.43.35,2.15,2.45,2.73,2.01ZM206.06,148.88c.5.36.88-1.35.71-1.61-.1-.17-.47-.24-.62-.41-.92-1.02-2.35-3.44-3.73-1.72,1.25,1.15,3.02,2.08,3.64,3.73ZM200,145.65c.56-.79-2.95-1.04-3.34-1.02-.35.02-.67-.02-.9.31,1.4.33,2.86,1.61,4.24.7ZM188.65,147.51c-.08-.14-2.01-1.11-2.38-1.25v1.6s2.42.21,2.42.21c-.02-.18.05-.4-.04-.57ZM218.58,146.87c-.52.5,2.56,1.78,2.81,1.93.85.54,1.74,1.4,2.58,1.86.35.2.35.35.67-.07-1.38-2.01-3.6-3.56-6.06-3.73ZM94.58,149.69c.47-2.18-1.17-.26-1.9.02-.43.16-.87.22-1.33.19-.04.23,0,.38.2.51.93.59,3.95-.87,3.64,1.51,1.11-1.04,1.9-.66,3.23-.41.14-.11-1.68-1.87-1.82-1.93-.1-.04-1.41.6-2.02.11ZM226.81,150.35c-.24-.12-.5-.04-.76-.05.25.84-.48,2.82.94,1.43l1.08.38c.17-.15-1.16-1.71-1.26-1.76ZM89.93,150.5l-2.42.41c.35.82-.42,1.4-.4,2.22.28.02.54.02.8-.1.11-.05,1.76-1.5,1.84-1.6.22-.3.22-.57.19-.92ZM93.77,152.32c-1.86.17-2.65,2.07-4.18,2.8l-1.37-1.18-2.84,1.81c-.58.18-.17-.88-.3-1.01-1.78-.04-1.95.33-2.58,1.76-3.3,7.49.25,18.55,4.55,25.04,4.54,6.85,14.13,14.87,21.52,18.47,12.74,6.2,27.13,8.83,41.23,9.86,11.99.88,24.18.96,36.12-.84,13.3-2.01,26.32-5.78,38.44-11.45,3.35-1.57,7.25-3.64,9.65-6.51,1.01-1.21,2.06-2.66,1.72-4.33-.09-.46-.54-.63-.58-.84-.05-.29.32-.54.3-.78-.02-.26-.62-.39.09-.79s1.07-.24,1.69-1.14c.19-.28,1.67-3.56,1.69-3.77.1-1.2-1.47-5.33-2.29-6.3-.13-.15-1.36-1.16-1.5-1.02.82.98,1.7,2.22,2.12,3.44.57,1.65.63,3.82,0,5.44-.78,2.02-1.16,1.25-2.32,2.13-.51.39-.83,2.21-.82,2.83.01.57.44.97.5,1.48.27,2.14-.96,2.57-2.21,3.67-2.88,2.54-6,5.41-9.89,6.47-.47.13-.9.27-1.4.21-.96-1.18.14-2.09.43-3.4,1.08-4.89-.33-9.46-1.31-14.14-.19-.93-.11-2.12-.35-3.09-.94-3.94-4.21-6.78-6.58-9.78-1.41-1.79-.15-2,1.5-1.7,2.05.36,4.78,1.98,6.54,2.16.77.08,1.25-.18,1.95-.16.82.02,3.99.79,4.7,1.18,1.15.62,2.75,3.19,3.6,3.28.98.1.99-1.06,2.91-.3.35.14.63.2.22-.22-.7-.48-1.13-1.16-2.08-.87-.46.14-.67.97-1.34.76-.24-.65-.95-2.1-1.51-2.42-.42-.24-.81-.14-1.12-.29-1.57-.73-4.53-1.93-6.23-2.01-.57-.03-.97.28-1.65.21-1.24-.13-4.35-1.33-5.98-1.71-1.11-.26-2.01-.97-3.1-.54-1.28.51-.95.76-2.68.46-2.82-.49-5.73-1.93-8.73-1.57-.35.31.16.52.39.62.87.4,2.37.53,3.35.59-.31.69-1.29.31-1.91.41-3.1.53-5.87-.19-8.71.38-.44.09-.98-.07-1.39.23-.35.25-.24.75-.44.81-.32.09-2.12.02-2.6-.02-2.85-.21-5.65-1.07-8.58-.4l.4,1.4c-1.35.32-2.76.21-4.14.22s-2.84.04-4.24,0c-.74-.02-1.52-.37-2.31-.21l.2,1.41-6.94-.59-.62.94c-2.53-.16-5.54-1.95-8.03-1.3-.36.09-.66.41-1.12.5-2.44.46-5.26-1.42-8.23-1.37-5.01.09-5.96-.92-10.39-1.93-.63-.14-1.26,0-1.84-.18-.91-.28-4.24-3.38-5.38-4.12-3.77-2.44-5.81-.08-9-1.5-1.13-.5-2.92-2.29-4.18-1.45-.32.21-.39.92-.89.87-1.26-.53-2.06-1.81-3.23-2.44-.55-.3-3.11-1.34-3.49-.78l-.19.82c-.77-.42-1.84-1.68-2.64-1.8-1.08-.17-2.67.02-3.83,0-.61-.01-1.17-.3-1.81-.22-.54.06-1.95,1.23-2.3-.12-.15-.56,1.28-1.34.48-1.48-.49-.09-2.89,2.73-2.93-.61ZM238.03,162.56c.77.51,1.63,1.23,1.88-.13.17-.92-.93-.95-1.72-1.54-.45-.33-2.84-3.09-3.25-2.71l3.09,4.38ZM95.87,205.55c1.98,1.5,4.28,1.05,6.46,1.31,1.31.16,3.11.82,4.43,1.15.69-.2,1-.88,1.61-1.21,1.38-.75,3.39-.47,4.58-1.68-.53-.62-1.42-.38-2.07-.55-5.65-1.51-7.5-.52-12.98-.15-1.43.09-2.91-.07-4.34,0l2.3,1.13Z"/>
  <path d="M186.22,220.23c2.71-.36,5.5,1.68,7.93,2.47,3.05.98,5.01-.14,7.79-.68.32-.06,2.7-.47,2.4.18s-7.26,3.3-8.37,3.54c-3.76.82-6,.09-9.59-.91-1.19.49-2.5.59-3.75.9-.77.19-2.08.87-2.74.9-4.74.2-10.02-1.17-14.93-.8-.46.03-1.78.73-1.92.1-.07-.32.27-.41.46-.54,2.6-1.71,6.56-1.12,9.53-1.38,1.62-.14,4.91-.9,6.52-1.35,2.22-.63,4.2-2.1,6.66-2.43Z"/>
  <path d="M21.67,162.21l.21-.7c1.32-.21,2.94-1.06,4.18-1.27,1.2-.2,2.71-.07,3.97-.27,2.15-.35,3.89-1.44,6.23-1.14.97.13,1.84.68,2.87.76,2.89.24,6.44-2.03,8.64-1.17.65.25.82.67.04.94-3.03,1.08-8.01,3.12-11.1,3.24-.68.03-1.51-.25-1.97-.17-.35.06-.75.5-1.2.64-2.14.67-7.33-.17-9.74-.47-.61-.07-1.32-.68-2.14-.4Z"/>
  <path class="st2" d="M93.77,152.32c.04,3.33,2.43.52,2.93.61.8.14-.63.92-.48,1.48.35,1.36,1.76.18,2.3.12.65-.07,1.2.21,1.81.22,1.17.03,2.75-.17,3.83,0,.79.13,1.86,1.38,2.64,1.8l.19-.82c.38-.56,2.93.48,3.49.78,1.16.63,1.97,1.91,3.23,2.44.49.05.57-.66.89-.87,1.26-.84,3.06.95,4.18,1.45,3.19,1.43,5.22-.93,9,1.5,1.14.73,4.46,3.83,5.38,4.12.58.18,1.21.04,1.84.18,4.44,1.01,5.38,2.02,10.39,1.93,2.97-.05,5.79,1.83,8.23,1.37.46-.09.76-.4,1.12-.5,2.49-.65,5.5,1.13,8.03,1.3l.62-.94,6.94.59-.2-1.41c.8-.16,1.57.19,2.31.21,1.41.04,2.86,0,4.24,0s2.79.1,4.14-.22l-.4-1.4c2.93-.67,5.73.19,8.58.4.48.04,2.28.11,2.6.02.2-.06.08-.55.44-.81.41-.3.95-.14,1.39-.23,2.84-.57,5.6.15,8.71-.38.62-.11,1.59.28,1.91-.41-.98-.06-2.47-.2-3.35-.59-.23-.11-.74-.32-.39-.62,3-.36,5.91,1.08,8.73,1.57,1.73.3,1.41.05,2.68-.46,1.09-.43,1.99.27,3.1.54,1.63.38,4.75,1.58,5.98,1.71.68.07,1.07-.24,1.65-.21,1.7.08,4.66,1.28,6.23,2.01.32.15.71.05,1.12.29.56.33,1.27,1.78,1.51,2.42.67.21.88-.62,1.34-.76.95-.29,1.38.39,2.08.87.41.42.13.36-.22.22-1.92-.77-1.93.4-2.91.3-.85-.09-2.45-2.66-3.6-3.28-.71-.38-3.88-1.15-4.7-1.18-.7-.02-1.18.24-1.95.16-1.76-.18-4.48-1.79-6.54-2.16-1.65-.29-2.91-.08-1.5,1.7,2.37,3,5.64,5.84,6.58,9.78.23.97.15,2.16.35,3.09.98,4.68,2.39,9.25,1.31,14.14-.29,1.31-1.39,2.22-.43,3.4.49.06.93-.08,1.4-.21,3.89-1.06,7-3.94,9.89-6.47,1.25-1.1,2.49-1.53,2.21-3.67-.06-.5-.49-.9-.5-1.48-.01-.62.31-2.44.82-2.83,1.15-.88,1.54-.1,2.32-2.13.63-1.62.57-3.79,0-5.44-.42-1.22-1.29-2.46-2.12-3.44.14-.13,1.37.87,1.5,1.02.82.97,2.4,5.1,2.29,6.3-.02.21-1.49,3.49-1.69,3.77-.62.9-.97.74-1.69,1.14s-.11.53-.09.79c.02.24-.35.49-.3.78.04.21.48.38.58.84.34,1.67-.71,3.11-1.72,4.33-2.4,2.87-6.3,4.94-9.65,6.51-12.12,5.67-25.14,9.44-38.44,11.45-11.94,1.8-24.14,1.72-36.12.84-14.1-1.04-28.5-3.67-41.23-9.86-7.39-3.6-16.98-11.62-21.52-18.47-4.3-6.49-7.85-17.55-4.55-25.04.63-1.43.8-1.81,2.58-1.76.13.13-.28,1.19.3,1.01l2.84-1.81,1.37,1.18c1.53-.74,2.31-2.63,4.18-2.8ZM91.95,154.95c-1.17-.55-2.18,1.84-1.31,1.81.11,0,1.52-1.62,1.31-1.81ZM101,156.6c-2.9-.93-1.04,3.28-.4,4.54,1.76,3.47,6.31,5.42,9.13,7.94-2.41-.58-4.8-2.13-6.66-3.74h-.41c-1,1.34-2.15,2.2-2.97,3.7-1.11,2.02-3.56,7.94-4.04,10.1-.09.41.03.91-.15,1.26l-1.72-.2c1.31,3.5,5,5.11,7.27,7.87-3.79-1.7-6.99-4.47-9.59-7.69-.42-1.52-.33-4.36-1.05-5.79-.19-.37-.93-.59-1.07-1.17l-.52.1-.3,1.62c-.48.34-.84-1.16-1.21-1.21l.2,1.82c-1.01-1.14-.83-3.53-1.01-5.05.71.42.85,1.23.81,2.02,1.33-.68.57-1.82.6-2.73s.03-1.79.06-2.58c.03-.88,1.05-2.39-.16-2.77l-1.21,2.62-.4-.38-.2.18-.61,2.42-.87-2.29c.58-.3.84-1.72,1.02-1.89.11-.11.45-.07.64-.26.7-.72.97-2.04.92-3.02-.8-.09-1.25.72-1.43,1.39h-.57s-.82-2.11-.82-2.11l.34-.46c1.37.37,1.22-.76,1.8-1.63.25-.38,1.58-1.76,1.29-2.04-1.28-.18-1.77,1.52-2.93.24-.8,0-2.06,4.69-1.91,5.51.09.51.61.76.61,1.42,0,.7-.69,1.43-.58,2.37s1.94,5.78,2.42,6.89c1.64,3.82,4.37,7.55,7.14,10.63.81.91,3.14,2.54,3.32,3.74.08.5-.06,1.04.05,1.56.18.83,3.02,3.22,3.82,3.86,11.48,9.2,27.98,12.98,42.32,15.03,2.35.34,5.3.66,7.65.45.53-.05.94-.09,1.33-.51.47-.64-.49-4.85-.6-5.89-.88-8.47-.47-20.56,2.45-28.6.28-.78,2.16-4.2,1.77-4.6-1.58.16-3.21.5-4.7-.25-.75-.37-.68-.82-1.86-.96-1.77-.21-3.09.55-5.02.38-2.61-.23-4.93-1.81-6.94-2.15-1.69-.28-2.83.16-4.48-.97-.55-.37-.99-1.08-1.53-1.5-1.96-1.5-3.88-3.33-6.45-3.25-.81.03-1.45.63-2.37.57-1.99-.12-4.55-2.4-5.52-2.38-.45,0-.61.56-.91.7-1.5.69-2.54-1.03-3.49-.87-.36.06-3.37,2.09-3.37,2.29,2.01,2.54,4.96,3.58,7.78,4.94l.1.41c-.2.18-3.96-1.4-4.49-1.67-1.53-.78-5.37-3.76-6.11-5.2-.23-.46.06-1.05-.41-1.41-.66,1.65,1.15,2.62,1.32,4.13-.13.41-.98,1.46-1.42,1.23-.23-.12-1.68-1.82-1.91-2.14-1.03-1.45-1.5-2.83-1.77-4.59ZM87.71,161.2c.08-.39.2-.79.37-1.15.2-.43.92-.7.34-1.07l-1.29,1.34.58.88ZM89.67,160.63c-1.85.15-1.7,4.13-.33,2.71.31-.32,1.23-2.78.33-2.71ZM185.46,172.72c.05.94,2.6.67,3.33.6,4.32-.38,11.14-2.8,14.71-5.29.51-.35,2.54-1.7,1.35-2.3-.47-.24-2.55,1.53-3.17,1.89-2.41,1.4-5.38,2.42-8.04,3.27-2.67.86-5.35,1.77-8.18,1.81ZM171.52,172.72c.07.39.42.33.7.41.7.2,4.36.51,5.07.41.66-.09.72-.51,1.2-.61,5.27-1.1,9.76-1.28,15.09-3.09,2.13-.72,4.46-1.67,6.21-3.08-1.24-1.08-2.88.32-4.29.76-6.43,2.03-12.92,3.98-19.64,4.79-1.41.17-2.93.12-4.34.41ZM89.78,172.27c.18.22.65.31.74-.08-.19-1.64,1.09-3.03-1.09-3.5-.65.04.12,3.3.35,3.58ZM214.68,175.01c-1.9-1.89-6.55-.78-7.98,1.48-1.52,2.4-.98,3.93.15,6.31-4.64,2.97-10.13,4.6-15.59,3.25-.55-.68-.38-1.49-.79-2.29-1.9-3.66-8.19-3.64-10.1.13-1.37,2.73-1.06,5.84,1.84,7.32,1.17.59,3.4.55,4.66.2.68-.19,1.93-1.42,2.11-1.45.33-.05,2.39.49,3.04.53,5.31.31,10.44-.38,15.03-3.15.87-.53,3.09-2.41,3.66-2.6s1.08-.06,1.62-.2c4.8-1.25,5.72-6.18,2.34-9.54ZM193.74,180.19c.13-.32.45-.6.75-.76,2.75-1.44,5.96-1.2,8.64-3.68.58-.54,1.13-1.36-.11-1.12-4.11,2.75-8.78,4.51-13.7,5.19l-.04,1.08c1.32.37,2.55.93,3.95.93,1.3,0,8.76-2.24,8.99-3.35.06-.28-.22-.49-.49-.5-1.16-.03-4.66,1.9-6.33,2.17-.56.09-1.11.05-1.67.05ZM92.61,176.1l-.26-.66c.19,1.46.16,4.36,2.22,3.94.19-.17-1.56-3.07-1.96-3.28ZM193.54,183.02c.98-.2,2.14-.09,3.08-.25.69-.12,1.33-.62,2.01-.82,1.69-.5,5.4-.66,5.21-2.77-1.14.47-2.52,1.32-3.67,1.68-1.48.46-3.19.84-4.76,1.3-.59.17-1.8-.16-1.87.86ZM187.88,200.59c3.81-.98,7.73-1.64,11.51-2.73,2.64-.76,12.24-4.04,13.62-5.97.19-.27.35-.59.46-.9l-.68-.67-7.69,3.13c-3.54,2.52-8.9,3.41-13.22,4.57-6.65,1.79-11.66,3.14-18.64,3.58-4.34.27-8.71.42-13.03.19-.1.61.15.32.49.41,2.04.5,4.42.37,6.43.85.68.16,1.3.65,1.88.74,3.89.62,11.58-.51,15.74-1,3.36-.39,7.16-.87,10.48-1.44,2.12-.37,3.7-1.14,5.69-.99,1.78.14,5.67-1.65,7.57-2.01l.2.6c-6.41,2.55-13.19,4.03-19.99,5.15l-.2.5c.63-.02,1.28.04,1.92,0,5.26-.36,10.02-1.46,15.05-2.73,3.16-.8,6-.94,8.75-2.76,1.41-.93,4.39-3.2,5.03-4.67.09-.22.04-.5.16-.74-1.38.39-2.83.72-4.19,1.16-2.19.7-5.39,2.38-7.47,2.63-1,.12-1.69-.23-2.55-.14-2.66.28-6.45,1.84-9.37,2.35-2.33.41-4.69.7-7.03,1.05-.21.03-.92.19-.89-.18Z"/>
  <path class="st3" d="M182.53,118.39c-.17-.03-1.51-.58-1.51-.71l1.41-1.11c-.6-.31-1.08,0-1.66-.04-.31-.03-1.58-.33-1.04-.79.06-.05.19-.03.26-.1,1.09-1.01-.99-.75-1.36-.83-1.23-.28-1.73-1.53-1.65-2.69-.64-.15-1.32.25-1.9.2-1.61-.15-2.93-4.23-3.65-5.45-.52.57-.38,1.48-.73,2.1-.17.3-.22.38-.49.13-.68-.64-.99-2.73-.9-3.64-1.3.06-.97,4.05-1.92,4.03-.52-.55-.79-1.26-.71-2.02-.37-.55-2.18,3.32-1.82,3.84-.78.25-.2-2.12-.91-1.82l-4.96,5.34-3.2,1.3c-.31-.94-1.5-1.2-1.79-1.93l1.36-2.79c-.14-.76-2.05.66-1.82-.2.46-.85,3.29-2.57,3.02-3.63l-.47-.28-1.25.78c-.15.03-.13-.2-.1-.3.16-.49,1.95-3.48,2.33-3.93.62-.74,2.14-1.17,2.11-2.43h-1.21c-.03-.19-.02-.26.1-.41.13-.17,2.49-1.75,2.87-1.98.68-.4,3.84-1.73,4-2.06.26-.54-.03-1.16-.62-1.21s-2.16.8-2.84.99c-.38.11-.3-.1-.28-.38,1.78-1.03,3.73-2.14,5.04-3.75.67-.82,1.04-1.74,1.72-2.51.93.54-.33,3.18-.1,3.43l6.66-2.62c-.48,1.05-1.26,1.9-2.22,2.52.25.38.31.23.61.21.56-.03,1.38-.31,1.92-.51,1.13-.42,2.02-1.17,3.13-1.62.22.23-1.36,2.48-.91,3.03,1.31-.78,2.84-1.19,3.82-2.44.44-.56.73-1.49,1.22-2.02.55-.6,1.79-1.23,2.53-1.61.11-.5-2.17.05-1.61-.6.67-.25,1.18-.76,1.81-1.12,1.46-.82,3.62-1.47,4.92-2.35.53-.35.99-1.28,1.43-1.59.58-.41,1.73-.56,2.47-.96.42-.22,2.16-1.66,2.38-1.65.46.33.28.92.3,1.41l2.13-1c.58-.17.16.86.3,1l1.41-.2c-.47.73-.62,1.32,0,2.02-.5,0-1.01.19-1.31.61-.2.28-1.31,2.8-.51,2.51l.62-.22c.67.35.67,1.12,1.6.95v.79s-1.06-.18-1.06-.18c-.9.53-.33,1.78-.57,2.48-.09.26-1.07.45-.44,1.14h.67c.9,2.69-1.75,2.67-2.62,4.74.01.29,1.77.59,2.12.7.71.22-.1.57-.35,1.07-.2.39-.81,2.98-1.37,2.56-.24-1.25-.43-2.26-1.81-2.65l.1-1.2-1.14-.53c.14-1.75.8-3.4,1.42-5.03.32-.84,1.09-1.43.81-2.52l-1.61.6,1.21-4.24c-.31-.08-.39.02-.6.15-.38.22-1.59,2.06-1.72,2.07-.73.08.47-1.81.5-1.92.08-.26-.05-.4-.3-.3-.11.05-1.54,1.32-1.73,1.5-.89.88-2.05,2.29-2.22,3.54-.27.3-.37-.03-.41-.3-.12-.96.74-2.06,0-2.52l-2.63,4.95c-.74.54.27-2.53-.6-2.53l-1.51,4.24c-.44.53-2.52-.17-2.73.51-.28.94,1.31.99,1.61,1.21.27.19.37,1.15.94,1.29l1.48-.99c.72,1.45-.15,3.29,1.21,4.34l-1.03.81c.03,1.51.74,2.84,1.84,3.84l.4-.21c.07-.96-.79-2.23-.82-3.03s.49-1.71.41-2.6c-.04-.48-.52-2.18-.66-2.82-.15-.69-1.19-1.99.06-2.15l1.92,2.62c.41-.44.86-.87,1.51-.8.16.64-.56,1.27-.6,1.72-.01.13.2,1.59.24,1.67.04.07.83.43,1.07.65.51.48,1.2,1.89,1.46,2.58.37,1,.46,3.82,1.88,3.27-.2,2.7,2.67,3.87,2.83,6.46h.6c.4-2.03-1.16-2.87-1.61-4.64l1.32,1.41c.32.04.34.02.3-.3-.16-1.27-2.06-4.25-2.76-5.51-.11-.19-.37-.23-.46-.41-.17-.33-.34-2.2.46-1.83l8.62,13.81c-.06.96-1.36-.78-1.61-.51.13,1.94,2.09,2.52,3.34,3.63.8.71,1.26,1.72,1.81,2.23.22.2,4.95,2.66,5.3,2.75.5.13,2.85-.08,2.65-1.01-.16-.76-1.93-.6-2.8-1.44-1.19-1.13-.59-1.02-.28-1.92.45-1.28-1.02-.53-1.62-.62-1.88-.27-.85-2.09-1.16-2.59-.83-.52-2.28-.51-2.59-1.55-.09-.31.01-.33.29-.29.45.05,2.73.63,3.02.82.4.27,1.05,1.68,1.13,2.2l2.82-1.41-.96,1.52,1.67,1.71.71-2.62c.54-.41,1.55,2,1.41,2.42.27.24,2.5-.95,3.03-.51.91.6-1.7,1.36-2.12,1.12-.18,0-.14.41-.1.5.08.19,2.93,2.65,3.13,2.73.54.22.1-1.3.14-1.66s.24-.93.34-1.3c.07-.27-.13-.57.32-.47l.69.53-.19.98.2.41,2.02.1c.53,1.31-.44,1.55-.59,2.61h3.03l-.4-2.83c.7-.11,2.43,1.04,2.22,1.7-.08.26-.71.22-.62.61l.66,1.69c.7.33,1.37-.32,1.9-.36,1.29-.1,3.53,1.83,4.54,2.72,11.58,10.15,18.45,25.18,15.94,40.78-.19,1.21-1.2,5.34-1.91,6.17-.42.49-1.49,1.01-1.43,0,.03-.43.37-2.14.52-2.52.2-.51.62-.55.92-1.1,1.41-2.64,1.41-11.7,1.1-14.85-.4-4-2.93-13.38-6.4-15.61-5.25-3.38-10.74-6.1-17.13-6.03-1.38.01-2.38.23-2.34,1.86.05,1.77,1.14,1.64,2.05,2.41,1.98,1.7,3.82,3.95,5.86,5.65l.2.61-.4.39c.44.51.78,1.11,1.21,1.62,1.12,1.33,4.63,4.12,5.22,5.28.37.72.1,1.34.38,2.04.39.99,3.07,3.97,3.85,5.24,1.4,2.27,2.81,5.4,3.61,7.9.31.98.75,1.74-.24,2.46-.86-.93-.97-2.22-1.48-3.36-1.3-2.92-3.05-7.2-4.8-9.74-.55-.81-2.23-2.33-2.3-3.17-.04-.39.24-.76.11-1.09-.14-.36-2.53-2.47-3.04-3.03-1.41-1.56-2.61-3.3-4.14-4.75-.21-.48.87-.3,1.01-.6-1.75-1.04-3.02-2.67-4.55-3.93-.71-.59-5.49-3.82-5.5-4.35,0-.18.49-.35.36-.71l-3.64.4c-.44-1.28,1.58-1.78,2.57-1.97,1.56-.31,4.02.15,4.7-1.86-1.51-.69-3.66.58-5.03-.32-1.73-1.14,2.34-.8,1.99-1.98-2.15-1.76-5.97.94-7.66-1.94,1.14-.05,2.93-.06,3.23-1.41-.37-.03-.69.2-1.06.16-.55-.05-3.71-.84-4.19-1.07-2.11-1-2.38-2.79-5.2-3.29-.35-.06-.71-.07-1.06-.05-.11.35.29,1.53-.3,1.42-.37-.07-2.61-1.95-2.72-1.82.16,1.28,1.43,2.49,1.62,3.74.11.73-.97.03-1.11-.3-.02,1.86,1.71,2.95,3.54,2.82.16-.12-2.61-2.96-1.11-3.23,2.14-.38,2.29.61,3.33,2.12l-1.61-.3c.03,1.13,3.05,1.97,3.23,2.32.2.38-.3.28-.47.33-1.29.34-1.64-.17-2.76-.63l.6,1.41c-.11.15-2.73-1.25-2.62-.91.15.14.2.33.32.49,1.3,1.81,2.11,2.16,4.23,1.32l5.75,1.63c-1.31.77-3.05.07-4.44-.1-.16.55.51.5.6.61.15.17.07.45-.3.4-.72-.1-2.11-1.08-2.93-1.32-1-.29-1.81.02-2.82-.81-.76-.63-1.26-2.02-1.83-2.62s-2-1.18-2.53-2.11l-.42.61c.31.51.51,1.09.84,1.59.29.44,1.42,1.54,1.5,1.74.22.53-1.1.26-.8.9,2.44,1.71,4.83,2.87,7.87,3.04l-1.89.6-.14.5,2.43,1.71c-1.91.27-3.59-.49-5.45-.4.29.55,1.23.66,1.21,1.41-1.51-.28-3.64-.91-4.85.2.39,0,1.8.58,1.81.91.03.83-2.46-.54-2.72-.51-.88.12,1.07,1.3.19,1.41-.14.02-2.33-.99-2.65-1.18-.85-.49-1.5-1.22-2.39-1.64-.78.04.51,2.02.71,2.32.3.45,1.07.81,1.01,1.52-1.04-.3-1.97-1.28-3.03-.51l1.41,1.51c-.88.16-1.72-1-2.52-.81s.71,1.14.7,1.41c-.92.14-1.84-.33-2.74-.22-.4.05-.21.45-.58.44-.57,0-1.88-1.03-2.33-.42-.36.48,1.18,1.01,1.33,1.21l-.12.61c-2.05-.48-3.92-1.59-6.06-1.62-.48.41,2.47,1.66,2.83,1.62.15.61-.46.43-.86.35-1.62-.31-5.48-2.89-6.68-2.59l-.24.62c.28.66,1.93.85,1.72,1.81-.94.19-1.73.17-2.67-.05-.79-.19-2.51-1.28-3.18-.86-.22.14-.32.64-.73.89-1.21.72-3.87-1.75-5.33-1.39l.11,1.61c-.18.17-.42.33-.66.37-1.57.24-5.01-4.32-6.32-5.32l1.71-.63c.8.47,2,1.09,2.87.47.11-.08.86-1.12.88-1.26.12-1.05-1.08-.56-1.69-.74-.68-.2-.81-1.56-.74-2.18,2.43,1.17,4.83,2.41,7.05,3.96.43.3,1.79,1.61,1.98,1.67.77.22,1.04-.34.83-1.04-.19-.64-3.83-3.16-4.62-3.66-3.88-2.46-8.35-4.27-12.72-5.66-1.07-.34-4.29-1.46-5.17-1.52-.51-.04-.95.1-1.28.5.01.5,4.52,1.68,5.3,1.97,1.5.55,6.05,2.19,7.09,3,1.75,1.36-2.25,3.22-3.37,2.98-2.54-2.01-5.22-4.52-8.04-6.11-.63-.36-2.22-.88-1.5.29.14.23,3.78,2.5,4.44,3.03.33.27,3.51,3.05,3.34,3.22l-2.22.32c-.38-1.1-1.04-1.09-1.62-1.62-1.35-1.22-2.46-2.86-4.09-3.78-.32-.18-1.8-1.04-1.76-.26.05.97,1.29,1.19,1.93,1.71,1.2.99,2.2,2.26,3.33,3.33-.19.32-.44.24-.7.31-2.55.65-8.3.69-9.44-2.28-.83-2.17,1.74-1.6,1.98-3.48-.09-1.18-2.92-2.46-2.73-3.19.1-.37,1.23-.92,1.6-1.25,2.47-2.19,3.47-3.03,6.25-4.86.35-.23.86-1,1.15-1.06.72-.14,2.14,1.02,2.58,1.59.38.49.63,1.79,1.33,1.28.02-.2-.17-2.32.4-1.7l1.12,2.62c.59.29.1-1.5.4-1.61l1.52,3.03c.95.09.35-1.54,1.21-1.41l1.32,2.82.51-1.21c1.43-.08,1.07,2.7,2.02,3.13.33.15.88.03.99.12.27.22.22,3.32,2.44,2.2.43,2.04,1.92,2.94,2.93.61.48.47.21,1.06.53,1.69.16.31,1.18,1.28,1.52,1.31.82.04.14-1.29.78-1.19.85.14,1.48,2.57,3.2.82,1.07,1.49,1.75.19,3.18.07.41-.7-.35-1.12-.62-1.7.22-.21,1.33,1.05,1.77,1.16.68.17,1.6-.04,2.34.23.91-.62.37-2.12,1.65-2.22.99-.07,1.6.7,2.5-.31.23-.26.53-1.33.84-.75.03.37.18.71.36,1.02.78,1.33,1.11.54,2.34.68.97.11,2.04.99,3.15.79.08-.38-.19-.49-.42-.69-.78-.7-2.28-1.16-3.31-1.94-.24-.18-1.93-1.6-1.72-1.81l3.94,1.39.27-.44-2.4-2.55c1.19.1,2.34.22,3.54.21.94-.01,1.78-.28,2.83-.22.49.03,3.14.87,2.92-.09-2.47-1.74-5.84-.42-8.38-1.92l.2-.4c4.74.72.08-1.61-1.51-2.13-1.15-.38-2.25-.22-3.44-.3l1.62-1.01-3.84-.61c-.08-1.14,2.59-.36,2.83-.61l-.12-.62-2.71-.59.81-1.41c-1.16-.12-2.62.17-3.74,0ZM184.85,90.52c-.41-1.43-2.17-.09-2.42.91.32.39.21.25.5.11.64-.32,1.08-1.11,1.91-1.02ZM184.05,91.73c-.35.08-2.61,1.19-2.22,1.61,1.82.45,2.81.73,2.22-1.61ZM178.19,96.38c.33.37,2.14-1.66,2.42-1.92.02-.67-2.11.34-2.39.33l-.02,1.59ZM179.2,96.58c1.16.6,2.45.42,1.92-1.22-.22-.3-.33-.1-.57.04-.17.1-1.4,1.1-1.35,1.17ZM174.76,96.58c.23,1.47-.02,3.47,1.31,4.44,1.75,1.28,1.14-2,.66-2.88-.33-.62-1.49-.95-1.98-1.56ZM183.64,97.79c-.29.33.31,5.41.65,6.11.37.75,1.03.72.93-.11-.12-1.01-.86-2.59-.79-3.69.04-.65.63-.82.6-1.17-.04-.45-1.22-1.34-1.38-1.15ZM166.88,99c-1.13-.14-2.01.66-3,1.04-.22.35.43,2.39.68,2.39.48-.28,2.68-3.1,2.32-3.43ZM190.87,100.26c-.21-.12-.63,0-.96-.15-.5-.22-.57-1.16-1.21-1.11-.34.39.58,4.39.86,5.1.16.4,1.14,2.36,1.35,2.63.13.17.41.26.61.35.37-.48-1.34-4.25-1.57-4.99-.04-.12-.2-.86.16-.56.79,1.57,1.95,2.75,2.38,4.49.15.61-.25,1.68.65,1.67.94-1.38.03-2.21-.31-3.42-.18-.63-.17-1.45-.39-2.03-.09-.25-1.42-1.88-1.56-1.97ZM181.63,100.42c.03,1.03.14,5.68,1.71,5.45.38-.24.19-.32.18-.56-.06-1.13-.78-2.75-1.25-3.81-.13-.3-.34-.97-.64-1.08ZM185.86,105.46c-1.08-.1-.3,2.32-.04,2.77.55.95,1.92.74,1.27-.26-.51-.78-1.34-1.2-1.22-2.51ZM191.52,114.55c.25-1.33-.75-2.14-1-3.35-.06-.67,1.3-.32,1.19-.98-.82-1.05-1.28-2.51-2.12-3.54-.23-.28-.46-.68-.89-.62.78,2.84.11,6.61,2.82,8.48ZM197.76,116.15c.25-1.11-.43-1.98-.7-3-.19-.73-.08-1.44-.42-2.21-.24-.55-2.01-2.96-2.71-2.44.32,1.16,1.15,2.07,1.57,3.17.59,1.56.59,3.38,1.76,4.69l.49-.21ZM196.77,117.38l-3.53-8.48c-.42.27-.23.47-.22.8.06,1.59,1.43,6.44,2.73,7.39.36.26.56.36,1.02.29ZM200.55,110.78l-1.15-1.07c-.2.73.55,1.14.61,1.72.06.63-.75,0-.6.59.21.86,1.48,1.72,1.72,2.53.36,1.22.1,2.53,1.13,3.72.48.57,3.18,1.74,4.01,1.94-1.28-1.73-3.33-2.5-4.25-4.53-.63-1.39,0-1.84-.24-2.78-.03-.12-1.1-1.94-1.23-2.11ZM202.22,120.41c-.46-1.33-1.46-2.74-1.93-4.03-.28-.79.03-1.89-1.1-2.43.02,1.44-.37,2.43.36,3.78.22.4.57.64.82,1,.52.75.59,1.55,1.85,1.68ZM191.11,119.2c-.19-.46-2.56-2.48-2.83-2.22.54,1.67.75,3.23,2.83,2.22ZM196.97,125.66c.25-.23-.74-1.06-1-1.13l-.28-.04c-1.23.72.44,1.14,1.28,1.18ZM233.18,127.22c-.37-.44-.36-1.6-1.17-1.93-.28.4-1.84.78-1.72,1.27.04.17,1.05.69,1.31.92,1.27,1.1,1.95,1.81,1.93,3.62.21.2,3.83-.9,1.04,1.52-.13.93,3.33.58,3.59,1.92l-1.21.4,5.05,2.34c.13-.14.33-.27.38-.46.14-.54-1.64-2.96-2.09-3.49-1.04-1.24-2.89-2.85-4.14-3.94-.67-.58-2.57-1.7-2.97-2.17ZM207.88,134.54c-.71-.93-2.08-1.25-3.09-1.86-.65-.39-1.42-1.24-1.96-1.48-1.35-.59,0,1.37.3,1.72,1.43,1.63,2.61,1.79,4.75,1.61ZM150.52,134.95c-.94.21-1.6-2.28-2.53-1.42-.62.59.21,1.95.91,2.14.52.14,2.04-.31,1.62-.72ZM146.01,133.97c-1.29.26.43,2.59,1.49,1.89.36-.31.18-.34,0-.61-.25-.36-1.04-1.37-1.49-1.28ZM187.28,134.95c-.06-.45-1.62-1.22-1.82-1.01v1.01s1.82,0,1.82,0ZM203.43,135.76c-.41-1.66-2.23-1.54-3.64-1.61-.45,1.35,3.05,2.2,3.64,1.61ZM188.87,140.22c-.2-.32-3.41-1.05-3.96-1.6-.75-.22-.7.66-.32.99.18.15,2.8,1.33,3.04,1.37.54.08,1.64-.13,1.24-.75Z"/>
  <path class="st3" d="M123.26,146.87l-2.22-4.24c3.53-.36,4.16,2.2,5.49,4.71.18.33.58.55.75.87.35.65.33,1.41.53,2.1l.21.2c.98-.75,1.72-.1,2.13.9.29.71.21,2.56,1.21,2.01.68-2.36,1-.75,1.74-.53.35.11.79-.02,1.12.09,1.07.35,1.8,1.34,2.97,1.16.29-.26-1.23-1.53-.72-2.23.57-.79,2.73.94,3.55.82.17-.17-.83-1.95-.3-2.42,1.34.85,1.45,2.61,2.45,3.61.62.62,1.58.88,2,1.84l.68-1.5c.22-.58-.89-2.83-.78-2.94.56-.52,1.51,1.82,1.83,2.11.6.56,2.08.76,2.72,1.52.58.17.13-1,.39-1.42h.91s.09-1.62.09-1.62l.9-.16c.28.71,1.61,4.2,2.35,4.21.51-1.64-.34-3.06-.5-4.65l.62.12.5,1.5c1.14-.16,1.03-.63,1.41-1.42.14-.3-.04-.5.49-.4-.08,1.48-1.24,2.83-1.01,4.34.04.28-.11.35.31.3.38-.07,1.39-1.2,1.71-1.58.74-.85.71-1.58,1.95-2.05.73-.27,1.78-.19,2.57-.43.85,1.94.98.55,1.97-.07.39-.25,1.12-.5,1.6-.52.32.32-1.2,2.24-1.45,2.69-.47.86-1.12,2.08-1.48,2.97-.1.26-.53,1.11,0,1.21.11.02,1.92-.8,2.11-.92.84-.51,1.52-2.03,2.43-2.43.22-.1.66.52,1.06.28,1.47-.42,4.58-2.54,5.93-2.59,1.04-.04,2.65,2.44,4.02,2.41,1.05-.02.8-2.33,1.61-2.8l5.3,1.76c1.45-.69,2.61.16,4.09.23.45-1.7-1.94-1.55-2.69-2.21-.06-.05-.79-1.36-.74-1.43,2.82-.44,5.24,1.47,8.08,1.21-.19-1.11-1.76-1.81-1.83-2.92-.03-.43.02-.27.31-.31.72-.11,1.85-.05,2.53.2.36-1.34-.66-1.73-1.01-2.83.29-.06.5.06.75.16,1.31.49,6.08,3.01,7.02,3.88,1.15,1.06,2.06,2.78,3.64,3.43.66-1.39-.92-2.15-.92-3.33,0-.31-.05-.35.31-.3l9.53,4.4.87-.46-2.01-2.23.31-.5c.21-.04,3.39,1.78,3.8,2.05.86.58,1.62,1.73,2.76,1.99.35-.38-1.67-4.28-.41-4.85.35.89.91,1.7,1.45,2.49.24.34,3.12,4.54,3.39,4.18l-1.21-3.94.5-.3,6.16,7.57h.61c-.05-.95-.9-2.22-1.02-3.03-.06-.39.11-.4.41-.21.98.63,1.81,2.26,2.72,3.14,2.07,2.01,3.23,2.84,4.84,5.46.37.61.92,1.29.92,2-.87-1.12-2.03-.96-3.1-1.44-1.34-.61-2.92-2.43-4.27-3.2-.04.97,1.36,1.91,1.46,2.76.03.24-.15.44-.15.67-.68.5-4.87-4.63-5.56-5.24-1.4-1.24-3.04-2.1-4.64-3.03-.33.2.07.45.2.61.56.66,4.42,4.95,4.34,5.35-.23.26-.24.37-.61.21-1.4-.62-3.55-3.11-4.98-4.11-.29-.2-.56-.38-.88-.54-3.34-1.63-1.05.46-.31,1.52.26.38,1.46,2.08,1.12,2.41-.22,0-.45.03-.66-.04-.23-.08-3.8-2.71-3.97-2.9-.24-.26-.26-.66-.51-.91-1.31-1.3-3.7-3.55-5.56-3.32,1,1.98,2.97,3.03,4.04,4.85.12.66-.83.1-1.02,0-.85-.41-4.05-3.13-4.54-3.09l-.67.66c0,.49,2.2,2.24,2.56,2.86.82,1.45-1.62.61-2.26.24-.78-.46-1.81-1.57-2.69-2.15-1.48-.97-2.98-1.65-4.71-2.06-.06.06.6,1.47.72,1.61.49.6,1.85.71,1.91,1.62-.12.11-1.5-.1-1.87,0-.19.05-.24.43-.47.58-1.83,1.14-3.71-.12-5.38.07-1.87.21-3.95,1.15-5.55,1.94-.77.38-2.25.77-3.08.55.63-.44,1.13-.82,1.54-1.49,1.07-1.71.1-1.38-1.15-.74-2.56,1.3-4.38,3.18-7.59,3.52-.29.03-.78.21-.68-.28.76-.9,1.91-1.58,2.32-2.73-.89.08-1.48.89-2.21,1.23-.9.41-5.06,1.86-5.86,1.92-.14.01-.33-.15-.51-.12.53-1.03,1.86-1.34,2.42-2.52.03-.16-.19-.12-.3-.1-1.3.22-3.67,2.09-5.09,2.38-1.03.21-2.36-.15-3.34.09-.73.19-1.19,1.21-2.08,1.35-3.23.51-5.72-1.06-8.76-1.39l-.12.6c-1.13.23-3.23-.85-4.27-1.39-3.18-1.64-7.22-5.21-10.57-6-.49-.11-.92-.13-1.42-.1,1.28,1.94,3.5,3.05,5.25,4.44-1.3-.01-2.4-.84-3.5-1.45-2.85-1.59-5.32-3.74-8.12-5.41-.32.55.13,1.26.23,1.79.04.22.22.6-.22.42-.26-.1-1.68-1.15-2.02-1.42-2.32-1.78-6-5.92-8.53-6.62-.3-.08-.54-.16-.46.26l5.65,6.56c-2.85-.85-4.54-3.47-6.77-5.25-.36-.28-2.65-2.02-2.82-2.02-.36,0-.24.24-.1.49.73,1.27,3.08,4.11,3.34,5.15.07.27,0,.61-.21.61-1.09-.02-4.51-6.57-6.68-7.05-.3-.07-.35-.02-.28.28.15.64,2.62,4.15,2.41,4.35-2.37-.47-3.97-3.87-6.36-4.24-.28-.04-.38,0-.3.3.25.85,1.38,2.03,1.41,2.63.02.32.03.35-.31.3l-3.64-2.02-.4,1c-.3,0-3.6-3.57-4.47-4.01-.61-.31-1.4-.24-2.15-.47s-4.98-2.4-5.4-2.88c-.22-.25-1.17-1.56-.5-1.52s1.49.46,2.06.77c.97.54,3.14,2.81,3.7.85h.29c1.38,1.2,5.38,4.77,7.25,3.6,1.67-1.05-1.6-3.15-2.3-3.9-.57-.62-1.47-1.69-1.82-2.43-.13-.28-.31-.17.11-.5.36.44.92.39,1.38.63,3.17,1.62,5.13,4.61,9.02,4.73,1.61.05-.92-2.48-1.26-3-.17-.27-.64-1.03-.46-1.35.49.17,1.08.43,1.5.72,1.01.7,2.21,2.33,3.13,2.93.61.4.88.19.88-.51,0-1.99-3.84-5.83-5.6-6.8l.49-.98c.87.86,1.85,1.45,2.73,2.31,1.65,1.63,2.85,3.2,4.63,4.87,1.09,1.03,1.61,3.03,3.65,2.71ZM117,146.06c-.18.64.82,1.94,1.32,1.22l-.19-1.04-1.13-.18ZM202.83,155.15c.15-.14-.75-1.23-.9-1.42-1.35-1.59-3.34-3.62-5.56-3.63-.21,1.06.98,1.25,1.71,1.82,1.5,1.18,2.7,3.1,4.75,3.23ZM160.11,152.81c-.82.33-2.83,4.04-2.69,4.81.05.27.25.57.47.75.77.06,2.51-3.98,3.25-4.61.04-.52-.52-1.14-1.02-.94ZM165.67,157.77c1.3.28,2.09-.63,3.09-1.05.71-.29,2.82-.84,3.07-1.38.59-1.3-.99-.97-1.76-.75-.54.15-5.25,2.36-4.39,3.18ZM176.6,157.34c1.46.04,2.66-.76,4.14-.96.42-.06,2.3.13,2.29-.33-1.01-.88-.44-1.66-2.06-1.46-.99.12-4.06,1.08-4.51,1.97l.14.78Z"/>
  <path class="st3" d="M131.54,79.21l1.21.2-.2-1.21c1.14-.15,2.31.2,3.14,1,.43.41,1.98,3.11,2.72,2.63l.1-1.01c.88.82,1.75,1.85,2.13,3.03l.83-1.39c.14-.08.29-.03.43.01.19.06,2.54,1.5,2.76,1.69.48.42.76,1.1,1.32,1.5.67.48,2.37.8,1.41,2.02-.71-.54-1.44-.47-2.13-.7-.73-.24-1.3-1.37-2.01-1.73-.36,1.52.81,2.18,1.21,3.43l-3.03-1.01c-.21.21,1.14,2.89-.22,2.54-.18-.05-1.54-1.36-1.57-1.46-.28-.8.41-1.9.27-2.52-.03-.15-1.58-2.42-1.71-2.5-1.16-.76.19,2.15-.51,2.12-.59-.42-.75-1.34-1.23-1.8-.41-.4-1.02-.46-1.4-.82-.62-.57-.61-1.88-1.51-2.02-.16.19.15,2.25.3,2.63.31.8,1.32,1.02,1.11,2.02-.79-.19-1.09-.56-1.51-1.21-1.28.86,1.97,3.01,1.51,3.43-.9.32-1.13-.9-1.82-.7.19.42.13,1.07.39,1.43s.86.33,1.03.64c.81,1.48-1,3.17.71,3.89.41.17.29-.28.3-.5.03-.39-.16-1.39.32-1.51,1.62.21,2.41,2.1,4.19,1.56.39-.12.5-.65,1.05-.76,1.75-.35,2.61.9,3.37,2.28.57,1.04.6,1.95,1.07,2.96.54,0,.62-3.04.51-3.49-.04-.18-.88-.51-1.01-.85.59-.33,1.49-1.17.46-1.47-.46-.13-2.24.21-2.08-.54.59-.63,1.14-1.32,2.1-1.3.43.14.23.9.52,1.11.21.15.81.08,1.17.24,1.22.54-.62,2.03-.35,2.27.95-.07,1.69-.05,2.42.61-.05-.76.15-1.66-.14-2.38-.09-.23-.39-.25-.47-.39-.38-.72-.27-1.61-1.41-1.68.12-.45.73-.46,1.12-.42.87.09.62.54,1.02,1.02.48.58,1.16.95,1.1,1.83.28.3.37-.02.4-.3.07-.55-.07-1.59.16-2.07.12-.26,0-.32.44-.25.47,1.09.77,2.43,1.26,3.49.28.59,1.27,1.15.86,1.96l-1.31-1.01.81,5.45c-2.6-1-.96.23-.43,1.34.86,1.81-.03,2.41-.48,4.12s-1.07,3.14-1.47,4.59c-.34,1.22.2,1.85-1.39,2.65s-1.11-1.6-1.65-2.74c-.42-.88-1.43-1.56-1.94-2.31-.92-1.34-1.41-3.14-2.04-4.62-.91.88-.63,2.11-.91,3.23-.93-.13-1.25-1.25-1.42-2.02-.9.2-.84,1.2-1.24,1.88-1.23,2.1-3.35,4.95-5.23,6.48-.69.56-3.49,2.63-4.15,2.91-1.25.54-4.62.07-5.87-.53-.19-.09-.44-.2-.46-.44,1.65.35,4.77-1.63,5.25-3.14.09-.28,0-.35-.29-.29-1.12.26-2.39,1.31-3.75,1.2-.07-.96.59-2.01,1.56-2.19.6-.11,1.1.29,1.63.32,1.67.11,2.68-.53,4.23-.91.43-.11.92.03,1.32-.09.66-.19,3.15-3.01,2.67-4-2.07.94-3.54,3.12-5.77,3.55l-.31-.74h-1.69c-.34-1.06,1.33-2.07,2.14-2.15.38-.04,1.03.38,1.31.02.97-1.28-.61-1.43-1.64-1.29.04-2.21,2.72-2.25,4.31-3.27.98-.63,2.05-1.64,2.36-2.79l-2.12,1.21c-.88-.7.85-1.16,1.31-1.52.53-.41.91-1.36,1.91-1.3,2,.12,0,1.99-.64,2.57-.12.11-.58.14-.05.36.31.13,3.48-.67,4.24-.31-.43-1.75-1.84-2.89-2.42-4.56-.29-.2-1.24.36-1.63.21-.31-.12-1.31-1.37-1.91-1.5-.18.91-.55,1.92-.1,2.82l-1.52-.4c-.37.02-.07,1.32-.09,1.72s-.12.73-.22,1.1c-2.47-.33-1.54-3.11-1.95-4.81-.32-1.3-1.39-3.47-2.05-4.61-.72-1.25-.63-3.16-.23-4.51.39.21.63.52,1.11.61.61.11.1-.26.1-.31v-5.55ZM142.39,93.21c-.11-.13-.46-.26-.62-.23l-1.14.87,2.62,1.92c.17-.18-.64-2.31-.86-2.56ZM148.1,98.6c-.37-.35-1.68,1.71-1.99,1.91.34.24.75,1.81.97.81s.61-1.75,1.02-2.72ZM137.39,101.83c-2.06.25-3.11,1.09-3.23,3.23.55-.81,2.71-2,3.08-2.63.13-.21.22-.29.14-.6ZM145.87,103.24c-.51-.08-.43.09-.4.5.04.69.49,1.4.51,2.12l.51-.49-.61-2.14ZM130.73,113.54c.39.3,3.46-1.81,3.93-2.22.82-.71,2.05-2,2.32-3.03-1.19.74-2.09,2.12-3.24,2.92-1.05.72-2.53.89-3.02,2.33ZM133.15,109.91c-2.19-.22-3.68,1.57-4.44,3.43.38.06.59-.03.91-.19.43-.22,2.25-1.71,2.72-2.12.16-.14,1.03-.92.8-1.11Z"/>
  <path class="st3" d="M254.33,95.37l-.19.88c.72,1.18,3.45-1.24,4.03-.68.47,1.68-3.02,1.55-2.79,2.69.18.86,1.93.35,2.55.19,1.49-.4,2.81-1.65,4.28-1.37-.1.56-2.48,2.28-2.02,2.73,2.02.24,3.64-1.45,5.65-1.21.02.36.06.62-.2.91-.71.8-4.41,1.37-3.4,3.1,1.21.77,4.31-1.51,5.54-1.59.42-.03.74.14.69.6-1.03.84-4.13,1.91-4.34,3.21-.04.24.03.5.24.65,1.5.94,4.6-2.95,6.53-2.24.09.3-.46.73-.66.87-.83.58-4.31,2.11-4.56,2.91-.8,2.55,2.94.14,3.93.07,2.85-.21-1.22,3.21-1.43,3.84-.23.69.05,1.81-.16,2.17-.05.08-1.29,1.3-1.38,1.34-.46.24-1.11.22-1.6.42-1.05.43-1.99,1.49-3.3.52-1.09-.81.55-2.28.43-2.92-.44-.98-1.78-.28-2.52.04-.46.2-2.02,1.42-2.39.85-.19-1.37.96-1.35,1.78-1.86,1.26-.78,2.97-1.58,2.92-3.27l-.36-.44c-.83-.38-3.42,2.29-4.64,1.93-.39-1,3.03-2.52,1.82-3.34-.92-.63-3.87,1.56-4.04,1.43-.96-1.26.17-2.63.92-3.73.39-.57,1.92-1.47.64-2.09-.39-.19-1.87.22-2.31.42-.92.41-1.63,1.59-2.89,1.37-1.42-1.02,3.34-3.7,1.29-4.73-2.26.9-4.11,2.69-6.4,3.38l-.74-1.1c-1.12-.71-5.1,2.62-6.16,3.15-.77.39-.33-.59-.11-.92.4-.58,3.63-3.17,4.25-3.42,1.75-.71,1.92-.9,3.49-1.76,1.23-.68,4.05-2.2,5.26-2.64.31-.11,2.23-.46,2.35-.35ZM267.41,111.17c-.8-.78-3.29.58-4.15,1-.04,1.13-.7,2.7,1.01,2.14.74-.24,4.12-2.18,3.14-3.14Z"/>
  <path class="st3" d="M235.95,107.89c-.25,1.13-2.05,1.29-1.83,2.72.32,2.06,3.73-1.2,4.34-1.52.37-.19,1.62-.68,1.51.09l-1.56,2.28c1.02,1.81,3.78-.62,5.16-1.11,1.2.46,1.13,1.36.51,2.34-.28.45-2.44,2.31-1.47,2.99s2.98-1.97,3.94-1.73c1.07.27-.9,1.79-.99,2.02-.42.97-.06,1.52.99,1.41.74-.08,2.99-2.11,2.71-.15-.15,1.08-1.26,1.09.44,2.07-1.87,1.6-2.76,3.73-5.07,4.82-.81.38-3.54,1.43-3.18-.33.22-1.09,1.63-.96,1.39-2.27-.33-1.77-3.66,1.31-4.36.31-.78-1.11,3.12-3.58,1.52-4.37-.93-.46-3.13,2.21-3.83,1.72-.48-.89.95-2.05,1.01-2.74.23-2.46-4.49,1.27-5.16,1.73-1.04-1.47,1.19-3.04.49-4.63-1.31-.1-2.14,1.17-3.32,1.58-.46-.37-.57-.82-.41-1.39.29-1.07,4.21-4.28,5.3-5.01.57-.38,1.13-.95,1.88-.84ZM245.79,120.25c-.16.04-1.38,1.21-1.46,1.37-.28.53,1.03.87,1.37.79.31-.08,1.75-1.34,1.72-1.69-.09-.46-1.31-.55-1.63-.46Z"/>
  <path class="st3" d="M125.48,118.8l-2.02,1.31c-1.48.28-2.8,1.24-4.34,1.11l-.1.4c1.21.54,2.23,1.35,3.58,1.57.28.05.68-.21.87-.07.22.17.2.77.35,1.08.39.82,1.81,1.26,2.67,1.27.11.5-.59,1.54.14,1.78,1.26.42,2.27.03,3.39.03s6.06.47,6.43.38c.3-.07.47-.53.75-.67.43-.21,1.12-.17,1.65-.37,1.05-.4,2.44-1.8,3.19-2.67.62-.72,1.1-2.46,2.17-1.96.7.33-.64,1.14-.96,1.56-1.1,1.44-2.37,3.7-4.28,4.21-1.31.35-1.41-.21-2.24,1.22-.37.15-2.87-.77-3.7-.86-3.07-.31-6.48.33-8.76,2.5.45,1.18,1.24.18,1.77-.05,2.95-1.32,4.92-1.79,8.13-.96.38.1,1.21.35,1.41.71-1.64.47-3.3.87-4.9,1.46-.93.34-5.33,2.6-5.69,2.58-.5-.03-1.32-.63-1.93-.61-.23-.91,2.29-1.02,1.4-1.71-2.44-1.21-5.58-1.99-7.81-3.5-.27-.18-2.34-1.73-1-1.42,2.07.48,4.79,1.83,6.92,1.18.23-.07.6-.05.29-.41-.37-.43-2.37-.78-3.07-1.07-.91-.37-1.77-1.15-2.73-1.52-1.4-.54-3.23-.86-4.7-1.26l2.02-.91c-.93-.64-1.41-1.87-2.01-2.83.3-.5.69-.04,1.03.18,2.78,1.78,5.1,4.81,8.66,4.77l-2.93-2.02-1.92-1.92c-.14-.65,1.1-.45,1.47-.55,1-.26,2.44-.63,2.98-1.57-1.36-.44-3.26.42-4.6-.15-.23-.1-.49-.2-.25-.45.15-.15,3.09-.64,3.53-.62,1.54.06,3.47,1,5.15.82ZM125.48,127.48c-.75-.38-2.09-.16-1.81.9.17.67,1.86-.22,1.81-.9ZM123.26,130.3l-.52-.99-1.29.69,1.82.3Z"/>
  <path class="st3" d="M140.16,135.01c.23.2.86,1.55,1.27,2.05.52.64,1.35,1.11,1.78,1.65.56.68.88,1.86,1.44,2.6.48.62,2.25,1.76,3,1.81.23.02.41-.07.63-.1-.28-1.35-2.15-1.44-.9-3.02,1.09-1.36,1.6-.67,2.81-.61s2.82-.4,3.8-.17c.66.15,1.21,1.06,1.86,1.17.6.1.2-.92.8-.81.48.69,2.94,5.2,2.53,5.65-.9-.1-1.34-.98-2.08-1.45-.68-.44-2.98-1.69-2.88-.16.28.51,3.76,2,2.94,2.82-.99-.1-1.63.4-2.53-.2s-3.19-3.36-3.88-3.6c-.52-.18-.96.11-.77.57s3.02,2.52,2.53,3.02c-1.29-.11-2.34-.97-3.52-1.42-.78-.29-1.72-.43-2.53-.7-1.7-.57-.98-.6-2.93-.68-1.62-.07-2.76-2.29-4.28-3.21s-2.4-.74-3.81-1.24c-2.3-.82-1.24-2.1.31-2.95.82-.45,3.67-1.66,4.39-1.04ZM138.63,137.55c.48.05.99.93,1.38.33-.43-1.13-1.07-2.1-1.38-.33Z"/>
  <path class="st3" d="M107.7,122.03c-.56,1.12-.74,2.94-2.11,3.24-.96-.27-2.23-.35-3.14.09-.1.05-.34.3-.09.3l1.3.82c.3.43-2.16,2.17-2.62,2.33-.49.17-3.22.61-3.41.93-.12.19.05.76-.13,1.18-.69,1.57-4.64,1.46-5.11,2.26-.18.31.16,1.1-.43,1.69-.46.46-1.66.57-2.33,1.3s-.8,2.61-2.32,2.63c-.29-.29.15-1.98.38-2.29.16-.22.85-.24,1.21-.45.29-.17,2.13-1.42,2.2-1.54.29-.5-.3-1.42-.12-2.03.09-.33,2.17-2.31,2.49-2.29l2.73.73c.16-.85-.6-2.7.4-3.14.24-.1.57.28.92.31.83.06,2.07-.64,3.12-.2-.03-1-.71-2.1.09-3.04.1-.12,1.78-1.08,1.92-1.12.45-.11.86.21,1.59-.02.8-.25.73-.81,1.3-1.13.28-.16,1.99-.72,2.17-.56Z"/>
  <path class="st3" d="M131.39,136.71s-.04-.27-.21-.33c-.24-.08-1.22-.36-1.41-.39-.8-.09-1.91.4-2.79-.23-.55-.72,1.39-1.75,1.87-1.99,1.52-.76,5.68-2.34,7.26-2.45.98-.07.81.39,1.28.9.36.38,1.04.41.79,1.18-.13.41-5.6,2.2-6.18,3.33-.24.08-.38.07-.61-.03Z"/>
  <path class="st3" d="M163.21,146.22c-.17.1-.45.07-.63,0-.57-.21-3.89-5.59-4.22-6.5-.11-.3-.25-.23.14-.53l1.82.8,1-.8c.76.72,5.25,5.03,4.66,5.86-1.06.85-2.29-.42-2.78,1.16Z"/>
  <path class="st3" d="M77.21,154.34c-.31-.3,1.8-4.08,2.06-4.71.5-1.19,1.78-5.56,2.37-6.27.16-.19.47-.08.63-.27.23-.27,1.05-1.67,1.31-1.68.67-.01-.15,1.67-.27,1.95-.99,2.38-2.46,4.94-3.61,7.29-.23.47-1.66,4.48-2.48,3.68Z"/>
  <path class="st3" d="M167.08,116.78c-.79,1.82-1.83,3.11,0,4.84-2.23.79-1.79-.26-2.66-1.68-.34-.56-1.1-.81-.97-1.54.76.06,3.14-2.07,3.63-1.62Z"/>
  <path class="st3" d="M209.43,145.32c-.81-.67-1.26-.84-2.05-1.69-.15-.16-.91-.25-.39-.61,1.32-.92,4.78,2.52,5.51,3.57s1.05,1.97-.52.92c-.94-.63-1.72-1.51-2.54-2.2Z"/>
  <path class="st3" d="M250.09,125.66c.64,1.95-2.11,1.37-3.34,1.41-1.07.03-3.92.72-3.41-1.22.88-.21,1.55-.92,2.53-.49-.38,2.28,4.02.15,4.22.31Z"/>
  <path class="st3" d="M94.58,149.69c.61.49,1.93-.16,2.02-.11.14.06,1.96,1.82,1.82,1.93-1.33-.25-2.12-.63-3.23.41.31-2.39-2.71-.92-3.64-1.51-.2-.13-.24-.28-.2-.51.46.03.89-.02,1.33-.19.73-.28,2.37-2.2,1.9-.02Z"/>
  <path class="st3" d="M142.21,114.51c-.03.06-.71.43-.88,1.04-.53,1.83.39,2.33,1.52,3.44-2.21.87-2.42-1.52-3.79-2.72-.06-.66,2.48-1.88,2.88-2.53l.27.77Z"/>
  <path class="st3" d="M206.06,148.88c-.62-1.66-2.39-2.59-3.64-3.73,1.38-1.72,2.81.69,3.73,1.72.15.16.51.24.62.41.17.26-.21,1.97-.71,1.61Z"/>
  <path class="st3" d="M238.03,162.56l-3.09-4.38c.41-.38,2.8,2.37,3.25,2.71.79.59,1.89.62,1.72,1.54-.25,1.37-1.11.64-1.88.13Z"/>
  <path class="st3" d="M216.56,147.87c-.58.44-2.3-1.66-2.73-2.01-.93-.76-2.5-1.31-2.72-2.63.13-.12,1.12.24,1.35.36.99.53,2.74,1.93,3.39,2.88.28.41.36.99.71,1.4Z"/>
  <path class="st3" d="M218.58,146.87c2.45.18,4.68,1.73,6.06,3.73-.31.42-.31.26-.67.07-.84-.46-1.73-1.33-2.58-1.86-.25-.16-3.33-1.43-2.81-1.93Z"/>
  <path class="st3" d="M253.32,120.61c.09.42-.22.46-.46.65-.65.51-2.57,1.45-2.92,1.82-.2.22-.23.67-.25.96-.36.05-.74-.07-.91-.41-.83-1.71,3.35-2.97,4.54-3.03Z"/>
  <path class="st1" d="M126.49,117.18c-.46.61-3.67-.72-4.37-.99-.29-.11-.59.19-.48-.42.91.15,1.73-.29,2.63-.12.36.07,2.55,1.08,2.21,1.53Z"/>
  <path class="st3" d="M89.93,150.5c.03.35.03.62-.19.92-.07.1-1.73,1.54-1.84,1.6-.27.13-.52.13-.8.1-.02-.81.75-1.4.4-2.22l2.42-.41Z"/>
  <path class="st3" d="M139.41,129.49c-.06-.27.08-.5.34-.58.4-.12,3.83.73,3.7,1.29-1.12,1.2-2.77-.38-4.04-.71Z"/>
  <path class="st3" d="M200,145.65c-1.38.91-2.84-.37-4.24-.7.23-.33.55-.29.9-.31.39-.03,3.9.23,3.34,1.02Z"/>
  <path class="st3" d="M106.09,133.94c.14-.14,3.4,1.16,3.65,1.5.31.43.33,1.24-.32.93-.88-.43-2.05-1.21-2.86-1.79-.25-.18-.56-.21-.47-.64Z"/>
  <path class="st3" d="M188.65,147.51c.1.17.03.38.04.57l-2.41-.21v-1.6c.36.14,2.29,1.11,2.37,1.25Z"/>
  <path class="st3" d="M226.81,150.35c.1.05,1.43,1.61,1.26,1.76l-1.08-.38c-1.42,1.39-.69-.59-.94-1.43.26,0,.52-.07.76.05Z"/>
  <path class="st3" d="M168.95,119.15c-.34-.37-.39-1.15.24-1.16,1-.02,1.55,1.67.65,1.59-.23-.16-.73-.25-.89-.43Z"/>
  <path class="st0" d="M101,156.6c.26,1.76.74,3.14,1.77,4.59.23.33,1.68,2.02,1.91,2.14.44.23,1.28-.82,1.42-1.23-.17-1.52-1.98-2.48-1.32-4.13.47.36.18.96.41,1.41.73,1.44,4.58,4.42,6.11,5.2.53.27,4.29,1.85,4.49,1.67l-.1-.41c-2.82-1.36-5.77-2.41-7.78-4.94,0-.2,3.01-2.23,3.37-2.29.95-.15,1.99,1.57,3.49.87.3-.14.45-.69.91-.7.97-.02,3.53,2.26,5.52,2.38.92.05,1.56-.55,2.37-.57,2.57-.08,4.5,1.74,6.45,3.25.54.41.98,1.12,1.53,1.5,1.66,1.13,2.8.69,4.48.97,2.01.33,4.33,1.92,6.94,2.15,1.93.17,3.25-.59,5.02-.38,1.18.14,1.12.59,1.86.96,1.49.75,3.12.41,4.7.25.4.4-1.48,3.81-1.77,4.6-2.92,8.04-3.33,20.13-2.45,28.6.11,1.04,1.08,5.25.6,5.89-.39.42-.79.46-1.33.51-2.35.22-5.3-.11-7.65-.45-14.34-2.06-30.85-5.83-42.32-15.03-.8-.64-3.63-3.03-3.82-3.86-.11-.52.03-1.06-.05-1.56-.19-1.21-2.51-2.84-3.32-3.74-2.76-3.09-5.5-6.81-7.14-10.63-.48-1.11-2.31-5.96-2.42-6.89s.58-1.67.58-2.37c0-.66-.52-.92-.61-1.42-.15-.82,1.11-5.5,1.91-5.51,1.16,1.28,1.65-.41,2.93-.24.28.27-1.04,1.66-1.29,2.04-.57.86-.43,2-1.8,1.63l-.34.46.82,2.13h.57c.18-.69.63-1.49,1.43-1.4.05.98-.22,2.31-.92,3.02-.19.19-.53.15-.64.26-.18.18-.45,1.6-1.02,1.89l.87,2.29.61-2.42.2-.18.4.38,1.21-2.62c1.2.38.18,1.89.16,2.77-.02.79-.02,1.71-.06,2.58s.72,2.04-.6,2.73c.04-.78-.1-1.6-.81-2.02.17,1.52,0,3.91,1.01,5.05l-.2-1.82c.36.05.73,1.55,1.21,1.21l.3-1.62.52-.1c.14.58.88.8,1.07,1.17.72,1.43.63,4.27,1.05,5.79,2.6,3.22,5.8,5.99,9.59,7.69-2.27-2.76-5.96-4.37-7.27-7.87l1.72.2c.18-.36.06-.85.15-1.26.48-2.16,2.93-8.07,4.04-10.1.82-1.5,1.97-2.36,2.97-3.7h.41c1.86,1.62,4.25,3.17,6.66,3.75-2.82-2.52-7.36-4.47-9.13-7.94-.64-1.26-2.5-5.47.4-4.54Z"/>
  <path class="st0" d="M214.68,175.01c3.37,3.36,2.45,8.28-2.34,9.54-.54.14-1.08.01-1.62.2-.57.2-2.79,2.07-3.66,2.6-4.59,2.77-9.72,3.45-15.03,3.15-.65-.04-2.71-.57-3.04-.53-.18.02-1.42,1.26-2.11,1.45-1.26.35-3.5.4-4.66-.2-2.91-1.48-3.22-4.59-1.84-7.32,1.9-3.78,8.19-3.79,10.1-.13.41.79.25,1.6.79,2.29,5.46,1.35,10.94-.28,15.59-3.25-1.13-2.38-1.67-3.91-.15-6.31,1.43-2.26,6.08-3.37,7.98-1.48ZM214.08,177.01c-.64-.64-2.13-.55-2.91-1.02-2.38.5-3.37,2.29-2.6,4.6.27.35.29.06.51-.11,1.36-1.04.47-3.26,3.05-2.64,2.17.52,1.16,2.37.99,3.65-.1.75.99-.18,1.18-.43.82-1.06.69-3.15-.23-4.06ZM188.69,185.64c-.2-2.52-4.22-3.29-5.54-1.6-2.52,3.21.19,6.14,3.72,5.24-.1-.33-.68-.22-1.08-.43-1.08-.56-1.7-2.59-.57-3.2,1.38-.74,2.08-.35,3.48,0ZM207.47,184.64c-1.13-.18-1.97.67-2.89,1.05-3.79,1.54-7.23,2.19-11.36,1.99-1.1-.05-2.01-.85-2.72.3.29.36.66.46,1.1.51,3.96.46,8.25.06,11.95-1.38.28-.11,4.5-2.01,3.9-2.46Z"/>
  <path class="st0" d="M187.88,200.59c-.04.37.68.21.89.18,2.34-.35,4.7-.64,7.03-1.05,2.93-.51,6.71-2.08,9.37-2.35.86-.09,1.55.26,2.55.14,2.08-.24,5.28-1.92,7.47-2.63,1.37-.44,2.81-.77,4.19-1.16-.12.24-.07.52-.16.74-.64,1.47-3.61,3.74-5.03,4.67-2.75,1.82-5.59,1.97-8.75,2.76-5.03,1.27-9.79,2.37-15.05,2.73-.64.04-1.28-.02-1.92,0l.2-.5c6.8-1.12,13.59-2.6,19.99-5.15l-.2-.6c-1.9.37-5.79,2.15-7.57,2.01-1.99-.16-3.57.62-5.69.99-3.32.57-7.11,1.05-10.48,1.44-4.16.49-11.85,1.62-15.74,1-.58-.09-1.2-.58-1.88-.74-2-.48-4.39-.36-6.43-.85-.34-.08-.59.2-.49-.41,4.32.22,8.69.08,13.03-.19,6.97-.44,11.99-1.79,18.64-3.58,4.32-1.16,9.68-2.05,13.22-4.57l7.69-3.13.68.67c-.11.31-.27.63-.46.9-1.38,1.93-10.97,5.21-13.62,5.97-3.79,1.09-7.7,1.75-11.51,2.73Z"/>
  <path class="st0" d="M171.52,172.72c1.41-.29,2.93-.24,4.34-.41,6.73-.81,13.22-2.76,19.64-4.79,1.4-.44,3.05-1.84,4.29-.76-1.76,1.41-4.08,2.35-6.21,3.08-5.33,1.81-9.82,1.99-15.09,3.09-.48.1-.54.52-1.2.61-.71.1-4.37-.21-5.07-.41-.28-.08-.63-.02-.7-.41Z"/>
  <path class="st0" d="M193.74,180.19c.56,0,1.11.04,1.67-.05,1.67-.27,5.17-2.2,6.33-2.17.27,0,.55.22.49.5-.23,1.12-7.68,3.35-8.99,3.35-1.4,0-2.63-.56-3.95-.93l.04-1.08c4.91-.68,9.58-2.44,13.7-5.19,1.24-.24.69.59.11,1.12-2.68,2.48-5.89,2.25-8.64,3.68-.3.16-.62.44-.75.76Z"/>
  <path class="st0" d="M185.46,172.72c2.83-.05,5.52-.96,8.18-1.81,2.66-.85,5.63-1.87,8.04-3.27.62-.36,2.69-2.13,3.17-1.89,1.19.6-.84,1.94-1.35,2.3-3.57,2.49-10.39,4.9-14.71,5.29-.73.06-3.28.33-3.33-.6Z"/>
  <path d="M193.54,183.02c.07-1.02,1.28-.68,1.87-.86,1.56-.46,3.28-.84,4.76-1.3,1.15-.36,2.53-1.21,3.67-1.68.19,2.11-3.52,2.27-5.21,2.77-.68.2-1.32.7-2.01.82-.94.16-2.1.05-3.08.25Z"/>
  <path d="M89.78,172.27c-.24-.28-1-3.53-.35-3.58,2.17.46.89,1.86,1.09,3.5-.08.39-.55.3-.74.08Z"/>
  <path d="M89.67,160.63c.9-.07-.02,2.38-.33,2.71-1.37,1.43-1.52-2.55.33-2.71Z"/>
  <path d="M92.61,176.1c.41.21,2.15,3.11,1.96,3.28-2.06.43-2.04-2.48-2.22-3.94l.26.66Z"/>
  <path d="M91.95,154.95c.21.19-1.2,1.81-1.31,1.81-.87.03.15-2.37,1.31-1.81Z"/>
  <path d="M87.71,161.2l-.58-.88,1.29-1.34c.57.36-.14.63-.34,1.07-.17.36-.29.76-.37,1.15Z"/>
  <path d="M233.18,127.22c.4.48,2.31,1.59,2.97,2.17,1.25,1.09,3.1,2.7,4.14,3.94.45.53,2.23,2.96,2.09,3.49-.05.19-.24.32-.38.46l-5.05-2.34,1.21-.4c-.26-1.34-3.73-.99-3.59-1.92,2.79-2.42-.84-1.32-1.04-1.52.02-1.82-.66-2.52-1.93-3.62-.26-.22-1.27-.75-1.31-.92-.12-.5,1.44-.87,1.72-1.27.81.33.8,1.49,1.17,1.93Z"/>
  <path d="M190.87,100.26c.15.09,1.47,1.72,1.56,1.97.22.58.21,1.4.39,2.03.34,1.22,1.25,2.05.31,3.42-.9,0-.5-1.06-.65-1.67-.42-1.75-1.59-2.92-2.38-4.49-.35-.3-.19.44-.16.56.22.75,1.94,4.51,1.57,4.99-.21-.08-.48-.17-.61-.35-.21-.27-1.19-2.23-1.35-2.63-.28-.71-1.2-4.71-.86-5.1.64-.05.72.89,1.21,1.11.33.15.75.03.96.15Z"/>
  <path d="M200.55,110.78c.13.17,1.2,1.99,1.23,2.11.24.94-.39,1.4.24,2.78.92,2.04,2.97,2.81,4.25,4.53-.84-.2-3.53-1.37-4.01-1.94-1.02-1.2-.77-2.5-1.13-3.72-.24-.81-1.5-1.66-1.72-2.53-.15-.6.66.03.6-.59-.06-.58-.81-.99-.61-1.72l1.15,1.07Z"/>
  <path d="M191.52,114.55c-2.71-1.87-2.05-5.64-2.82-8.48.43-.06.66.34.89.62.85,1.02,1.31,2.48,2.12,3.54.1.65-1.25.3-1.19.98.25,1.21,1.25,2.02,1,3.35Z"/>
  <path d="M197.76,116.15l-.49.21c-1.17-1.31-1.17-3.13-1.76-4.69-.42-1.11-1.25-2.01-1.57-3.17.69-.52,2.47,1.9,2.71,2.44.34.77.22,1.48.42,2.21.27,1.02.95,1.88.7,3Z"/>
  <path d="M196.77,117.38c-.47.08-.66-.03-1.02-.29-1.29-.95-2.66-5.8-2.73-7.39-.01-.33-.2-.53.22-.8l3.53,8.48Z"/>
  <path d="M174.76,96.58c.49.61,1.64.93,1.98,1.56.47.88,1.09,4.16-.66,2.88-1.33-.97-1.08-2.97-1.31-4.44Z"/>
  <path d="M207.88,134.54c-2.14.18-3.32.02-4.75-1.61-.31-.35-1.66-2.31-.3-1.72.54.23,1.31,1.09,1.96,1.48,1.01.6,2.38.92,3.09,1.86Z"/>
  <path d="M202.22,120.41c-1.26-.13-1.33-.94-1.85-1.68-.25-.36-.6-.6-.82-1-.73-1.35-.34-2.33-.36-3.78,1.13.54.82,1.64,1.1,2.43.46,1.29,1.46,2.7,1.93,4.03Z"/>
  <path d="M183.64,97.79c.17-.19,1.35.69,1.38,1.15.03.35-.56.52-.6,1.17-.06,1.09.67,2.67.79,3.69.1.82-.56.85-.93.11-.34-.7-.94-5.78-.65-6.11Z"/>
  <path d="M166.88,99c.36.33-1.84,3.15-2.32,3.43-.25,0-.9-2.04-.68-2.39.99-.38,1.87-1.17,3-1.04Z"/>
  <path d="M181.63,100.42c.3.11.5.77.64,1.08.47,1.06,1.19,2.69,1.25,3.81.01.25.2.33-.18.56-1.58.23-1.68-4.42-1.71-5.45Z"/>
  <path d="M188.87,140.22c.4.62-.7.84-1.24.75-.25-.04-2.87-1.22-3.04-1.37-.38-.32-.43-1.21.32-.99.55.55,3.76,1.28,3.96,1.6Z"/>
  <path d="M203.43,135.76c-.59.59-4.09-.26-3.64-1.61,1.4.07,3.23-.05,3.64,1.61Z"/>
  <path d="M150.52,134.95c.42.42-1.1.87-1.62.72-.69-.19-1.53-1.56-.91-2.14.92-.87,1.59,1.62,2.53,1.42Z"/>
  <path d="M191.11,119.2c-2.07,1.01-2.29-.55-2.83-2.22.26-.26,2.64,1.76,2.83,2.22Z"/>
  <path d="M185.86,105.46c-.12,1.31.72,1.74,1.22,2.51.65,1-.71,1.21-1.27.26-.26-.45-1.04-2.87.04-2.77Z"/>
  <path d="M184.05,91.73c.59,2.34-.4,2.06-2.22,1.61-.39-.42,1.87-1.54,2.22-1.61Z"/>
  <path d="M178.19,96.38l.02-1.59c.28.02,2.42-1,2.39-.33-.28.26-2.09,2.29-2.42,1.92Z"/>
  <path d="M146.01,133.97c.45-.09,1.24.92,1.49,1.28.19.27.37.3,0,.61-1.06.69-2.78-1.64-1.49-1.89Z"/>
  <path d="M179.2,96.58c-.05-.07,1.18-1.08,1.35-1.17.24-.14.35-.34.57-.04.52,1.64-.76,1.81-1.92,1.22Z"/>
  <path d="M184.85,90.52c-.83-.09-1.27.7-1.91,1.02-.29.15-.18.29-.5-.11.25-1,2.01-2.34,2.42-.91Z"/>
  <path d="M187.28,134.95h-1.82s0-1.01,0-1.01c.2-.21,1.76.56,1.82,1.01Z"/>
  <path d="M196.97,125.66c-.84-.04-2.51-.46-1.28-1.18l.28.04c.27.07,1.25.9,1,1.13Z"/>
  <path d="M176.6,157.34l-.14-.78c.45-.89,3.52-1.85,4.51-1.97,1.62-.19,1.05.59,2.06,1.46,0,.46-1.87.27-2.29.33-1.48.2-2.68,1-4.14.96Z"/>
  <path d="M202.83,155.15c-2.05-.13-3.24-2.05-4.75-3.23-.73-.57-1.92-.76-1.71-1.82,2.22.01,4.21,2.04,5.56,3.63.16.19,1.06,1.28.9,1.42Z"/>
  <path d="M165.67,157.77c-.85-.82,3.85-3.02,4.39-3.18.78-.22,2.36-.55,1.76.75-.25.54-2.35,1.09-3.07,1.38-1.01.41-1.79,1.32-3.09,1.05Z"/>
  <path d="M160.11,152.81c.5-.2,1.06.42,1.02.94-.74.63-2.47,4.67-3.25,4.61-.22-.17-.42-.48-.47-.75-.13-.77,1.87-4.48,2.69-4.81Z"/>
  <path d="M117,146.06l1.13.18.19,1.04c-.5.72-1.5-.58-1.32-1.22Z"/>
  <path d="M133.15,109.91c.22.19-.65.98-.8,1.11-.47.41-2.29,1.9-2.72,2.12-.32.17-.53.26-.91.19.77-1.86,2.25-3.65,4.44-3.43Z"/>
  <path d="M130.73,113.54c.49-1.44,1.96-1.61,3.02-2.33,1.16-.8,2.05-2.17,3.24-2.92-.27,1.03-1.5,2.32-2.32,3.03-.48.41-3.55,2.53-3.93,2.22Z"/>
  <path d="M137.39,101.83c.07.3-.02.39-.14.6-.38.63-2.53,1.82-3.08,2.63.12-2.14,1.17-2.98,3.23-3.23Z"/>
  <path d="M142.39,93.21c.22.25,1.03,2.38.86,2.56l-2.62-1.92,1.14-.87c.17-.03.51.09.62.23Z"/>
  <path d="M148.1,98.6c-.4.97-.78,1.69-1.02,2.72s-.63-.56-.97-.81c.31-.2,1.62-2.26,1.99-1.91Z"/>
  <path d="M145.87,103.24l.61,2.14-.51.49c-.02-.72-.47-1.43-.51-2.12-.02-.42-.11-.59.4-.5Z"/>
  <path d="M267.41,111.17c.98.96-2.39,2.9-3.14,3.14-1.71.56-1.05-1.01-1.01-2.14.86-.42,3.35-1.78,4.15-1Z"/>
  <path d="M245.79,120.25c.32-.09,1.54,0,1.63.46.03.35-1.42,1.61-1.72,1.69-.34.09-1.65-.25-1.37-.79.08-.16,1.3-1.33,1.46-1.37Z"/>
  <path d="M125.48,127.48c.04.68-1.64,1.57-1.81.9-.28-1.06,1.06-1.28,1.81-.9Z"/>
  <polygon points="123.26 130.3 121.44 130 122.73 129.31 123.26 130.3"/>
  <path d="M138.63,137.55c.31-1.77.95-.81,1.38.33-.39.6-.9-.27-1.38-.33Z"/>
  <path class="st1" d="M188.69,185.64c-1.39-.34-2.1-.74-3.48,0-1.12.61-.5,2.64.57,3.2.4.21.99.09,1.08.43-3.53.91-6.24-2.02-3.72-5.24,1.32-1.68,5.34-.91,5.54,1.6Z"/>
  <path class="st1" d="M214.08,177.01c.91.91,1.05,3,.23,4.06-.19.25-1.28,1.19-1.18.43.17-1.28,1.17-3.13-.99-3.65-2.58-.62-1.68,1.6-3.05,2.64-.22.17-.24.46-.51.11-.78-2.31.22-4.11,2.6-4.6.78.47,2.26.38,2.91,1.02Z"/>
  <path class="st1" d="M207.47,184.64c.6.44-3.62,2.35-3.9,2.46-3.7,1.45-8,1.84-11.95,1.38-.44-.05-.81-.14-1.1-.51.7-1.14,1.62-.35,2.72-.3,4.13.2,7.56-.45,11.36-1.99.92-.37,1.76-1.23,2.89-1.05Z"/>
</svg>