<?xml version="1.0" encoding="UTF-8"?>
<svg xmlns="http://www.w3.org/2000/svg" viewBox="22 173 256 58">
  <defs>
    <style>
      .w0 { fill: #005f9b; }
      .w1 { fill: #1689ca; }
      .w2 { fill: #6bb7e5; }
    </style>
  </defs>
  <path class="w0" d="M190.22,228.34c-16.49,0-21.07-7.18-24.65-15.18-2.52-5.64-4.19-9.36-18.37-9.36s-15.98,3.71-18.85,9.32c-4.09,8.02-9.21,15.21-26.7,15.21-19.88,0-23.46-9.5-25.25-18.4-1.07-5.32-1.23-6.13-7.84-6.13-20.28,0-27.76,17-28.07,17.72l-11.9-4.95c.43-1.05,10.92-25.66,39.97-25.66,17.15,0,19.23,10.32,20.47,16.48,1.11,5.53,1.62,8.06,12.62,8.06s12.53-2.91,15.22-8.19c4.4-8.62,10.03-16.35,30.33-16.35s26.12,8.03,30.13,16.98c2.33,5.19,3.39,7.56,12.9,7.56s11.11-2.67,13.66-7.98c4.19-8.73,9.57-16.56,29.12-16.56,37.98,0,43.15,25.03,43.35,26.09l-12.66,2.39c-.13-.54-3.83-15.6-30.69-15.6-13.06,0-14.83,3.68-17.5,9.26-3.1,6.45-7.34,15.28-25.28,15.28Z"/>
  <path class="w1" d="M190.63,224.11c-16.49,0-21.07-7.18-24.65-15.18-2.52-5.64-4.99-9.83-19.16-9.83s-15.19,4.18-18.06,9.8c-4.09,8.02-9.21,15.21-26.7,15.21-19.88,0-21.68-9.81-23.47-18.71-1.07-5.31-3.01-5.83-9.61-5.83-20.77,0-30.92,20.67-31.02,20.88l-12.21-4.63c.55-1.15,14.43-29.13,43.23-29.13,17.15,0,19.23,10.31,20.47,16.48,1.11,5.53,1.62,8.06,12.62,8.06s12.53-2.91,15.22-8.19c4.4-8.62,10.03-16.35,30.33-16.35s26.12,8.03,30.13,16.98c2.33,5.19,3.39,7.56,12.9,7.56s11.11-2.67,13.66-7.97c4.19-8.73,9.57-16.56,29.12-16.56,30.59,0,41.49,20.03,42.99,30.61l-11.37,1.84c-.31-1.94-5.3-19.57-31.62-19.57-13.06,0-14.83,3.68-17.51,9.25-3.1,6.45-7.34,15.28-25.28,15.28Z"/>
  <path class="w2" d="M189.76,219.98c-16.49,0-18.43-7.33-22.02-15.33-2.52-5.64-6.83-9.21-21.01-9.21s-15.98,3.71-18.85,9.32c-4.09,8.02-9.21,15.21-26.7,15.21-19.88,0-18.97-9.81-20.76-18.71-1.07-5.31-5.72-5.83-12.32-5.83-20.52,0-31.78,24.27-31.9,24.51l-12.31-4.57c.59-1.31,15.29-32.83,44.2-32.83,17.15,0,19.23,10.31,20.47,16.48,1.11,5.53,1.62,8.06,12.62,8.06s12.53-2.91,15.22-8.19c4.4-8.62,10.03-16.35,30.33-16.35s26.12,8.03,30.13,16.98c2.33,5.19,3.39,7.56,12.9,7.56s11.11-2.67,13.66-7.97c4.19-8.73,9.57-16.56,29.12-16.56,30.46,0,45.04,22.51,47.08,34.44l-12.52,1.81c-.17-.94-7.52-23.37-34.56-23.37-13.06,0-14.83,3.68-17.5,9.25-3.1,6.45-7.34,15.28-25.28,15.28Z"/>
</svg>
